<?xml version="1.0" encoding="utf-8"?>
<!-- Generator: Adobe Illustrator 24.2.0, SVG Export Plug-In . SVG Version: 6.00 Build 0)  -->
<svg version="1.1" id="Layer_1" xmlns="http://www.w3.org/2000/svg" xmlns:xlink="http://www.w3.org/1999/xlink" x="0px" y="0px"
	 viewBox="0 0 512 512" style="enable-background:new 0 0 512 512;" xml:space="preserve">
<style type="text/css">
	.st0{fill:#ff7925;}
</style>
<g id="bedroom-bed-hotel-2">
	<path class="st0" d="M488,328h-32v-16h-16v-24h40c2.6,0,5-1.2,6.5-3.4c1.5-2.1,1.9-4.8,1.1-7.2l-24-72c-1.1-3.2-4.2-5.4-7.6-5.4
		h-48c-3.4,0-6.5,2.2-7.6,5.4l-24,72c-0.8,2.4-0.4,5.1,1.1,7.2s3.9,3.4,6.5,3.4h40v24h-16v16h-32c-4.4,0-8,3.6-8,8v152
		c0,4.4,3.6,8,8,8h24c4.4,0,8-3.6,8-8v-16h48v16c0,4.4,3.6,8,8,8h24c4.4,0,8-3.6,8-8V336C496,331.6,492.4,328,488,328z M395.1,272
		l18.6-56h36.5l18.6,56H395.1z M392,480h-8v-8h8V480z M480,480h-8v-8h8V480z M480,456h-96v-48h96V456z M480,392h-96v-48h96V392z"/>
	<path class="st0" d="M336,340.5V272c0-13.2-10.8-24-24-24H56c-13.2,0-24,10.8-24,24v68.5c-9.9,5.7-16,16.1-16,27.5v120
		c0,4.4,3.6,8,8,8h32c4.4,0,8-3.6,8-8v-24h240v24c0,4.4,3.6,8,8,8h32c4.4,0,8-3.6,8-8V368C352,356.6,345.9,346.1,336,340.5z M48,272
		c0-4.4,3.6-8,8-8h256c4.4,0,8,3.6,8,8v64h-26.8c1.8-3.7,2.8-7.8,2.8-12c0-15.5-12.5-28-28-28h-40c-15.5,0-28,12.5-28,28
		c0,4.2,1,8.3,2.8,12h-37.6c1.8-3.7,2.8-7.8,2.8-12c0-15.5-12.5-28-28-28h-40c-15.5,0-28,12.5-28,28c0,4.2,1,8.3,2.8,12H48V272z
		 M280,324c0,6.6-5.4,12-12,12h-40c-6.6,0-12-5.4-12-12s5.4-12,12-12h40C274.6,312,280,317.4,280,324z M152,324c0,6.6-5.4,12-12,12
		h-40c-6.6,0-12-5.4-12-12s5.4-12,12-12h40C146.6,312,152,317.4,152,324z M48,480H32v-16h16V480z M336,480h-16v-16h16V480z M336,448
		H32v-24h304V448z M336,408H32v-8h304V408z M336,384H32v-16c0-8.8,7.2-16,16-16h272c8.8,0,16,7.2,16,16V384z"/>
	<rect x="416" y="352" class="st0" width="32" height="16"/>
	<rect x="416" y="416" class="st0" width="32" height="16"/>
</g>
</svg>
