<?xml version="1.0" encoding="utf-8"?>
<!-- Generator: Adobe Illustrator 24.2.0, SVG Export Plug-In . SVG Version: 6.00 Build 0)  -->
<svg version="1.1" id="Layer_1" xmlns="http://www.w3.org/2000/svg" xmlns:xlink="http://www.w3.org/1999/xlink" x="0px" y="0px"
	 viewBox="0 0 512 512" style="enable-background:new 0 0 512 512;" xml:space="preserve">
<style type="text/css">
	.st0{fill:#ff7925;}
</style>
<g id="XMLID_1710_">
	<g id="XMLID_1233_">
		<path id="XMLID_1397_" class="st0" d="M462,54h-63.4c-5.5,0-10,4.5-10,10s4.5,10,10,10H462c16.5,0,30,13.5,30,30v6H20v-6
			c0-16.5,13.5-30,30-30h268.6c5.5,0,10-4.5,10-10s-4.5-10-10-10H50C22.4,54,0,76.4,0,104v304c0,27.6,22.4,50,50,50h412
			c27.6,0,50-22.4,50-50V104C512,76.4,489.6,54,462,54z M462,438H50c-16.5,0-30-13.5-30-30v-6h199.7c5.5,0,10-4.5,10-10
			s-4.5-10-10-10H20V130h472v252H299.7c-5.5,0-10,4.5-10,10s4.5,10,10,10H492v6C492,424.5,478.5,438,462,438z"/>
		<path id="XMLID_1437_" class="st0" d="M358.5,74c2.6,0,5.2-1.1,7.1-2.9c1.9-1.9,2.9-4.4,2.9-7.1c0-2.6-1.1-5.2-2.9-7.1
			s-4.4-2.9-7.1-2.9c-2.6,0-5.2,1.1-7.1,2.9c-1.9,1.9-2.9,4.4-2.9,7.1c0,2.6,1.1,5.2,2.9,7.1C353.3,72.9,355.9,74,358.5,74z"/>
		<path id="XMLID_1451_" class="st0" d="M259.7,382c-2.6,0-5.2,1.1-7.1,2.9s-2.9,4.4-2.9,7.1s1.1,5.2,2.9,7.1s4.4,2.9,7.1,2.9
			s5.2-1.1,7.1-2.9c1.9-1.9,2.9-4.4,2.9-7.1s-1.1-5.2-2.9-7.1C264.9,383.1,262.3,382,259.7,382z"/>
		<path id="XMLID_1682_" class="st0" d="M174.3,150H69.8C53.3,150,40,163.3,40,179.8v104.5c0,16.4,13.3,29.8,29.8,29.8h104.5
			c16.4,0,29.8-13.3,29.8-29.8V179.8C204,163.3,190.7,150,174.3,150z M69.8,170h104.5c5.4,0,9.8,4.4,9.8,9.8v96.5
			c-6.2-16.2-18.6-29.3-34.2-36.6c4.4-5.8,7-13.1,7-20.9c0-19.2-15.6-34.8-34.8-34.8s-34.8,15.6-34.8,34.8c0,7.8,2.6,15.1,7,20.9
			c-15.6,7.2-28,20.4-34.2,36.6v-96.5C60,174.4,64.4,170,69.8,170z M107.2,218.8c0-8.2,6.6-14.8,14.8-14.8s14.8,6.6,14.8,14.8
			s-6.6,14.8-14.8,14.8S107.2,226.9,107.2,218.8z M122,253.6c23.6,0,43.1,17.7,46,40.4H76C78.9,271.2,98.4,253.6,122,253.6z"/>
		<path id="XMLID_1814_" class="st0" d="M313.6,339.1v4.9c0,5.5,4.5,10,10,10s10-4.5,10-10v-4.9h78.9v4.9c0,5.5,4.5,10,10,10
			s10-4.5,10-10v-4.9H451c5.5,0,10-4.5,10-10v-40.4c0-8.7-4-16.4-10.2-21.5l2.6-2.6c3.9-3.9,3.9-10.2,0-14.1
			c-3.9-3.9-10.2-3.9-14.1,0l-0.7,0.7l-5.6-22.7c-3.2-13.1-14.8-22.2-28.3-22.2h-63.4c-13.5,0-25.1,9.1-28.3,22.2l-5.6,22.7
			l-0.7-0.7c-3.9-3.9-10.2-3.9-14.1,0s-3.9,10.2,0,14.1l2.6,2.6c-6.2,5.1-10.2,12.9-10.2,21.5v40.4c0,5.5,4.5,10,10,10H313.6
			L313.6,339.1z M441,319.1H305v-30.4c0-4.4,3.6-7.9,7.9-7.9H433c0,0,0,0,0.1,0l0,0c4.4,0,7.9,3.6,7.9,7.9V319.1L441,319.1z
			 M341.3,226.3h63.4c4.2,0,7.9,2.9,8.9,7l6.8,27.5h-94.6l6.8-27.5C333.4,229.2,337.1,226.3,341.3,226.3z"/>
		<path id="XMLID_2674_" class="st0" d="M326.4,290c-2.6,0-5.2,1.1-7.1,2.9c-1.9,1.9-2.9,4.4-2.9,7.1s1.1,5.2,2.9,7.1
			c1.9,1.9,4.4,2.9,7.1,2.9c2.6,0,5.2-1.1,7.1-2.9c1.9-1.9,2.9-4.4,2.9-7.1c0-2.6-1.1-5.2-2.9-7.1C331.6,291,329,290,326.4,290z"/>
		<path id="XMLID_2675_" class="st0" d="M419.6,290c-2.6,0-5.2,1.1-7.1,2.9c-1.9,1.9-2.9,4.4-2.9,7.1s1.1,5.2,2.9,7.1
			c1.9,1.9,4.4,2.9,7.1,2.9c2.6,0,5.2-1.1,7.1-2.9c1.9-1.9,2.9-4.4,2.9-7.1s-1.1-5.2-2.9-7.1C424.8,291,422.3,290,419.6,290z"/>
		<path id="XMLID_2676_" class="st0" d="M234,178h72.3c5.5,0,10-4.5,10-10s-4.5-10-10-10H234c-5.5,0-10,4.5-10,10S228.5,178,234,178
			z"/>
		<path id="XMLID_2677_" class="st0" d="M234,224h25c5.5,0,10-4.5,10-10s-4.5-10-10-10h-25c-5.5,0-10,4.5-10,10S228.5,224,234,224z"
			/>
		<path id="XMLID_2678_" class="st0" d="M269,260c0-5.5-4.5-10-10-10h-25c-5.5,0-10,4.5-10,10s4.5,10,10,10h25
			C264.5,270,269,265.5,269,260z"/>
		<path id="XMLID_2679_" class="st0" d="M346.4,178h72.3c5.5,0,10-4.5,10-10s-4.5-10-10-10h-72.3c-5.5,0-10,4.5-10,10
			S340.9,178,346.4,178z"/>
		<path id="XMLID_2680_" class="st0" d="M96.9,334.3H50c-5.5,0-10,4.5-10,10s4.5,10,10,10h46.9c5.5,0,10-4.5,10-10
			S102.4,334.3,96.9,334.3z"/>
		<path id="XMLID_2681_" class="st0" d="M194,334.3h-47c-5.5,0-10,4.5-10,10s4.5,10,10,10h47c5.5,0,10-4.5,10-10
			S199.5,334.3,194,334.3z"/>
	</g>
</g>
</svg>
