<?xml version="1.0" encoding="utf-8"?>
<!-- Generator: Adobe Illustrator 24.2.0, SVG Export Plug-In . SVG Version: 6.00 Build 0)  -->
<svg version="1.1" id="Capa_1" xmlns="http://www.w3.org/2000/svg" xmlns:xlink="http://www.w3.org/1999/xlink" x="0px" y="0px"
	 viewBox="0 0 480 480" style="enable-background:new 0 0 480 480;" xml:space="preserve">
<style type="text/css">
	.st0{fill:#ff7925;}
</style>
<g>
	<g>
		<path class="st0" d="M72,272c-22.1,0-40,17.9-40,40s17.9,40,40,40s40-17.9,40-40S94.1,272,72,272z M72,336c-13.3,0-24-10.7-24-24
			s10.7-24,24-24s24,10.7,24,24S85.3,336,72,336z"/>
	</g>
</g>
<g>
	<g>
		<rect x="128" y="432" class="st0" width="16" height="16"/>
	</g>
</g>
<g>
	<g>
		<rect x="96" y="432" class="st0" width="16" height="16"/>
	</g>
</g>
<g>
	<g>
		<rect x="64" y="432" class="st0" width="16" height="16"/>
	</g>
</g>
<g>
	<g>
		<rect x="368" y="64" class="st0" width="16" height="16"/>
	</g>
</g>
<g>
	<g>
		<rect x="336" y="80" class="st0" width="16" height="16"/>
	</g>
</g>
<g>
	<g>
		<path class="st0" d="M472,0H280c-4.4,0-8,3.6-8,8v48H104c-3.9,0-7.2,2.8-7.9,6.6L65.3,240H56v-56c0-4.4-3.6-8-8-8H8
			c-4.4,0-8,3.6-8,8v32c0,4.4,3.6,8,8,8h32v16c-22.1,0-40,17.9-40,40v64c0,19,13.4,35.4,32,39.2V472c0,4.4,3.6,8,8,8h128
			c4.4,0,8-3.6,8-8v-88h168v64c0,17.7,14.3,32,32,32s32-14.3,32-32V224h32c22.1,0,40-17.9,40-40V8C480,3.6,476.4,0,472,0z M110.7,72
			H272v24H136c-3.9,0-7.2,2.8-7.9,6.7L105.2,240H81.5L110.7,72z M16,208v-16h24v16H16z M160,464H48v-80h16v32h16v-32h16v32h16v-32
			h16v32h16v-32h16V464z M344,336H144v-16h200V336z M344,304H144v-16h200V304z M344,272H136c-4.4,0-8,3.6-8,8v64c0,4.4,3.6,8,8,8
			h208v16H40c-13.3,0-24-10.7-24-24v-64c0-13.3,10.7-24,24-24h304V272z M344,240H121.4l21.3-128H272v72c0,22.1,17.9,40,40,40h32V240
			z M464,184c0,13.3-10.7,24-24,24h-40c-4.4,0-8,3.6-8,8v232c0,8.8-7.2,16-16,16s-16-7.2-16-16V216c0-4.4-3.6-8-8-8h-40
			c-13.3,0-24-10.7-24-24v-40h176V184z M464,128H288V16h16v88h16V16h16v48h16V16h16v32h16V16h16v88h16V16h16v72h16V16h16V128z"/>
	</g>
</g>
</svg>
