<?xml version="1.0" encoding="utf-8"?>
<!-- Generator: Adobe Illustrator 24.2.0, SVG Export Plug-In . SVG Version: 6.00 Build 0)  -->
<svg version="1.1" id="Layer_1" xmlns="http://www.w3.org/2000/svg" xmlns:xlink="http://www.w3.org/1999/xlink" x="0px" y="0px"
	 viewBox="0 0 512 512" style="enable-background:new 0 0 512 512;" xml:space="preserve">
<style type="text/css">
	.st0{fill:#80D6FF;}
</style>
<g>
	<g>
		<path class="st0" d="M175.8,404.8c-4.1,0-7.5,3.4-7.5,7.5v32.1c0,4.1,3.4,7.5,7.5,7.5s7.5-3.4,7.5-7.5v-32.1
			C183.3,408.2,180,404.8,175.8,404.8z"/>
	</g>
</g>
<g>
	<g>
		<path class="st0" d="M336.2,404.8c-4.1,0-7.5,3.4-7.5,7.5v32.1c0,4.1,3.4,7.5,7.5,7.5s7.5-3.4,7.5-7.5v-32.1
			C343.7,408.2,340.3,404.8,336.2,404.8z"/>
	</g>
</g>
<g>
	<g>
		<path class="st0" d="M115.1,245.3c-17.4-8.7-50.1-8.8-51.5-8.8c-4.1,0-7.5,3.4-7.5,7.5s3.4,7.5,7.5,7.5c8.4,0,32.9,1.3,44.7,7.2
			c1.1,0.5,2.2,0.8,3.3,0.8c2.8,0,5.4-1.5,6.7-4.1C120.3,251.6,118.8,247.1,115.1,245.3z"/>
	</g>
</g>
<g>
	<g>
		<path class="st0" d="M39.6,388.8c-4.1,0-7.5,3.4-7.5,7.5v48.1c0,4.1,3.4,7.5,7.5,7.5s7.5-3.4,7.5-7.5v-48.1
			C47.1,392.1,43.7,388.8,39.6,388.8z"/>
	</g>
</g>
<g>
	<g>
		<path class="st0" d="M494.6,360.8l-30.4-15.2c-0.2-0.1-0.3-0.3-0.3-0.5v-15.3c12.5-8.6,21.3-22.2,23.5-38.1
			c5.6-9.7,8.6-20.6,8.6-31.8c0-20.8-10-39.2-25.4-50.8c0.9-3,1.4-6.1,1.4-9.3c0-19.6-17.7-35.6-39.6-35.6s-39.6,16-39.6,35.6
			c0,3.2,0.5,6.3,1.4,9.3c-9.2,6.9-16.4,16.3-20.8,27.1c-1.9-18.3-3.8-39.9-5.7-65c-2.5-33.2-14.4-61.2-34.5-81.1
			C313.2,70.4,286.5,60,256,60s-57.2,10.4-77.2,30.1c-20.1,19.8-32.1,47.9-34.5,81.1c-0.7,8.8-1.3,17.2-2,25.1H71.6
			C45.4,196.4,24,217.7,24,244v0.4c0,6.1,1.4,12.2,4.2,17.7l3.8,7.7V282c0,19.4,9.6,36.8,24,47.3v10.8c0,1.4-0.9,2.6-2.3,3l-31,8.8
			C9.4,355.9,0,368.3,0,382.4v62c0,4.1,3.4,7.5,7.5,7.5s7.5-3.4,7.5-7.5v-62c0-7.4,4.9-13.9,12-15.9l31-8.8c1.1-0.3,2.2-0.8,3.2-1.3
			l19,19v69c0,4.1,3.4,7.5,7.5,7.5s7.5-3.4,7.5-7.5v-69l19.1-19.1c2.6,1.3,5.1,2,7,2.5l7.6,2.2c-10.3,7.3-16.7,19.3-16.7,32.2v51.3
			c0,4.1,3.4,7.5,7.5,7.5s7.5-3.4,7.5-7.5v-51.3c0-9.7,5.7-18.5,14.6-22.5l42.9-18.9c13.4,26.9,40.9,44.1,71.3,44.1
			c30.5,0,57.8-17.1,71.3-44l42.9,18.9c8.9,3.9,14.6,12.7,14.6,22.5v51.3c0,4.1,3.4,7.5,7.5,7.5s7.5-3.4,7.5-7.5v-51.3
			c0-9.6-3.5-18.6-9.5-25.7l11.6-5.8l8.7,8.3c6.1,5.8,13.9,8.7,21.7,8.7c7.8,0,15.6-2.9,21.7-8.7l8.7-8.3l25.1,12.5
			c5.6,2.8,9.1,8.5,9.1,14.8v55.4c0,4.1,3.4,7.5,7.5,7.5s7.5-3.4,7.5-7.5V389C512,377,505.3,366.2,494.6,360.8z M432.4,179.3
			c13.5,0,24.6,9.2,24.6,20.6c0,0.5,0,0.9-0.1,1.4c-7.5-3.2-15.8-4.9-24.5-4.9s-16.9,1.8-24.5,4.9c0-0.5-0.1-0.9-0.1-1.4
			C407.8,188.6,418.8,179.3,432.4,179.3z M87.7,361.6l-17.1-17.1c0.4-1.4,0.5-2.9,0.5-4.4V337c4.7,1.5,9.7,2.5,14.8,2.6
			c0.6,0,1.2,0,1.7,0c5.7,0,11.2-0.9,16.5-2.5v3c0,1.6,0.2,3.1,0.5,4.5L87.7,361.6z M86.4,324.6C64.7,324,47.1,304.9,47.1,282v-14
			c0-1.2-0.3-2.3-0.8-3.4l-4.6-9.3c-1.7-3.4-2.6-7.2-2.6-11V244c0-18,14.6-32.6,32.6-32.6h64.6v31.1c0,5-1.2,10.1-3.4,14.6l-3.8,7.6
			c-0.5,1-0.8,2.2-0.8,3.4v16c0,11.1-4.4,21.4-12.3,29.1C108,320.9,97.5,325,86.4,324.6z M149.1,351.1l-23.7-6.8
			c-6.2-1.8-6.2-2.5-6.2-4.1v-10.3c2.5-1.7,4.9-3.7,7.2-5.9c1.5-1.5,2.9-3,4.2-4.6c1.2,2.4,3.1,4.6,5.4,6.1c6,3.9,17.4,10.4,34,16.3
			L149.1,351.1z M256,380.8c-24.4,0-46.5-13.6-57.5-35.1l10.9-4.8c8.5-3.8,14-12.2,14-21.5v-18c10.1,4,21.1,6.3,32.6,6.3
			s22.5-2.2,32.6-6.3v18c0,9.3,5.5,17.8,14,21.5l10.9,4.8C302.5,367.1,280.5,380.8,256,380.8z M321,332.6l-12.4-5.5
			c-3.1-1.4-5.1-4.4-5.1-7.8v-25.8c24.1-15.6,40.1-42.8,40.1-73.6v-14.1c0-9.1-3.9-17.8-10.7-23.7c-15.1-13.1-49.2-36-108.3-41.9
			c-4.1-0.4-7.8,2.6-8.2,6.7c-0.4,4.1,2.6,7.8,6.7,8.2c55,5.5,86.2,26.3,100,38.3c3.5,3,5.5,7.5,5.5,12.3v14.1
			c0,40.1-32.6,72.7-72.7,72.7s-72.7-32.6-72.7-72.7v-6.3c0-2.9,1.6-5.5,4.3-7.1c9.4-5.4,21.7-15.4,27.4-32.4
			c1.3-3.9-0.8-8.2-4.7-9.5s-8.2,0.8-9.5,4.7c-4.2,12.5-13.5,20-20.7,24.1c-7.3,4.2-11.8,11.9-11.8,20.1v6.3c0,30.8,16,58,40.1,73.6
			v25.8c0,3.4-2,6.4-5.1,7.8l-12.4,5.5c-24.2-6.5-39.6-15.1-46.8-19.7c-0.1-0.1-0.2-0.2-0.2-0.4c2.6-15.5,9.3-60.1,15.2-140.1
			c2.2-29.5,12.6-54.2,30.1-71.5C206.5,84,229.5,75.1,256,75.1s49.5,8.9,66.6,25.8c17.5,17.3,27.9,42,30.1,71.5
			c5.9,80,12.6,124.6,15.2,140.1c0,0.2,0,0.3-0.2,0.4C360.7,317.5,345.2,326.1,321,332.6z M400.8,345.1c0,0.2-0.1,0.4-0.3,0.5
			L377,357.3c-0.3-0.1-0.5-0.3-0.8-0.4l-34.3-15.1c16.7-6,28-12.4,34-16.3c5.2-3.3,7.9-9.4,6.8-15.5c-0.1-0.3-0.1-0.7-0.2-1.1
			c4.2,8.5,10.5,15.7,18.2,21L400.8,345.1L400.8,345.1z M443.8,359.1c-6.4,6.1-16.4,6.1-22.8,0l-7-6.6c1.2-2.2,1.8-4.7,1.8-7.3v-8
			c5.2,1.6,10.8,2.5,16.5,2.5c5.8,0,11.3-0.9,16.5-2.5v8c0,2.6,0.6,5.1,1.8,7.3L443.8,359.1z M432.4,324.7
			c-20.8,0-38.1-15.5-40.3-36.2c-0.1-1.1-0.5-2.2-1.1-3.1c-4.7-7.7-7.2-16.4-7.2-25.4c0-26.8,21.8-48.6,48.6-48.6
			c26.8,0,48.6,21.8,48.6,48.6c0,5.2-0.8,10.3-2.5,15.2c-21.3-21.6-58.8-30.1-60.6-30.5c-2.2-0.5-4.5,0.1-6.3,1.5s-2.8,3.6-2.8,5.8
			c0,0-0.3,5.3-5.8,10.7c-2.9,2.9-2.9,7.7,0,10.6s7.7,2.9,10.6,0c4.2-4.2,6.7-8.5,8.1-12.1c12.6,3.7,38.8,13.2,50.6,29.8
			C469,310.4,452.2,324.7,432.4,324.7z"/>
	</g>
</g>
<g>
	<g>
		<path class="st0" d="M472.4,398.7c-4.1,0-7.5,3.4-7.5,7.5v38.2c0,4.1,3.4,7.5,7.5,7.5s7.5-3.4,7.5-7.5v-38.2
			C479.9,402,476.6,398.7,472.4,398.7z"/>
	</g>
</g>
</svg>
