<?xml version="1.0" encoding="utf-8"?>
<!-- Generator: Adobe Illustrator 24.2.0, SVG Export Plug-In . SVG Version: 6.00 Build 0)  -->
<svg version="1.1" id="Layer_1" xmlns="http://www.w3.org/2000/svg" xmlns:xlink="http://www.w3.org/1999/xlink" x="0px" y="0px"
	 viewBox="0 0 512 512" style="enable-background:new 0 0 512 512;" xml:space="preserve">
<style type="text/css">
	.st0{fill:#80D6FF;}
</style>
<g id="tractor-smartphone-wifi-technology">
	<path class="st0" d="M136,366c-14.4,0-26,11.6-26,26s11.6,26,26,26s26-11.6,26-26S150.4,366,136,366z M136,402c-5.5,0-10-4.5-10-10
		s4.5-10,10-10s10,4.5,10,10S141.5,402,136,402z"/>
	<path class="st0" d="M336,392c-13.3,0-24,10.7-24,24s10.7,24,24,24s24-10.7,24-24S349.3,392,336,392z M336,424c-4.4,0-8-3.6-8-8
		s3.6-8,8-8s8,3.6,8,8S340.4,424,336,424z"/>
	<path class="st0" d="M408,424c22.1,0,40-17.9,40-40v-32h32c8.8,0,16-7.2,16-16V32c0-8.8-7.2-16-16-16H288c-8.8,0-16,7.2-16,16v200
		h-42.6l-46-115c-1.2-3-4.2-5-7.4-5H96v-10.2c7.7-4.4,10.3-14.2,5.9-21.9C97.4,72.3,87.7,69.6,80,74s-10.3,14.2-5.9,21.9
		c1.4,2.4,3.4,4.5,5.9,5.9V112H32v16h16v108.7l-13.7,13.6c-1.5,1.5-2.3,3.6-2.3,5.7v160c0,4.4,3.6,8,8,8h22.7
		c3.9,8.9,9.4,17.1,16.2,24H59.3l-5.6-5.7c-1.5-1.5-3.6-2.3-5.7-2.3H35.3l-5.6-5.7c-1.5-1.5-3.6-2.3-5.7-2.3h-8v16h4.7l5.6,5.7
		c1.5,1.5,3.6,2.3,5.7,2.3h12.7l5.6,5.7c1.5,1.5,3.6,2.3,5.7,2.3h45.4c21.9,10.7,47.4,10.7,69.3,0H208c2.1,0,4.2-0.8,5.7-2.3
		l13.6-13.7h25.4l13.6,13.7c1.5,1.5,3.6,2.3,5.7,2.3h35.3c21.8,13.1,49.7,9.8,67.8-8h39l14.3,7.1c1.1,0.6,2.3,0.9,3.6,0.9h64v-16
		h-62.1l-14.3-7.1c-1.1-0.6-2.3-0.9-3.6-0.9h-29.5c2.4-5,4.1-10.4,4.9-16H408z M288,32h192v304H288V32z M57.6,408H48V259.3
		l13.7-13.6c1.5-1.5,2.3-3.6,2.3-5.7V128h106.6l46,115c1.2,3,4.2,5,7.4,5h16v160h-25.6c1.1-5.3,1.6-10.6,1.6-16
		c0-44.2-35.8-80-80-80s-80,35.8-80,80C56,397.4,56.5,402.7,57.6,408z M136,456c-35.3,0-64-28.7-64-64s28.7-64,64-64s64,28.7,64,64
		S171.3,456,136,456z M275.3,448l-13.6-13.7c-1.5-1.5-3.6-2.3-5.7-2.3h-32c-2.1,0-4.2,0.8-5.7,2.3L204.7,448H193
		c6.8-6.9,12.3-15.1,16.2-24h71.4c1.2,8.6,4.5,16.8,9.4,24H275.3z M336,456c-22.1,0-40-17.9-40-40s17.9-40,40-40s40,17.9,40,40
		S358.1,456,336,456z M336,360c-27.8,0-51.4,20.5-55.4,48H256V248h16v88c0,8.8,7.2,16,16,16h144v32c0,13.2-10.8,24-24,24h-16.6
		C387.4,380.5,363.8,360,336,360z"/>
	<path class="st0" d="M192,248c2.7,0,5.2-1.4,6.6-3.6c1.5-2.2,1.8-5,0.7-7.4l-40-96c-1.2-3-4.1-5-7.4-5H80c-4.4,0-8,3.6-8,8v96
		c0,4.4,3.6,8,8,8H192z M88,152h58.6l33.4,80H88V152z"/>
	<path class="st0" d="M16,480h480v16H16V480z"/>
	<path class="st0" d="M464,40H304c-4.4,0-8,3.6-8,8v248c0,4.4,3.6,8,8,8h160c4.4,0,8-3.6,8-8V48C472,43.6,468.4,40,464,40z M456,288
		H312V56h144V288z"/>
	<path class="st0" d="M59.7,59.7L71,71c9.4-9.4,24.6-9.4,33.9,0l0,0l11.3-11.3C100.7,44.1,75.3,44.1,59.7,59.7z"/>
	<path class="st0" d="M127.6,48.4l11.3-11.3C110.8,9,65.2,9,37.1,37.1l11.3,11.3C70.3,26.6,105.7,26.6,127.6,48.4z"/>
	<path class="st0" d="M376,312h16v16h-16V312z"/>
	<circle class="st0" cx="384" cy="144" r="16"/>
	<path class="st0" d="M355.7,115.7L367,127c9.4-9.4,24.6-9.4,33.9,0l0,0l11.3-11.3C396.7,100.1,371.3,100.1,355.7,115.7L355.7,115.7
		z"/>
	<path class="st0" d="M423.6,104.4l11.3-11.3c-28.1-28.1-73.7-28.1-101.8,0l11.3,11.3C366.3,82.6,401.7,82.6,423.6,104.4
		L423.6,104.4z"/>
	<path class="st0" d="M328,192h24v16h-24V192z"/>
	<path class="st0" d="M368,192h40v16h-40V192z"/>
	<path class="st0" d="M328,224h112v16H328V224z"/>
	<path class="st0" d="M328,256h48v16h-48V256z"/>
</g>
</svg>
