<?xml version="1.0" encoding="utf-8"?>
<!-- Generator: Adobe Illustrator 16.0.0, SVG Export Plug-In . SVG Version: 6.00 Build 0)  -->
<!DOCTYPE svg PUBLIC "-//W3C//DTD SVG 1.1//EN" "http://www.w3.org/Graphics/SVG/1.1/DTD/svg11.dtd">
<svg version="1.1" id="Capa_1" xmlns="http://www.w3.org/2000/svg" xmlns:xlink="http://www.w3.org/1999/xlink" x="0px" y="0px"	 width="498.894px" height="248.072px" viewBox="0 0 498.894 248.072" enable-background="new 0 0 498.894 248.072"	 xml:space="preserve"><path d="M269.188,79.221c-11.854,0-21.5,9.644-21.5,21.499c0,11.854,9.646,21.5,21.5,21.5c11.853,0,21.498-9.644,21.498-21.5	C290.686,88.867,281.041,79.221,269.188,79.221z M269.188,107.394c-3.681,0-6.672-2.994-6.672-6.674s2.991-6.673,6.672-6.673	c3.679,0,6.672,2.993,6.672,6.673S272.867,107.394,269.188,107.394z"/><path d="M144.208,84.163c-11.854,0-21.5,9.646-21.5,21.5s9.645,21.5,21.5,21.5c11.854,0,21.499-9.644,21.499-21.5	C165.707,93.808,156.063,84.163,144.208,84.163z M144.208,112.334c-3.68,0-6.673-2.994-6.673-6.674c0-3.679,2.993-6.673,6.673-6.673	s6.672,2.994,6.672,6.673C150.88,109.34,147.888,112.334,144.208,112.334z"/><path d="M205.432,82.185c-11.854,0-21.499,9.646-21.499,21.5c0,11.855,9.645,21.5,21.499,21.5s21.499-9.644,21.499-21.5	C226.931,91.832,217.286,82.185,205.432,82.185z M205.432,110.357c-3.68,0-6.672-2.994-6.672-6.674c0-3.681,2.992-6.673,6.672-6.673	c3.68,0,6.672,2.993,6.672,6.673S209.11,110.357,205.432,110.357z"/><path d="M494.878,108.426c-2.826-3.81-6.721-6.56-11.266-7.954l-54.439-16.595l-16.668-25.438	c-8.816-13.479-24.26-20.959-40.313-19.527l-54.428,4.85c-4.076,0.364-7.09,3.967-6.725,8.045c0.361,4.078,3.963,7.09,8.041,6.725	l54.428-4.85c8.93-0.794,17.555,2.6,23.531,9.006l-32.533,9.09c-1.252,0.352-2.436,0.959-3.363,1.869	c-2.238,2.194-2.818,5.418-1.693,8.149c6.232,15.14,20.783,24.547,36.543,24.547c2.943,0,5.934-0.329,8.918-1.011l25.027-5.719	l49.34,15.037c1.486,0.455,2.764,1.359,3.689,2.609c0.922,1.24,1.408,2.719,1.408,4.271c0,3.271-2.217,6.13-5.393,6.945	l-16.844,4.352c-53.324,13.758-108.135,21.275-163.143,22.434l4.561-3.072c2.451-1.652,3.893-4.563,3.412-7.482	c-0.596-3.648-3.727-6.238-7.32-6.238H163.799c-2.449,0-4.74,1.209-6.122,3.23l-9.389,13.74H65.322	c-24.107,0-44.029-18.857-45.355-42.932l-4.721-85.991H49.7l18.709,48.938c1.185,3.099,4.275,5.028,7.584,4.737l208.704-18.6	c4.08-0.363,7.09-3.965,6.727-8.043c-0.362-4.078-3.965-7.089-8.043-6.725l-46.458,4.139L163.206,1.269	C161.982,0.442,160.539,0,159.062,0h-59.82c-2.201,0-4.361,0.87-5.802,2.536c-2.263,2.617-2.403,6.327-0.535,9.061l33.62,49.203	l-46.269,4.123L61.725,16.452c-1.097-2.871-3.853-4.767-6.926-4.767H7.497c-0.96,0-1.925,0.148-2.815,0.511	c-3.085,1.262-4.839,4.233-4.669,7.308l5.15,93.813c1.757,31.933,28.183,56.945,60.16,56.945h72.833l-3.812,5.582	c-2.309,3.381-1.442,7.994,1.938,10.305c3.379,2.309,7.995,1.439,10.303-1.939l21.127-30.916h107.68l-118.598,79.951h-43.715	l16.493-24.135c2.31-3.383,1.442-7.996-1.937-10.307c-3.38-2.311-7.995-1.439-10.304,1.938l-24.298,35.559	c-1.243,1.816-1.742,4.096-1.176,6.223c0.886,3.348,3.868,5.551,7.178,5.551h60.029c1.477,0,2.921-0.439,4.144-1.27l113.54-76.543	h7.31c61.269,0,122.433-7.764,181.792-23.08l16.846-4.348c9.723-2.506,16.516-11.268,16.516-21.306	C499.205,116.775,497.708,112.243,494.878,108.426z M401.605,90.878c-8.945,2.042-17.947-0.979-23.818-7.417l28.223-7.885	l8.146,12.433L401.605,90.878z M113.075,14.833h43.722l56.698,38.221l-70.037,6.242L113.075,14.833z"/>
</svg>
