<?xml version="1.0" encoding="utf-8"?>
<!-- Generator: Adobe Illustrator 16.0.0, SVG Export Plug-In . SVG Version: 6.00 Build 0)  -->
<!DOCTYPE svg PUBLIC "-//W3C//DTD SVG 1.1//EN" "http://www.w3.org/Graphics/SVG/1.1/DTD/svg11.dtd">
<svg version="1.1" id="Capa_1" xmlns="http://www.w3.org/2000/svg" xmlns:xlink="http://www.w3.org/1999/xlink" x="0px" y="0px"   width="560.5px" height="433.549px" viewBox="0 -46.797 560.5 433.549" enable-background="new 0 -46.797 560.5 433.549"   xml:space="preserve"> <path d="M511.127,120.296l-10.898-11.537L461.98,5.662c-6.518-17.415-23.184-28.953-41.773-29.06H147.023  c-18.59,0-35.256,11.645-41.773,29.06L67.537,107.478l-15.705,14.53c-13.675,11.645-21.581,28.739-21.581,46.688v150.216  c0.107,24.57,20.085,44.442,44.658,44.442h28.205c24.573,0,44.551-19.872,44.658-44.442v-21.795h264.957v21.795  c0.107,24.57,20.088,44.442,44.658,44.442h28.205c24.572,0,44.551-19.872,44.658-44.442V164.743  C530.145,147.969,523.307,131.943,511.127,120.296z M125.335,12.927c3.419-9.081,12.073-14.958,21.688-14.958h273.293  c9.613,0,18.268,5.983,21.688,14.958l33.334,89.744h-24.895c-5.875-40.064-43.162-67.735-83.229-61.752  c-31.943,4.701-57.051,29.808-61.752,61.752H92.002L125.335,12.927z M428.648,102.669H327.045  c5.877-28.099,33.441-46.047,61.539-40.171C408.67,66.772,424.375,82.478,428.648,102.669z M126.404,318.911  c-0.107,12.818-10.47,23.075-23.291,23.075H74.909c-12.821,0-23.184-10.257-23.291-23.075v-27.992  c6.41,4.168,14.85,6.197,23.291,6.197h51.496V318.911z M508.883,318.911c-0.105,12.818-10.471,23.075-23.291,23.075h-28.205  c-12.818,0-23.184-10.362-23.291-23.075v-21.795h51.496c8.441,0,16.881-2.029,23.291-6.197V318.911L508.883,318.911z   M485.592,275.747H74.909c-12.714,0.105-23.184-10.043-23.291-22.862v-84.188c0-11.752,5.235-22.97,14.209-30.555  c0.106-0.106,0.32-0.321,0.427-0.429l14.53-13.674h404.593l10.258,11.004c0.105,0.213,0.426,0.32,0.533,0.533  c8.014,7.586,12.607,18.163,12.607,29.168v88.141h0.105C508.775,265.597,498.307,275.854,485.592,275.747z"/> <path d="M171.275,166.772H91.147c-5.876,0-10.684,4.809-10.684,10.686v55.556c0,5.876,4.808,10.685,10.684,10.685h80.128  c5.876,0,10.684-4.809,10.684-10.685v-55.556C181.959,171.581,177.152,166.772,171.275,166.772z M160.592,222.329h-58.761v-34.188  h58.761V222.329L160.592,222.329z"/> <path d="M469.354,166.772h-80.129c-5.875,0-10.684,4.809-10.684,10.686v55.556c0,5.876,4.809,10.685,10.684,10.685h80.129  c5.875,0,10.686-4.809,10.686-10.685v-55.556C480.037,171.581,475.229,166.772,469.354,166.772z M458.67,222.329h-58.762v-34.188  h58.762V222.329z"/> <path d="M331.854,211.644H228.647c-5.876,0-10.684,4.811-10.684,10.686c0,5.877,4.808,10.685,10.684,10.685h103.204  c5.877,0,10.686-4.808,10.686-10.685C342.537,216.454,337.729,211.644,331.854,211.644z"/> <path d="M331.854,178.524H228.647c-5.876,0-10.684,4.809-10.684,10.686s4.808,10.684,10.684,10.684h103.204  c5.877,0,10.686-4.807,10.686-10.684S337.729,178.524,331.854,178.524z"/>
</svg>
