<?xml version="1.0" encoding="utf-8"?>
<!-- Generator: Adobe Illustrator 16.0.0, SVG Export Plug-In . SVG Version: 6.00 Build 0)  -->
<!DOCTYPE svg PUBLIC "-//W3C//DTD SVG 1.1//EN" "http://www.w3.org/Graphics/SVG/1.1/DTD/svg11.dtd">
<svg version="1.1" id="Capa_1" xmlns="http://www.w3.org/2000/svg" xmlns:xlink="http://www.w3.org/1999/xlink" x="0px" y="0px"
	 width="500px" height="467.203px" viewBox="0 3.898 500 467.203" enable-background="new 0 3.898 500 467.203"
	 xml:space="preserve">
<path d="M443.607,240.048l-54.397-84.004c-4.216-6.511-11.364-10.398-19.121-10.398H130.082c-7.745,0-14.887,3.878-19.104,10.372
	l-54.566,84.014c-5.576,8.584-4.715,19.918,2.095,27.561L232.98,463.472c4.318,4.848,10.518,7.629,17.01,7.629c0.001,0,0,0,0.001,0
	c6.491,0,12.692-2.779,17.011-7.629l174.494-195.891C448.296,259.949,449.164,248.626,443.607,240.048z M359.069,165.176
	l-45.748,70.743l-45.775-70.743H359.069z M295.373,244.134h-90.766l45.383-70.137L295.373,244.134z M232.435,165.179l-45.649,70.548
	l-45.634-70.548H232.435L232.435,165.179z M123.094,173.221l45.869,70.914H77.036L123.094,173.221z M81.161,263.666h98.286
	l51.969,168.686L81.161,263.666z M249.99,426.304l-50.106-162.639h100.213L249.99,426.304z M268.563,432.357l51.972-168.691h98.295
	L268.563,432.357z M331.27,244.134l45.827-70.865l45.889,70.865H331.27z"/>
<path d="M29.622,244.134H9.766C4.373,244.134,0,248.505,0,253.9s4.373,9.766,9.766,9.766h19.856c5.393,0,9.766-4.371,9.766-9.766
	S35.015,244.134,29.622,244.134z"/>
<path d="M490.234,244.134h-19.856c-5.393,0-9.766,4.371-9.766,9.766s4.373,9.766,9.766,9.766h19.856
	c5.393,0,9.766-4.371,9.766-9.766S495.627,244.134,490.234,244.134z"/>
<path d="M426.9,77.173c-3.814-3.813-9.996-3.813-13.813,0l-32.438,32.438c-3.813,3.813-3.813,9.997,0,13.811
	c1.907,1.907,4.406,2.86,6.905,2.86c2.5,0,4.998-0.954,6.905-2.86l32.438-32.438C430.714,87.17,430.714,80.987,426.9,77.173z"/>
<path d="M119.771,109.438L87.334,76.999c-3.813-3.813-9.994-3.813-13.812,0c-3.813,3.813-3.813,9.997,0,13.811l32.438,32.438
	c1.907,1.907,4.406,2.86,6.905,2.86c2.499,0,4.998-0.954,6.905-2.86C123.585,119.436,123.585,113.25,119.771,109.438z"/>
<path d="M250.248,3.898c-5.393,0-9.766,4.372-9.766,9.766v63.641c0,5.394,4.372,9.766,9.766,9.766c5.393,0,9.766-4.372,9.766-9.766
	V13.665C260.014,8.271,255.641,3.898,250.248,3.898z"/>
<path d="M257.146,103.438c-1.814-1.816-4.334-2.861-6.902-2.861s-5.088,1.045-6.904,2.861c-1.816,1.816-2.861,4.336-2.861,6.904
	c0,2.578,1.044,5.088,2.861,6.904c1.816,1.826,4.336,2.861,6.904,2.861s5.088-1.035,6.902-2.861
	c1.826-1.816,2.862-4.336,2.862-6.904C260.009,107.773,258.975,105.254,257.146,103.438z"/>
</svg>
