<?xml version="1.0" encoding="utf-8"?>
<!-- Generator: Adobe Illustrator 16.0.0, SVG Export Plug-In . SVG Version: 6.00 Build 0)  -->
<!DOCTYPE svg PUBLIC "-//W3C//DTD SVG 1.1//EN" "http://www.w3.org/Graphics/SVG/1.1/DTD/svg11.dtd">
<svg version="1.1" id="Layer_1" xmlns="http://www.w3.org/2000/svg" xmlns:xlink="http://www.w3.org/1999/xlink" x="0px" y="0px"   width="562.5px" height="562.5px" viewBox="0 0 562.5 562.5" enable-background="new 0 0 562.5 562.5" xml:space="preserve"> <path d="M251.25,12.5c0-6.906-5.594-12.5-12.5-12.5H12.5C5.594,0,0,5.594,0,12.5v226.25c0,6.906,5.594,12.5,12.5,12.5h226.25  c6.906,0,12.5-5.594,12.5-12.5V12.5z M226.25,226.25H25V25h201.25V226.25z"/> <path d="M562.5,12.5C562.5,5.594,556.906,0,550,0H323.75c-6.906,0-12.5,5.594-12.5,12.5v226.25c0,6.906,5.594,12.5,12.5,12.5H550  c6.906,0,12.5-5.594,12.5-12.5V12.5z M537.5,226.25H336.25V25H537.5V226.25z"/> <path d="M251.25,323.75c0-6.906-5.594-12.5-12.5-12.5H12.5c-6.906,0-12.5,5.594-12.5,12.5V550c0,6.906,5.594,12.5,12.5,12.5h226.25  c6.906,0,12.5-5.594,12.5-12.5V323.75z M226.25,536.25H25v-200h201.25V536.25z"/> <path d="M562.5,323.75c0-6.906-5.594-12.5-12.5-12.5H323.75c-6.906,0-12.5,5.594-12.5,12.5V550c0,6.906,5.594,12.5,12.5,12.5H550  c6.906,0,12.5-5.594,12.5-12.5V323.75z M537.5,536.25H336.25v-200H537.5V536.25z"/>
</svg>
