<?xml version="1.0" encoding="utf-8"?>
<!-- Generator: Adobe Illustrator 16.0.0, SVG Export Plug-In . SVG Version: 6.00 Build 0)  -->
<!DOCTYPE svg PUBLIC "-//W3C//DTD SVG 1.1//EN" "http://www.w3.org/Graphics/SVG/1.1/DTD/svg11.dtd">
<svg version="1.1" id="Capa_1" xmlns="http://www.w3.org/2000/svg" xmlns:xlink="http://www.w3.org/1999/xlink" x="0px" y="0px"
	 width="453.106px" height="500px" viewBox="23.447 0 453.106 500" enable-background="new 23.447 0 453.106 500"
	 xml:space="preserve">
<path d="M416.735,274.891c-4.605,0-8.338,3.732-8.338,8.337v191.761c0,4.604-3.733,8.337-8.337,8.337h-83.373V358.264
	c0-13.813-11.199-25.012-25.013-25.012h-83.374c-13.813,0-25.012,11.197-25.012,25.012v125.062H99.916
	c-4.604,0-8.337-3.732-8.337-8.337V283.228c0-4.604-3.732-8.337-8.337-8.337c-4.605,0-8.337,3.732-8.337,8.337v191.761
	c0,13.813,11.198,25.012,25.012,25.012h300.146c13.813,0,25.013-11.198,25.013-25.012V283.228
	C425.073,278.623,421.34,274.891,416.735,274.891z M300.012,483.325H199.963V358.264c0-4.604,3.732-8.336,8.337-8.336h83.374
	c4.605,0,8.337,3.731,8.337,8.336L300.012,483.325L300.012,483.325z"/>
<path d="M469.286,214.77L267.754,7.31c-9.84-9.747-25.694-9.747-35.534,0L30.714,214.77c-7.226,7.448-9.273,18.505-5.194,28.047
	c3.786,9.336,12.87,15.434,22.945,15.398h2.851c5.963-0.057,11.705-2.262,16.175-6.211c0.595-0.387,1.153-0.828,1.668-1.316
	L249.988,64.413l180.963,186.374c0.482,0.458,1.004,0.873,1.559,1.242c4.468,3.932,10.198,6.127,16.149,6.186h2.852
	c10.084,0.045,19.18-6.053,22.969-15.398C478.559,233.274,476.511,222.217,469.286,214.77z M459.123,236.33
	c-1.239,3.125-4.25,5.187-7.612,5.211h-2.852c-2.206,0.001-4.315-0.904-5.835-2.501c-0.059-0.066-0.151-0.083-0.209-0.142
	c-0.059-0.059-0.116-0.15-0.191-0.208L255.965,46.638l-0.1-0.066l-0.041-0.125c-0.402-0.32-0.835-0.6-1.293-0.833
	c-0.432-0.345-0.898-0.644-1.393-0.893c-0.512-0.165-1.041-0.277-1.576-0.333c-1.001-0.366-2.101-0.366-3.101,0
	c-0.536,0.057-1.063,0.168-1.576,0.333c-0.494,0.25-0.96,0.548-1.392,0.893c-0.458,0.233-0.891,0.513-1.293,0.833l-0.066,0.1
	l-0.1,0.066L57.536,238.689c-0.075,0.059-0.108,0.142-0.184,0.2s-0.158,0.083-0.217,0.15c-1.521,1.598-3.631,2.502-5.836,2.501
	h-2.834c-3.362-0.024-6.372-2.086-7.612-5.211c-1.48-3.372-0.772-7.304,1.792-9.946h-0.018L244.151,18.933
	c1.537-1.549,3.629-2.42,5.812-2.42c2.182,0,4.274,0.872,5.811,2.42L457.33,226.384C459.895,229.026,460.603,232.958,459.123,236.33
	z"/>
<path d="M283.337,291.565c13.813,0,25.013-11.198,25.013-25.012v-58.362c0-13.814-11.199-25.012-25.013-25.012h-66.699
	c-13.813,0-25.012,11.198-25.012,25.012v58.362c0,13.813,11.198,25.012,25.012,25.012H283.337z M208.3,266.554v-58.362
	c0-4.604,3.732-8.337,8.337-8.337h66.699c4.604,0,8.337,3.733,8.337,8.337v58.362c0,4.604-3.732,8.337-8.337,8.337h-66.699
	C212.033,274.891,208.3,271.157,208.3,266.554z"/>
<path d="M224.976,408.289h-8.337c-4.605,0-8.337,3.731-8.337,8.336c0,4.605,3.732,8.338,8.337,8.338h8.337
	c4.605,0,8.337-3.732,8.337-8.338C233.313,412.021,229.58,408.289,224.976,408.289z"/>
</svg>
