<?xml version="1.0" encoding="utf-8"?>
<!-- Generator: Adobe Illustrator 16.0.0, SVG Export Plug-In . SVG Version: 6.00 Build 0)  -->
<!DOCTYPE svg PUBLIC "-//W3C//DTD SVG 1.1//EN" "http://www.w3.org/Graphics/SVG/1.1/DTD/svg11.dtd">
<svg version="1.1" id="Capa_1" xmlns="http://www.w3.org/2000/svg" xmlns:xlink="http://www.w3.org/1999/xlink" x="0px" y="0px"   width="512px" height="321.172px" viewBox="0 0 512 321.172" enable-background="new 0 0 512 321.172" xml:space="preserve"> <path d="M500.661,196.911c-2.099-3.571-6.694-4.767-10.268-2.668c-3.57,2.099-4.766,6.694-2.668,10.266  c6.066,10.326,9.272,22.132,9.272,34.138c0,37.234-30.292,67.526-67.525,67.526c-37.232,0-67.524-30.292-67.524-67.526  c0-9.474,1.98-18.778,5.785-27.352l19.928,18.952c-0.554,2.76-0.836,5.569-0.836,8.399c0,23.518,19.132,42.647,42.646,42.647  c23.518,0,42.648-19.132,42.648-42.647c0-23.517-19.132-42.647-42.648-42.647c-3.558,0-7.064,0.448-10.482,1.315l-19.927-18.949  c9.384-4.754,19.737-7.243,30.409-7.243c16.031,0,31.58,5.731,43.782,16.14c1.412,1.205,3.145,1.794,4.863,1.794  c2.12,0,4.227-0.894,5.71-2.633c2.688-3.151,2.313-7.886-0.839-10.573c-14.915-12.722-33.921-19.728-53.519-19.728  c-14.829,0-29.167,3.922-41.822,11.389l-9.229-8.774c13.672-7.777,29.472-12.227,46.294-12.227c4.979,0,9.994,0.398,14.914,1.182  c2.189,0.351,4.417-0.287,6.091-1.736l23.667-20.495c3.774-3.269,6.636-7.341,8.401-11.885c6.322-16.248,6.631-46.921-5.424-60.688  C439.299,15.122,390.235-3.467,334.215,0.533c-13.757,0.984-21.688,16.185-14.604,28.096l3.297,5.541h-15.65  c-4.143,0-7.5,3.358-7.5,7.5s3.357,7.5,7.5,7.5h24.18c3.484,7.659,5.13,15.979,4.828,24.352  c-15.046-13.38-34.409-20.836-55.025-20.836c-27.174,0-52.207,13.047-67.788,35.1h-53.965c-4.244,0-8.403-1.465-11.712-4.122  L92.9,39.573c-1.332-1.07-2.989-1.653-4.697-1.653H43.334c-12.449,0-22.577,10.128-22.577,22.577c0,7.251,3.517,14.106,9.407,18.338  l16.143,11.594c3.361,2.415,8.05,1.648,10.467-1.717c2.416-3.364,1.647-8.05-1.717-10.467L38.915,66.65  c-1.978-1.419-3.158-3.721-3.158-6.154c0-4.178,3.399-7.577,7.577-7.577h42.229l52.821,42.438  c5.962,4.789,13.458,7.428,21.106,7.428h56.767l48.568,18.564l26.731,10.217c-1.393,0.722-19.418,16.521-48.708,16.521h-16.47  c-16.492,0-32.15,8.863-40.559,24.079l-12.396-8.904c-0.001-0.001-0.003-0.002-0.005-0.003L75.392,92.852  c-3.363-2.416-8.05-1.648-10.467,1.715c-2.416,3.365-1.647,8.052,1.717,10.468l88.878,63.837l-16.167,9.945  c-15.273-14.491-35.65-22.696-56.827-22.696C37.021,156.121,0,193.141,0,238.646c0,45.504,37.021,82.525,82.526,82.525  c45.505,0,82.525-37.021,82.525-82.525c0-6.992-0.894-13.914-2.64-20.658l17.753-10.924v56.229  c0,21.437,17.439,38.876,38.875,38.876h36.136v4.002h-48.931c-4.143,0-7.5,3.357-7.5,7.5s3.357,7.5,7.5,7.5h56.432  c4.143,0,7.5-3.357,7.5-7.5V302.17h68.814c2.733,0,5.253-1.488,6.57-3.885s1.229-5.321-0.235-7.631  c-9.512-15.004-14.539-32.367-14.539-50.215c0-18.508,5.383-35.779,14.662-50.34l10.88,10.348  c-6.149,11.755-9.38,24.839-9.38,38.197c0,45.506,37.021,82.525,82.525,82.525s82.525-37.021,82.525-82.523  C512,223.971,508.079,209.538,500.661,196.911L500.661,196.911z M457.123,238.646c0,15.244-12.403,27.647-27.648,27.647  c-13.319,0-24.471-9.472-27.072-22.032l11.413,10.854c4.241,4.035,9.805,6.259,15.657,6.259c6.198,0,12.201-2.575,16.474-7.065  c4.184-4.398,6.401-10.162,6.251-16.232c-0.153-6.068-2.66-11.715-7.062-15.896l-11.412-10.854  C446.959,213.375,457.123,224.846,457.123,238.646z M463.569,66.641c5.651,12.442,3.913,33.723-0.111,42.307  C453.34,107.229,445.612,98.4,445.612,87.8C445.612,77.171,453.382,68.324,463.569,66.641z M281.244,67.686  c19.939,0,38.463,8.512,51.412,23.485c-7.528,19.529-22.243,26.267-26.483,29.924L243.61,97.182l-14.269-5.453  C242.186,76.527,260.992,67.686,281.244,67.686L281.244,67.686z M180.717,186.969c-0.115,0.723-0.229,1.518-0.321,2.344  l-66.663,41.017c-0.024,0.015-0.048,0.028-0.073,0.045l-22.448,13.812c-3.648,2.199-8.408,1.021-10.607-2.627  c-1.104-1.832-1.399-3.977-0.833-6.039c0.526-1.92,1.755-3.541,3.518-4.604l23.529-14.475c0.021-0.014,0.042-0.025,0.063-0.037  l35.097-21.59c0.013-0.008,0.027-0.018,0.04-0.024l26.71-16.431L180.717,186.969z M67.759,249.302  c4.259,7.062,11.772,10.978,19.488,10.978c4.012,0,8.078-1.06,11.769-3.283l7.487-4.607c-4.776,8.303-13.731,13.908-23.977,13.908  c-15.245,0-27.648-12.402-27.648-27.646c0-15.246,12.403-27.648,27.648-27.648c1.358,0,2.701,0.107,4.024,0.3l-11.062,6.806  c-5.015,3.021-8.631,7.797-10.182,13.443C63.666,237.523,64.56,243.994,67.759,249.302L67.759,249.302z M150.052,238.646  c0,37.233-30.292,67.525-67.525,67.525C45.292,306.173,15,275.881,15,238.646c0-37.232,30.292-67.524,67.526-67.524  c15.973,0,31.379,5.722,43.483,15.903l-23.058,14.185c-6.241-3.421-13.212-5.211-20.425-5.211  c-23.517,0-42.648,19.132-42.648,42.647c0,23.517,19.132,42.647,42.648,42.647c22.748,0,41.39-17.901,42.585-40.356l23.788-14.637  C149.657,230.365,150.052,234.49,150.052,238.646L150.052,238.646z M326.299,287.171h-107.26c-13.165,0-23.875-10.711-23.875-23.876  v-68.991c0-15.595,11.485-28.388,26.125-30.793c13.373-2.229,43.373,5.783,76.805-18.171c23.647-16.945,45.104-27.764,51.75-59.539  c2.576-12.314,1.736-24.931-2.281-36.629h8.887c4.143,0,7.5-3.358,7.5-7.5s-3.357-7.5-7.5-7.5h-16.082l-7.859-13.211  c-1.354-2.277,0.105-5.273,2.782-5.465c46.741-3.341,88.026,10.354,117.606,38.72c-13.081,5.539-22.282,18.509-22.282,33.585  c0,14.639,8.679,27.282,21.157,33.075l-13.282,11.503c-4.566-0.577-9.185-0.869-13.771-0.869  c-60.002,0-108.932,48.734-108.932,108.932C315.786,256.713,319.393,272.643,326.299,287.171z M365.75,167.384l15.808,15.033  c0.009,0.006,0.015,0.013,0.021,0.019l53.221,50.612c1.496,1.422,2.35,3.343,2.4,5.404c0.052,2.063-0.703,4.022-2.125,5.52  c-1.476,1.55-3.463,2.402-5.604,2.402c-1.988,0-3.88-0.757-5.321-2.127l-53.21-50.603c-0.018-0.017-0.032-0.031-0.051-0.045  l-16.336-15.535C357.988,174.206,361.733,170.633,365.75,167.384z"/> <path d="M256,245.296h-21.541c-4.143,0-7.5,3.356-7.5,7.5s3.357,7.5,7.5,7.5H256c4.143,0,7.5-3.356,7.5-7.5  S260.143,245.296,256,245.296z"/>
</svg>
