<?xml version="1.0" encoding="utf-8"?>
<!-- Generator: Adobe Illustrator 16.0.0, SVG Export Plug-In . SVG Version: 6.00 Build 0)  -->
<!DOCTYPE svg PUBLIC "-//W3C//DTD SVG 1.1//EN" "http://www.w3.org/Graphics/SVG/1.1/DTD/svg11.dtd">
<svg version="1.1" id="Capa_1" xmlns="http://www.w3.org/2000/svg" xmlns:xlink="http://www.w3.org/1999/xlink" x="0px" y="0px"   width="500px" height="450.166px" viewBox="0 0 500 450.166" enable-background="new 0 0 500 450.166" xml:space="preserve"> <path d="M347.105,241.605c-45.121,0-81.83,36.709-81.83,81.83s36.709,81.829,81.83,81.829c45.12,0,81.828-36.708,81.828-81.829  C428.936,278.314,392.227,241.605,347.105,241.605z M347.105,390.414c-36.933,0-66.979-30.047-66.979-66.979  c0-36.933,30.047-66.979,66.979-66.979c36.931,0,66.978,30.047,66.978,66.979C414.084,360.367,384.038,390.414,347.105,390.414z"/> <path d="M347.105,287.979c-19.554,0-35.458,15.905-35.458,35.457c0,19.553,15.905,35.459,35.458,35.459  c19.552,0,35.458-15.906,35.458-35.459C382.563,303.884,366.657,287.979,347.105,287.979z M347.105,344.043  c-11.363,0-20.606-9.243-20.606-20.605c0-11.363,9.244-20.607,20.606-20.607c11.361,0,20.606,9.243,20.606,20.607  C367.713,334.8,358.469,344.043,347.105,344.043z"/> <path d="M427.939,193.719V67.375V38.82c0-4.101-3.325-7.426-7.427-7.426h-27.439c-4.102,0-7.426,3.325-7.426,7.426  s3.324,7.426,7.426,7.426h20.015v13.703H214.439h-39.41V46.246h183.389c4.101,0,7.426-3.325,7.426-7.426s-3.325-7.426-7.426-7.426  H167.604c-4.101,0-7.426,3.325-7.426,7.426v28.555c0,4.101,3.325,7.426,7.426,7.426h37.131l-29.918,110.451h-50.369v-83.354  c0-11.786-9.555-21.342-21.342-21.342h-2.961V32.271c0-9.62,7.799-17.419,17.419-17.419h7.555c4.101,0,7.426-3.325,7.426-7.426  c0-4.101-3.325-7.426-7.426-7.426h-7.555C99.742,0,85.293,14.447,85.293,32.271v48.286h-1.191c-11.786,0-21.342,9.555-21.342,21.342  v83.354H40.868c-22.569,0-40.865,18.296-40.865,40.865v139.518c0,0.039-0.003,0.076-0.003,0.114  c0,46.548,37.869,84.416,84.416,84.416c44.043,0,80.294-33.91,84.07-76.988h12.016v-0.002h50.05  c19.373,45.226,64.322,76.99,116.556,76.99c67.384,0,122.645-52.866,126.505-119.299h18.963c4.102,0,7.426-3.331,7.426-7.434  C499.998,268.789,471.174,220.759,427.939,193.719z M77.614,101.897c0-3.578,2.911-6.49,6.49-6.49h19.004  c3.578,0,6.49,2.911,6.49,6.49v83.352H77.614V101.897z M84.416,435.313c-38.357,0-69.563-31.206-69.564-69.563h0.003v-0.116  c0.063-38.305,31.241-69.45,69.562-69.45c38.358,0,69.564,31.207,69.564,69.565S122.774,435.313,84.416,435.313z M194.219,358.324  h-6.292v-61.191c0-4.101-3.325-7.426-7.426-7.426c-4.102,0-7.427,3.324-7.427,7.426v61.193h-4.588  c-3.774-43.081-40.026-76.993-84.07-76.993c-28.834,0-54.327,14.54-69.562,36.664v-91.87c0-14.372,11.651-26.023,26.023-26.023  h132.197v62.375c0,4.102,3.325,7.426,7.426,7.426s7.426-3.324,7.426-7.426v-68.815l32.196-118.861H413.09v110.73  c-4.309-2.07-8.729-3.944-13.25-5.61V95.477c0-4.101-3.325-7.426-7.426-7.426H235.946c-3.354,0-6.291,2.247-7.167,5.484  l-27.343,100.938c-0.796,2.94,0.271,6.149,2.89,8.016c1.28,0.911,2.846,1.338,4.417,1.353l42.713,0.416  c-34.874,28.047-57.237,71.051-57.237,119.184V358.324L194.219,358.324z M384.987,102.901v72.396  c-12.119-3.101-24.812-4.753-37.884-4.753c-26.774,0-51.959,6.928-73.869,19.072l-54.949-0.533l23.345-86.182H384.987z   M347.105,435.313c-61.69,0-111.878-50.188-111.878-111.878c0-61.69,50.188-111.877,111.878-111.877  c61.689,0,111.877,50.188,111.877,111.877C458.983,385.126,408.796,435.313,347.105,435.313z M473.612,316.016  c-3.856-66.438-59.119-119.308-126.506-119.308c-69.878,0-126.729,56.851-126.729,126.729c0,12.096,1.706,23.799,4.885,34.887  H209.07v-34.883c0-76.118,61.923-138.044,138.034-138.044c73.629,0,133.979,57.938,137.849,130.619H473.612z"/> <path d="M84.416,321.044c-24.65,0-44.705,20.056-44.705,44.705s20.055,44.705,44.705,44.705s44.705-20.056,44.705-44.705  S109.066,321.044,84.416,321.044z M84.416,395.604c-16.461,0-29.854-13.394-29.854-29.854c0-16.462,13.393-29.854,29.854-29.854  s29.854,13.394,29.854,29.854S100.877,395.604,84.416,395.604z"/> <path d="M34.313,214.504c-4.101,0-7.426,3.325-7.426,7.426v51.52c0,4.101,3.325,7.426,7.426,7.426  c18.298,0,33.186-14.887,33.186-33.186C67.498,229.393,52.612,214.504,34.313,214.504z M41.738,264.452V230.93  c6.421,2.854,10.908,9.293,10.908,16.762C52.646,255.159,48.159,261.598,41.738,264.452z"/> <path d="M143.251,209.82H109.53c-4.101,0-7.426,3.324-7.426,7.426s3.325,7.426,7.426,7.426h33.721c4.101,0,7.426-3.324,7.426-7.426  C150.676,213.145,147.352,209.82,143.251,209.82z"/> <path d="M143.251,233.239H109.53c-4.101,0-7.426,3.325-7.426,7.426s3.325,7.426,7.426,7.426h33.721c4.101,0,7.426-3.325,7.426-7.426  S147.352,233.239,143.251,233.239z"/> <path d="M143.251,256.659H109.53c-4.101,0-7.426,3.325-7.426,7.426s3.325,7.426,7.426,7.426h33.721c4.101,0,7.426-3.325,7.426-7.426  S147.352,256.659,143.251,256.659z"/>
</svg>
