<?xml version="1.0" encoding="utf-8"?>
<!-- Generator: Adobe Illustrator 16.0.0, SVG Export Plug-In . SVG Version: 6.00 Build 0)  -->
<!DOCTYPE svg PUBLIC "-//W3C//DTD SVG 1.1//EN" "http://www.w3.org/Graphics/SVG/1.1/DTD/svg11.dtd">
<svg version="1.1" id="Layer_1" xmlns="http://www.w3.org/2000/svg" xmlns:xlink="http://www.w3.org/1999/xlink" x="0px" y="0px"
	 width="500px" height="323.23px" viewBox="0 0 500 323.23" enable-background="new 0 0 500 323.23" xml:space="preserve">
<g>
	<path d="M418.641,252.885c-4.617,7.636-4.822,17.415-0.525,25.237c4.313,7.851,12.67,12.961,21.632,13.157
		c8.993,0.196,17.577-4.555,22.229-12.247c4.713-7.795,4.817-17.805,0.267-25.695c-4.482-7.773-12.955-12.705-21.935-12.705
		C431.512,240.632,423.189,245.363,418.641,252.885z M430.068,268.922c-1.262-4.372,0.465-9.177,4.205-11.76
		c3.748-2.589,8.874-2.461,12.49,0.307c3.613,2.764,5.105,7.654,3.623,11.961c-1.464,4.255-5.578,7.206-10.079,7.206
		C435.615,276.636,431.369,273.428,430.068,268.922z"/>
	<path d="M317.412,252.885c-4.617,7.636-4.823,17.415-0.525,25.237c4.313,7.851,12.669,12.961,21.631,13.157
		c8.994,0.196,17.577-4.555,22.229-12.247c4.713-7.795,4.818-17.805,0.268-25.695c-4.483-7.773-12.955-12.705-21.936-12.705
		C330.282,240.632,321.961,245.364,317.412,252.885z M328.84,268.922c-1.263-4.371,0.465-9.177,4.204-11.76
		c3.748-2.589,8.874-2.461,12.491,0.307c3.612,2.764,5.104,7.654,3.623,11.961c-1.465,4.255-5.578,7.206-10.08,7.206
		C334.387,276.636,330.141,273.428,328.84,268.922z"/>
	<path d="M216.185,252.885c-4.617,7.636-4.823,17.415-0.525,25.237c4.313,7.851,12.669,12.961,21.632,13.157
		c8.993,0.196,17.576-4.555,22.229-12.247c4.713-7.795,4.818-17.805,0.267-25.695c-4.483-7.773-12.955-12.705-21.935-12.705
		C229.055,240.632,220.733,245.363,216.185,252.885z M227.613,268.922c-1.263-4.371,0.464-9.177,4.203-11.76
		c3.748-2.589,8.875-2.461,12.492,0.307c3.612,2.764,5.104,7.655,3.622,11.961c-1.464,4.255-5.578,7.206-10.079,7.206
		C233.159,276.636,228.914,273.428,227.613,268.922z"/>
	<path d="M114.956,252.885c-4.617,7.636-4.823,17.415-0.525,25.237c4.313,7.851,12.67,12.961,21.633,13.157
		c8.993,0.196,17.576-4.555,22.228-12.247c4.714-7.795,4.818-17.805,0.268-25.695c-4.483-7.773-12.955-12.705-21.935-12.705
		C127.827,240.632,119.506,245.363,114.956,252.885z M126.385,268.922c-1.263-4.371,0.465-9.177,4.204-11.76
		c3.748-2.589,8.875-2.461,12.491,0.307c3.612,2.764,5.104,7.654,3.623,11.961c-1.464,4.255-5.578,7.206-10.079,7.206
		C131.932,276.636,127.686,273.428,126.385,268.922z"/>
	<path d="M376.234,261.261c-3.022,3.613-1.779,9.282,2.467,11.311c2.076,0.99,4.564,0.711,6.803,0.711c3.146,0,6.293,0,9.439,0
		c2.238,0,4.727,0.279,6.801-0.711c4.247-2.028,5.49-7.697,2.468-11.311c-1.972-2.357-4.638-2.627-7.464-2.627
		c-4.965,0-9.929,0-14.893,0C379.699,258.634,377.618,259.608,376.234,261.261z"/>
	<path d="M274.477,261.261c-3.022,3.613-1.779,9.282,2.467,11.311c2.076,0.99,4.564,0.711,6.803,0.711c3.146,0,6.293,0,9.439,0
		c2.238,0,4.727,0.279,6.801-0.711c4.246-2.028,5.49-7.697,2.468-11.311c-1.973-2.357-4.638-2.627-7.464-2.627
		c-4.965,0-9.93,0-14.894,0C277.94,258.634,275.859,259.608,274.477,261.261z"/>
	<path d="M172.72,261.261c-3.023,3.613-1.779,9.282,2.467,11.311c2.075,0.99,4.563,0.711,6.802,0.711c3.146,0,6.294,0,9.44,0
		c2.238,0,4.727,0.279,6.801-0.711c4.246-2.028,5.489-7.697,2.468-11.311c-1.973-2.357-4.638-2.627-7.464-2.627
		c-4.965,0-9.929,0-14.894,0C176.184,258.634,174.104,259.608,172.72,261.261z"/>
	<path d="M216.451,138.705c-3.654,1.771-5.111,6.247-3.355,9.867c0.688,1.417,1.374,2.835,2.062,4.252
		c2.648,5.461,5.296,10.922,7.944,16.383c0.783,1.616,1.566,3.232,2.351,4.849c1.821,3.757,6.351,5.476,10.132,3.463
		c3.507-1.868,4.807-6.23,3.094-9.764c-0.729-1.503-1.457-3.006-2.186-4.508c-2.695-5.559-5.391-11.118-8.086-16.677
		c-0.71-1.464-1.419-2.928-2.129-4.392C224.521,138.558,220.106,136.932,216.451,138.705
		C212.813,140.469,220.092,136.939,216.451,138.705z"/>
	<path d="M191.391,138.705c-3.655,1.771-5.111,6.246-3.355,9.867c0.688,1.417,1.374,2.835,2.062,4.252
		c2.647,5.461,5.295,10.922,7.943,16.383c0.783,1.616,1.567,3.232,2.351,4.849c1.821,3.758,6.351,5.476,10.132,3.463
		c3.508-1.868,4.808-6.229,3.094-9.764c-0.729-1.503-1.457-3.006-2.186-4.508c-2.695-5.559-5.391-11.118-8.086-16.677
		c-0.71-1.464-1.419-2.928-2.129-4.392C199.459,138.558,195.046,136.931,191.391,138.705
		C187.751,140.469,195.031,136.939,191.391,138.705z"/>
	<path d="M386.478,167.207c-2.479,4.009-0.428,9.458,4.072,10.846c1.989,0.613,4.397,0.324,6.448,0.324c3.143,0,6.283,0,9.426,0
		c2.336,0,4.781,0.249,6.896-0.956c4.088-2.329,4.921-8.065,1.649-11.454c-2.053-2.127-4.631-2.237-7.354-2.237
		c-4.967,0-9.936,0-14.903,0C390.192,163.73,387.803,165.065,386.478,167.207z"/>
	<path d="M289.471,65.081c-5.117,10.759-10.236,21.518-15.354,32.276c-4.684,9.846-9.367,19.691-14.051,29.536
		c-1.154,2.427-2.588,4.931-3.152,7.574c-0.373,1.752-0.33,3.516-0.33,5.293c0,1.636-0.002,3.249,0.359,4.858
		c0.962,4.292,3.867,8.014,7.782,10.013c3.096,1.58,6.28,1.616,9.617,1.616c3.808,0,7.616,0,11.423,0c12.297,0,24.594,0,36.891,0
		c11.445,0,22.891,0,34.336,0c2.744,0,5.488,0,8.231,0c5.55,0,10.444-2.488,13.409-7.253c5.568-8.948,11.136-17.896,16.703-26.843
		c1.838-2.954,3.676-5.907,5.514-8.861c2.623-4.214,2.254-8.887,2.254-13.596c0-11.404,0-22.807,0-34.211
		c0-1.413,0.047-2.834-0.161-4.236c-0.648-4.366-3.288-8.292-7.065-10.568c-3.346-2.017-6.883-2.125-10.609-2.125
		c-10.211,0-20.422,0-30.633,0c-12.26,0-24.52,0-36.778,0c-3.343,0-6.685,0-10.026,0c-1.15,0-2.287,0.002-3.43,0.186
		c-4.787,0.769-9.022,3.924-11.106,8.304C292.02,59.724,290.745,62.403,289.471,65.081z M271.232,141.16c0-1.122-0.229-2.49,0-3.585
		c0-0.142,0.121-0.313,0.179-0.433c0.416-0.875,0.832-1.75,1.249-2.624c1.814-3.817,3.631-7.634,5.447-11.451
		c5.453-11.465,10.908-22.93,16.362-34.395c3.86-8.116,7.722-16.232,11.583-24.348c0.106-0.224,0.357-1.122,0.71-1.122
		c0.652,0,1.305,0,1.958,0c3.782,0,7.564,0,11.348,0c12.5,0,25,0,37.5,0c9.6,0,19.199,0,28.798,0c0.614,0,1.228,0,1.841,0
		c0.477,0,0.248,2.111,0.248,2.374c0,5.32,0,10.641,0,15.961c0,6.099,0,12.199,0,18.298c0,1.663,0,3.326,0,4.99
		c0,0.656-0.141,0.883-0.492,1.449c-5.822,9.356-11.643,18.712-17.465,28.067c-1.143,1.836-2.284,3.672-3.427,5.508
		c-0.187,0.3-0.79,1.747-1.251,1.747c-1.961,0-3.922,0-5.883,0c-10.711,0-21.42,0-32.13,0c-12.667,0-25.335,0-38.001,0
		c-6.114,0-12.229,0-18.342,0C271.211,141.596,271.232,141.327,271.232,141.16z"/>
	<path d="M0.798,310.95c1.751,4.872,6.272,8.399,11.433,8.867c1.783,0.161,3.502-0.116,5.223-0.522
		c3.331-0.786,6.663-1.572,9.994-2.358c12.112-2.86,24.226-5.72,36.339-8.579c8.386-1.979,16.771-3.959,25.157-5.938
		c0.344-0.081,0.334-0.155,0.584,0.14c1.628,1.926,3.381,3.746,5.243,5.446c3.736,3.411,7.913,6.337,12.399,8.676
		c8.26,4.305,17.515,6.551,26.826,6.551c2.407,0,4.813,0,7.221,0c6.182,0,12.362,0,18.544,0c9.155,0,18.311,0,27.467,0
		c11.33,0,22.659,0,33.989,0c12.704,0,25.408,0,38.112,0c13.278,0,26.557,0,39.835,0c13.052,0,26.104,0,39.156,0
		c12.025,0,24.052,0,36.078,0c10.199,0,20.399,0,30.6,0c7.572,0,15.146,0,22.72,0c4.147,0,8.294,0,12.44,0
		c9.869,0,19.466-1.911,28.285-6.473c15.797-8.173,27.291-23.514,30.569-41.009c3.775-20.143-3.575-41.193-18.997-54.669
		c3.652-0.826,6.691-3.595,7.851-7.155c0.959-2.943,0.524-6.58,0.524-9.628c0-5.736,0-11.474,0-17.211c0-10.547,0-21.094,0-31.64
		c0-1.813-0.139-3.573-0.871-5.272c-1.778-4.125-5.837-6.501-10.249-6.501c-0.354,0-0.208-0.383-0.208-0.697
		c0-0.718,0-1.436,0-2.154c0-2.493,0-4.986,0-7.48c0-6.386,0-12.771,0-19.157c0-2.275,0-4.55,0-6.825
		c0-1.648,0.053-3.268-0.443-4.87c-0.646-2.084-1.988-3.925-3.768-5.187c-0.928-0.659-1.969-1.158-3.066-1.465
		c-0.225-0.063-2.715-0.508-2.715-0.373c0-2.204,0-4.409,0-6.613c0-2.44,0-4.88,0-7.32c0-0.199,2.538-0.091,2.848-0.091
		c1.68,0,3.269-0.098,4.774-0.956c4.089-2.329,4.921-8.066,1.649-11.454c-2.489-2.58-5.839-2.238-9.096-2.238
		c-3.395,0-6.623-0.053-9.598,1.91c-3.302,2.179-5.227,5.895-5.227,9.831c0,5.205,0,10.41,0,15.615c0,0.361,0,0.722,0,1.083
		c0,0.394-0.135,0.229-0.581,0.253c-2.214,0.122-4.351,1-6.015,2.463c-2.316,2.034-3.396,4.884-3.396,7.919
		c0,10.746,0,21.493,0,32.239c0,1.696,0,3.392,0,5.088c0,0.246,0.11,0.48-0.161,0.48c-1.083,0-2.167,0-3.251,0
		c-2.605,0-5.209,0-7.814,0c-0.159,0-0.072-0.874-0.072-1.017c0-7.676,0-15.353,0-23.029c0-12.808,0-25.616,0-38.424
		c0-11.275,0-22.55,0-33.825c0-2.98,0-5.96,0-8.94c0-0.461,0-0.923,0-1.384c0-0.016,2.889-0.008,3.145-0.008
		c1.847,0,3.625-0.25,5.324-1.017c4.107-1.853,6.828-6.046,6.828-10.554c0.024-2.151,0-4.305,0-6.457c0-2.452,0-4.905,0-7.357
		c0-4.087-2.139-7.936-5.66-10.037C436.842-0.716,431.574,0,427.182,0c-6.258,0-12.517,0-18.775,0c-1.817,0-3.635,0-5.453,0
		c-3.244,0-6.215,1.75-7.317,4.908c-1.561,4.468,1.638,9.363,6.356,9.72c1.365,0.103,2.76,0.021,4.127,0.021
		c6.105,0,12.211,0,18.317,0c2.175,0,4.349,0,6.524,0c0.115,0,0.818-0.071,0.818,0.058c0,1.174,0,2.348,0,3.522
		c0,1.316,0,2.631,0,3.947c0,0.489-1.497,0.224-1.893,0.224c-2.037,0-4.074,0-6.111,0c-1.375,0-2.751,0-4.127,0
		c-8.252,0-16.506,0-24.76,0c-12.455,0-24.91,0-37.366,0c-12.897,0-25.796,0-38.692,0c-9.58,0-19.158,0-28.737,0
		c-3.72,0-7.44,0-11.161,0c-6.014,0-12.026,0-18.04,0c-2.586,0-5.171,0-7.757,0c-0.646,0-1.291,0-1.938,0
		c-0.486,0-0.28-0.374-0.28-0.832c0-0.573-0.004-6.92,0.004-6.92c0.392,0,0.782,0,1.173,0c2.629,0,5.26,0,7.889,0
		c10.432,0,20.864,0,31.297,0c13.105,0,26.211,0,39.317,0c10.711,0,21.422,0,32.133,0c2.874,0,5.747,0,8.62,0
		c0.539,0,1.078,0,1.617,0c3.309,0,6.295-2.201,7.159-5.42C381.356,4.644,377.797,0,373.052,0c-0.341-0.006-0.684,0-1.024,0
		c-2.508,0-5.016,0-7.523,0c-10.201,0-20.402,0-30.604,0c-13.095,0-26.19,0-39.286,0c-11.165,0-22.331,0-33.497,0
		c-3.352,0-6.703,0-10.056,0c-1.962,0-4.031-0.141-5.949,0.324c-4.347,1.053-7.789,4.659-8.637,9.051
		c-0.44,2.282-0.209,4.783-0.209,7.091c0,2.809,0,5.617,0,8.426c0,3.572,1.229,6.908,3.966,9.3
		c4.312,3.767,10.463,2.857,15.764,2.857c4.752,0,9.503,0,14.255,0c-0.005,0.01-0.009,0.02-0.014,0.029
		c-3.128,6.573-6.255,13.146-9.382,19.72c-5.511,11.584-11.022,23.169-16.533,34.754c-2.081,4.375-4.162,8.75-6.243,13.124
		c-0.598,1.256-1.195,2.512-1.792,3.768c-0.05,0.103-0.489,1.251-0.603,1.251c-7.49,0-14.981,0-22.472,0c-12.61,0-25.221,0-37.831,0
		c-3.872,0-7.743,0-11.615,0c-5.15,0-10.077,0.866-14.568,3.566c-7.495,4.506-12.201,12.786-12.201,21.535c0,2.281,0,4.563,0,6.845
		c0,11.889,0,23.778,0,35.668c0,9.478,0,18.955,0,28.433c0,0.287,0,0.574,0,0.862c0,0.271-1.559,0.104-1.807,0.104
		c-0.421,0-2.519,0.166-2.576-0.076c-0.08-0.342-0.16-0.683-0.24-1.024c-0.967-4.109-1.933-8.218-2.899-12.327
		c-2.77-11.779-5.54-23.56-8.311-35.339c-0.777-3.309-1.281-7.034-3.184-9.912c-2.623-3.966-7.279-6.271-12.022-5.993
		c-4.344,0.254-8.347,2.674-10.632,6.371c-2.873,4.648-5.747,9.297-8.621,13.946c-6.266,10.138-12.532,20.274-18.799,30.411
		c-6.702,10.843-13.404,21.686-20.107,32.528c-4.182,6.765-8.363,13.53-12.545,20.295c-0.306,0.494-0.611,0.987-0.916,1.481
		c-1.692,2.738-1.479,6.31,0.657,8.755c3.116,3.569,8.955,3.2,11.597-0.73c0.254-0.379,0.484-0.774,0.725-1.161
		c3.928-6.354,7.855-12.709,11.784-19.063c6.659-10.772,13.318-21.546,19.978-32.318c6.277-10.155,12.556-20.312,18.834-30.467
		c2.784-4.505,5.568-9.009,8.353-13.513c0.784,3.334,1.568,6.668,2.353,10.003c2.758,11.726,5.515,23.45,8.272,35.176
		c0.35,1.488,0.7,2.976,1.05,4.464c0.055,0.231,0.108,0.462,0.163,0.693c-0.024-0.105-6.542,2.289-7.022,2.495
		c-9.623,4.124-18.361,10.945-24.38,19.557c-12.059,16.891-14.309,39.353-5.677,58.274c-2.32,0.548-4.642,1.096-6.962,1.644
		c-11.773,2.779-23.547,5.559-35.32,8.338c-7.579,1.79-15.158,3.579-22.737,5.368c3.568-5.772,7.136-11.544,10.704-17.316
		c1.246-2.016,2.491-4.03,3.737-6.046c1.327-2.146,2.2-4.386,1.446-6.96c-1.324-4.521-6.722-6.637-10.77-4.236
		c-1.693,1.004-2.584,2.602-3.576,4.206c-5.173,8.369-10.347,16.737-15.52,25.106C-0.111,302.796-0.578,307.121,0.798,310.95z
		 M462.414,137.912c0,1.766,0,3.532,0,5.298c0,0.532-0.08,0.388-0.659,0.388c-1.421,0-2.843,0-4.264,0
		c-0.51,0-0.413-0.01-0.413-0.488c0-0.702,0-1.403,0-2.104c0-2.574,0-5.147,0-7.721c0-6.173,0-12.346,0-18.519
		c0-1.507,0-3.014,0-4.521c0-0.267,4.699-0.125,5.336-0.125C462.414,119.384,462.414,128.648,462.414,137.912z M473.74,164.339
		c0,11.979,0,23.958,0,35.938c0,0.398,0.055,6.432-0.047,6.432c-0.715,0-1.431,0-2.146,0c-4.329,0-8.658,0-12.987,0
		c-7.585,0-15.17,0-22.755,0c-10.11,0-20.221,0-30.331,0c-11.904,0-23.809,0-35.713,0c-12.969,0-25.937,0-38.904,0
		c-13.301,0-26.602,0-39.901,0c-12.902,0-25.804,0-38.706,0c-11.773,0-23.547,0-35.319,0c-9.913,0-19.826,0-29.738,0
		c-7.322,0-14.645,0-21.967,0c-4,0-8,0-12,0c-0.077,0-1.578,0.001-1.578-0.001c0-2.202,0-4.403,0-6.605c0-11.84,0-23.68,0-35.519
		c0-9.574,0-19.148,0-28.723c0-1.36,0.032-2.688,0.422-4.015c1.26-4.288,5.256-7.38,9.727-7.498
		c2.065-0.054,4.138-0.003,6.203-0.003c11.433,0,22.864,0,34.296,0c11.092,0,22.184,0,33.275,0c2.555,0,5.705,0.397,8.049-0.786
		c2.702-1.364,3.676-4.153,4.888-6.702c4.297-9.032,8.593-18.063,12.89-27.095c5.495-11.551,10.99-23.102,16.484-34.653
		c2.859-6.008,5.718-12.017,8.576-18.026c0.13-0.273,2.967-0.033,3.264-0.033c3.289,0,6.577,0,9.866,0c10.985,0,21.971,0,32.956,0
		c13.133,0,26.266,0,39.399,0c10.806,0,21.612,0,32.419,0c3.132,0,6.264,0,9.396,0c0.293,0,2.723-0.159,2.723,0.125
		c0,6.283,0,12.565,0,18.848c0,12.423,0,24.847,0,37.271c0,12.031,0,24.063,0,36.094c0,3.828,0,7.655,0,11.482
		c0,1.993-0.145,4.098,0.179,6.071c0.716,4.377,3.63,8.211,7.641,10.098c2.12,0.998,4.356,1.285,6.665,1.285
		c4.621,0,9.241,0,13.862,0c9.638,0,19.276,0,28.913,0C473.74,160.329,473.74,162.334,473.74,164.339z M90.395,265.081
		c0-17.418,10.671-33.572,26.735-40.335c5.47-2.303,11.347-3.394,17.272-3.394c1.101,0,2.201,0,3.302,0c5.114,0,10.229,0,15.344,0
		c8.334,0,16.667,0,25,0c10.752,0,21.503,0,32.255,0c12.369,0,24.739,0,37.109,0c13.188,0,26.375,0,39.563,0
		c13.206,0,26.411,0,39.618,0c12.423,0,24.847,0,37.271,0c10.842,0,21.683,0,32.524,0c8.459,0,16.919,0,25.378,0
		c5.276,0,10.554,0,15.831,0c5.189,0,10.272,0.103,15.359,1.454c17.477,4.643,30.617,20.201,32.229,38.217
		c1.621,18.12-8.529,35.769-25.01,43.479c-5.803,2.715-12.154,4.078-18.555,4.078c-0.889,0-1.775,0-2.664,0
		c-4.748,0-9.497,0-14.246,0c-8.047,0-16.095,0-24.143,0c-10.545,0-21.092,0-31.637,0c-12.244,0-24.488,0-36.732,0
		c-13.142,0-26.283,0-39.426,0c-13.24,0-26.48,0-39.721,0c-12.537,0-25.075,0-37.613,0c-11.036,0-22.071,0-33.107,0
		c-8.733,0-17.467,0-26.2,0c-5.632,0-11.263,0-16.894,0c-3.934,0-7.866,0.103-11.771-0.485c-9.836-1.479-18.988-6.411-25.688-13.755
		C94.521,286.385,90.411,275.854,90.395,265.081C90.395,265.05,90.396,265.716,90.395,265.081z"/>
</g>
</svg>
