<?xml version="1.0" encoding="utf-8"?>
<!-- Generator: Adobe Illustrator 24.2.0, SVG Export Plug-In . SVG Version: 6.00 Build 0)  -->
<svg version="1.1" id="Capa_1" xmlns="http://www.w3.org/2000/svg" xmlns:xlink="http://www.w3.org/1999/xlink" x="0px" y="0px"
	 viewBox="0 0 59 59" style="enable-background:new 0 0 59 59;" xml:space="preserve">
<style type="text/css">
	.st0{fill:#006B96;}
</style>
<g>
	<path class="st0" d="M14,7c0-3.9-3.1-7-7-7S0,3.1,0,7v45l0,0c0,0,0,0,0,0.1C0,55.9,3.1,59,6.9,59H59V7H14z M2,7
		c0-2.4,1.7-4.4,4-4.9C6.1,2.6,6.5,3,7,3s0.9-0.4,1-0.9c2.3,0.5,4,2.5,4,4.9v40.1C10.7,45.8,9,45,7,45c-0.2,0-0.5,0-0.7,0
		c-0.1,0-0.2,0-0.3,0c-0.1,0-0.3,0-0.4,0.1c-0.1,0-0.3,0.1-0.4,0.1s-0.2,0-0.3,0.1c-0.2,0.1-0.3,0.1-0.5,0.2c0,0-0.1,0-0.2,0.1
		c-0.2,0.1-0.4,0.2-0.6,0.3l0,0C3,46.2,2.5,46.6,2,47.1V7z M57,57H6.9C4.2,57,2,54.8,2,52s2.2-5,5-5s5,2.2,5,5h2V9h43V57z"/>
	<path class="st0" d="M46,21c0.2,0.1,0.4,0.2,0.6,0.2c0.3,0,0.6-0.1,0.8-0.4c0.3-0.5,0.2-1.1-0.2-1.4l-1.6-1.2
		c-0.5-0.3-1.1-0.2-1.4,0.2c-0.3,0.5-0.2,1.1,0.2,1.4L46,21z"/>
	<path class="st0" d="M50.9,24.5c0.2,0.1,0.4,0.2,0.6,0.2c0.3,0,0.6-0.1,0.8-0.4c0.3-0.5,0.2-1.1-0.2-1.4l-1.6-1.2
		c-0.5-0.3-1.1-0.2-1.4,0.2c-0.3,0.5-0.2,1.1,0.2,1.4L50.9,24.5z"/>
	<path class="st0" d="M37,41c0,0.6,0.4,1,1,1h2c0.6,0,1-0.4,1-1s-0.4-1-1-1h-2C37.4,40,37,40.4,37,41z"/>
	<path class="st0" d="M51,27.4v2c0,0.6,0.4,1,1,1s1-0.4,1-1v-2c0-0.6-0.4-1-1-1S51,26.8,51,27.4z"/>
	<path class="st0" d="M41.1,17.5c0.2,0.1,0.4,0.2,0.6,0.2c0.3,0,0.6-0.1,0.8-0.4c0.3-0.5,0.2-1.1-0.2-1.4l-1.6-1.2
		c-0.5-0.3-1.1-0.2-1.4,0.2c-0.3,0.5-0.2,1.1,0.2,1.4L41.1,17.5z"/>
	<path class="st0" d="M43,41c0,0.6,0.4,1,1,1h2c0.6,0,1-0.4,1-1s-0.4-1-1-1h-2C43.4,40,43,40.4,43,41z"/>
	<path class="st0" d="M29,41c0-0.6-0.4-1-1-1h-2c-0.6,0-1,0.4-1,1s0.4,1,1,1h2C28.6,42,29,41.6,29,41z"/>
	<path class="st0" d="M52,36.4c0.6,0,1-0.4,1-1v-2c0-0.6-0.4-1-1-1s-1,0.4-1,1v2C51,35.9,51.4,36.4,52,36.4z"/>
	<path class="st0" d="M36.2,14.1c0.2,0.1,0.4,0.2,0.6,0.2c0.3,0,0.6-0.1,0.8-0.4c0.3-0.5,0.2-1.1-0.2-1.4l-1.6-1.2
		c-0.5-0.3-1.1-0.2-1.4,0.2c-0.3,0.5-0.2,1.1,0.2,1.4L36.2,14.1z"/>
	<path class="st0" d="M51,40h-1c-0.6,0-1,0.4-1,1s0.4,1,1,1h3v-2.6c0-0.6-0.4-1-1-1s-1,0.4-1,1V40z"/>
	<path class="st0" d="M20,42h2c0.6,0,1-0.4,1-1s-0.4-1-1-1h-2c-0.6,0-1,0.4-1,1S19.4,42,20,42z"/>
	<path class="st0" d="M18,28c0.6,0,1-0.4,1-1v-2c0-0.6-0.4-1-1-1s-1,0.4-1,1v2C17,27.6,17.4,28,18,28z"/>
	<path class="st0" d="M20.5,23.3c0.2,0,0.4-0.1,0.6-0.2l1.6-1.2c0.5-0.3,0.6-0.9,0.2-1.4c-0.3-0.5-0.9-0.6-1.4-0.2l-1.6,1.2
		c-0.5,0.3-0.6,0.9-0.2,1.4C19.8,23.1,20.1,23.3,20.5,23.3z"/>
	<path class="st0" d="M25.4,19.8c0.2,0,0.4-0.1,0.6-0.2l1.6-1.2c0.5-0.3,0.6-0.9,0.2-1.4c-0.3-0.4-0.9-0.6-1.4-0.2L24.8,18
		c-0.5,0.3-0.6,0.9-0.2,1.4C24.7,19.7,25,19.8,25.4,19.8z"/>
	<path class="st0" d="M18,34c0.6,0,1-0.4,1-1v-2c0-0.6-0.4-1-1-1s-1,0.4-1,1v2C17,33.6,17.4,34,18,34z"/>
	<path class="st0" d="M30.3,16.4c0.2,0,0.4-0.1,0.6-0.2l1.6-1.2c0.5-0.3,0.6-0.9,0.2-1.4c-0.3-0.4-0.9-0.6-1.4-0.2l-1.6,1.2
		c-0.5,0.3-0.6,0.9-0.2,1.4C29.6,16.2,29.9,16.4,30.3,16.4z"/>
	<path class="st0" d="M31,41c0,0.6,0.4,1,1,1h2c0.6,0,1-0.4,1-1s-0.4-1-1-1h-2C31.4,40,31,40.4,31,41z"/>
	<path class="st0" d="M18,40c0.6,0,1-0.4,1-1v-2c0-0.6-0.4-1-1-1s-1,0.4-1,1v2C17,39.6,17.4,40,18,40z"/>
	<path class="st0" d="M41,54h13v-8H41V54z M43,48h9v4h-9V48z"/>
	<path class="st0" d="M22,30v2c0,0.6,0.4,1,1,1s1-0.4,1-1v-2c0-0.6-0.4-1-1-1S22,29.4,22,30z"/>
	<path class="st0" d="M31,27c-0.6,0-1,0.4-1,1v2c0,0.6,0.4,1,1,1s1-0.4,1-1v-2C32,27.4,31.6,27,31,27z"/>
	<path class="st0" d="M25,29h2c0.6,0,1-0.4,1-1s-0.4-1-1-1h-2c-0.6,0-1,0.4-1,1S24.4,29,25,29z"/>
	<path class="st0" d="M26,36c0-0.6-0.4-1-1-1h-2c-0.6,0-1,0.4-1,1s0.4,1,1,1h2C25.6,37,26,36.6,26,36z"/>
	<path class="st0" d="M29,37h2c0.6,0,1-0.4,1-1v-2c0-0.6-0.4-1-1-1s-1,0.4-1,1v1h-1c-0.6,0-1,0.4-1,1S28.4,37,29,37z"/>
	<path class="st0" d="M40,28c0,0.6,0.4,1,1,1h2c0.6,0,1-0.4,1-1s-0.4-1-1-1h-2C40.4,27,40,27.4,40,28z"/>
	<path class="st0" d="M46,28v2c0,0.6,0.4,1,1,1s1-0.4,1-1v-2c0-0.6-0.4-1-1-1S46,27.4,46,28z"/>
	<path class="st0" d="M47,37c0.6,0,1-0.4,1-1v-2c0-0.6-0.4-1-1-1s-1,0.4-1,1v1h-1c-0.6,0-1,0.4-1,1s0.4,1,1,1H47z"/>
	<path class="st0" d="M39,33c0.6,0,1-0.4,1-1v-2c0-0.6-0.4-1-1-1s-1,0.4-1,1v2C38,32.6,38.4,33,39,33z"/>
	<path class="st0" d="M39,37h2c0.6,0,1-0.4,1-1s-0.4-1-1-1h-2c-0.6,0-1,0.4-1,1S38.4,37,39,37z"/>
	<path class="st0" d="M38,46h-5c-0.6,0-1,0.4-1,1s0.4,1,1,1h5c0.6,0,1-0.4,1-1S38.6,46,38,46z"/>
	<path class="st0" d="M38,49h-7c-0.6,0-1,0.4-1,1s0.4,1,1,1h7c0.6,0,1-0.4,1-1S38.6,49,38,49z"/>
	<path class="st0" d="M38,52H28c-0.6,0-1,0.4-1,1s0.4,1,1,1h10c0.6,0,1-0.4,1-1S38.6,52,38,52z"/>
	<circle class="st0" cx="4" cy="5" r="1"/>
	<circle class="st0" cx="10" cy="5" r="1"/>
	<circle class="st0" cx="7" cy="8" r="1"/>
	<circle class="st0" cx="4" cy="11" r="1"/>
	<circle class="st0" cx="10" cy="11" r="1"/>
	<circle class="st0" cx="4" cy="17" r="1"/>
	<circle class="st0" cx="10" cy="17" r="1"/>
	<circle class="st0" cx="7" cy="14" r="1"/>
	<circle class="st0" cx="7" cy="20" r="1"/>
	<circle class="st0" cx="4" cy="23" r="1"/>
	<circle class="st0" cx="10" cy="23" r="1"/>
	<circle class="st0" cx="4" cy="29" r="1"/>
	<circle class="st0" cx="10" cy="29" r="1"/>
	<circle class="st0" cx="7" cy="26" r="1"/>
	<circle class="st0" cx="7" cy="32" r="1"/>
	<circle class="st0" cx="4" cy="35" r="1"/>
	<circle class="st0" cx="10" cy="35" r="1"/>
	<circle class="st0" cx="4" cy="41" r="1"/>
	<circle class="st0" cx="10" cy="41" r="1"/>
	<circle class="st0" cx="7" cy="38" r="1"/>
	<circle class="st0" cx="7" cy="44" r="1"/>
</g>
</svg>
