<?xml version="1.0" encoding="utf-8"?>
<!-- Generator: Adobe Illustrator 24.2.0, SVG Export Plug-In . SVG Version: 6.00 Build 0)  -->
<svg version="1.1" id="Layer_1" xmlns="http://www.w3.org/2000/svg" xmlns:xlink="http://www.w3.org/1999/xlink" x="0px" y="0px"
	 viewBox="0 0 480 480" style="enable-background:new 0 0 480 480;" xml:space="preserve">
<style type="text/css">
	.st0{fill:#FE6300;}
</style>
<path class="st0" d="M472,112h-32c-4.4,0-8,3.6-8,8v48.8c-10.4-9.2-27.5-16.8-56-16.8c-53,0-67,26.3-70.7,40H272v-16
	c0-8.8-7.2-16-16-16h-32c-8.8,0-16,7.2-16,16H40c-13.3,0-24,10.8-24,24v40H8c-4.4,0-8,3.6-8,8v112c0,4.4,3.6,8,8,8h24
	c3.9,0,7.3-2.8,7.9-6.7l6.9-41.3h386.4l6.9,41.3c0.6,3.9,4,6.7,7.9,6.7h24c4.4,0,8-3.6,8-8V120C480,115.6,476.4,112,472,112z
	 M376,168c37.5,0,49.9,14.5,54,24H322C326.1,182.5,338.5,168,376,168z M432,208v32H272v-32H432z M224,176h32v64h-32V176z M32,200
	c0-4.4,3.6-8,8-8h168v48H32V200z M16,256h416v48H16V256z M25.2,352H16v-32h14.6L25.2,352z M464,352h-9.2l-6.8-40.7V128h16V352z"/>
</svg>
