<?xml version="1.0" encoding="utf-8"?>
<!-- Generator: Adobe Illustrator 24.2.0, SVG Export Plug-In . SVG Version: 6.00 Build 0)  -->
<svg version="1.1" id="Capa_1" xmlns="http://www.w3.org/2000/svg" xmlns:xlink="http://www.w3.org/1999/xlink" x="0px" y="0px"
	 viewBox="0 0 512 512" style="enable-background:new 0 0 512 512;" xml:space="preserve">
<style type="text/css">
	.st0{fill:#006B96;}
</style>
<g>
	<g>
		<path class="st0" d="M507.6,240c-2.9-3.9-6.9-6.7-11.6-8.2l-55.8-17l-17.1-26.1c-9-13.8-24.9-21.5-41.3-20l-55.8,5
			c-4.2,0.4-7.3,4.1-6.9,8.2c0.4,4.2,4.1,7.3,8.2,6.9l55.8-5c9.2-0.8,18,2.7,24.1,9.2l-33.4,9.3c-1.3,0.4-2.5,1-3.5,1.9
			c-2.3,2.3-2.9,5.6-1.7,8.4c6.4,15.5,21.3,25.2,37.5,25.2c3,0,6.1-0.3,9.1-1l25.7-5.9l50.6,15.4c1.5,0.5,2.8,1.4,3.8,2.7
			c0.9,1.3,1.4,2.8,1.4,4.4c0,3.4-2.3,6.3-5.5,7.1L474,265c-54.7,14.1-110.9,21.8-167.3,23l4.7-3.2c2.5-1.7,4-4.7,3.5-7.7
			c-0.6-3.7-3.8-6.4-7.5-6.4H168c-2.5,0-4.9,1.2-6.3,3.3l-9.6,14.1H67c-24.7,0-45.2-19.3-46.5-44L15.6,156H51l19.2,50.2
			c1.2,3.2,4.4,5.2,7.8,4.9L292,192c4.2-0.4,7.3-4.1,6.9-8.2c-0.4-4.2-4.1-7.3-8.2-6.9L243,181l-75.6-51c-1.3-0.8-2.7-1.3-4.3-1.3
			h-61.4c-2.3,0-4.5,0.9-5.9,2.6c-2.3,2.7-2.5,6.5-0.5,9.3l34.5,50.5l-47.5,4.2l-19-49.7c-1.1-2.9-4-4.9-7.1-4.9H7.7
			c-1,0-2,0.2-2.9,0.5c-3.2,1.3-5,4.3-4.8,7.5L5.3,245c1.8,32.8,28.9,58.4,61.7,58.4h74.7l-3.9,5.7c-2.4,3.5-1.5,8.2,2,10.6
			s8.2,1.5,10.6-2L172,286h110.4l-121.6,82H116l16.9-24.8c2.4-3.5,1.5-8.2-2-10.6s-8.2-1.5-10.6,2l-24.9,36.5
			c-1.3,1.9-1.8,4.2-1.2,6.4c0.9,3.4,4,5.7,7.4,5.7h61.6c1.5,0,3-0.5,4.3-1.3l116.4-78.5h7.5c62.8,0,125.6-8,186.5-23.7l17.3-4.5
			c10-2.6,16.9-11.6,16.9-21.9C512,248.5,510.5,243.9,507.6,240z M411.9,222c-9.2,2.1-18.4-1-24.4-7.6l28.9-8.1l8.4,12.8L411.9,222z
			 M116,144h44.8l58.2,39.2l-71.8,6.4L116,144z"/>
	</g>
</g>
<g>
	<g>
		<path class="st0" d="M147.9,215.1c-12.2,0-22.1,9.9-22.1,22.1s9.9,22.1,22,22.1c12.2,0,22.1-9.9,22.1-22.1
			S160.1,215.1,147.9,215.1z M147.9,244c-3.8,0-6.8-3.1-6.8-6.8s3.1-6.8,6.8-6.8s6.8,3.1,6.8,6.8S151.7,244,147.9,244z"/>
	</g>
</g>
<g>
	<g>
		<path class="st0" d="M210.7,213.1c-12.2,0-22.1,9.9-22.1,22.1s9.9,22.1,22.1,22.1s22.1-9.9,22.1-22.1S222.9,213.1,210.7,213.1z
			 M210.7,242c-3.8,0-6.8-3.1-6.8-6.8c0-3.8,3.1-6.8,6.8-6.8s6.8,3.1,6.8,6.8S214.5,242,210.7,242z"/>
	</g>
</g>
<g>
	<g>
		<path class="st0" d="M276.1,210c-12.2,0-22.1,9.9-22.1,22.1s9.9,22.1,22.1,22.1s22-9.9,22-22.1S288.2,210,276.1,210z M276.1,238.9
			c-3.8,0-6.8-3.1-6.8-6.8c0-3.8,3.1-6.8,6.8-6.8s6.8,3.1,6.8,6.8C282.9,235.9,279.9,238.9,276.1,238.9z"/>
	</g>
</g>
</svg>
