<?xml version="1.0" encoding="utf-8"?>
<!-- Generator: Adobe Illustrator 24.2.0, SVG Export Plug-In . SVG Version: 6.00 Build 0)  -->
<svg version="1.1" id="Layer_1" xmlns="http://www.w3.org/2000/svg" xmlns:xlink="http://www.w3.org/1999/xlink" x="0px" y="0px"
	 viewBox="0 0 512 512" style="enable-background:new 0 0 512 512;" xml:space="preserve">
<style type="text/css">
	.st0{fill:#FE6300;}
</style>
<g id="Page-1">
	<g id="_x30_16---Propeller">
		<path id="Shape" class="st0" d="M424.4,333.5c6.4-38.4-0.9-77.9-20.6-111.5c0-0.1,0-0.1-0.1-0.2c0-0.1-0.1-0.1-0.1-0.1
			c-14.9-25.8-36.4-47.2-62.2-62.2c-0.1,0-0.1-0.1-0.2-0.1s-0.2,0-0.2-0.1c-16.3-9.4-34.1-16-52.6-19.5c0.5-5.9,1.2-11.7,1.9-17.4
			c0.7-5.1,1.7-11.1,2.7-17.4c4.2-19.1,5.8-38.7,4.9-58.3c-0.6-12.7-8.8-23.8-20.8-28.2c-17.9-6.4-32.2,7.9-39,14.8
			c-29.8,32-47.3,73.5-49.7,117.1c-33.6,14.5-61.7,39.4-80.1,71.1c0,0.1-0.1,0.1-0.1,0.1c0,0.1,0,0.1-0.1,0.2
			c-27.8,48-30.3,106.6-6.8,156.9c-7.9,4.8-15.9,9.6-23.8,13.9c-4.7,2.6-10.2,5.3-16.1,8.3c-17.8,7.8-34.4,17.9-49.5,30
			C2,438.9-2.2,452,1.3,464.3c5.3,18.1,25.3,21.3,34.9,22.9c7.7,1.2,15.4,1.8,23.2,1.8c39.1-0.8,77-13.3,109-35.7
			c26.4,16,56.8,24.5,87.7,24.4c29.8,0,59.2-7.9,85-22.7c0.1-0.1,0.2-0.1,0.3-0.1s0.1-0.1,0.2-0.1c14.7-8.5,28-19.3,39.5-31.8
			c10.2,6.5,20.3,13,29.7,19.2c25.7,16.9,47,30.8,63.1,36c0.5,0.2,1,0.4,1.6,0.5c3.3,1.1,6.7,1.7,10.1,1.9h0.3
			c12.1,0.4,22.8-7.9,25.3-19.8c3.5-15.8-3.3-31.7-8.2-43.3C486.3,381.9,458.9,352.4,424.4,333.5L424.4,333.5z M408.4,325.2
			c-21.1-9.9-43.8-15.9-67.1-17.6c0-0.2,0-0.3,0-0.5c0-12.1-2.6-24-7.6-35L393,238C406.8,264.9,412.2,295.3,408.4,325.2L408.4,325.2
			z M187.7,307.2c0-37.7,30.6-68.3,68.3-68.3s68.3,30.6,68.3,68.3s-30.6,68.3-68.3,68.3C218.3,375.4,187.8,344.9,187.7,307.2z
			 M102.7,298.7c1.2-21.1,6.7-41.8,16.3-60.7l59.3,34.3c-3.8,8.4-6.2,17.3-7.2,26.5L102.7,298.7z M281.5,57.2
			c-0.6,15.1-2.4,30.2-5.2,45c-1.1,6.5-2.1,12.7-2.8,18c-1.1,8.3-1.9,16.7-2.6,25.2c0,0.1-0.1,0.1-0.1,0.2c0,0.1,0,0.2,0,0.3
			c-1.4,16.8-2.2,33.5-2.9,48.9c-0.4,9.8-0.9,19.1-1.4,27.8c-3.5-0.4-7-0.7-10.6-0.7c-3.4,0-6.8,0.2-10.2,0.7
			C229.1,165.4,243.7,97.7,281.5,57.2L281.5,57.2z M264.5,392.1c9.1-0.9,18.1-3.4,26.5-7.2l34.2,59.3c-18.9,9.6-39.6,15.1-60.7,16.3
			V392.1z M384.5,223.1l-59.4,34.3c-5.4-7.4-11.9-14-19.3-19.3l34.3-59.3C357.8,190.3,372.9,205.4,384.5,223.1L384.5,223.1z
			 M325.2,170.2L291,229.5c-2.5-1.1-5-2.1-7.6-3c0.6-9.6,1.1-20,1.6-30.9c0.6-12.2,1.2-25.4,2.1-38.6
			C300.3,159.7,313.1,164.1,325.2,170.2L325.2,170.2z M250.3,45.5c8.4-8.4,14.8-13.1,21.2-10.8c1.9,0.7,3.7,1.8,5.1,3.2
			c-1.5,1.4-2.9,2.8-4.2,4c-44,44.1-61.4,120.2-43.3,184.3c-3.9,1.3-7.7,2.9-11.4,4.8C192,171.5,205.7,90.1,250.3,45.5L250.3,45.5z
			 M188,169.5c0.2,24.4,5.3,48.5,15.1,70.8c-6.2,4.9-11.7,10.7-16.3,17.1l-59.2-34.2C142.6,200.2,163.5,181.7,188,169.5L188,169.5z
			 M102.7,315.7h68.4c0.6,5.6,1.7,11.1,3.3,16.5c-10.5,6.3-22.1,13.9-34.4,22c-7.7,5.1-15.9,10.4-24.2,15.7
			C108.2,352.8,103.7,334.4,102.7,315.7L102.7,315.7z M69,416.3c6.1-3.1,11.9-6,16.6-8.5c10.3-5.6,20.6-11.7,30.6-18l0.1-0.1
			l0.1-0.1c11.4-7.1,22.5-14.4,32.9-21.2c11.3-7.4,22.1-14.5,31.7-20.4c2.9,5.3,6.4,10.3,10.4,14.8c-32.6,48.5-91,81-143.9,79.4
			c-6.3,0.3-12.6-0.9-18.4-3.6C41.9,430.3,55.2,422.8,69,416.3L69,416.3z M38.9,470.5c-11.7-1.9-19.3-4.3-21.2-10.8
			c-0.8-2.6-0.8-5.4,0.2-8c8.8,5.4,19,8.1,29.3,7.7c1.3,0,2.6,0.1,3.9,0.1c56.7,0,117.8-34.1,153.1-84.7c2.7,2,5.4,3.9,8.3,5.6
			c-11.8,22.1-28.5,41.2-48.9,55.8l-0.2,0.2C127.1,462.9,80.5,477.1,38.9,470.5z M227.9,387.7c6.3,2.2,12.9,3.7,19.6,4.4v68.4
			c-22.5-1.2-44.5-7.4-64.3-18.1C201.6,427.4,216.9,408.8,227.9,387.7L227.9,387.7z M340,435.6l-29.7-51.5c7.4,4.1,15.1,8,22.3,11.5
			c5.7,2.9,11.1,5.5,15.6,8c6,3.3,12.1,6.8,18.1,10.4C358.3,422.2,349.5,429.4,340,435.6L340,435.6z M356.2,388.6
			c-4.7-2.6-10.2-5.3-16.1-8.2c-7.8-3.9-16.3-8.2-24.2-12.6c4.8-4.8,9-10.1,12.6-15.9c57,9,112.2,49.5,132.9,98.1
			c0.7,1.7,1.5,3.4,2.2,5.3c-12.8-6.9-28.3-17.1-43.7-27.2C400.5,415.2,378.4,400.6,356.2,388.6L356.2,388.6z M494.4,457.1
			c-0.8,4-4.5,6.8-8.5,6.5h-0.1c-0.4,0-0.9-0.2-1.3-0.2c-1.9-6.9-4.3-13.7-7.3-20.2c-22.6-53.1-79.5-96-140.9-107.4
			c1.3-3.6,2.4-7.4,3.2-11.1c61.1,3.8,124.9,46.4,147.6,99.7C491.4,434.3,496.7,446.7,494.4,457.1L494.4,457.1z"/>
		<path id="Shape_1_" class="st0" d="M273.1,285.9c0-16.5-13.4-29.9-29.9-29.9s-29.9,13.4-29.9,29.9s13.4,29.9,29.9,29.9
			S273.1,302.4,273.1,285.9z M243.2,298.7c-7.1,0-12.8-5.7-12.8-12.8s5.7-12.8,12.8-12.8s12.8,5.7,12.8,12.8
			S250.3,298.7,243.2,298.7z"/>
		<path id="Shape_2_" class="st0" d="M170.9,111.5c2.8-1.2,4.7-3.8,5.1-6.9c0.3-3-1-6-3.4-7.8c-2.5-1.8-5.7-2.2-8.5-1
			C57.9,142.3,2.5,260.1,34.3,371.5c0.8,3,3.1,5.3,6,6.1c3,0.8,6.1-0.1,8.3-2.3c2.2-2.2,3-5.4,2.1-8.3
			C21.2,263.8,72.6,154.6,170.9,111.5L170.9,111.5z"/>
		<path id="Shape_3_" class="st0" d="M193.9,49.9c-0.6-2.2-2-4-4-5.2c-2-1.1-4.3-1.4-6.5-0.8c-74.6,20.7-137,71.9-171.7,141.2
			c-1.4,2.7-1.2,6,0.5,8.5c1.7,2.6,4.6,4,7.6,3.8s5.8-2,7.1-4.7c32.5-64.9,91-113,160.9-132.4c2.2-0.6,4-2,5.2-4
			S194.5,52,193.9,49.9L193.9,49.9z"/>
	</g>
</g>
</svg>
