<?xml version="1.0" encoding="utf-8"?>
<!-- Generator: Adobe Illustrator 24.2.0, SVG Export Plug-In . SVG Version: 6.00 Build 0)  -->
<svg version="1.1" id="Layer_1" xmlns="http://www.w3.org/2000/svg" xmlns:xlink="http://www.w3.org/1999/xlink" x="0px" y="0px"
	 viewBox="0 0 512 512" style="enable-background:new 0 0 512 512;" xml:space="preserve">
<style type="text/css">
	.st0{fill:#FE6300;}
</style>
<g>
	<path class="st0" d="M502,492c-5.5,0-10,4.5-10,10s4.5,10,10,10s10-4.5,10-10S507.5,492,502,492z"/>
	<path class="st0" d="M423,0c-28.1,0-51,22.9-51,51v45.7l-61.5,85H168c-16.5,0-30,13.5-30,30s13.5,30,30,30h99.1l-22,30.3H108
		c-38.6,0-70,31.4-70,70s31.4,70,70,70h128.2l14.6,40H128c-16.5,0-30,13.5-30,30c0,3.5,0.6,6.9,1.7,10H10c-5.5,0-10,4.5-10,10
		s4.5,10,10,10h452c5.5,0,10-4.5,10-10s-4.5-10-10-10H316.3c1.1-3.1,1.7-6.5,1.7-10v-20c0-1.2-0.2-2.4-0.6-3.5L300.2,412h7.8l0,0
		l0,0c3.7,0,7.1-2.1,8.9-5.4l156-301c0.7-1.4,1.1-3,1.1-4.6c0-0.2,0-0.4,0-0.6c0-0.1,0-0.3,0-0.4V51C474,22.9,451.1,0,423,0z
		 M168,221.7c-5.5,0-10-4.5-10-10s4.5-10,10-10h180.5l-13.7,20H168z M129.7,392H108c-27.6,0-50-22.4-50-50s22.4-50,50-50h142.2
		c3.2,0,6.2-1.5,8.1-4.1l33.5-46.2H321L272.8,312H178c-27.6,0-50,22.4-50,50v20C128,385.5,128.6,388.9,129.7,392z M158,392
		c-5.5,0-10-4.5-10-10v-20c0-16.5,13.5-30,30-30h92.3l7.7,20h-60c-5.5,0-10,4.5-10,10s4.5,10,10,10h67.7l7.7,20H158z M128,492
		c-5.5,0-10-4.5-10-10s4.5-10,10-10h137c3.3,0,6.3-1.6,8.2-4.3c1.9-2.7,2.3-6.1,1.2-9.2l-17-46.6h21.5l19.1,51.8V482
		c0,5.5-4.5,10-10,10H128z M309.4,377.8l-20.7-53.6l81.5-118.8l21.7,14.1L309.4,377.8z M454,98.6l-52.9,103l-28.2-18.3
		c-1.5-1-3.1-1.5-4.8-1.6H368h-32.8l54.9-75.8c0.2-0.2,0.3-0.4,0.4-0.7c0.1-0.1,0.1-0.2,0.2-0.3c0.9-1.5,1.4-3.3,1.4-5V51
		c0-17.1,13.9-31,31-31s31,13.9,31,31v47.6H454z"/>
	<path class="st0" d="M178,352c-5.5,0-10,4.5-10,10s4.5,10,10,10s10-4.5,10-10S183.5,352,178,352z"/>
</g>
</svg>
