<?xml version="1.0" encoding="utf-8"?>
<!-- Generator: Adobe Illustrator 24.2.0, SVG Export Plug-In . SVG Version: 6.00 Build 0)  -->
<svg version="1.1" id="Layer_1" xmlns="http://www.w3.org/2000/svg" xmlns:xlink="http://www.w3.org/1999/xlink" x="0px" y="0px"
	 viewBox="0 0 512 512" style="enable-background:new 0 0 512 512;" xml:space="preserve">
<style type="text/css">
	.st0{fill:#FE6300;}
</style>
<path class="st0" d="M437,75C388.7,26.6,324.4,0,256,0c-52,0-102.1,15.5-144.9,44.9c-4.6,3.1-5.7,9.4-2.6,13.9s9.4,5.7,13.9,2.6
	C161.9,34.3,208,20,256,20c130.1,0,236,105.9,236,236S386.1,492,256,492S20,386.1,20,256c0-48,14.3-94.1,41.4-133.5
	c3.1-4.6,2-10.8-2.6-13.9s-10.8-2-13.9,2.6C15.5,153.9,0,204,0,256c0,68.4,26.6,132.7,75,181c48.4,48.4,112.6,75,181,75
	s132.7-26.6,181-75c48.4-48.4,75-112.6,75-181S485.4,123.3,437,75L437,75z"/>
<path class="st0" d="M256,462c113.6,0,206-92.4,206-206c0-23.6-4-46.3-11.3-67.4c0-0.1,0-0.1-0.1-0.2C422.6,107.9,345.9,50,256,50
	C142.4,50,50,142.4,50,256S142.4,462,256,462z M442,256c0,4.8-0.2,9.5-0.5,14.2c-10.5,0.5-20.7,2.1-30.6,4.6
	c3.2-27.4-0.8-55.5-11.7-80.7c11.5,2,23,4.2,34.4,6.6C439.1,218.2,442,236.7,442,256L442,256z M375.1,190.3
	c15.2,27.6,20.4,60.4,14.5,91.4c-45.6,18.4-81,57.1-95,104.8c-25,7.4-52,7.4-77.1,0c-14-47.7-49.4-86.3-95-104.8
	c-5.9-31-0.7-63.8,14.5-91.4c39.4-5.6,79.3-8.4,119.1-8.4C295.8,181.9,335.6,184.7,375.1,190.3z M101.1,274.8
	c-9.9-2.5-20.1-4-30.6-4.6c-0.4-4.7-0.5-9.4-0.5-14.2c0-19.3,2.9-37.8,8.4-55.3c11.4-2.4,22.9-4.7,34.4-6.6
	C102,219.3,97.9,247.4,101.1,274.8z M73.2,290.4c73.1,5.7,130.8,67,130.8,141.6c0,0.9,0,1.7,0,2.6
	C137.4,415.2,86.2,359.5,73.2,290.4z M223.8,439.2c0.1-2.4,0.2-4.8,0.2-7.2c0-8-0.6-15.9-1.7-23.7c11.1,2.4,22.4,3.7,33.7,3.7
	c11.3,0,22.7-1.2,33.7-3.7c-1.1,7.7-1.7,15.6-1.7,23.7c0,2.4,0.1,4.8,0.2,7.2C277.7,441,267,442,256,442S234.3,441,223.8,439.2
	L223.8,439.2z M308,434.6c0-0.9,0-1.7,0-2.6c0-74.5,57.7-135.8,130.8-141.6C425.8,359.5,374.6,415.2,308,434.6L308,434.6z M256,70
	c74.9,0,139.6,44.5,169.1,108.5c-55.6-11-112.4-16.6-169.1-16.6s-113.5,5.6-169.1,16.6C116.4,114.5,181.1,70,256,70z"/>
<path class="st0" d="M206,256c0,27.6,22.4,50,50,50s50-22.4,50-50s-22.4-50-50-50S206,228.4,206,256z M256,226c16.5,0,30,13.5,30,30
	s-13.5,30-30,30s-30-13.5-30-30S239.5,226,256,226z"/>
<path class="st0" d="M82,92.1c2.6,0,5.1-1,7.1-2.9c3.9-3.9,3.9-10.2,0-14.1S78.9,71.1,75,75l0,0c-3.9,3.9-3.9,10.2,0,14.1
	C76.9,91.1,79.5,92.1,82,92.1z"/>
</svg>
