<?xml version="1.0" encoding="utf-8"?>
<!-- Generator: Adobe Illustrator 24.2.0, SVG Export Plug-In . SVG Version: 6.00 Build 0)  -->
<svg version="1.1" id="Layer_1" xmlns="http://www.w3.org/2000/svg" xmlns:xlink="http://www.w3.org/1999/xlink" x="0px" y="0px"
	 viewBox="0 0 496 496" style="enable-background:new 0 0 496 496;" xml:space="preserve">
<style type="text/css">
	.st0{fill:#FE6300;}
</style>
<path class="st0" d="M472,24H270.9C219,24,169.2,48.6,137.6,89.8l-103,134.3C12.3,253.2,0,289.5,0,326.3V448c0,13.2,10.8,24,24,24
	h448c13.2,0,24-10.8,24-24V48C496,34.8,485.2,24,472,24z M47.4,233.8l103-134.3C178.9,62.2,224,40,270.9,40H472c4.4,0,8,3.6,8,8v328
	H16v-49.7C16,293,27.1,260.2,47.4,233.8z M472,456H24c-4.4,0-8-3.6-8-8v-24h32v-16H16v-16h464v16H56v16h424v24
	C480,452.4,476.4,456,472,456z"/>
<path class="st0" d="M448,296h-64c-8.8,0-16,7.2-16,16v16c0,8.8,7.2,16,16,16h64c8.8,0,16-7.2,16-16v-16
	C464,303.2,456.8,296,448,296z M384,312h32v16h-32V312z M448,328h-16v-16h16V328z"/>
<path class="st0" d="M96,280h368V56H271.3C229,56,188.5,76.1,163,109.8l-68.6,90.4C81.9,201,72,211.3,72,224v32
	C72,269.2,82.8,280,96,280z M175.7,119.5C198.3,89.7,234,72,271.3,72H448v192H175.8c5.1-6.7,8.2-15,8.2-24v-40h-69.4L175.7,119.5z
	 M88,224c0-4.4,3.6-8,8-8h72v24c0,13.2-10.8,24-24,24H96c-4.4,0-8-3.6-8-8V224z"/>
</svg>
