<?xml version="1.0" encoding="utf-8"?>
<!-- Generator: Adobe Illustrator 24.2.0, SVG Export Plug-In . SVG Version: 6.00 Build 0)  -->
<svg version="1.1" id="Layer_1" xmlns="http://www.w3.org/2000/svg" xmlns:xlink="http://www.w3.org/1999/xlink" x="0px" y="0px"
	 viewBox="0 0 512 512" style="enable-background:new 0 0 512 512;" xml:space="preserve">
<style type="text/css">
	.st0{fill:#FE6300;}
</style>
<g>
	<path class="st0" d="M256,108.5c-39.3,0-76.4,15.3-104.3,43.2c-27.8,27.9-43.2,65-43.2,104.3s15.3,76.4,43.2,104.3
		c27.9,27.8,65,43.2,104.3,43.2s76.4-15.3,104.3-43.2c27.8-27.9,43.2-65,43.2-104.3s-15.3-76.4-43.2-104.3
		C332.4,123.9,295.3,108.5,256,108.5z M264,124.7c29.5,1.8,57.1,13.2,79.3,32.8L294,206.7c-8.8-6.8-19.1-11.1-30-12.4V124.7z
		 M248,124.7v69.6c-11,1.4-21.3,5.7-30,12.4l-49.2-49.2C190.9,137.9,218.6,126.4,248,124.7z M157.5,168.8l49.2,49.2
		c-6.8,8.8-11.1,19.1-12.4,30h-69.6C126.4,218.6,137.9,190.9,157.5,168.8z M124.7,264h69.6c1.4,11,5.7,21.3,12.4,30l-49.2,49.2
		C137.9,321.1,126.4,293.4,124.7,264z M248,387.3c-29.5-1.8-57.1-13.2-79.3-32.8l49.2-49.2c8.8,6.8,19.1,11.1,30,12.4v69.6H248z
		 M223.3,288.7c-8.7-8.7-13.6-20.4-13.6-32.7s4.8-24,13.6-32.7c8.7-8.7,20.4-13.6,32.7-13.6c12.4,0,24,4.8,32.7,13.6
		c8.7,8.7,13.6,20.4,13.6,32.7c0,12.3-4.8,24-13.6,32.7c-8.7,8.7-20.4,13.6-32.7,13.6C243.6,302.3,232,297.5,223.3,288.7z
		 M264,387.3v-69.6c11-1.4,21.3-5.7,30-12.4l49.2,49.2C321.1,374.1,293.4,385.6,264,387.3z M354.5,343.2L305.3,294
		c6.8-8.8,11.1-19.1,12.4-30h69.6C385.6,293.4,374.1,321.1,354.5,343.2z M317.7,248c-1.4-11-5.7-21.3-12.4-30l49.2-49.2
		c19.6,22.2,31.1,49.8,32.8,79.3h-69.6V248z"/>
	<path class="st0" d="M256,271.3c-8.4,0-15.3-6.9-15.3-15.3s6.9-15.3,15.3-15.3v-15.9c-17.2,0-31.2,14-31.2,31.2s14,31.2,31.2,31.2
		s31.2-14,31.2-31.2h-15.9C271.3,264.4,264.4,271.3,256,271.3z"/>
	<rect x="248.2" y="85.3" class="st0" width="15.5" height="15.9"/>
	<rect x="248.2" y="410.8" class="st0" width="15.5" height="15.9"/>
	<rect x="411" y="248" class="st0" width="15.5" height="15.9"/>
	<rect x="85.5" y="248" class="st0" width="15.5" height="15.9"/>
	<path class="st0" d="M488.5,232.5h-31c-3.1,0-6,0.6-8.8,1.7c-4.1-36.7-18.5-71.2-41.7-99.9c3.5-1.1,6.8-3,9.6-5.8l21.9-21.9
		c9.1-9.2,9.1-24,0-33.2c-4.5-4.4-10.3-6.9-16.6-6.9c-6.3,0-12.2,2.5-16.6,6.9l-21.9,21.9c-2.8,2.8-4.7,6.1-5.8,9.6
		c-28.7-23.2-63.2-37.6-99.9-41.7c1.1-2.7,1.7-5.7,1.7-8.8v-31c0-6.3-2.5-12.2-6.9-16.6C268.2,2.5,262.3,0,256,0
		c-12.9,0-23.5,10.5-23.5,23.5v31c0,3.1,0.6,6.1,1.7,8.8c-37.6,4.2-71.9,19.2-99.9,41.8c-1.1-3.5-3-6.9-5.8-9.7l-21.9-21.9
		c-4.5-4.4-10.4-6.9-16.6-6.9s-12.1,2.5-16.6,6.9c-9.1,9.2-9.1,24,0,33.2l21.9,21.9c2.8,2.8,6.1,4.7,9.7,5.8
		c-22.6,28-37.6,62.3-41.8,99.9c-2.7-1.1-5.7-1.7-8.8-1.7h-31c-6.3,0-12.2,2.5-16.6,6.9C2.5,243.8,0,249.7,0,256
		c0,12.9,10.5,23.5,23.5,23.5h31c3.1,0,6-0.6,8.8-1.7c4.1,36.7,18.5,71.2,41.7,100c-3.5,1.1-6.8,3-9.6,5.8l-21.9,21.9
		c-9.1,9.1-9.1,24,0,33.2c4.5,4.5,10.3,6.9,16.6,6.9c6.3,0,12.2-2.5,16.6-6.9l21.9-21.9c2.8-2.8,4.7-6.1,5.8-9.6
		c28.8,23.3,63.2,37.6,99.9,41.7c-1.1,2.7-1.7,5.7-1.7,8.8v31c0,12.9,10.5,23.5,23.5,23.5c12.9,0,23.5-10.5,23.5-23.5v-31
		c0-3.1-0.6-6.1-1.7-8.8c36.8-4.1,71.3-18.5,99.9-41.7c1.1,3.5,3,6.8,5.8,9.6l21.9,21.9c4.5,4.5,10.4,6.9,16.6,6.9
		s12.1-2.5,16.6-6.9c9.1-9.1,9.1-24,0-33.2l-21.9-21.9c-2.8-2.8-6.1-4.7-9.6-5.8c23.2-28.8,37.6-63.3,41.7-99.9
		c2.7,1.1,5.7,1.7,8.8,1.7h31c12.9,0,23.5-10.5,23.5-23.5S501.5,232.5,488.5,232.5z M62,256.3c-0.2,4-3.5,7.3-7.5,7.3h-31
		c-4.2,0-7.5-3.4-7.5-7.5c0-2,0.8-3.9,2.2-5.2l0.2-0.2c1.4-1.4,3.2-2.2,5.2-2.2h31c4.2,0,7.5,3.4,7.5,7.5v0.3H62z M394.7,106.6
		l21.9-21.9c1.4-1.4,3.4-2.2,5.4-2.2s3.9,0.8,5.3,2.2c2.9,2.9,2.9,7.7,0,10.7l-21.9,21.9c-2.9,2.9-7.7,2.9-10.7,0
		C391.8,114.3,391.8,109.5,394.7,106.6z M248.5,23.5c0-4.2,3.4-7.5,7.5-7.5c2,0,3.9,0.8,5.2,2.2l0.2,0.2c1.4,1.4,2.2,3.2,2.2,5.2v31
		c0,4.2-3.4,7.5-7.5,7.5c-4.2,0-7.5-3.4-7.5-7.5L248.5,23.5L248.5,23.5z M84.7,95.3c-2.9-2.9-2.9-7.7,0-10.7
		c1.4-1.4,3.3-2.2,5.3-2.2s3.9,0.8,5.4,2.2l21.9,21.9c2.9,2.9,2.9,7.7,0,10.7c-2.9,2.9-7.7,2.9-10.7,0L84.7,95.3z M117.3,405.4
		l-21.9,21.9c-1.4,1.4-3.4,2.2-5.4,2.2s-3.9-0.8-5.3-2.2c-2.9-2.9-2.9-7.7,0-10.7l21.9-21.9c1.5-1.5,3.4-2.2,5.3-2.2
		s3.9,0.7,5.3,2.2C120.2,397.7,120.2,402.5,117.3,405.4z M263.5,488.5c0,4.2-3.4,7.5-7.5,7.5c-4.2,0-7.5-3.4-7.5-7.5v-31
		c0-4.2,3.4-7.5,7.5-7.5c2,0,3.9,0.8,5.2,2.2l0.2,0.2c1.4,1.4,2.2,3.2,2.2,5.2L263.5,488.5L263.5,488.5z M427.3,416.7
		c2.9,2.9,2.9,7.7,0,10.7c-1.4,1.4-3.3,2.2-5.3,2.2s-3.9-0.8-5.4-2.2l-21.9-21.9c-2.9-2.9-2.9-7.7,0-10.7c1.5-1.5,3.4-2.2,5.3-2.2
		s3.9,0.7,5.3,2.2L427.3,416.7z M384.5,379.2c-31.9,33.2-74.7,52.6-120.6,54.6h-0.1c-2.5,0.1-5.2,0.2-7.8,0.2
		c-98,0-177.9-79.7-178.1-177.7l0,0v-0.4c0-98.2,79.9-178.1,178.1-178.1c2.6,0,5.3,0.1,7.9,0.2c45.9,2,88.7,21.4,120.6,54.6
		c32,33.3,49.6,77.1,49.6,123.2S416.5,345.9,384.5,379.2z M488.5,263.5h-31c-4.2,0-7.5-3.4-7.5-7.5c0-2,0.8-3.9,2.2-5.2l0.2-0.2
		c1.4-1.4,3.2-2.2,5.2-2.2h31c4.2,0,7.5,3.4,7.5,7.5C496.1,260.2,492.7,263.5,488.5,263.5z"/>
</g>
</svg>
