<?xml version="1.0" encoding="utf-8"?>
<!-- Generator: Adobe Illustrator 24.2.0, SVG Export Plug-In . SVG Version: 6.00 Build 0)  -->
<svg version="1.1" id="Layer_1" xmlns="http://www.w3.org/2000/svg" xmlns:xlink="http://www.w3.org/1999/xlink" x="0px" y="0px"
	 viewBox="0 0 512 512" style="enable-background:new 0 0 512 512;" xml:space="preserve">
<style type="text/css">
	.st0{fill:#FE6300;}
</style>
<path class="st0" d="M509.1,2.9C507.2,1.1,504.6,0,502,0H10C7.4,0,4.8,1.1,2.9,2.9C1.1,4.8,0,7.4,0,10v96c0,5.5,4.5,10,10,10
	s10-4.5,10-10V20h472v472H116V210c0-77.2,62.8-140,140-140s140,62.8,140,140c0,5.5,4.5,10,10,10s10-4.5,10-10
	c0-88.2-71.8-160-160-160S96,121.8,96,210v282H20V196c0-5.5-4.5-10-10-10s-10,4.5-10,10v306c0,2.6,1.1,5.2,2.9,7.1
	C4.8,511,7.3,512,10,512h492c2.6,0,5.2-1.1,7.1-2.9c1.9-1.9,2.9-4.4,2.9-7.1V10C512,7.4,510.9,4.8,509.1,2.9z"/>
<path class="st0" d="M10,161c5.5,0,10-4.5,10-10s-4.5-10-10-10s-10,4.5-10,10S4.5,161,10,161z"/>
<path class="st0" d="M406,446.7c-5.5,0-10,4.5-10,10s4.5,10,10,10s10-4.5,10-10C416,451.1,411.5,446.7,406,446.7z"/>
<path class="st0" d="M416,298c0-5.5-4.5-10-10-10s-10,4.5-10,10v113.7c0,5.5,4.5,10,10,10s10-4.5,10-10V298z"/>
<path class="st0" d="M406,243c-5.5,0-10,4.5-10,10s4.5,10,10,10s10-4.5,10-10S411.5,243,406,243z"/>
<path class="st0" d="M316,186c0-33.1-26.9-60-60-60s-60,26.9-60,60s26.9,60,60,60S316,219.1,316,186z M216,186c0-22.1,17.9-40,40-40
	s40,17.9,40,40s-17.9,40-40,40S216,208.1,216,186z"/>
<path class="st0" d="M250,306c0-5.5-4.5-10-10-10h-74c-16.5,0-30,13.5-30,30s13.5,30,30,30s30-13.5,30-30c0-3.5-0.6-6.9-1.7-10H240
	C245.5,316,250,311.5,250,306z M166,336c-5.5,0-10-4.5-10-10s4.5-10,10-10s10,4.5,10,10S171.5,336,166,336z"/>
</svg>
