<?xml version="1.0" encoding="utf-8"?>
<!-- Generator: Adobe Illustrator 24.2.0, SVG Export Plug-In . SVG Version: 6.00 Build 0)  -->
<svg version="1.1" id="Capa_1" xmlns="http://www.w3.org/2000/svg" xmlns:xlink="http://www.w3.org/1999/xlink" x="0px" y="0px"
	 viewBox="0 0 512 512" style="enable-background:new 0 0 512 512;" xml:space="preserve">
<style type="text/css">
	.st0{fill:#006B96;}
</style>
<g>
	<g>
		<path class="st0" d="M355.4,272.9c-46.2,0-83.8,37.6-83.8,83.8s37.6,83.8,83.8,83.8s83.8-37.6,83.8-83.8
			C439.2,310.5,401.6,272.9,355.4,272.9z M355.4,425.3c-37.8,0-68.6-30.8-68.6-68.6s30.8-68.6,68.6-68.6s68.6,30.8,68.6,68.6
			S393.3,425.3,355.4,425.3z"/>
	</g>
</g>
<g>
	<g>
		<path class="st0" d="M355.4,320.4c-20,0-36.3,16.3-36.3,36.3s16.3,36.3,36.3,36.3s36.3-16.3,36.3-36.3S375.5,320.4,355.4,320.4z
			 M355.4,377.8c-11.6,0-21.1-9.5-21.1-21.1s9.5-21.1,21.1-21.1s21.1,9.5,21.1,21.1C376.5,368.4,367.1,377.8,355.4,377.8z"/>
	</g>
</g>
<g>
	<g>
		<path class="st0" d="M438.2,223.9V94.5V65.3c0-4.2-3.4-7.6-7.6-7.6h-28.1c-4.2,0-7.6,3.4-7.6,7.6s3.4,7.6,7.6,7.6H423v14H219.6
			h-40.4v-14H367c4.2,0,7.6-3.4,7.6-7.6s-3.4-7.6-7.6-7.6H171.6c-4.2,0-7.6,3.4-7.6,7.6v29.2c0,4.2,3.4,7.6,7.6,7.6h38L179,215.2
			h-51.6v-85.4c0-12.1-9.8-21.9-21.9-21.9h-3V58.6c0-9.9,8-17.8,17.8-17.8h7.7c4.2,0,7.6-3.4,7.6-7.6s-3.4-7.6-7.6-7.6h-7.7
			c-18.3,0-33,14.8-33,33V108h-1.2c-12.1,0-21.9,9.8-21.9,21.9v85.4H41.8C18.7,215.2,0,233.9,0,257.1V400v0.1
			c0,47.7,38.8,86.4,86.4,86.4c45.1,0,82.2-34.7,86.1-78.8h12.3l0,0h51.3c19.8,46.3,65.9,78.8,119.4,78.8
			c69,0,125.6-54.1,129.5-122.2h19.4c4.2,0,7.6-3.4,7.6-7.6C512,300.8,482.5,251.6,438.2,223.9z M79.5,129.9c0-3.7,3-6.6,6.6-6.6
			h19.5c3.7,0,6.6,3,6.6,6.6v85.4H79.5V129.9z M86.4,471.3c-39.3,0-71.2-32-71.2-71.2l0,0V400c0.1-39.2,32-71.1,71.2-71.1
			c39.3,0,71.2,32,71.2,71.2C157.7,439.3,125.7,471.3,86.4,471.3z M198.9,392.4h-6.4v-62.7c0-4.2-3.4-7.6-7.6-7.6
			c-4.2,0-7.6,3.4-7.6,7.6v62.7h-4.7c-3.9-44.1-41-78.8-86.1-78.8c-29.5,0-55.6,14.9-71.2,37.5V257c0-14.7,11.9-26.6,26.6-26.6
			h135.4v63.9c0,4.2,3.4,7.6,7.6,7.6s7.6-3.4,7.6-7.6v-70.5l33-121.7H423v113.4c-4.4-2.1-8.9-4-13.6-5.7v-86.5
			c0-4.2-3.4-7.6-7.6-7.6H241.6c-3.4,0-6.4,2.3-7.3,5.6l-28,103.4c-0.8,3,0.3,6.3,3,8.2c1.3,0.9,2.9,1.4,4.5,1.4l43.7,0.4
			c-35.7,28.7-58.6,72.8-58.6,122V392.4z M394.2,130.9V205c-12.4-3.2-25.4-4.9-38.8-4.9c-27.4,0-53.2,7.1-75.6,19.5l-56.3-0.5
			l23.9-88.3L394.2,130.9L394.2,130.9z M355.4,471.3c-63.2,0-114.6-51.4-114.6-114.6s51.4-114.6,114.6-114.6S470,293.5,470,356.7
			S418.6,471.3,355.4,471.3z M485,349.1c-3.9-68-60.5-122.2-129.5-122.2c-71.6,0-129.8,58.2-129.8,129.8c0,12.4,1.7,24.4,5,35.7
			h-16.6v-35.7c0-77.9,63.4-141.4,141.3-141.4c75.4,0,137.2,59.3,141.2,133.8L485,349.1L485,349.1z"/>
	</g>
</g>
<g>
	<g>
		<path class="st0" d="M86.4,354.3c-25.2,0-45.8,20.5-45.8,45.8c0,25.2,20.5,45.8,45.8,45.8s45.8-20.5,45.8-45.8
			S111.7,354.3,86.4,354.3z M86.4,430.6c-16.9,0-30.6-13.7-30.6-30.6s13.7-30.6,30.6-30.6S117,383.2,117,400S103.3,430.6,86.4,430.6
			z"/>
	</g>
</g>
<g>
	<g>
		<path class="st0" d="M35.1,245.2c-4.2,0-7.6,3.4-7.6,7.6v52.8c0,4.2,3.4,7.6,7.6,7.6c18.7,0,34-15.2,34-34
			C69.1,260.4,53.9,245.2,35.1,245.2z M42.7,296.3V262c6.6,2.9,11.2,9.5,11.2,17.2C53.9,286.8,49.3,293.4,42.7,296.3z"/>
	</g>
</g>
<g>
	<g>
		<path class="st0" d="M146.7,240.4h-34.5c-4.2,0-7.6,3.4-7.6,7.6s3.4,7.6,7.6,7.6h34.5c4.2,0,7.6-3.4,7.6-7.6
			C154.3,243.8,150.9,240.4,146.7,240.4z"/>
	</g>
</g>
<g>
	<g>
		<path class="st0" d="M146.7,264.4h-34.5c-4.2,0-7.6,3.4-7.6,7.6s3.4,7.6,7.6,7.6h34.5c4.2,0,7.6-3.4,7.6-7.6
			S150.9,264.4,146.7,264.4z"/>
	</g>
</g>
<g>
	<g>
		<path class="st0" d="M146.7,288.3h-34.5c-4.2,0-7.6,3.4-7.6,7.6s3.4,7.6,7.6,7.6h34.5c4.2,0,7.6-3.4,7.6-7.6
			S150.9,288.3,146.7,288.3z"/>
	</g>
</g>
</svg>
