<?xml version="1.0" encoding="utf-8"?>
<!-- Generator: Adobe Illustrator 24.2.0, SVG Export Plug-In . SVG Version: 6.00 Build 0)  -->
<svg version="1.1" id="Layer_1" xmlns="http://www.w3.org/2000/svg" xmlns:xlink="http://www.w3.org/1999/xlink" x="0px" y="0px"
	 viewBox="0 0 512 512" style="enable-background:new 0 0 512 512;" xml:space="preserve">
<style type="text/css">
	.st0{fill:#006B96;}
</style>
<g id="Page-1">
	<g id="_x30_11---Scooter" transform="translate(-1)">
		<path id="Shape" class="st0" d="M86.3,0C70.8-0.1,57.1,10.4,53.2,25.5S56,56.4,69.6,64s30.6,5,41.3-6.3L149.2,79
			c4.1,2.3,7.1,6.2,8.3,10.7l3.2,13c-5.2,0.7-9.7,3.8-12.4,8.3H94.9c-14.1,0-25.6,11.5-25.6,25.6s11.5,25.6,25.6,25.6h53.6
			c3,5.3,8.6,8.5,14.7,8.5h4c-31.2,35.2-47.8,81-46.6,128c0,92.7,16.3,113.7,19.6,117c0.3,0.3,0.6,0.5,0.9,0.8
			c1.1,0.9,26.8,19.6,81.9,25.5v36c0,18.9,15.3,34.1,34.1,34.1s34.1-15.3,34.1-34.1v-36c55.2-5.9,80.8-24.7,81.9-25.5
			c0.3-0.2,0.6-0.5,0.9-0.8c3.3-3.3,19.6-24.3,19.6-117c1.2-47-15.5-92.8-46.6-128h4c6.1,0,11.7-3.3,14.7-8.5h53.6
			c14.1,0,25.6-11.5,25.6-25.6S433.4,111,419.3,111h-53.6c-2.6-4.5-7.2-7.6-12.4-8.3l3.2-12.9c1.2-4.6,4.2-8.5,8.3-10.8L403,57.6
			c11.3,11.8,29.4,13.9,43.1,5s19.2-26.2,13.1-41.3S437.1-2.5,421.1,0.6s-27.6,17.2-27.5,33.5c0,2.9,0.4,5.8,1.2,8.5l-38.3,21.3
			c-8.3,4.6-14.3,12.4-16.6,21.6l-4.2,16.9H311c-9.9-20.8-30.8-34.1-53.9-34.1s-44,13.3-53.9,34.1h-24.7l-4.3-17
			c-2.4-9.1-8.4-16.8-16.6-21.4l-38.3-21.3c0.8-2.8,1.2-5.6,1.2-8.5C120.5,15.3,105.2,0,86.3,0L86.3,0z M427.7,17.1
			c9.4,0,17.1,7.6,17.1,17.1s-7.6,17.1-17.1,17.1c-9.4,0-17.1-7.6-17.1-17.1S418.2,17.1,427.7,17.1z M86.3,136.5
			c0-4.7,3.8-8.5,8.5-8.5H146v17.1H94.9C90.2,145.1,86.3,141.2,86.3,136.5z M257,307.2c18.4-0.6,36.4,4.9,51.2,15.8v62.1
			c-16.5,5.3-33.8,7.8-51.2,7.4c-17.4,0.4-34.7-2.1-51.2-7.4V323C220.6,312.1,238.6,306.6,257,307.2z M257,494.9
			c-9.4,0-17.1-7.6-17.1-17.1v-69c5.3,0.4,10.9,0.7,17.1,0.7s11.8-0.3,17.1-0.7v69C274.1,487.3,266.4,494.9,257,494.9z M376.5,298.7
			c0,79.7-12.6,101.8-14.4,104.6c-4.3,2.8-27,16.5-71,21.5v-17.9c10.2-1.5,20.1-4.3,29.5-8.4c2.9-1.5,4.6-4.4,4.6-7.6v-71.7
			c0-2.2-0.9-4.4-2.4-6c-15.9-14-36.2-22-57.3-22.7v-68.6c0-4.7-3.8-8.5-8.5-8.5s-8.5,3.8-8.5,8.5v68.6
			c-21.2,0.7-41.4,8.8-57.3,22.7c-1.6,1.6-2.4,3.7-2.4,6v71.7c0,3.2,1.8,6.1,4.6,7.6c9.4,4.1,19.3,6.9,29.5,8.4v17.9
			c-43.6-5-66.4-18.5-70.8-21.4c-2.3-3.6-14.5-26.3-14.5-104.6c0-79.4,43.9-119.7,54.1-128h23.6c23.2,22.8,60.3,22.8,83.5,0h23.6
			C332.6,179,376.5,219.3,376.5,298.7z M427.7,136.5c0,4.7-3.8,8.5-8.5,8.5H368v-17h51.2C423.8,128,427.7,131.8,427.7,136.5z
			 M350.9,119.5v34.1h-40c3.8-8,5.8-16.7,5.8-25.6c0-2.9-0.3-5.7-0.7-8.5H350.9z M257,85.3c23.6,0,42.7,19.1,42.7,42.7
			s-19.1,42.7-42.7,42.7s-42.7-19.1-42.7-42.7C214.4,104.4,233.4,85.4,257,85.3z M203.1,153.6h-40v-34.1h34.8
			c-0.4,2.8-0.7,5.7-0.7,8.5C197.3,136.9,199.3,145.6,203.1,153.6z M86.3,51.2c-9.4,0-17.1-7.6-17.1-17.1S76.8,17,86.3,17
			s17.1,7.6,17.1,17.1c0,4.5-1.8,8.9-5,12.1C95.2,49.4,90.9,51.2,86.3,51.2z"/>
		<path id="Shape_1_" class="st0" d="M174.4,239.4c-4.5-1.5-9.3,0.9-10.8,5.4c-5.5,17.5-8.5,35.6-9,53.9c0,4.7,3.8,8.5,8.5,8.5
			s8.5-3.8,8.5-8.5c0.4-16.5,3.2-32.8,8.1-48.5C181.2,245.7,178.8,240.9,174.4,239.4z"/>
		<path id="Shape_2_" class="st0" d="M342.3,298.7c0,4.7,3.8,8.5,8.5,8.5s8.5-3.8,8.5-8.5c-0.4-18.3-3.4-36.4-9-53.9
			c-1.5-4.5-6.3-6.9-10.8-5.4s-6.9,6.3-5.4,10.8C339.1,265.9,341.9,282.2,342.3,298.7L342.3,298.7z"/>
		<circle id="Oval" class="st0" cx="257" cy="128" r="8.5"/>
	</g>
</g>
</svg>
