<?xml version="1.0" encoding="utf-8"?>
<!-- Generator: Adobe Illustrator 24.2.0, SVG Export Plug-In . SVG Version: 6.00 Build 0)  -->
<svg version="1.1" id="Capa_1" xmlns="http://www.w3.org/2000/svg" xmlns:xlink="http://www.w3.org/1999/xlink" x="0px" y="0px"
	 viewBox="0 0 512 512" style="enable-background:new 0 0 512 512;" xml:space="preserve">
<style type="text/css">
	.st0{fill:#FE6300;}
</style>
<g>
	<g>
		<path class="st0" d="M437,0H75C33.6,0,0,33.6,0,75v362c0,41.4,33.6,75,75,75h362c41.4,0,75-33.6,75-75V75C512,33.6,478.4,0,437,0z
			 M482,437c0,24.8-20.2,45-45,45H75c-24.8,0-45-20.2-45-45V75c0-24.8,20.2-45,45-45h362c24.8,0,45,20.2,45,45V437z"/>
	</g>
</g>
<g>
	<g>
		<path class="st0" d="M407,242h30c8.3,0,15-6.7,15-15v-60c0-8.3-6.7-15-15-15h-30c-5.3,0-10.3,0.9-15,2.6V137c0-24.8-20.2-45-45-45
			h-30c-8.3,0-15,6.7-15,15s6.7,15,15,15h30c8.3,0,15,6.7,15,15v45H75c-8.3,0-15,6.7-15,15c0,41.4,33.6,75,75,75
			c11.5,0,22.5,2.9,32.1,8l-15.2,31.2c-9.3-5.8-20.2-9.2-31.9-9.2c-33.1,0-60,26.9-60,60s26.9,60,60,60s60-26.9,60-60
			c0-9.6-2.3-18.8-6.4-26.8l16.9-34.6c3.9,5.5,7,11.5,9.2,18.1l11,33.1c2,6.1,7.8,10.3,14.2,10.3h62c6.5,0,12.2-4.1,14.2-10.3
			l11-33.1c7.7-23,26.8-39.8,49.7-45v36.4c-17.9,10.4-30,29.8-30,51.9c0,33.1,26.9,60,60,60s60-26.9,60-60s-26.9-60-60-60
			c0-6.2,0-56.4,0-62.6C396.7,241.1,401.7,242,407,242z M407,182h15v30h-15c-8.3,0-15-6.7-15-15S398.7,182,407,182z M120,392
			c-16.5,0-30-13.5-30-30s13.5-30,30-30s30,13.5,30,30S136.5,392,120,392z M135,242c-19.6,0-36.2-12.5-42.4-30H242v30H135z
			 M283.8,309.2l-7.6,22.8h-40.4l-7.6-22.8c-4.8-14.3-12.6-27.1-22.5-37.4h100.6C296.3,282.1,288.5,294.9,283.8,309.2z M272,242v-30
			h90v30H272z M392,332c16.5,0,30,13.5,30,30s-13.5,30-30,30s-30-13.5-30-30S375.5,332,392,332z"/>
	</g>
</g>
</svg>
