<?xml version="1.0" encoding="utf-8"?>
<!-- Generator: Adobe Illustrator 24.2.0, SVG Export Plug-In . SVG Version: 6.00 Build 0)  -->
<svg version="1.1" id="Layer_1" xmlns="http://www.w3.org/2000/svg" xmlns:xlink="http://www.w3.org/1999/xlink" x="0px" y="0px"
	 viewBox="0 0 512 512" style="enable-background:new 0 0 512 512;" xml:space="preserve">
<style type="text/css">
	.st0{fill:#FE6300;}
</style>
<path class="st0" d="M426.4,149.3l-61.1-61.1c-14.4-14.4-37.8-14.4-52.2,0l-17,17c-2.7,2.7-2.7,7.2,0,9.9l0,0l3.2,3.2L263,154.6
	l-1.9-1.9c-2.7-2.7-7.2-2.7-9.9,0l0,0l-1.9,1.9L213,118.3l3.2-3.2c2.7-2.7,2.7-7.2,0-9.9l0,0l-17-17c-14.4-14.4-37.8-14.4-52.2,0
	l-61.1,61.1c-14.4,14.4-14.4,37.8,0,52.2l17,17c2.7,2.7,7.2,2.7,9.9,0l0,0l3.2-3.2l36.3,36.3l-5.6,5.6c-2.7,2.7-2.7,7.2,0,9.9
	c0.1,0.1,0.1,0.1,0.2,0.2l13.2,12.3c-7,13.2-6.6,29.2,1.2,42h-9.6c-3.9,0-7,3.1-7,7v45c0,3.9,3.1,7,7,7h23.2v27.7c0,3.9,3.1,7,7,7
	h22.8v12.4c0,3.9,3.1,7,7,7h29.8c3.9,0,7-3.1,7-7l0,0v-12.4h15.8v12.4c0,3.9,3.1,7,7,7l0,0h29.8c3.9,0,7-3.1,7-7v-12.4h22.8
	c3.9,0,7-3.1,7-7v-27.7h23.2c3.9,0,7-3.1,7-7v-44.9c0-3.9-3.1-7-7-7h-21.3c9.7-10.5,13.3-25.2,9.7-39l16.3-15.3
	c2.8-2.6,3-7.1,0.3-9.9c-0.1-0.1-0.1-0.1-0.2-0.2l-5.6-5.6l36.3-36.3l3.2,3.2c2.7,2.7,7.2,2.7,9.9,0l0,0l17-17
	C440.8,187.1,440.8,163.7,426.4,149.3z M95.5,191.6c-8.9-9-8.9-23.4,0-32.4l61.1-61.1c9-8.9,23.4-8.9,32.4,0l12,12l-93.5,93.5
	L95.5,191.6z M125.6,205.4l77.3-77.3l36.3,36.3L228,175.7l-23.9-23.9c-2.9-2.6-7.3-2.3-9.9,0.6c-2.4,2.7-2.4,6.7,0,9.3l24,23.9
	l-12.6,12.6l-23.9-23.9c-2.7-2.8-7.1-2.9-9.9-0.2c-2.8,2.7-2.9,7.1-0.2,9.9c0.1,0.1,0.1,0.1,0.2,0.2l23.9,23.9L183,220.7l-23.9-23.9
	c-2.7-2.8-7.1-2.9-9.9-0.2c-2.8,2.7-2.9,7.1-0.2,9.9c0.1,0.1,0.1,0.1,0.2,0.2l23.9,23.9l-11.2,11.2L125.6,205.4z M244.4,213.2
	c6.3-5.9,16.1-5.7,22.1,0.6s5.7,16.1-0.6,22.1s-16.1,5.7-22.1-0.6C238,229,238.2,219.2,244.4,213.2L244.4,213.2z M226.2,231.1
	c3.4,16.4,19.5,27,36,23.5c11.8-2.5,21.1-11.7,23.5-23.5l19.7,19.5c-9.6,0.5-18.7,4.3-25.9,10.7c-0.1,0.1-0.3,0.2-0.4,0.3
	l-38.8,36.7c-0.7-22.2-18.2-40.2-40.3-41.5L226.2,231.1z M168.8,299.6c0-6.3,2.1-12.4,5.9-17.4l0,0c9.4-12.8,27.5-15.5,40.3-6.1
	s15.5,27.5,6.1,40.3c-0.3,0.3-0.5,0.7-0.8,1l-5.8,5.5c-0.4,0.3-0.8,0.6-1.1,0.9c-13.3,8.7-31.2,5-39.9-8.3
	C170.4,310.7,168.8,305.2,168.8,299.6z M265.4,294c0.2,10.2,4.1,20.1,11.1,27.6h-40.3L265.4,294z M188.5,401.2v-20.7h15.8v20.7
	H188.5z M234.1,420.6h-15.8v-40h15.8V420.6z M248.1,401.2v-20.7h15.8v20.7H248.1z M293.7,420.6h-15.8v-40h15.8V420.6z M323.5,401.2
	h-15.8v-20.7h15.8V401.2z M353.7,366.6H158.3v-30.9h16.2c14,9,32.1,9,46.1,0h133L353.7,366.6z M279.3,293.1c0-7.6,3-14.8,8.3-20.1
	l0.2-0.2c11.2-11.1,29.3-10.9,40.4,0.3s10.9,29.3-0.3,40.4s-29.3,10.9-40.4-0.3C282.3,307.8,279.3,300.6,279.3,293.1L279.3,293.1z
	 M343,269.1c-1.8-2.6-3.9-5-6.2-7.1c-0.1-0.1-0.1-0.1-0.2-0.2l-59.5-58.7c-0.1-0.1-0.2-0.2-0.3-0.3c-11.7-11.2-30.2-11.2-41.9,0.1
	c-0.1,0.1-0.2,0.1-0.2,0.2l-65.3,64.2l-0.1,0.1c-0.4,0.3-0.7,0.7-1.1,1l-6.9-6.4l94.6-94.6l94.6,94.6L343,269.1z M350.1,241.8
	l-11.2-11.2l23.9-23.9c2.8-2.7,2.9-7.1,0.2-9.9c-2.7-2.8-7.1-2.9-9.9-0.2c-0.1,0.1-0.1,0.1-0.2,0.2l-23.9,24l-12.6-12.6l23.9-23.9
	c2.8-2.7,2.9-7.1,0.2-9.9c-2.7-2.8-7.1-2.9-9.9-0.2c-0.1,0.1-0.1,0.1-0.2,0.2l-23.9,23.9l-12.6-12.6l24-24c2.7-2.7,2.7-7.2,0-9.9
	s-7.2-2.7-9.9,0l-23.9,24l-11.2-11.2l36.3-36.3l77.3,77.3L350.1,241.8z M416.5,191.6l-12.1,12l-93.5-93.5l12-12
	c9-8.9,23.4-8.9,32.4,0l61.1,61.1C425.4,168.2,425.4,182.7,416.5,191.6L416.5,191.6z"/>
</svg>
