<svg height="512pt" viewBox="0 0 512 512" width="512pt" xmlns="http://www.w3.org/2000/svg"><path d="m60.03125 60.046875h30.023438v29.996094h-30.023438zm0 0"/><path d="m120.078125 60.046875h30.023437v29.996094h-30.023437zm0 0"/><path d="m180.121094 60.046875h30.023437v29.996094h-30.023437zm0 0"/><path d="m511.972656 0h-511.972656v451.929688h165.132812c23.410157 25.804687 52.550782 45.652343 85.570313 58.082031l5.285156 1.988281 5.285157-1.988281c33.015624-12.429688 62.15625-32.277344 85.566406-58.082031h165.132812zm-29.996094 30v90.089844h-451.976562v-90.089844zm-225.988281 449.859375c-34.175781-14.023437-63.253906-37.398437-84.34375-67.878906-22.171875-32.039063-33.890625-69.566407-33.890625-108.53125v-45.785157c21.738282-8.648437 38.882813-25.792968 47.53125-47.53125h141.40625c8.648438 21.738282 25.792969 38.882813 47.53125 47.53125v45.785157c0 38.964843-11.71875 76.492187-33.890625 108.53125-21.09375 30.476562-50.167969 53.855469-84.34375 67.878906zm113.738281-57.929687c22.59375-35.464844 34.496094-76.246094 34.496094-118.480469v-68.484375l-11.445312-2.792969c-19.824219-4.835937-35.757813-20.769531-40.59375-40.589844l-2.792969-11.445312h-186.808594l-2.792969 11.445312c-4.832031 19.820313-20.765624 35.753907-40.589843 40.589844l-11.445313 2.792969v68.484375c0 42.234375 11.898438 83.015625 34.492188 118.480469h-112.246094v-271.839844h451.976562v271.839844zm0 0"/><path d="m255.988281 264.992188c-27.804687 0-50.421875 22.621093-50.421875 50.421874 0 22.582032 14.921875 41.742188 35.421875 48.144532v40.410156h29.996094v-40.410156c20.503906-6.402344 35.425781-25.5625 35.425781-48.144532 0-27.800781-22.621094-50.421874-50.421875-50.421874zm0 70.84375c-11.261719 0-20.425781-9.160157-20.425781-20.421876 0-11.261718 9.164062-20.421874 20.425781-20.421874s20.421875 9.160156 20.421875 20.421874c0 11.261719-9.160156 20.421876-20.421875 20.421876zm0 0"/>
</svg>