<?xml version="1.0" encoding="utf-8"?>
<!-- Generator: Adobe Illustrator 16.0.0, SVG Export Plug-In . SVG Version: 6.00 Build 0)  -->
<!DOCTYPE svg PUBLIC "-//W3C//DTD SVG 1.1//EN" "http://www.w3.org/Graphics/SVG/1.1/DTD/svg11.dtd">
<svg version="1.1" id="Capa_1" xmlns="http://www.w3.org/2000/svg" xmlns:xlink="http://www.w3.org/1999/xlink" x="0px" y="0px"
	 width="500px" height="343.75px" viewBox="0 78.125 500 343.75" enable-background="new 0 78.125 500 343.75" xml:space="preserve"
	>
<polygon points="331.438,252.563 500,359.125 500,141.5 "/>
<polygon points="0,141.5 0,359.125 168.563,252.563 "/>
<path d="M468.75,78.125H31.25c-15.594,0-27.969,11.625-30.313,26.594L250,268.813l249.063-164.094
	C496.719,89.75,484.344,78.125,468.75,78.125z"/>
<path d="M302.813,271.438l-44.219,29.125c-2.625,1.719-5.594,2.563-8.594,2.563s-5.969-0.844-8.594-2.563l-44.219-29.156L1,395.5
	c2.406,14.844,14.719,26.375,30.25,26.375h437.5c15.531,0,27.844-11.531,30.25-26.375L302.813,271.438z"/>
</svg>
