<?xml version="1.0" encoding="utf-8"?>
<!-- Generator: Adobe Illustrator 16.0.0, SVG Export Plug-In . SVG Version: 6.00 Build 0)  -->
<!DOCTYPE svg PUBLIC "-//W3C//DTD SVG 1.1//EN" "http://www.w3.org/Graphics/SVG/1.1/DTD/svg11.dtd">
<svg version="1.1" id="Layer_1" xmlns="http://www.w3.org/2000/svg" xmlns:xlink="http://www.w3.org/1999/xlink" x="0px" y="0px" width="500px" height="463px" viewBox="0 0 500 463" enable-background="new 0 0 500 463" xml:space="preserve"><path d="M253.947,2c-0.644,0-1.253,0.158-1.854,0.158c-1.889-0.051-3.767-0.176-5.674-0.158H253.947z M251.022,291.791c-0.339,0-0.644-0.069-0.982-0.069c-0.254,0-0.48,0.069-0.733,0.069H251.022z M145.017,185.171c0.27-0.048,0.462-0.339,0.749-0.408c16.768,60.632,60.181,106.004,104.29,106.959c40.186-1.844,89.508-46.396,105.938-106.714c7.553,0.461,15.105-8.443,17.211-20.835c2.193-12.929-2.384-24.468-10.199-25.797c-0.504-0.097-0.991,0.227-1.497,0.245C359.248,38.841,311.806,3.653,252.075,2.14c-61.59,0.285-116.752,43.059-113.254,136.498c-0.591,0-1.147-0.375-1.715-0.263c-7.821,1.33-12.382,12.868-10.197,25.797C129.049,177.071,137.175,186.467,145.017,185.171z M333.038,309.042l-55.953,109.419l-8.842-71.159l13.803-11.32h-33.469h-30.596l13.827,11.32l-8.858,71.159l-55.9-109.419C69.816,322.122,0.01,363.757,0.01,464.998h499.98C500.026,363.757,430.237,322.155,333.038,309.042z"/>
</svg>
