<?xml version="1.0" encoding="utf-8"?>
<!-- Generator: Adobe Illustrator 16.0.0, SVG Export Plug-In . SVG Version: 6.00 Build 0)  -->
<!DOCTYPE svg PUBLIC "-//W3C//DTD SVG 1.1//EN" "http://www.w3.org/Graphics/SVG/1.1/DTD/svg11.dtd">
<svg version="1.1" id="Layer_1" xmlns="http://www.w3.org/2000/svg" xmlns:xlink="http://www.w3.org/1999/xlink" x="0px" y="0px" width="473px" height="499.523px" viewBox="0 0 473 499.523" enable-background="new 0 0 473 499.523" xml:space="preserve"><path d="M94.694,157.047H63.13V188.3h31.564V157.047z M220.954,125.797h-31.565v31.25h31.565V125.797z M284.084,125.797h-31.566v31.25h31.566V125.797z M347.214,125.797h-31.565v31.25h31.565V125.797z M220.954,63.295h-31.565v31.251h31.565V63.295z M284.084,63.295h-31.566v31.251h31.566V63.295z M347.214,63.295h-31.565v31.251h31.565V63.295z M220.954,250.803h-31.565v31.253h31.565V250.803z M284.084,250.803h-31.566v31.253h31.566V250.803z M347.214,250.803h-31.565v31.253h31.565V250.803z M220.954,313.304h-31.565v31.253h31.565V313.304z M347.214,313.304h-31.565v31.253h31.565V313.304z M220.954,375.811h-31.565v31.247h31.565V375.811z M347.214,375.811h-31.565v31.247h31.565V375.811z M220.954,188.3h-31.565v31.251h31.565V188.3z M284.084,188.3h-31.566v31.251h31.566V188.3z M347.214,188.3h-31.565v31.251h31.565V188.3z M94.694,219.552H63.13v31.251h31.564V219.552z M94.694,282.057H63.13v31.248h31.564V282.057z M94.694,344.557H63.13v31.254h31.564V344.557z M94.694,407.058H63.13v31.254h31.564V407.058z M284.084,313.304h-31.566v31.253h31.566V313.304z M441.908,219.552h-31.565V32.043c0-17.275-14.117-31.251-31.564-31.251H157.824c-17.447,0-31.565,13.977-31.565,31.251v62.503H31.565C14.118,94.546,0,108.525,0,125.797v343.766c0,17.274,14.118,31.251,31.565,31.251h410.343c17.447,0,31.565-13.977,31.565-31.251v-218.76C473.473,233.529,459.355,219.552,441.908,219.552z M126.259,469.563H31.565V125.797h94.694V469.563z M378.779,469.563h-94.695v-93.752h-31.566v93.752h-94.694V32.043h220.956V469.563z M441.908,469.563h-31.565v-31.251h31.565V469.563z M441.908,407.058h-31.565v-31.247h31.565V407.058z M441.908,344.557h-31.565v-31.253h31.565V344.557z M441.908,282.057h-31.565v-31.253h31.565V282.057z"/>
</svg>
