<?xml version="1.0" encoding="utf-8"?>
<!-- Generator: Adobe Illustrator 16.0.0, SVG Export Plug-In . SVG Version: 6.00 Build 0)  -->
<!DOCTYPE svg PUBLIC "-//W3C//DTD SVG 1.1//EN" "http://www.w3.org/Graphics/SVG/1.1/DTD/svg11.dtd">
<svg version="1.1" id="Layer_1" xmlns="http://www.w3.org/2000/svg" xmlns:xlink="http://www.w3.org/1999/xlink" x="0px" y="0px" width="500px" height="500px" viewBox="0 0 500 500" enable-background="new 0 0 500 500" xml:space="preserve"><path fill="#020202" d="M302.065,116.69c23.021,14.56,39.163,39.195,42.112,67.793c9.38,4.424,19.806,6.972,30.85,6.972c40.338,0,73.021-32.979,73.021-73.65c0-40.688-32.683-73.658-73.021-73.658C335.074,44.151,302.672,76.542,302.065,116.69z M254.225,267.498c40.329,0,73.023-32.977,73.023-73.654s-32.694-73.652-73.023-73.652c-40.325,0-73.033,32.978-73.033,73.658C181.192,234.528,213.9,267.498,254.225,267.498z M285.195,272.519h-61.954c-51.555,0-93.495,42.314-93.495,94.315v76.435l0.19,1.2l5.219,1.646c49.201,15.504,91.944,20.676,127.129,20.676c68.712,0,108.542-19.761,111-21.025l4.878-2.49h0.521v-76.441C378.691,314.833,336.75,272.519,285.195,272.519z M406.009,196.481h-61.48c-0.668,24.813-11.165,47.156-27.768,63.229c45.825,13.742,79.344,56.609,79.344,107.241v23.55c60.704-2.246,95.69-19.597,97.997-20.766l4.88-2.5h0.521v-76.451C499.503,238.787,457.561,196.481,406.009,196.481z M126.095,191.462c14.286,0,27.579-4.205,38.835-11.369c3.58-23.553,16.094-44.124,33.971-58.138c0.076-1.38,0.202-2.748,0.202-4.139c0-40.686-32.694-73.659-73.009-73.659c-40.336,0-73.02,32.973-73.02,73.659C53.075,158.485,85.759,191.462,126.095,191.462z M191.674,259.71c-16.529-15.99-26.99-38.214-27.755-62.878c-2.28-0.167-4.535-0.351-6.859-0.351H95.103c-51.552,0-93.495,42.306-93.495,94.303v76.449l0.192,1.178l5.222,1.66c39.468,12.431,74.694,18.161,105.286,19.958v-23.078C112.322,316.32,145.838,273.46,191.674,259.71z"/>
</svg>
