<?xml version="1.0" encoding="utf-8"?>
<!-- Generator: Adobe Illustrator 16.0.0, SVG Export Plug-In . SVG Version: 6.00 Build 0)  -->
<!DOCTYPE svg PUBLIC "-//W3C//DTD SVG 1.1//EN" "http://www.w3.org/Graphics/SVG/1.1/DTD/svg11.dtd">
<svg version="1.1" id="Layer_1" xmlns="http://www.w3.org/2000/svg" xmlns:xlink="http://www.w3.org/1999/xlink" x="0px" y="0px" width="111px" height="89px" viewBox="0 0 111 89" enable-background="new 0 0 111 89" xml:space="preserve"><path fill="#020202" d="M55.509,17.969L15.916,50.847c0,0.046-0.011,0.115-0.035,0.208c-0.022,0.093-0.035,0.159-0.035,0.208v33.291c0,1.202,0.437,2.245,1.309,3.122c0.873,0.878,1.905,1.32,3.099,1.32h26.441V62.36h17.629v26.635h26.44c1.193,0,2.228-0.44,3.099-1.319c0.872-0.877,1.31-1.918,1.31-3.121V51.263c0-0.185-0.024-0.325-0.069-0.416L55.509,17.969z"/><path fill="#020202" d="M110.25,43.356L95.171,30.732V2.433c0-0.647-0.207-1.179-0.621-1.596c-0.411-0.416-0.939-0.624-1.583-0.624H79.747c-0.643,0-1.171,0.208-1.584,0.624c-0.413,0.417-0.619,0.949-0.619,1.596v13.525L60.742,1.808c-1.467-1.202-3.212-1.804-5.232-1.804c-2.02,0-3.764,0.602-5.233,1.804L0.766,43.356c-0.459,0.369-0.71,0.866-0.757,1.49c-0.047,0.625,0.114,1.169,0.481,1.632l4.27,5.132c0.368,0.415,0.849,0.669,1.446,0.763c0.551,0.046,1.102-0.115,1.653-0.485l47.65-40.022l47.65,40.022c0.368,0.323,0.85,0.484,1.446,0.484h0.208c0.596-0.092,1.077-0.348,1.446-0.762l4.27-5.133c0.367-0.462,0.528-1.006,0.48-1.632C110.962,44.223,110.709,43.726,110.25,43.356z"/>
</svg>
