<?xml version="1.0" encoding="utf-8"?>
<!-- Generator: Adobe Illustrator 16.0.0, SVG Export Plug-In . SVG Version: 6.00 Build 0)  -->
<!DOCTYPE svg PUBLIC "-//W3C//DTD SVG 1.1//EN" "http://www.w3.org/Graphics/SVG/1.1/DTD/svg11.dtd">
<svg version="1.1" id="Layer_1" xmlns="http://www.w3.org/2000/svg" xmlns:xlink="http://www.w3.org/1999/xlink" x="0px" y="0px" width="500px" height="440.319px" viewBox="0 0 500 440.319" enable-background="new 0 0 500 440.319" xml:space="preserve"><path d="M73.161,375.597l122.116-123.568c11.65-11.787,14.996-28.613,10.43-43.502l37.801-38.254c11.302,9.308,23.019,16.75,34.538,22.188c0.884-2.656,2.235-5.093,4.216-7.09l63.324-64.071c1.959-1.984,4.382-3.333,7.034-4.186c-7.751-16.855-19.628-34.181-35.229-49.963c-15.91-16.096-33.395-28.315-50.361-36.141c-0.894,2.485-2.168,4.792-4.052,6.699l-63.314,64.068c-1.873,1.89-4.097,3.274-6.58,4.199c5.399,11.964,12.946,24.17,22.403,35.928l-37.809,38.255c-14.712-4.618-31.343-1.234-42.997,10.553L12.553,314.282c-16.737,16.931-16.737,44.373,0,61.315C29.291,392.531,56.426,392.531,73.161,375.597z"/><path d="M288.288,191.481c-1.177,1.193-1.924,2.703-2.39,4.374c-1.567,5.752,0.958,13.709,6.907,19.725c4.659,4.708,10.636,7.525,15.996,7.525c2.242,0,5.416-0.511,7.823-2.946l19.578-19.812l24.161-24.443l19.577-19.814c2.399-2.425,3.367-6.136,2.717-10.449c-0.717-4.797-3.284-9.642-7.244-13.644c-4.659-4.706-10.625-7.518-15.984-7.518c-1.025,0-2.266,0.134-3.525,0.488c-1.491,0.419-3.01,1.145-4.309,2.466L288.288,191.481z"/><path d="M185.779,98.632c1.159,0,2.575-0.157,4.009-0.632c1.325-0.437,2.663-1.144,3.825-2.319l63.314-64.068c1.059-1.069,1.742-2.426,2.216-3.893c1.868-5.776-0.615-14.006-6.741-20.197C247.744,2.813,241.773,0,236.423,0c-2.248,0-5.423,0.511-7.828,2.943L207.02,24.774L186.847,45.18l-21.579,21.83c-5.221,5.296-3.153,16.329,4.526,24.1C174.454,95.814,180.429,98.632,185.779,98.632z"/><path d="M315.433,378.651c10.384-1.039,21.52-1.325,33.153-1.325c4.951,0,10.035,0.035,15.201,0.076c10.719,0.083,22.053,0.083,32.771,0c5.176-0.041,10.25-0.076,15.218-0.076c11.626,0,22.767,0.287,33.152,1.325v-25.056H315.433V378.651z"/><path d="M411.775,385.962c-4.935,0-9.984,0.034-15.145,0.074c-10.775,0.079-22.143,0.079-32.894,0c-5.157-0.04-10.216-0.074-15.143-0.074c-12.076,0-23.161,0.237-33.162,1.198c-32.977,3.153-53.671,14.412-55.089,53.159H500c-1.4-38.747-22.103-50.006-55.09-53.159C434.929,386.199,423.842,385.962,411.775,385.962z"/>
</svg>
