<?xml version="1.0" encoding="utf-8"?>
<!-- Generator: Adobe Illustrator 16.0.0, SVG Export Plug-In . SVG Version: 6.00 Build 0)  -->
<!DOCTYPE svg PUBLIC "-//W3C//DTD SVG 1.1//EN" "http://www.w3.org/Graphics/SVG/1.1/DTD/svg11.dtd">
<svg version="1.1" id="Layer_1" xmlns="http://www.w3.org/2000/svg" xmlns:xlink="http://www.w3.org/1999/xlink" x="0px" y="0px" width="91px" height="91px" viewBox="0 0 91 91" enable-background="new 0 0 91 91" xml:space="preserve"><path fill="#020202" d="M78.675,26.688v0.005c0.6-1.266,0.95-2.588,0.95-3.943v-5.688C79.625,7.643,64.345,0,45.5,0S11.375,7.643,11.375,17.063c0-0.467,0.066-0.922,0.139-1.378C4.465,18.807,0,23.361,0,28.438v5.687c0,5.276,4.799,9.992,12.325,13.119l0,0c-0.6,1.267-0.95,2.588-0.95,3.944v5.687c0,2,0.722,3.905,1.988,5.688c-1.266,1.783-1.988,3.688-1.988,5.688v5.688C11.375,83.357,26.655,91,45.5,91s34.125-7.643,34.125-17.063V68.25c0-2.033-0.75-3.971-2.049-5.776c-0.011,0.011-0.022,0.028-0.034,0.039c0.956-1.355,1.705-2.766,1.944-4.26C86.534,55.125,91,50.577,91,45.5v-5.688C91,34.536,86.201,29.814,78.675,26.688z M45.5,2.844c18.435,0,31.281,7.492,31.281,14.218c0,6.721-12.847,14.219-31.281,14.219s-31.281-7.498-31.281-14.219C14.219,10.336,27.065,2.844,45.5,2.844z M2.844,28.438c0-3.322,3.149-6.816,8.531-9.515v3.827c0,9.42,15.28,17.063,34.125,17.063c2.816,0,5.538-0.189,8.154-0.511c-5.216,2.005-11.842,3.354-19.529,3.354C15.69,42.656,2.844,35.158,2.844,28.438z M76.781,68.25c0,6.721-12.847,14.219-31.281,14.219S14.219,74.971,14.219,68.25c0-1.116,0.478-2.25,1.149-3.371c-0.005-0.006-0.017-0.017-0.022-0.028c5.727,5.404,17.079,9.087,30.154,9.087c13.091,0,24.389-3.71,30.104-9.125c-0.006,0.006-0.006,0.006-0.011,0.011C76.292,65.961,76.781,67.112,76.781,68.25z M65.04,62.051c-5.221,2.011-11.847,3.354-19.54,3.354c-18.435,0-31.281-7.498-31.281-14.218c0-0.966,0.333-1.944,0.839-2.911c2.788,0.938,5.871,1.677,9.165,2.171c4.243,7.009,17.251,12.114,32.653,12.114c2.827,0,5.56-0.188,8.187-0.517C65.056,62.046,65.051,62.051,65.04,62.051z M56.875,54.032c-7.298,0-13.663-1.2-18.762-3.039c16.035-0.945,28.699-7.381,29.998-15.491c3.872-1.716,6.971-3.855,8.965-6.287c-0.005,0-0.005,0-0.005,0c6.887,2.799,11.086,6.798,11.086,10.597C88.156,46.533,75.31,54.032,56.875,54.032z M51.576,21.206c0-0.6-0.478-1.061-1.433-1.367c-0.955-0.311-3.083-0.71-6.376-1.188c-2.96-0.417-5.276-0.833-6.943-1.244c-1.666-0.411-3.021-0.988-4.06-1.722c-1.039-0.744-1.561-1.611-1.561-2.588c0-1.289,0.933-2.456,2.788-3.488c1.855-1.027,4.776-1.655,8.765-1.888V5.687h5.388V7.72c6.021,0.3,9.92,1.688,11.691,4.188l-7.42,1.244c-1.45-1.711-3.683-2.566-6.715-2.566c-1.522,0-2.744,0.189-3.66,0.578c-0.922,0.377-1.383,0.844-1.383,1.389c0,0.555,0.444,0.977,1.333,1.277c0.883,0.294,2.788,0.655,5.698,1.1c3.199,0.478,5.71,0.928,7.526,1.355c1.822,0.422,3.271,1.011,4.36,1.761c1.083,0.749,1.627,1.627,1.627,2.626c0,1.544-1.122,2.822-3.36,3.849c-2.238,1.028-5.471,1.633-9.698,1.816v2.632h-5.388v-2.622c-7.048-0.294-11.409-1.978-13.091-5.032l8.332-0.889c0.772,1.922,3.327,2.883,7.665,2.883c2.027,0,3.527-0.205,4.482-0.616C51.099,22.283,51.576,21.789,51.576,21.206z"/>
</svg>
