<?xml version="1.0" encoding="utf-8"?>
<!-- Generator: Adobe Illustrator 16.0.0, SVG Export Plug-In . SVG Version: 6.00 Build 0)  -->
<!DOCTYPE svg PUBLIC "-//W3C//DTD SVG 1.1//EN" "http://www.w3.org/Graphics/SVG/1.1/DTD/svg11.dtd">
<svg version="1.1" id="Layer_1" xmlns="http://www.w3.org/2000/svg" xmlns:xlink="http://www.w3.org/1999/xlink" x="0px" y="0px" width="188.766px" height="189px" viewBox="0 0 188.766 189" enable-background="new 0 0 188.766 189" xml:space="preserve"><path fill="#010202" d="M105.241,33.651H40.799c-4.73,0-8.58,3.85-8.58,8.58c0,4.755,3.85,8.6,8.58,8.6h64.442c4.729,0,8.58-3.845,8.58-8.6C113.821,37.501,109.97,33.651,105.241,33.651"/><path fill="#010202" d="M113.821,74.455c0-4.755-3.851-8.601-8.58-8.601H40.799c-4.73,0-8.581,3.846-8.581,8.601c0,4.75,3.851,8.595,8.581,8.595h64.442C109.971,83.05,113.821,79.205,113.821,74.455"/><path fill="#010202" d="M73.018,115.254c4.755,0,8.6-3.851,8.6-8.58c0-4.755-3.845-8.601-8.6-8.601H40.799c-4.729,0-8.58,3.846-8.58,8.601c0,4.729,3.851,8.58,8.58,8.58H73.018z"/><path fill="#010202" d="M137.872,144.467l-9.012,5.951V171.8H17.18V17.18h111.68v33.948l17.18-29.766V8.58c0-4.73-3.851-8.58-8.601-8.58H8.58C3.85,0,0,3.85,0,8.58V180.4c0,4.749,3.85,8.6,8.58,8.6h128.859c4.75,0,8.601-3.851,8.601-8.6v-47.339l-4.105,7.088C140.935,141.894,139.521,143.386,137.872,144.467"/><path fill="#010202" d="M188.663,39.778c-0.176-0.763-2-7.716-12.918-14.018c-10.937-6.303-17.848-4.418-18.612-4.182c-1.021,0.332-1.885,1.021-2.438,1.965L101.02,116.53c-0.337,0.568-0.533,1.217-0.573,1.885l-2.001,33.551c-0.1,1.633,0.725,3.162,2.121,3.986c1.412,0.809,3.162,0.769,4.514-0.136l28.058-18.518c0.572-0.371,1.021-0.859,1.356-1.432l53.696-93.008C188.724,41.939,188.899,40.839,188.663,39.778 M115.917,140.953c-1.433-1.156-3.061-2.236-4.811-3.241c-1.724-1.021-3.493-1.865-5.202-2.53l0.608-10.051c2.242,0.291,5.56,1.196,9.781,3.629c4.202,2.438,6.655,4.851,8.027,6.64L115.917,140.953z"/><path fill="#010202" d="M59.884,154.952c0.296,1.729,2.276,2.257,3.613,2.81c1.278,0.548,2.825-0.493,3.886-1.001c6.56-3.182,15.436,0.547,22.463,0.547c4.142,0,4.142-6.438,0-6.438c-8.189,0-14.999-2.065-23.131-0.729c0-0.472-0.156-1.1-0.664-1.965c-1.513-2.588-3.458-3.337-5.383-3.021c-0.136-0.297-0.252-0.608-0.432-0.925c-0.508-0.824-1.216-1.236-2.021-1.412c2.277-3.946,3.73-8.128,2.237-11.525c-0.448-1.021-1.745-1.549-2.764-1.589c-4.303-0.16-7.992,4.358-10.762,7.067c-6.932,6.775-13.019,14.471-18.929,22.146c-2.534,3.282,3.066,6.479,5.559,3.242c5.242-6.795,10.776-13.37,16.727-19.537c-1.432,2.357-2.965,4.675-4.553,6.892c-2.297,3.553,3.176,6.559,5.553,3.262c0.569-0.864,1.297-1.493,2.081-2.025c-0.155,0.391-0.311,0.783-0.487,1.181c0.015,0,0.015,0.016,0.035,0.016c-0.135,0.256-0.251,0.513-0.351,0.749c-1.453,3.612,3.925,5.262,5.89,2.492c0.493-0.708,0.94-1.452,1.352-2.236C59.788,153.499,59.768,154.208,59.884,154.952"/>
</svg>
