<?xml version="1.0" encoding="utf-8"?>
<!-- Generator: Adobe Illustrator 16.0.0, SVG Export Plug-In . SVG Version: 6.00 Build 0)  -->
<!DOCTYPE svg PUBLIC "-//W3C//DTD SVG 1.1//EN" "http://www.w3.org/Graphics/SVG/1.1/DTD/svg11.dtd">
<svg version="1.1" id="Layer_1" xmlns="http://www.w3.org/2000/svg" xmlns:xlink="http://www.w3.org/1999/xlink" x="0px" y="0px" width="500px" height="434.57px" viewBox="0 0 500 434.57" enable-background="new 0 0 500 434.57" xml:space="preserve"><path fill-rule="evenodd" clip-rule="evenodd" d="M500.977,238.281c0,58.594,0,117.188,0,175.781c-3.06,10.612-10.029,17.314-20.508,20.508c-25.065,0-50.13,0-75.195,0c-17.009-6.707-20.933-12.553-20.934-31.199c-0.001-20.986-0.001-41.975-0.001-62.961c0-1.872,0-3.745,0-5.672c-33.78,0-66.734,0-99.744,0c0,16.664,0,32.996,0,49.938c9.572,0,18.827-0.346,28.049,0.07c19.812,0.896,36.746,18.056,38.139,37.843c0.384,5.453-0.877,9.58-6.056,11.98c-107.748,0-215.495,0-323.242,0c-10.479-3.192-17.467-9.876-20.508-20.508c0-75.521,0-151.042,0-226.563c0.321-0.523,0.747-1.009,0.949-1.576c4.316-12.09,12.559-17.973,25.388-18.074c2.209-0.018,4.418-0.002,6.941-0.002c0-2.642,0-4.576,0-6.51c0-39.041-0.039-78.081,0.019-117.122c0.027-18.328,9.854-33.407,25.977-39.98c3.256-1.328,6.703-2.185,10.062-3.259c120.443,0,240.886,0,361.328,0c0.235,0.211,0.44,0.546,0.711,0.615c23.816,5.97,35.343,20.636,35.345,45.037c0.006,55.121,0.002,110.241,0.002,165.362c0,1.866,0,3.731,0,5.562c4.668,0.208,8.628-0.035,12.428,0.631C491.485,220.172,497.712,227.754,500.977,238.281z M384.461,250.828c0-3.458-0.173-6.532,0.032-9.58c0.799-11.898,9.077-21.131,20.796-23.122c2.542-0.432,5.188-0.332,7.785-0.338c12.485-0.03,24.971-0.014,37.742-0.014c0.092-2.067,0.224-3.651,0.225-5.235c0.011-55.651,0.019-111.303,0.002-166.955c-0.005-17.628-10.26-27.877-27.889-27.878c-114.721-0.01-229.44-0.009-344.161-0.001c-17.953,0.001-28.08,10.162-28.085,28.167c-0.013,38.729-0.004,77.457-0.004,116.185c0,1.743,0,3.486,0,5.791c2.429,0,4.338,0,6.246,0c38.728,0,77.457-0.02,116.185,0.04c3.06,0.005,6.256,0.114,9.138,0.996c2.925,0.895,4.61,0.26,6.694-1.837c25.695-25.852,51.495-51.601,77.273-77.371c1.149-1.149,2.249-2.382,3.543-3.345c3.449-2.569,8.271-2.124,11.104,0.895c2.776,2.956,3.005,7.303,0.433,10.717c-0.972,1.291-2.18,2.41-3.328,3.559c-25.655,25.663-51.339,51.297-76.913,77.041c-1.207,1.214-2.107,3.427-2.009,5.107c0.262,4.497,1.632,8.95,1.694,13.433c0.223,16.106,0.088,32.218,0.088,48.328c0,1.734,0,3.47,0,5.418C262.261,250.828,322.902,250.828,384.461,250.828z M17.613,384.214c55.799,0,111.007,0,166.495,0c0.106-1.7,0.273-3.123,0.273-4.546c0.013-61.322,0.017-122.645,0.003-183.966c-0.002-8.614-2.688-11.203-11.504-11.204c-47.822-0.006-95.643-0.005-143.464-0.001c-9.39,0.001-11.801,2.418-11.802,11.827c-0.003,60.834-0.002,121.668-0.002,182.502C17.613,380.444,17.613,382.062,17.613,384.214z M484.077,384.283c0.113-1.23,0.249-2.023,0.249-2.817c0.012-45.715,0.029-91.431-0.008-137.146c-0.004-6.77-3.119-9.872-9.881-9.89c-20.498-0.053-40.997-0.024-61.495-0.019c-9.488,0.002-11.893,2.354-11.895,11.734c-0.012,44.25-0.009,88.502,0.006,132.752c0,1.726,0.158,3.45,0.253,5.385C429.057,384.283,456.325,384.283,484.077,384.283z M384.014,317.466c0-16.581,0-32.92,0-49.447c-61.041,0-121.794,0-182.616,0c0,16.66,0,32.997,0,49.447C262.393,317.466,323.041,317.466,384.014,317.466z M184.304,401.577c-55.749,0-111.085,0-166.389,0c-1.176,14.005,0.876,16.27,14.355,16.27c46.369,0,92.737,0.001,139.105-0.003c1.626,0,3.269,0.102,4.876-0.082c4.64-0.526,7.457-3.173,7.996-7.799C184.561,407.275,184.304,404.521,184.304,401.577z M200.242,417.545c44.001,0,87.924,0,132.25,0c-0.451-1.272-0.641-2.224-1.095-3.022c-4.895-8.608-12.217-13.295-22.216-13.307c-34.776-0.044-69.551-0.026-104.327-0.007c-1.222,0.001-2.444,0.265-3.481,0.385C200.977,407.181,200.612,412.313,200.242,417.545z M234.528,384.096c11.332,0,22.085,0,32.917,0c0-16.634,0-32.842,0-49.257c-11.063,0-21.955,0-32.917,0C234.528,351.466,234.528,367.664,234.528,384.096z M401.076,401.437c0,2.915-0.108,5.343,0.023,7.759c0.289,5.322,3.242,8.541,8.61,8.574c21.919,0.136,43.84,0.137,65.759,0.01c5.538-0.032,8.603-3.408,8.845-8.945c0.103-2.382,0.017-4.772,0.017-7.397C456.448,401.437,429.087,401.437,401.076,401.437z M201.345,334.747c0,16.586,0,32.92,0,49.388c5.554,0,10.805,0,16.167,0c0-16.608,0-32.83,0-49.388C212.054,334.747,206.78,334.747,201.345,334.747z"/><path fill-rule="evenodd" clip-rule="evenodd" d="M335.182,92.294c-1.65,2.904-2.429,5.323-4.025,6.929c-27.049,27.208-54.178,54.336-81.35,81.422c-3.865,3.853-8.75,3.972-12.158,0.698c-3.514-3.375-3.442-8.548,0.538-12.54c26.972-27.056,54.012-54.044,81.009-81.074c2.955-2.958,6.552-4.277,10.122-2.173C331.665,86.94,333.122,89.834,335.182,92.294z"/><path fill-rule="evenodd" clip-rule="evenodd" d="M251.057,51.005c-5.37,0.003-10.743,0.103-16.11-0.025c-5.431-0.129-8.955-3.505-8.925-8.266c0.028-4.554,3.413-8.172,8.515-8.267c10.898-0.204,21.807-0.2,32.706-0.009c5.374,0.095,8.83,3.825,8.667,8.595c-0.156,4.58-3.566,7.804-8.744,7.938C261.799,51.111,256.427,51.003,251.057,51.005z"/><path fill-rule="evenodd" clip-rule="evenodd" d="M153.975,274.503c-1.765,3.02-2.656,5.55-4.357,7.287c-11.136,11.365-22.41,22.596-33.719,33.789c-4.098,4.058-9.06,4.268-12.523,0.827c-3.568-3.545-3.418-8.32,0.722-12.504c11.308-11.425,22.707-22.758,34.095-34.104c2.772-2.763,6.245-4.15,9.684-1.999C150.229,269.269,151.786,272.014,153.975,274.503z"/><path fill-rule="evenodd" clip-rule="evenodd" d="M101.438,277.599c-1.018,1.854-1.684,4.053-3.11,5.506c-10.602,10.799-21.332,21.473-32.072,32.134c-4.365,4.333-9.351,4.715-12.907,1.165c-3.642-3.637-3.299-8.422,1.122-12.872c11.008-11.084,22.066-22.12,33.148-33.13c1.132-1.125,2.444-2.212,3.878-2.863c4.83-2.193,8.48,0.076,8.783,5.264c0.085,1.461,0.275,2.915,0.417,4.372C100.942,277.315,101.19,277.457,101.438,277.599z"/><path fill-rule="evenodd" clip-rule="evenodd" d="M463.791,297.06c-1.761,3-2.675,5.52-4.374,7.285c-7.215,7.506-14.606,14.848-22.05,22.13c-4.115,4.026-9.1,4.13-12.541,0.566c-3.288-3.407-3.154-8.251,0.682-12.171c7.511-7.676,15.15-15.225,22.776-22.786c2.692-2.67,6.153-3.7,9.345-1.74C460.009,291.806,461.587,294.571,463.791,297.06z"/><path fill-rule="evenodd" clip-rule="evenodd" d="M259.472,292.703c0.038,4.562-3.755,8.28-8.415,8.25c-4.587-0.03-7.996-3.345-8.133-7.907c-0.141-4.678,3.441-8.519,8.036-8.614C255.448,284.337,259.434,288.21,259.472,292.703z"/>
</svg>
