<?xml version="1.0" encoding="utf-8"?>
<!-- Generator: Adobe Illustrator 16.0.0, SVG Export Plug-In . SVG Version: 6.00 Build 0)  -->
<!DOCTYPE svg PUBLIC "-//W3C//DTD SVG 1.1//EN" "http://www.w3.org/Graphics/SVG/1.1/DTD/svg11.dtd">
<svg version="1.1" id="Layer_1" xmlns="http://www.w3.org/2000/svg" xmlns:xlink="http://www.w3.org/1999/xlink" x="0px" y="0px" width="497.279px" height="342.098px" viewBox="0 0 497.279 342.098" enable-background="new 0 0 497.279 342.098" xml:space="preserve"><path fill="#020202" d="M489.442,232.125c-27.683-22.664-57.504-37.708-63.509-40.655c-0.712-0.305-1.12-1.016-1.12-1.83v-42.992c5.394-3.559,8.956-9.759,8.956-16.771V85.258c0-22.159-18.014-40.147-40.2-40.147h-4.783h-4.784c-22.188,0-40.203,17.988-40.203,40.147v44.618c0,7.012,3.563,13.11,8.958,16.771v42.992c0,0.306-0.104,0.51-0.104,0.712c8.448,5.793,17.303,12.298,25.953,19.413c10.078,8.334,15.877,20.532,15.877,33.746v35.876h102.794v-30.594C497.279,242.391,494.428,236.293,489.442,232.125z"/><path fill="#020202" d="M144.522,189.64v-42.992c5.395-3.559,8.958-9.759,8.958-16.771V85.258c0-22.159-18.015-40.147-40.203-40.147h-4.784h-4.782c-22.189,0-40.201,17.988-40.201,40.147v44.618c0,7.012,3.561,13.11,8.956,16.771v42.992c0,0.712-0.408,1.425-1.12,1.83c-6.107,2.947-35.929,17.992-63.509,40.655C2.849,236.193,0,242.391,0,248.793v30.594h102.794v-35.876c0-13.114,5.8-25.412,15.877-33.746c8.65-7.115,17.505-13.62,25.952-19.413C144.624,190.149,144.522,189.946,144.522,189.64z"/><path fill="#020202" d="M366.904,223.893c-32.466-26.628-67.478-44.314-74.704-47.874c-0.814-0.403-1.322-1.217-1.322-2.133v-50.515c6.31-4.269,10.584-11.486,10.584-19.616V51.413c0-26.021-21.169-47.163-47.224-47.163h-5.598h-5.598c-26.055,0-47.225,21.142-47.225,47.163v52.343c0,8.231,4.173,15.449,10.585,19.616v50.515c0,0.916-0.509,1.729-1.323,2.133c-7.125,3.457-42.136,21.142-74.705,47.874c-5.903,4.776-9.262,11.994-9.262,19.618v35.876h48.142v-4.064c0-10.469,7.429-19.21,17.301-21.245c0.102-0.202,0.204-0.406,0.306-0.608c-2.341-3.457-3.562-7.624-3.562-11.892c0-5.792,2.239-11.18,6.31-15.348l5.801-5.792c4.072-4.069,9.567-6.302,15.37-6.302c4.376,0,8.548,1.321,12.008,3.659c0.204-0.102,0.306-0.102,0.51-0.204c1.933-9.962,10.686-17.481,21.271-17.481h8.243l0,0l0,0c10.586,0,19.338,7.519,21.273,17.481c0.1,0.102,0.203,0.102,0.406,0.204c3.562-2.44,7.735-3.761,12.213-3.761c5.801,0,11.196,2.234,15.265,6.302l5.804,5.793c7.429,7.419,8.345,19.007,2.645,27.443c0.103,0.1,0.103,0.203,0.204,0.406c9.974,1.932,17.606,10.671,17.606,21.243v4.167h48.142v-35.876C376.166,235.887,372.806,228.669,366.904,223.893z"/><path fill="#020202" d="M306.346,269.833h-8.141c-1.323-6.708-3.868-13.11-7.939-18.904l5.802-5.793c2.035-2.033,2.035-5.488,0-7.521l-5.802-5.796c-2.035-2.03-5.496-2.03-7.531,0l-5.801,5.796c-5.802-3.964-12.314-6.608-18.93-7.826v-8.131c0-2.947-2.341-5.289-5.293-5.289h-8.243c-2.953,0-5.293,2.341-5.293,5.289v8.027c-6.716,1.22-13.23,3.863-19.033,7.828l-5.699-5.694c-2.036-2.03-5.496-2.03-7.53,0l-5.802,5.796c-2.035,2.034-2.035,5.489,0,7.521l5.598,5.589c-3.968,5.894-6.717,12.4-7.938,19.108h-7.837c-2.95,0-5.292,2.339-5.292,5.287v8.233c0,2.947,2.342,5.284,5.292,5.284h7.837c1.221,6.709,3.868,13.316,7.938,19.108l-5.495,5.489c-2.035,2.033-2.035,5.488,0,7.521l5.801,5.792c2.035,2.034,5.496,2.034,7.531,0l5.498-5.488c5.902,3.964,12.417,6.608,19.234,7.929v7.826c0,2.947,2.341,5.284,5.293,5.284h8.243c2.953,0,5.294-2.337,5.294-5.284v-7.826c6.715-1.321,13.229-3.965,19.032-7.929l5.597,5.592c2.035,2.031,5.496,2.031,7.531,0l5.802-5.794c2.035-2.032,2.035-5.488,0-7.522l-5.7-5.69c3.968-5.898,6.513-12.298,7.836-19.008h8.041c2.951,0,5.291-2.337,5.291-5.284v-8.233C311.741,272.271,309.298,269.833,306.346,269.833z M268.08,298.697c-10.688,10.673-28.09,10.774-38.879,0c-10.686-10.671-10.788-28.051,0-38.824c10.687-10.672,28.089-10.774,38.879,0C278.765,270.646,278.765,288.026,268.08,298.697z"/>
</svg>
