<?xml version="1.0" encoding="utf-8"?>
<!-- Generator: Adobe Illustrator 24.2.0, SVG Export Plug-In . SVG Version: 6.00 Build 0)  -->
<svg version="1.1" id="Capa_1" xmlns="http://www.w3.org/2000/svg" xmlns:xlink="http://www.w3.org/1999/xlink" x="0px" y="0px"
	 viewBox="0 0 512 512" style="enable-background:new 0 0 512 512;" xml:space="preserve">
<style type="text/css">
	.st0{fill:#FFFFFF;}
</style>
<g>
	<g>
		<path class="st0" d="M401.9,295.3c0,0-64.6-39.9-64.7-39.9c-4.6-2.9-10.9-1.4-13.8,3.3c-2.9,4.6-1.3,10.9,3.3,13.8
			c0,0,64.6,39.9,64.7,39.9c4.6,2.9,10.9,1.4,13.8-3.3C408,304.4,406.5,298.2,401.9,295.3z"/>
	</g>
</g>
<g>
	<g>
		<path class="st0" d="M297.9,232.9c-6.4,0-11.2,6.1-9.7,12.3c0.6,2.5,2.3,4.7,4.5,6.1c1.5,1,3.3,1.6,5.2,1.6c3.5,0,6.7-1.8,8.5-4.7
			C310.3,241.8,305.4,232.9,297.9,232.9z"/>
	</g>
</g>
<g>
	<g>
		<path class="st0" d="M194.3,258.1c-2.8-4.5-9.3-5.9-13.8-3.1c0,0-64.2,40.5-64.3,40.5c-4.6,2.9-6,9.2-3.1,13.8
			c1.8,2.8,5.1,4.4,8.5,4.5c1.9,0.1,3.8-0.4,5.3-1.4c0,0,64.2-40.5,64.3-40.5C195.8,269,197.2,262.8,194.3,258.1z"/>
	</g>
</g>
<g>
	<g>
		<path class="st0" d="M219.7,232.1c-4.6,0-8.7,3.3-9.7,7.8c-1.4,6.2,3.5,12.2,9.8,12.2c4.6,0,8.7-3.3,9.8-7.8
			C230.9,238.2,226,232.1,219.7,232.1z"/>
	</g>
</g>
<g>
	<g>
		<path class="st0" d="M509.5,455.5c-3.6-4.2-9.9-4.6-14.1-1c-10.7,9.3-20.5,18.9-34.5,22.8c-15.6,4.3-30.3,0.9-44.4-6.1L468.6,296
			c1.3-4.4-0.5-9-4.4-11.4L416,255.3V170c0-5.5-4.5-10-10-10h-20v-30c0-5.5-4.5-10-10-10h-31.5V90c0-5.5-4.5-10-10-10H286V10
			c0-5.5-4.5-10-10-10h-40c-5.5,0-10,4.5-10,10v70h-48.5c-5.5,0-10,4.5-10,10v30H136c-5.5,0-10,4.5-10,10v30h-20
			c-5.5,0-10,4.5-10,10v85.3l-48.2,29.2c-3.9,2.4-5.7,7-4.4,11.4c0,0,52,174.8,52,174.9c-0.9-3-16.9-4.9-19.7-5.3
			c-29.1-3.8-51.3,10.8-72.2,29.1c-4.2,3.6-4.6,9.9-1,14.1c3.5,4,9.9,4.6,14.1,1c21.6-18.8,46-33.1,74.6-18.8
			c25.9,12.9,52.6,18.5,79.6,4.3c21.7-11.4,42.7-21.3,66.9-9.8l24.9,11.9c21.3,10.2,45.7,9.9,66.8-0.6c13-6.5,26.2-15.2,41.1-16.2
			c14.6-1,28.7,4.4,41.5,10.8c16.9,8.5,36.7,10.1,54.9,5c16.7-4.8,28.9-15.4,41.7-26.6C512.7,465.9,513.2,459.6,509.5,455.5z
			 M396,180v63.1L291.8,180H396z M246,20h20v60h-20V20z M187.5,100h137v20h-137V100z M116,180h104.2L116,243.2V180z M246,467.1
			c0-1.8-14.3-5.1-16.1-5.5c-17.4-3.8-36.1-1.4-51.9,6.9c-11.4,6-22.5,13.1-35.6,14.7c0,0,0,0-0.1,0c-7.6,0.9-15.5,0.4-22.9-1.8
			l-54.7-184L246,187.8V467.1z M146,160v-20h220v20H146z M398,463.1c0.1-3.1-28-3.1-29.9-2.9c-17.4,1.8-32.4,10.8-47.7,18.4
			c-18.1,9-36.7,6.4-54.4-2V187.8l181.2,109.8L398,463.1z"/>
	</g>
</g>
</svg>
