<?xml version="1.0" encoding="utf-8"?>
<!-- Generator: Adobe Illustrator 24.2.0, SVG Export Plug-In . SVG Version: 6.00 Build 0)  -->
<svg version="1.1" id="Layer_1" xmlns="http://www.w3.org/2000/svg" xmlns:xlink="http://www.w3.org/1999/xlink" x="0px" y="0px"
	 viewBox="0 0 512 512" style="enable-background:new 0 0 512 512;" xml:space="preserve">
<style type="text/css">
	.st0{fill:#FFFFFF;}
</style>
<g id="Page-1">
	<g id="_x30_25---Boating-License">
		<path id="Shape" class="st0" d="M486.4,68.3H25.6C11.5,68.3,0,79.7,0,93.9v324.3c0,14.1,11.5,25.6,25.6,25.6h460.8
			c14.1,0,25.6-11.5,25.6-25.6V93.9C512,79.7,500.5,68.3,486.4,68.3z M25.6,85.3h460.8c4.7,0,8.5,3.8,8.5,8.5V128H17.1V93.9
			C17.1,89.2,20.9,85.3,25.6,85.3z M486.4,426.7H25.6c-4.7,0-8.5-3.8-8.5-8.5V145.1H495v273.1C494.9,422.8,491.1,426.7,486.4,426.7z
			"/>
		<path id="Shape_1_" class="st0" d="M170.7,162.1H51.2c-9.4,0-17.1,7.6-17.1,17.1v128c0,9.4,7.6,17.1,17.1,17.1h119.5
			c9.4,0,17.1-7.6,17.1-17.1v-128C187.7,169.8,180.1,162.1,170.7,162.1z M85.3,307.2v-17.1c0-14.1,11.5-25.6,25.6-25.6
			s25.6,11.5,25.6,25.6v17.1H85.3z M93.9,230.4c0-9.4,7.6-17.1,17.1-17.1s17,7.7,17,17.1s-7.6,17.1-17.1,17.1S93.9,239.8,93.9,230.4
			z M153.6,307.2v-17.1c0-14.2-7.1-27.4-18.8-35.4c9.9-9.7,13-24.4,7.8-37.3c-5.2-12.9-17.7-21.3-31.6-21.3s-26.4,8.4-31.6,21.3
			c-5.2,12.9-2.2,27.6,7.8,37.3c-11.8,7.9-18.8,21.2-18.8,35.4v17.1H51.2v-128h119.5v128H153.6z"/>
		<path id="Shape_2_" class="st0" d="M468.3,332.9l-9.1,1.1l-4.7-18.7c3.7-1,6.2-4.3,6.3-8.1c0-4.7-3.8-8.5-8.5-8.5H367
			c-4.7,0-8.5,3.8-8.5,8.5c0,4.1,3,7.6,7,8.2l-5.1,30.2l-37.1,4.4c-4.4,0.6-7.5,4.5-7.3,8.9c0.3,4.4,3.9,7.9,8.3,8v25.6
			c0,9.4,7.6,17.1,17.1,17.1h76.8c28.3,0,51.2-22.9,51.2-51.2v-8.5l1-0.1c4.6-0.6,7.9-4.8,7.3-9.5
			C477.1,335.7,473,332.4,468.3,332.9z M437.1,315.7l5.1,20.2l-24,2.8v-23H437.1z M382.7,315.7h18.4v25l-23,2.7L382.7,315.7z
			 M452.3,358.4c0,18.9-15.3,34.1-34.1,34.1h-76.8V365l110.9-13.1L452.3,358.4L452.3,358.4z"/>
		<path id="Shape_3_" class="st0" d="M179.2,392.5h-72.8c3-5.2,4.6-11.1,4.6-17.1v-8.5c0-14.1-11.5-25.6-25.6-25.6
			s-25.6,11.5-25.6,25.6v8.5c0,6,1.6,11.9,4.6,17.1H51.2c-4.7,0-8.5,3.8-8.5,8.5s3.8,8.5,8.5,8.5h25.6c2.9,0,5.7-0.4,8.5-1.1
			c2.8,0.7,5.7,1.1,8.5,1.1h85.3c4.7,0,8.5-3.8,8.5-8.5S183.9,392.5,179.2,392.5z M93.9,375.5c0,6.1-3.3,11.7-8.5,14.8
			c-5.3-3-8.5-8.7-8.5-14.8V367c0-4.7,3.8-8.5,8.5-8.5s8.5,3.8,8.5,8.5V375.5z"/>
		<path id="Shape_4_" class="st0" d="M221.9,213.3h221.9c9.4,0,17.1-7.6,17.1-17.1v-17.1c0-9.4-7.6-17.1-17.1-17.1H221.9
			c-9.4,0-17.1,7.6-17.1,17.1v17.1C204.8,205.7,212.4,213.3,221.9,213.3z M221.9,179.2h221.9v17.1H221.9V179.2z"/>
		<path id="Shape_5_" class="st0" d="M213.3,247.5h230.4c4.7,0,8.5-3.8,8.5-8.5s-3.8-8.5-8.5-8.5H213.3c-4.7,0-8.5,3.8-8.5,8.5
			C204.8,243.6,208.6,247.5,213.3,247.5z"/>
		<path id="Shape_6_" class="st0" d="M213.3,281.6h230.4c4.7,0,8.5-3.8,8.5-8.5s-3.8-8.5-8.5-8.5H213.3c-4.7,0-8.5,3.8-8.5,8.5
			S208.6,281.6,213.3,281.6z"/>
		<path id="Shape_7_" class="st0" d="M307.2,298.7h-93.9c-4.7,0-8.5,3.8-8.5,8.5s3.8,8.5,8.5,8.5h93.9c4.7,0,8.5-3.8,8.5-8.5
			S311.9,298.7,307.2,298.7z"/>
	</g>
</g>
</svg>
