<?xml version="1.0" encoding="utf-8"?>
<!-- Generator: Adobe Illustrator 24.2.0, SVG Export Plug-In . SVG Version: 6.00 Build 0)  -->
<svg version="1.1" id="plougher" xmlns="http://www.w3.org/2000/svg" xmlns:xlink="http://www.w3.org/1999/xlink" x="0px" y="0px"
	 viewBox="0 0 512 512" style="enable-background:new 0 0 512 512;" xml:space="preserve">
<style type="text/css">
	.st0{fill:#FFFFFF;}
</style>
<g>
	<path class="st0" d="M249.2,139.9c13.2,0,23.9-10.7,23.9-23.9s-10.7-23.9-23.9-23.9c-13.2,0-23.9,10.7-23.9,23.9
		S236,139.9,249.2,139.9z M249.2,105.8c5.6,0,10.2,4.6,10.2,10.2s-4.6,10.2-10.2,10.2S239,121.6,239,116S243.5,105.8,249.2,105.8z"
		/>
	<path class="st0" d="M158.7,189.8c4,0,7.3-3.3,7.3-7.3s-3.3-7.3-7.3-7.3s-7.3,3.3-7.3,7.3S154.7,189.8,158.7,189.8z"/>
	<path class="st0" d="M347.3,229.5c1.3,1.3,3.1,2,4.8,2s3.5-0.7,4.8-2l4.8-4.8l4.8,4.8c1.3,1.3,3.1,2,4.8,2s3.5-0.7,4.8-2
		c2.7-2.7,2.7-7,0-9.7l-4.8-4.8l4.8-4.8c2.7-2.7,2.7-7,0-9.7s-7-2.7-9.7,0l-4.8,4.8l-4.8-4.8c-2.7-2.7-7-2.7-9.7,0s-2.7,7,0,9.7
		l4.8,4.8l-4.8,4.8C344.7,222.5,344.7,226.9,347.3,229.5z"/>
	<path class="st0" d="M464.2,406.2H324c6.5-7.3,10.5-16.8,10.5-27.3h13.7h102.4c3.8,0,6.8-3.1,6.8-6.8s-3.1-6.8-6.8-6.8h-20.5V338
		h6.8c3.8,0,6.8-3.1,6.8-6.8s-3.1-6.8-6.8-6.8h-27.3c-3.8,0-6.8,3.1-6.8,6.8s3.1,6.8,6.8,6.8h6.8v27.3H355v-54.6
		c0-18.8-15.3-34.1-34.1-34.1h-88.7v-13.7c0-3.8-3.1-6.8-6.8-6.8h-34.1c-3.8,0-6.8,3.1-6.8,6.8v13.7h-13.7v-13.7
		c0-3.8-3.1-6.8-6.8-6.8h-34.1c-3.8,0-6.8,3.1-6.8,6.8v13.7h-13.7v-13.7c0-3.8-3.1-6.8-6.8-6.8H68.3c-3.8,0-6.8,3.1-6.8,6.8v13.7
		H47.8c-3.8,0-6.8,3.1-6.8,6.8v41c0,3.8,3.1,6.8,6.8,6.8h13.7v27.3c0,22.6,18.4,41,41,41c3.8,0,6.8-3.1,6.8-6.8v-61.4H123v27.3
		c0,22.6,18.4,41,41,41c3.8,0,6.8-3.1,6.8-6.8v-61.4h13.7v27.3c0,22.6,18.4,41,41,41c3.8,0,6.8-3.1,6.8-6.8v-61.4h6.8v41
		c0,3.8,3.1,6.8,6.8,6.8h6.8c0,10.5,4,20.1,10.5,27.3H54.6c-3.8,0-6.8,3.1-6.8,6.8s3.1,6.8,6.8,6.8h409.6c3.8,0,6.8-3.1,6.8-6.8
		S468,406.2,464.2,406.2z M198,269.7h20.5v6.8H198V269.7z M136.5,269.7H157v6.8h-20.5V269.7z M75.1,269.7h20.5v6.8H75.1V269.7z
		 M95.6,384.8c-11.8-3-20.5-13.7-20.5-26.4v-27.3h20.5V384.8z M157,384.8c-11.8-3-20.5-13.7-20.5-26.4v-41H157V384.8z M218.5,384.8
		c-11.8-3-20.5-13.7-20.5-26.4v-27.3h20.5V384.8z M252.6,365.2v-41c0-3.8-3.1-6.8-6.8-6.8h-75.1v-6.8c0-3.8-3.1-6.8-6.8-6.8h-34.1
		c-3.8,0-6.8,3.1-6.8,6.8v6.8H54.6v-27.3h266.2c11.3,0,20.5,9.2,20.5,20.5v54.6h-9.2c-5.6-15.9-20.8-27.3-38.6-27.3
		c-17.8,0-32.9,11.4-38.6,27.3L252.6,365.2L252.6,365.2z M266.2,378.9c0-15.1,12.3-27.3,27.3-27.3c15.1,0,27.3,12.2,27.3,27.3
		s-12.3,27.3-27.3,27.3C278.5,406.2,266.2,393.9,266.2,378.9z"/>
	<circle class="st0" cx="293.5" cy="378.9" r="13.7"/>
</g>
</svg>
