<?xml version="1.0" encoding="utf-8"?>
<!-- Generator: Adobe Illustrator 24.2.0, SVG Export Plug-In . SVG Version: 6.00 Build 0)  -->
<svg version="1.1" id="Layer_1" xmlns="http://www.w3.org/2000/svg" xmlns:xlink="http://www.w3.org/1999/xlink" x="0px" y="0px"
	 viewBox="0 0 480 480" style="enable-background:new 0 0 480 480;" xml:space="preserve">
<style type="text/css">
	.st0{fill:#FFFFFF;}
</style>
<path class="st0" d="M104,200c-22.1,0-40,17.9-40,40s17.9,40,40,40s40-17.9,40-40S126.1,200,104,200z M104,264
	c-13.3,0-24-10.7-24-24s10.7-24,24-24s24,10.7,24,24S117.3,264,104,264z"/>
<path class="st0" d="M264,112c22.1,0,40-17.9,40-40s-17.9-40-40-40s-40,17.9-40,40S241.9,112,264,112z M264,48c13.3,0,24,10.7,24,24
	s-10.7,24-24,24s-24-10.7-24-24S250.7,48,264,48z"/>
<path class="st0" d="M456,243.4V216c-0.1-20.1-15.1-37-35-39.5l-85.4-96.8c0.3-2.6,0.4-5.2,0.4-7.8c0-39.8-32.2-72-72-72
	s-72,32.2-72,72c0,1.3,0.1,2.5,0.2,3.8l-92.5,92.5c-29,1.7-54.1,20.6-63.7,48s-1.7,57.9,20,77.3V416H8c-4.4,0-8,3.6-8,8v48
	c0,4.4,3.6,8,8,8h304c4.4,0,8-3.6,8-8v-48c0-4.4-3.6-8-8-8H152V293.5c18.4-16.2,27.1-40.7,23-64.8l84.9-84.9
	c1.4,0.1,2.7,0.2,4.1,0.2c4.1,0,8.1-0.4,12.1-1.1l99.9,78.7v21.8c-14.6,6.4-24,20.7-24,36.6v80c0,2.8,1.4,5.4,3.8,6.8
	c2.4,1.5,5.3,1.6,7.8,0.4l32-16c2.7-1.4,4.4-4.2,4.4-7.2v-56h32v56c0,3,1.7,5.8,4.4,7.2l32,16c2.5,1.2,5.4,1.1,7.8-0.4
	s3.8-4.1,3.8-6.8v-80C480,264.1,470.6,249.7,456,243.4z M264,16c30.9,0,56,25.1,56,56s-25.1,56-56,56s-56-25.1-56-56
	S233.1,16,264,16z M304,464H16v-32h288V464z M136,416H72V304.4c20.1,10.1,43.9,10.1,64,0V416z M104,296c-30.9,0-56-25.1-56-56
	s25.1-56,56-56s56,25.1,56,56S134.9,296,104,296z M169.9,211.2c-9.1-20.7-27.4-35.9-49.4-41.2l75.2-75.2
	c7.2,21.3,23.9,38.1,45.2,45.3L169.9,211.2z M330.9,98.6l70.8,80.2c-11,4.3-19.5,13.1-23.3,24.3l-83.7-66
	C311.1,129.3,324.1,115.5,330.9,98.6z M392,216c0-13.3,10.7-24,24-24s24,10.7,24,24v24h-48V216z M464,347.1l-16-8V280
	c0-4.4-3.6-8-8-8h-48c-4.4,0-8,3.6-8,8v59.1l-16,8V280c0-13.3,10.7-24,24-24h48c13.3,0,24,10.7,24,24V347.1z"/>
<path class="st0" d="M96,336c-4.4,0-8,3.6-8,8v48c0,4.4,3.6,8,8,8s8-3.6,8-8v-48C104,339.6,100.4,336,96,336z"/>
<path class="st0" d="M186.3,130.3l-32,32c-2.1,2-2.9,5-2.2,7.8s2.9,5,5.7,5.7s5.8-0.1,7.8-2.2l32-32c3-3.1,3-8.1-0.1-11.2
	S189.5,127.3,186.3,130.3z"/>
</svg>
