<?xml version="1.0" encoding="utf-8"?>
<!-- Generator: Adobe Illustrator 24.2.0, SVG Export Plug-In . SVG Version: 6.00 Build 0)  -->
<svg version="1.1" id="Layer_1" xmlns="http://www.w3.org/2000/svg" xmlns:xlink="http://www.w3.org/1999/xlink" x="0px" y="0px"
	 viewBox="0 0 661 661" style="enable-background:new 0 0 661 661;" xml:space="preserve">
<style type="text/css">
	.st0{fill:#FFFFFF;}
</style>
<path class="st0" d="M30,288.9h55.4c3.3,11.8,8,23.2,14.1,33.9L60.3,362c-1.9,1.9-2.9,4.4-2.9,7.1s1.1,5.2,2.9,7.1l42.4,42.4
	c3.9,3.9,10.2,3.9,14.1,0l39.2-39.3c10.7,6.1,22,10.8,33.9,14.1v55.4c0,5.5,4.5,10,10,10h60c5.5,0,10-4.5,10-10v-55.4
	c11.8-3.3,23.2-8,33.9-14.1l39.2,39.3c4,3.7,10.2,3.7,14.1,0l42.4-42.4c1.9-1.9,2.9-4.4,2.9-7.1s-1.1-5.2-2.9-7.1l-39.3-39.2
	c6.1-10.7,10.8-22,14.1-33.9h55.4c5.5,0,10-4.5,10-10v-60c0-5.5-4.5-10-10-10h-55.4c-3.3-11.8-8-23.2-14.1-33.9l39.2-39.2
	c1.9-1.9,2.9-4.4,2.9-7.1s-1.1-5.2-2.9-7.1L357,79.2c-3.9-3.9-10.2-3.9-14.1,0l-39.2,39.3c-10.7-6.1-22-10.8-33.9-14.1V49
	c0-5.5-4.5-10-10-10h-60c-5.5,0-10,4.5-10,10v55.5c-11.8,3.3-23.2,8-33.9,14.1l-39.2-39.3c-4-3.7-10.2-3.7-14.1,0l-42.4,42.4
	c-1.9,1.9-2.9,4.4-2.9,7.1s1.1,5.2,2.9,7.1L99.5,175c-6.1,10.7-10.8,22-14.1,33.9H30c-5.5,0-10,4.5-10,10v60
	C20,284.4,24.5,288.9,30,288.9z M40,228.9h53.3c4.7,0,8.8-3.3,9.8-7.9c3.3-15,9.2-29.2,17.5-42.1c2.5-4,2-9.1-1.4-12.5l-37.7-37.7
	l28.3-28.3l37.7,37.7c3.3,3.3,8.5,3.9,12.5,1.4c12.9-8.3,27.2-14.2,42.1-17.5c4.6-1,7.9-5.1,7.9-9.8V59h40v53.3
	c0,4.7,3.3,8.8,7.9,9.8c15,3.3,29.2,9.2,42.1,17.5c4,2.5,9.2,2,12.5-1.4l37.7-37.7l28.3,28.3l-37.7,37.7c-3.3,3.3-3.9,8.5-1.4,12.5
	c8.3,12.9,14.2,27.2,17.5,42.1c1,4.6,5.1,7.9,9.8,7.9H420v40h-53.3c-4.7,0-8.8,3.3-9.8,7.9c-3.3,15-9.2,29.2-17.5,42.1
	c-2.5,4-2,9.1,1.4,12.5l37.7,37.7L350,397.3l-37.7-37.7c-3.3-3.3-8.5-3.9-12.5-1.4c-12.9,8.3-27.1,14.2-42.1,17.5
	c-4.6,1-7.9,5.1-7.9,9.8v53.3h-40v-53.3c0-4.7-3.3-8.8-7.9-9.8c-15-3.3-29.2-9.2-42.1-17.5c-4-2.5-9.2-2-12.5,1.4l-37.7,37.7
	L81.5,369l37.7-37.7c3.3-3.3,3.9-8.5,1.4-12.5c-8.3-12.9-14.2-27.2-17.5-42.1c-1-4.6-5.1-7.8-9.8-7.8H40V228.9z"/>
<path class="st0" d="M229.9,328.8c44.2,0,80-35.8,80-80s-35.8-80-80-80s-80,35.8-80,80C150,293,185.7,328.8,229.9,328.8z
	 M229.9,188.9c33.1,0,60,26.9,60,60s-26.9,60-60,60s-60-26.8-60-60C169.9,215.8,196.8,188.9,229.9,188.9z"/>
<path class="st0" d="M229.9,358.8c60.7,0,109.9-49.2,109.9-109.9S290.6,139,229.9,139S120,188.2,120,248.9S169.2,358.7,229.9,358.8z
	 M229.9,158.9c49.7,0,90,40.3,90,90s-40.3,90-90,90s-90-40.3-90-90C140,199.2,180.2,159,229.9,158.9z"/>
<path class="st0" d="M589.7,498.7v-80c0-5.5-4.5-10-10-10h-20v-80c0-5.5-4.5-10-10-10h-90c-5.5,0-10,4.5-10,10v80h-50
	c-5.5,0-10,4.5-10,10v80H70c-27.6,0-49.9,22.4-50,50v20c0,27.6,22.4,49.9,50,50h519.7c27.6,0,49.9-22.4,50-50v-20
	C639.6,521.1,617.3,498.8,589.7,498.7z M569.7,498.7h-70v-70h70V498.7z M469.8,338.8h70v70h-70V338.8z M409.8,428.8h70v70h-70V428.8
	z M619.7,568.7c0,16.6-13.4,30-30,30H70c-16.6,0-30-13.4-30-30v-20c0-16.6,13.4-30,30-30h519.7c16.6,0,30,13.4,30,30V568.7z"/>
<path class="st0" d="M329.8,528.7c-16.6,0-30,13.4-30,30s13.4,30,30,30s30-13.4,30-30C359.8,542.2,346.4,528.7,329.8,528.7z
	 M329.8,568.7c-5.5,0-10-4.5-10-10s4.5-10,10-10s10,4.5,10,10S335.4,568.7,329.8,568.7z"/>
<path class="st0" d="M229.9,528.7c-16.6,0-30,13.4-30,30s13.4,30,30,30s30-13.4,30-30C259.9,542.2,246.4,528.7,229.9,528.7z
	 M229.9,568.7c-5.5,0-10-4.5-10-10s4.5-10,10-10s10,4.5,10,10S235.4,568.7,229.9,568.7z"/>
<path class="st0" d="M429.8,528.7c-16.6,0-30,13.4-30,30s13.4,30,30,30s30-13.4,30-30C459.8,542.2,446.3,528.7,429.8,528.7z
	 M429.8,568.7c-5.5,0-10-4.5-10-10s4.5-10,10-10s10,4.5,10,10S435.3,568.7,429.8,568.7z"/>
<path class="st0" d="M129.9,528.7c-16.6,0-30,13.4-30,30s13.4,30,30,30s30-13.4,30-30C159.9,542.2,146.5,528.7,129.9,528.7z
	 M129.9,568.7c-5.5,0-10-4.5-10-10s4.5-10,10-10s10,4.5,10,10S135.5,568.7,129.9,568.7z"/>
<path class="st0" d="M529.7,528.7c-16.6,0-30,13.4-30,30s13.4,30,30,30s30-13.4,30-30C559.7,542.2,546.3,528.7,529.7,528.7z
	 M529.7,568.7c-5.5,0-10-4.5-10-10s4.5-10,10-10s10,4.5,10,10S535.3,568.7,529.7,568.7z"/>
</svg>
