<?xml version="1.0" encoding="utf-8"?>
<!-- Generator: Adobe Illustrator 24.2.0, SVG Export Plug-In . SVG Version: 6.00 Build 0)  -->
<svg version="1.1" id="Layer_1" xmlns="http://www.w3.org/2000/svg" xmlns:xlink="http://www.w3.org/1999/xlink" x="0px" y="0px"
	 viewBox="0 0 512 512" style="enable-background:new 0 0 512 512;" xml:space="preserve">
<style type="text/css">
	.st0{fill:#FFFFFF;}
</style>
<path class="st0" d="M250.6,214c32.8,0,59.6-26.7,59.6-59.6s-26.7-59.6-59.6-59.6c-32.8,0-59.5,26.7-59.5,59.6
	C191,187.3,217.7,214,250.6,214z M250.6,110c24.5,0,44.5,20,44.5,44.5s-19.9,44.4-44.5,44.4c-24.5,0-44.4-19.9-44.4-44.4
	C206.1,129.9,226.1,110,250.6,110z"/>
<path class="st0" d="M159,123.2c-8.1,0-15.2,5.5-17.2,13.4c-0.4,1.5-0.5,2.9-0.5,4.3v27c0,9.8,8,17.7,17.7,17.7h6.2
	c0.9,2.4,1.9,4.7,2.9,7l-4.4,4.4c-6.9,6.9-6.9,18.2,0,25.1l19.1,19.1c3.3,3.3,7.8,5.2,12.5,5.2s9.2-1.8,12.6-5.2l4.4-4.4
	c2.3,1.1,4.6,2,7,2.9v6.2c0,9.8,8,17.7,17.7,17.7h27c9.8,0,17.8-8,17.8-17.7v-5.7c2.5-0.9,5-1.9,7.4-3l3.9,3.9
	c3.3,3.4,7.8,5.2,12.5,5.2c4.8,0,9.2-1.9,12.5-5.2l19.1-19.1c6.9-6.9,6.9-18.2,0-25.1l-3.4-3.4c1.3-2.6,2.4-5.3,3.4-7.9h4.8
	c9.8,0,17.8-8,17.8-17.7v-27c0-9.7-7.9-17.7-17.8-17.8h-4.2c-1-2.9-2.2-5.7-3.4-8.4l2.9-3c3.4-3.3,5.2-7.8,5.2-12.5
	s-1.8-9.2-5.2-12.5l-19.1-19.1c-3.3-3.4-7.8-5.2-12.5-5.2c-4.8,0-9.2,1.9-12.5,5.2l-3,3c-2.7-1.3-5.6-2.4-8.4-3.4v-4.3
	c0-8.8-6.6-16.4-15.4-17.6c-0.8-0.1-1.5-0.1-2.3-0.1h-27c-1.7,0-3.4,0.2-5,0.7c-7.5,2.2-12.8,9.2-12.8,17v4.8
	c-2.7,1-5.4,2.1-7.9,3.4l-3.4-3.4c-3.3-3.3-7.8-5.2-12.5-5.2s-9.2,1.8-12.5,5.2l-19.1,19.1c-3.4,3.3-5.2,7.8-5.2,12.5
	s1.9,9.2,5.2,12.5l4,4c-1.1,2.4-2.1,4.9-3,7.4C164.9,123.2,159,123.2,159,123.2z M170.2,138.3c3.4,0,6.4-2.3,7.3-5.5
	c1.4-5.2,3.5-10.2,6-15c1.6-2.9,1-6.5-1.3-8.9l-7.8-7.8c-0.6-0.6-0.7-1.4-0.7-1.8s0.1-1.2,0.8-1.8l19.1-19.1
	c0.7-0.7,1.4-0.8,1.9-0.8c0.4,0,1.2,0.1,1.9,0.8l7.4,7.4c2.4,2.4,6.1,2.9,9.1,1.2c4.9-2.8,10-5,15.4-6.6c3.2-1,5.4-3.9,5.4-7.2V62.9
	c0-1.3,1-2.3,1.9-2.5c0.2-0.1,0.5-0.1,0.7-0.1h27c0.2,0,0.3,0,0.4,0c1.3,0.2,2.3,1.3,2.3,2.6v9.8c0,3.4,2.2,6.4,5.5,7.3
	c5.5,1.6,10.8,3.7,15.8,6.5c2.9,1.6,6.6,1.1,9-1.3l6.9-6.9c0.6-0.6,1.4-0.7,1.8-0.7s1.2,0.1,1.8,0.8l19.1,19.1
	c0.6,0.6,0.7,1.4,0.7,1.8s-0.1,1.2-0.8,1.9l-6.8,6.9c-2.4,2.4-2.9,6-1.3,8.9c2.8,5.1,4.9,10.4,6.5,15.9c0.9,3.3,3.9,5.5,7.3,5.5l0,0
	h9.7c1.5,0,2.7,1.2,2.7,2.6v27c0,1.4-1.2,2.6-2.6,2.6h-10.2c-3.3,0-6.3,2.2-7.2,5.4c-1.6,5.3-3.8,10.5-6.6,15.4
	c-1.7,3-1.2,6.7,1.2,9.1l7.4,7.4c1,1,1,2.7,0,3.7l-19.1,19.1c-0.6,0.6-1.4,0.7-1.8,0.7s-1.2-0.1-1.8-0.8l-7.8-7.8
	c-2.4-2.4-6-2.9-8.9-1.3c-4.8,2.6-9.8,4.6-15,6c-3.3,0.9-5.5,3.9-5.5,7.3V246c0,1.4-1.2,2.6-2.6,2.6h-27c-1.4,0-2.6-1.2-2.6-2.6
	v-11.6c0-3.3-2.2-6.3-5.4-7.2c-5.1-1.6-10-3.6-14.6-6.1c-1.1-0.6-2.4-0.9-3.6-0.9c-2,0-3.9,0.8-5.4,2.2l-8.3,8.3
	c-0.7,0.7-1.4,0.8-1.9,0.8c-0.4,0-1.2-0.1-1.9-0.8l-19.1-19.1c-1-1-1-2.7,0-3.7l7-7l1.2-1.2c2.4-2.4,3-6.1,1.3-9
	c-2.5-4.5-4.6-9.4-6.1-14.6c-1-3.2-3.9-5.4-7.2-5.4H159c-1.4,0-2.6-1.2-2.6-2.6v-27c0-0.2,0-0.5,0.1-0.7c0.2-1,1.2-1.9,2.5-1.9h11.2
	V138.3z"/>
<path class="st0" d="M100,299.8v26.4c0,6.9,5.6,12.5,12.5,12.5h274.2c6.9,0,12.5-5.6,12.5-12.5v-26.4c0-6.9-5.6-12.5-12.5-12.5
	H112.5C105.6,287.3,100,292.9,100,299.8z M115.1,302.4h269v21.2h-269C115.1,323.6,115.1,302.4,115.1,302.4z"/>
<path class="st0" d="M100,392.2c0,6.9,5.6,12.5,12.5,12.5h204.2c6.9,0,12.5-5.6,12.5-12.5v-26.4c0-6.9-5.6-12.5-12.5-12.5H112.5
	c-6.9,0-12.5,5.6-12.5,12.5V392.2z M115.1,368.4h199v21.2h-199C115.1,389.6,115.1,368.4,115.1,368.4z"/>
<path class="st0" d="M100,457.3c0,6.9,5.6,12.5,12.5,12.5h287c6.9,0,12.5-5.6,12.5-12.5v-26.4c0-6.9-5.6-12.5-12.5-12.5H259.1
	c-4.2,0-7.6,3.4-7.6,7.6s3.4,7.6,7.6,7.6h137.8v21.2H115.1v-21.2H220l0,0c4.2,0,7.6-3.4,7.6-7.6s-3.4-7.6-7.6-7.6H112.5
	c-6.9,0-12.5,5.6-12.5,12.5V457.3z"/>
<path class="st0" d="M436.5,0h-362C59.4,0,47,12.4,47,27.5v162.2c0,4.2,3.4,7.6,7.6,7.6s7.6-3.4,7.6-7.6V27.5
	c0-6.8,5.6-12.4,12.4-12.4h361.9c6.8,0,12.4,5.6,12.4,12.4v456.9c0,6.9-5.6,12.5-12.4,12.5h-362c-6.8,0-12.4-5.6-12.4-12.5V224.3
	c0-4.2-3.4-7.6-7.6-7.6s-7.6,3.4-7.6,7.6v260.1c0,15.2,12.4,27.6,27.5,27.6h361.9c15.2,0,27.5-12.4,27.5-27.6V27.5
	C464,12.4,451.6,0,436.5,0z"/>
</svg>
