<?xml version="1.0" encoding="utf-8"?>
<!-- Generator: Adobe Illustrator 24.2.0, SVG Export Plug-In . SVG Version: 6.00 Build 0)  -->
<svg version="1.1" id="Layer_1" xmlns="http://www.w3.org/2000/svg" xmlns:xlink="http://www.w3.org/1999/xlink" x="0px" y="0px"
	 viewBox="0 0 480 480" style="enable-background:new 0 0 480 480;" xml:space="preserve">
<style type="text/css">
	.st0{fill:#FFFFFF;}
</style>
<path class="st0" d="M65.4,369.3c-12.5,12.5-12.5,32.8,0,45.3s32.8,12.5,45.3,0s12.5-32.8,0-45.3C98,357.2,78,357.2,65.4,369.3z
	 M99.3,403.3c-6.3,6-16.3,6-22.6,0c-6.3-6.2-6.3-16.4,0-22.6c6.2-6.3,16.4-6.3,22.6,0C105.6,386.9,105.6,397,99.3,403.3z"/>
<path class="st0" d="M348.3,131.7c-15.6-15.6-40.9-15.6-56.6,0c-15.6,15.6-15.6,40.9,0,56.6c15.6,15.6,40.9,15.6,56.6,0
	C363.9,172.6,363.9,147.3,348.3,131.7z M337,176.9c-9.4,9.4-24.6,9.4-33.9,0c-9.4-9.4-9.4-24.6,0-33.9c9.4-9.4,24.6-9.4,33.9,0
	S346.3,167.5,337,176.9z"/>
<path class="st0" d="M392,423.9c12.9,0,24.6-7.8,29.6-19.8c4.9-12,2.2-25.7-6.9-34.9c-12.7-12.1-32.6-12.1-45.3,0
	c-9.1,9.2-11.9,22.9-6.9,34.9C367.4,416.1,379.1,423.9,392,423.9z M380.7,380.6c4-4.2,10-5.8,15.6-4.4c5.6,1.5,10,5.8,11.4,11.4
	s-0.2,11.5-4.4,15.6c-6.3,6-16.3,6-22.6,0C374.4,397,374.4,386.9,380.7,380.6z"/>
<path class="st0" d="M131.7,131.7c-15.6,15.6-15.6,40.9,0,56.6c15.6,15.6,40.9,15.6,56.6,0c15.6-15.6,15.6-40.9,0-56.6
	C172.7,116.1,147.3,116.1,131.7,131.7z M177,176.9c-9.4,9.4-24.6,9.4-33.9,0c-9.4-9.4-9.4-24.6,0-33.9c9.4-9.4,24.6-9.4,33.9,0
	C186.3,152.4,186.3,167.5,177,176.9z"/>
<path class="st0" d="M392,303.9c-10.3,0-20.6,1.9-30.3,5.5c-24.8-20.2-57.9-47.5-88.2-72.6l4-4.7l19.1,19.1c9.4,9.4,24.6,9.4,33.9,0
	l147.1-147.1c3.1-3.1,3.1-8.2,0-11.3L387.1,2.3c-3.1-3.1-8.2-3.1-11.3,0L240,138.1L104.2,2.3c-3.1-3.1-8.2-3.1-11.3,0L2.4,92.8
	c-3.1,3.1-3.1,8.2,0,11.3l147.1,147.1c9.4,9.4,24.6,9.4,33.9,0l19.1-19.1l4,4.8c-31.2,25.9-63.8,52.7-88.2,72.5
	c-9.7-3.7-20-5.5-30.3-5.6c-48.6,0-88,39.4-88,88s39.4,88,88,88s88-39.4,88-88c0-10.4-1.9-20.6-5.5-30.3
	c19-23.4,44.5-54.4,69.5-84.5c24.1,29.1,50.1,60.7,69.5,84.6c-3.6,9.7-5.5,19.9-5.5,30.2c0,48.6,39.4,88,88,88s88-39.4,88-88
	S440.6,303.9,392,303.9z M129.6,387.1c-1,1.4-1.6,3-1.6,4.7c-0.3,6.6-2.1,13.1-5.1,19c-1.9,3.7-4.3,7.2-7.3,10.1
	c-10,10.7-25,15.2-39.2,11.6s-25.3-14.7-28.9-28.9c-3.6-14.2,0.8-29.2,11.6-39.2c3-3,6.4-5.6,10.3-7.4c5.8-3,12.2-4.7,18.8-5.1
	c1.7,0,3.4-0.6,4.7-1.6c18.8-14.2,106.8-86.5,166.3-136.5l7,7C216.1,280.3,143.8,368.3,129.6,387.1z M247.8,202.5L240,209l-7.8-6.5
	l7.8-7.8L247.8,202.5z M319.2,239.9c-3.2,3-8.1,3-11.3,0L240,172.1c-3.1-3.1-3.1-8.2,0-11.3L324.9,76l79.2,79.2L319.2,239.9z
	 M336.2,64.6l17-17l79.2,79.2l-17,17L336.2,64.6z M381.4,19.3l79.2,79.2l-17,17l-79.2-79.2L381.4,19.3z M143.8,64.6l-79.2,79.2
	l-17-17l79.2-79.2L143.8,64.6z M98.6,19.3l17,17l-79.2,79.2l-17-17L98.6,19.3z M172.1,239.9c-3.2,3-8.1,3-11.3,0L76,155.1l79.2-79.2
	l73.6,73.5c-9.4,9.4-9.4,24.6,0,33.9L172.1,239.9z M213.9,220.8l7-7l6.7,5.6l-8.7,7.3C217.1,224.7,215.5,222.8,213.9,220.8
	L213.9,220.8z M160,391.9c0,30.5-19.3,57.8-48.1,67.9c-28.8,10.2-60.9,1-80-22.7c-19.2-23.8-21.2-57.1-5.2-83
	c16.1-26,46.7-39,76.6-32.5c-7.8,6.3-14.1,11.3-18.2,14.5c-8,0.7-15.8,2.9-23,6.6c-5.4,2.6-10.2,6.1-14.4,10.4
	c-14.9,14-21.1,35-16,54.8s20.5,35.3,40.4,40.4c19.8,5.1,40.8-1.1,54.8-16c4.2-4.1,7.7-8.9,10.3-14.2c3.7-7.2,6-15.1,6.7-23.2
	c3.2-4.1,8.2-10.4,14.5-18.2C159.5,381.6,160,386.8,160,391.9z M263.2,249.2c52.1,43.1,109.1,89.9,124,101.2c1.4,1,3,1.6,4.7,1.6
	c6.6,0.3,13.1,2.1,19,5.1c3.7,1.9,7.1,4.3,10.1,7.3c10.7,10,15.2,25,11.6,39.2s-14.7,25.3-28.9,28.9s-29.2-0.8-39.2-11.6
	c-3-3-5.6-6.4-7.4-10.3c-3-5.8-4.7-12.2-5.1-18.8c0-1.7-0.6-3.4-1.6-4.8c-11.2-14.8-57.6-71.3-100-122.5L263.2,249.2z M392,463.9
	c-21.8,0-42.4-9.8-56.1-26.8s-18.9-39.2-14.3-60.5c6.3,7.8,11.3,14.1,14.5,18.2c0.7,8,2.9,15.8,6.6,23c2.6,5.4,6.1,10.2,10.4,14.4
	c14,14.9,35,21.1,54.8,16s35.3-20.5,40.4-40.4c5.1-19.8-1.1-40.8-16-54.8c-4.1-4.2-8.9-7.7-14.2-10.3c-7.2-3.7-15.1-6-23.2-6.7
	c-4.1-3.2-10.4-8.2-18.2-14.5c5-1.1,10.1-1.6,15.3-1.6c39.8,0,72,32.2,72,72C464,431.7,431.8,463.9,392,463.9z"/>
</svg>
