<?xml version="1.0" encoding="utf-8"?>
<!-- Generator: Adobe Illustrator 16.0.0, SVG Export Plug-In . SVG Version: 6.00 Build 0)  -->
<!DOCTYPE svg PUBLIC "-//W3C//DTD SVG 1.1//EN" "http://www.w3.org/Graphics/SVG/1.1/DTD/svg11.dtd">
<svg version="1.1" id="Layer_1" xmlns="http://www.w3.org/2000/svg" xmlns:xlink="http://www.w3.org/1999/xlink" x="0px" y="0px"
	 width="498.543px" height="393.77px" viewBox="0 0 498.543 393.77" enable-background="new 0 0 498.543 393.77"
	 xml:space="preserve">
<g>
	<path fill-rule="evenodd" clip-rule="evenodd" d="M492.53,24.82c-6.988-12.795-18.074-20.529-32.276-23.806
		c-1.064-0.246-2.088-0.672-3.13-1.014c-23.717,0-47.435,0-71.151,0c-7.53,4.349-9.688,11.842-4.248,16.436
		c2.224,1.878,5.846,2.888,8.849,2.927c19.489,0.253,38.983,0.082,58.475,0.145c19.57,0.063,32.564,15.046,30.046,34.814
		c-152.921,0-305.875,0-458.848,0c-4.413-16.156,9.163-33.824,26.81-34.767c1.944-0.104,3.897-0.059,5.846-0.059
		c84.467-0.002,168.935-0.001,253.401-0.006c1.786,0,3.603,0.144,5.352-0.13c4.008-0.629,6.915-2.825,8.044-6.826
		c1.106-3.922,0.17-7.392-2.945-10.147c-0.938-0.83-1.936-1.593-2.907-2.386c-90.645,0-181.29,0-271.935,0
		C36.323,2.033,30.38,3.414,25.217,6.226C12.28,13.274,4.315,24.376,1.013,38.778C0.769,39.844,0.342,40.868,0,41.911
		c0,103.316,0,206.632,0,309.947c0.118,0.112,0.313,0.208,0.341,0.339c4.796,22.695,18.584,36.389,41.233,41.229
		c0.13,0.027,0.225,0.226,0.336,0.344c138.404,0,276.809,0,415.213,0c2.12-0.626,4.249-1.227,6.359-1.884
		c18.515-5.758,29.879-18.204,34.534-36.93c0.262-1.052,0.675-2.065,1.018-3.098c0-103.315,0-206.631,0-309.947
		C496.909,36.191,495.426,30.12,492.53,24.82z M452.364,374.2c-1.293,0.089-2.597,0.073-3.896,0.073
		c-132.698,0.003-265.396,0.013-398.094-0.01c-19.942-0.003-33.288-15.283-30.328-35.076c1.833,0,127.79,0,188.86,0
		c1.137,0,2.274,0.012,3.411-0.003c7.017-0.083,11.532-3.93,11.503-9.794c-0.029-5.851-4.538-9.685-11.599-9.686
		c-62.045-0.018-190.019-0.011-192.345-0.011c0-81.77,0-163.359,0-245.284c152.953,0,306.01,0,459.437,0
		c0,81.838,0,163.313,0,245.284c-2.119,0-4.021,0-5.922,0c-59.121,0-118.242-0.001-177.364,0.003c-1.623,0-3.263-0.095-4.867,0.09
		c-5.1,0.585-8.613,4.475-8.686,9.471c-0.076,5.223,3.505,9.278,8.813,9.846c1.607,0.173,3.244,0.081,4.868,0.081
		c58.958,0.003,117.918,0.003,176.876,0.003c1.935,0,3.869,0,5.738,0C482.852,355.843,469.8,372.997,452.364,374.2z"/>
	<path fill-rule="evenodd" clip-rule="evenodd" d="M348.93,19.39c4.479,0.278,7.761-1.938,9.513-6.055
		c1.742-4.092,0.269-8.616-3.492-11.561c-0.725-0.567-1.413-1.182-2.117-1.774c-1.949,0-3.898,0-5.848,0
		c-0.694,0.395-1.402,0.765-2.079,1.187c-4.172,2.599-5.968,6.641-4.719,11.115C341.404,16.664,344.487,19.116,348.93,19.39z"/>
	<path fill-rule="evenodd" clip-rule="evenodd" d="M198.831,124.963c-0.021-19.312-12.012-31.375-31.236-31.388
		c-32.485-0.021-64.969-0.023-97.454,0c-18.973,0.013-31.131,12.105-31.146,30.984c-0.026,32.646-0.027,65.293,0,97.94
		c0.016,18.629,12.194,30.885,30.742,30.905c32.809,0.036,65.618,0.038,98.428-0.001c18.302-0.021,30.608-12.282,30.659-30.5
		c0.046-16.405,0.01-32.81,0.01-49.214C198.834,157.447,198.849,141.205,198.831,124.963z M74.509,233.739
		c1.431-20.99,20.984-38.559,43.316-39.094c23.071-0.552,42.887,16.296,45.619,39.094
		C133.538,233.739,104.029,233.739,74.509,233.739z M104.458,160.562c0.035-7.654,6.567-14.234,14.242-14.344
		c7.86-0.114,14.682,6.593,14.662,14.414c-0.02,7.677-6.513,14.22-14.242,14.353C111.259,175.119,104.422,168.394,104.458,160.562z
		 M179.313,213.229c0,0.296-0.143,0.593-0.388,1.542c-10.608-18.858-12.415-20.738-32.416-33.955
		c9.646-18.625,7.555-35.104-5.863-46.192c-12.639-10.444-30.383-10.556-43.105-0.272c-13.749,11.113-15.937,27.392-6.125,46.727
		c-14.6,7.24-25.364,18.295-32.624,34.502c-0.161-2.49-0.301-3.655-0.302-4.82c-0.012-28.59-0.02-57.18-0.003-85.769
		c0.005-8.527,3.319-11.914,11.704-11.919c32.651-0.02,65.302-0.026,97.953,0.005c7.331,0.007,11.151,3.518,11.165,10.484
		C179.37,153.449,179.328,183.339,179.313,213.229z"/>
	<path fill-rule="evenodd" clip-rule="evenodd" d="M305.156,277.816c1.44,10.831,3.861,14.562,9.785,14.479
		c9.344-0.129,10.18-7.226,10.553-14.146c25.653,0,50.891,0,76.085,0c1.205,10.285,3.745,14.209,9.725,14.142
		c9.396-0.105,10.247-7.186,10.443-14.476c5.834,0,11.184,0.045,16.532-0.011c7.341-0.076,10.991-3.732,11.031-11.161
		c0.061-11.203-0.224-22.414,0.09-33.608c0.273-9.77-2.103-18.297-9.772-25.108c4.295-4.473,7.38-9.361,3.175-15.157
		c-4.318-5.95-9.944-4.473-15.498-1.347c-1.755-7.009-3.368-13.616-5.066-20.201c-3.727-14.434-14.013-22.696-28.807-22.793
		c-19.972-0.131-39.944-0.143-59.915,0.005c-14.57,0.108-24.943,8.415-28.568,22.468c-1.755,6.803-3.444,13.622-5.192,20.542
		c-7.215-3.735-11.883-3.338-15.306,1.014c-3.33,4.234-2.563,8.641,2.948,15.542c-7.302,6.586-9.916,14.709-9.684,24.178
		c0.281,11.521,0.021,23.056,0.085,34.583c0.041,7.377,3.72,10.976,11.147,11.043C294.387,277.856,299.827,277.816,305.156,277.816z
		 M324.483,173.779c1.14-4.086,4.604-5.817,8.642-5.833c20.268-0.079,40.536-0.081,60.804-0.002
		c4.256,0.017,7.693,1.934,8.861,6.241c2.406,8.872,4.52,17.824,6.861,27.173c-31.13,0-61.379,0-92.21,0
		C319.832,191.896,321.971,182.785,324.483,173.779z M297.274,237.488c0-16.253,0.104-16.358,16.174-16.358
		c35.211,0,70.422-0.005,105.635,0.004c8.427,0.002,10.737,2.29,10.749,10.581c0.011,8.597,0.003,17.194,0.003,26.375
		c-44.253,0-88.015,0-132.561,0C297.274,251.283,297.274,244.385,297.274,237.488z"/>
	<path fill-rule="evenodd" clip-rule="evenodd" d="M339.41,120.849c11.023,0.041,22.048,0.011,33.071,0.01
		c11.349,0,22.696,0.039,34.044-0.014c6.887-0.032,11.451-4.139,11.283-9.979c-0.162-5.67-4.586-9.473-11.285-9.483
		c-22.372-0.038-44.744-0.033-67.115-0.003c-6.994,0.009-11.509,3.894-11.503,9.732C327.91,116.96,332.412,120.822,339.41,120.849z"
		/>
	<path fill-rule="evenodd" clip-rule="evenodd" d="M308.135,111.08c-0.014-6.077-4.2-9.678-11.428-9.703
		c-11.187-0.038-22.374-0.01-33.562-0.01c-11.188,0-22.375-0.037-33.563,0.015c-6.748,0.032-11.092,3.785-11.219,9.514
		c-0.13,5.902,4.345,9.936,11.279,9.948c22.375,0.04,44.75,0.037,67.125,0.003C303.963,120.836,308.149,117.168,308.135,111.08z"/>
	<path fill-rule="evenodd" clip-rule="evenodd" d="M188.018,273.203c-14.573-0.135-29.148-0.139-43.721,0.002
		c-6.589,0.063-10.891,4.317-10.732,10.034c0.156,5.604,4.281,9.29,10.776,9.378c7.286,0.1,14.574,0.023,21.86,0.022
		c7.287,0,14.575,0.077,21.86-0.023c6.464-0.09,10.607-3.823,10.739-9.42C198.934,277.504,194.599,273.263,188.018,273.203z"/>
	<path fill-rule="evenodd" clip-rule="evenodd" d="M93.658,273.218c-14.76-0.156-29.523-0.164-44.282,0.011
		c-6.291,0.074-10.465,4.379-10.358,9.931c0.107,5.61,4.253,9.365,10.727,9.456c7.298,0.104,14.599,0.024,21.898,0.023
		c7.299,0,14.6,0.085,21.898-0.027c6.375-0.098,10.602-4.015,10.641-9.58C104.22,277.554,99.938,273.285,93.658,273.218z"/>
	<path fill-rule="evenodd" clip-rule="evenodd" d="M228.403,165.656c4.04,0.138,8.089,0.026,12.133,0.025
		c3.883,0,7.77,0.116,11.648-0.027c5.845-0.218,9.985-4.359,9.965-9.748c-0.021-5.387-4.172-9.545-10.043-9.655
		c-7.925-0.148-15.856-0.154-23.781,0.004c-5.855,0.117-9.985,4.33-9.961,9.729C218.389,161.383,222.52,165.454,228.403,165.656z"/>
	<path fill-rule="evenodd" clip-rule="evenodd" d="M252.167,210.488c5.853-0.209,9.992-4.341,9.982-9.73
		c-0.011-5.387-4.161-9.561-10.026-9.671c-7.924-0.149-15.856-0.153-23.781,0.002c-5.861,0.115-9.993,4.314-9.979,9.713
		c0.015,5.401,4.144,9.48,10.023,9.689c3.878,0.138,7.765,0.026,11.647,0.026C244.079,210.517,248.128,210.633,252.167,210.488z"/>
	<path fill-rule="evenodd" clip-rule="evenodd" d="M252.82,319.727c-5.317,0.147-9.398,4.459-9.332,9.855
		c0.067,5.364,4.317,9.594,9.618,9.575c5.216-0.019,9.637-4.403,9.702-9.619C262.876,324.143,258.228,319.576,252.82,319.727z"/>
	<path fill-rule="evenodd" clip-rule="evenodd" d="M318.214,230.031c-5.253-0.052-9.669,4.218-9.794,9.473
		c-0.13,5.397,4.464,10.04,9.848,9.951c5.317-0.086,9.446-4.355,9.438-9.759C327.697,234.304,323.553,230.083,318.214,230.031z"/>
	<path fill-rule="evenodd" clip-rule="evenodd" d="M408.969,230.032c-5.322,0.006-9.536,4.222-9.579,9.583
		c-0.044,5.371,4.086,9.705,9.372,9.837c5.385,0.134,10.004-4.462,9.92-9.871C418.601,234.31,414.243,230.026,408.969,230.032z"/>
</g>
<g>
</g>
<g>
</g>
<g>
</g>
<g>
</g>
<g>
</g>
<g>
</g>
</svg>
