<?xml version="1.0" encoding="utf-8"?>
<!-- Generator: Adobe Illustrator 16.0.0, SVG Export Plug-In . SVG Version: 6.00 Build 0)  -->
<!DOCTYPE svg PUBLIC "-//W3C//DTD SVG 1.1//EN" "http://www.w3.org/Graphics/SVG/1.1/DTD/svg11.dtd">
<svg version="1.1" id="Layer_1" xmlns="http://www.w3.org/2000/svg" xmlns:xlink="http://www.w3.org/1999/xlink" x="0px" y="0px"
	 width="500px" height="500px" viewBox="0 0 500 500" enable-background="new 0 0 500 500" xml:space="preserve">
<polygon points="499.076,83.903 499.076,52.836 446.922,52.836 446.922,-0.422 415.922,-0.422 415.922,52.836 83.884,52.836 
	83.884,1.206 52.883,1.206 52.883,52.836 0.923,52.836 0.923,83.903 52.883,83.903 52.883,417.726 0.923,417.726 0.923,448.792 
	52.883,448.792 52.883,500.422 83.884,500.422 83.884,448.792 415.922,448.792 415.922,498.795 446.922,498.795 446.922,448.792 
	499.076,448.792 499.076,417.726 446.922,417.726 446.922,83.903 "/>
<g>
</g>
<g>
</g>
<g>
</g>
<g>
</g>
<g>
</g>
<g>
</g>
</svg>
