<?xml version="1.0" encoding="utf-8"?>
<!-- Generator: Adobe Illustrator 16.0.0, SVG Export Plug-In . SVG Version: 6.00 Build 0)  -->
<!DOCTYPE svg PUBLIC "-//W3C//DTD SVG 1.1//EN" "http://www.w3.org/Graphics/SVG/1.1/DTD/svg11.dtd">
<svg version="1.1" id="Layer_1" xmlns="http://www.w3.org/2000/svg" xmlns:xlink="http://www.w3.org/1999/xlink" x="0px" y="0px"
	 width="497.961px" height="456.276px" viewBox="0 0 497.961 456.276" enable-background="new 0 0 497.961 456.276"
	 xml:space="preserve">
<polygon points="2.039,0 2.039,456.271 2.039,456.271 2.039,456.276 123.346,456.276 123.346,415.385 40.27,415.385 40.27,158.077 
	81.269,158.077 81.269,139.616 40.27,139.616 40.27,40.892 202.577,40.892 202.577,139.616 158.962,139.616 158.962,158.077 
	202.577,158.077 202.577,197.692 221.039,197.692 221.039,40.892 459.73,40.892 459.73,278.845 219.039,278.845 219.039,256.154 
	200.577,256.154 200.577,335.385 219.039,335.385 219.039,297.307 459.73,297.307 459.73,415.385 218.039,415.385 218.039,396.153 
	199.577,396.153 199.577,456.276 497.961,456.276 497.961,456.271 497.961,0 "/>
<g>
</g>
<g>
</g>
<g>
</g>
<g>
</g>
<g>
</g>
<g>
</g>
</svg>
