<svg height="480pt" viewBox="0 0 480 480" width="480pt" xmlns="http://www.w3.org/2000/svg"><path d="m65.375 369.316406c-12.5 12.496094-12.5 32.761719-.003906 45.257813 12.496094 12.5 32.761718 12.5 45.257812 0 12.496094-12.496094 12.496094-32.761719-.003906-45.257813-12.65625-12.09375-32.59375-12.09375-45.25 0zm33.9375 33.9375c-6.328125 6.046875-16.296875 6.046875-22.625 0-6.25-6.246094-6.25-16.378906 0-22.628906 6.246094-6.25 16.378906-6.25 22.625 0 6.25 6.25 6.25 16.382812 0 22.628906zm0 0"/><path d="m348.289062 131.652344c-15.625-15.617188-40.949218-15.613282-56.566406.007812-15.621094 15.621094-15.621094 40.945313 0 56.566406 15.617188 15.621094 40.941406 15.621094 56.566406.003907 15.589844-15.636719 15.589844-40.941407 0-56.578125zm-11.3125 45.265625c-9.375 9.367187-24.566406 9.367187-33.9375-.007813-9.371093-9.371094-9.371093-24.5625 0-33.9375 9.371094-9.371094 24.5625-9.375 33.9375-.007812 9.347657 9.386718 9.347657 24.566406 0 33.953125zm0 0"/><path d="m392 423.941406c12.941406 0 24.605469-7.796875 29.558594-19.753906 4.949218-11.957031 2.214844-25.71875-6.933594-34.871094-12.65625-12.09375-32.59375-12.09375-45.25 0-9.148438 9.152344-11.882812 22.914063-6.933594 34.871094 4.953125 11.957031 16.617188 19.753906 29.558594 19.753906zm-11.3125-43.3125c4.019531-4.15625 9.964844-5.824218 15.5625-4.363281 5.59375 1.464844 9.960938 5.835937 11.425781 11.429687 1.464844 5.59375-.203125 11.542969-4.363281 15.558594-6.328125 6.046875-16.296875 6.046875-22.625 0-6.246094-6.246094-6.246094-16.375 0-22.625zm0 0"/><path d="m131.710938 131.652344c-15.617188 15.625-15.613282 40.949218.007812 56.566406 15.617188 15.621094 40.945312 15.621094 56.5625 0 15.621094-15.617188 15.625-40.941406.007812-56.566406-15.636718-15.589844-40.941406-15.589844-56.578124 0zm45.265624 45.265625c-9.375 9.367187-24.566406 9.367187-33.9375-.007813-9.371093-9.371094-9.371093-24.5625 0-33.9375 9.371094-9.371094 24.5625-9.375 33.9375-.007812 9.347657 9.386718 9.347657 24.566406 0 33.953125zm0 0"/><path d="m392 303.941406c-10.335938.007813-20.585938 1.878906-30.257812 5.519532-24.796876-20.199219-57.910157-47.453126-88.238282-72.574219l4-4.726563 19.097656 19.09375c9.371094 9.371094 24.5625 9.371094 33.933594 0l147.066406-147.078125c3.121094-3.125 3.121094-8.191406 0-11.3125l-90.523437-90.519531c-3.121094-3.125-8.1875-3.125-11.308594 0l-135.769531 135.75-135.785156-135.75c-3.121094-3.125-8.1875-3.125-11.3125 0l-90.503906 90.503906c-3.121094 3.121094-3.121094 8.1875 0 11.3125l147.050781 147.117188c9.371093 9.378906 24.578125 9.378906 33.949219 0l19.113281-19.109375 4 4.796875c-31.199219 25.914062-63.785157 52.714844-88.167969 72.53125-9.699219-3.660156-19.976562-5.539063-30.34375-5.554688-48.601562 0-88 39.398438-88 88 0 48.601563 39.398438 88 88 88s88-39.398437 88-88c-.003906-10.359375-1.875-20.636718-5.519531-30.335937 19.046875-23.429688 44.527343-54.398438 69.496093-84.511719 24.085938 29.113281 50.070313 60.6875 69.535157 84.601562-3.636719 9.667969-5.5 19.914063-5.511719 30.246094 0 48.601563 39.398438 88 88 88s88-39.398437 88-88c0-48.601562-39.398438-88-88-88zm-262.398438 83.199219c-1.027343 1.371094-1.589843 3.035156-1.601562 4.746094-.335938 6.632812-2.085938 13.113281-5.128906 19.015625-1.863282 3.746094-4.347656 7.152344-7.34375 10.070312-9.964844 10.742188-25.003906 15.179688-39.203125 11.5625-14.195313-3.617187-25.28125-14.707031-28.890625-28.910156-3.609375-14.199219.835937-29.238281 11.582031-39.195312 2.976563-3.042969 6.449219-5.554688 10.273437-7.429688 5.835938-3 12.246094-4.726562 18.800782-5.058594 1.710937-.011718 3.371094-.570312 4.742187-1.597656 18.769531-14.242188 106.839844-86.546875 166.304688-136.519531l6.984375 6.980469c-49.976563 59.464843-122.28125 147.539062-136.519532 166.335937zm118.160157-184.636719-7.761719 6.503906-7.785156-6.523437 7.769531-7.757813zm71.4375 37.4375c-3.160157 3.023438-8.140625 3.023438-11.304688 0l-67.894531-67.886718c-3.125-3.125-3.125-8.1875 0-11.3125l84.855469-84.847657 79.199219 79.199219zm16.976562-175.359375 16.96875-16.976562 79.199219 79.199219-16.984375 16.96875zm45.257813-45.253906 79.199218 79.199219-16.96875 16.976562-79.199218-79.203125zm-237.601563 45.253906-79.199219 79.199219-16.960937-16.984375 79.199219-79.199219zm-45.273437-45.246093 16.984375 16.964843-79.199219 79.203125-16.953125-17zm73.546875 220.605468c-3.171875 3.003906-8.136719 3.003906-11.304688 0l-84.800781-84.878906 79.199219-79.199219 73.554687 73.519531c-9.375 9.371094-9.375 24.570313 0 33.945313zm41.773437-19.152344 7-7 6.671875 5.601563-8.742187 7.296875c-1.664063-1.945312-3.296875-3.9375-4.929688-5.875zm-53.878906 171.152344c0 30.535156-19.257812 57.75-48.050781 67.90625-28.796875 10.15625-60.867188 1.042969-80.019531-22.734375-19.15625-23.777343-21.226563-57.054687-5.171876-83.027343 16.054688-25.96875 46.746094-38.992188 76.578126-32.488282-7.800782 6.28125-14.105469 11.296875-18.207032 14.472656-8.015625.699219-15.824218 2.933594-22.992187 6.582032-5.351563 2.632812-10.222657 6.148437-14.402344 10.402344-14.933594 13.96875-21.066406 34.972656-15.996094 54.785156 5.070313 19.8125 20.539063 35.285156 40.351563 40.363281 19.8125 5.074219 40.816406-1.054687 54.789062-15.988281 4.214844-4.125 7.703125-8.925782 10.320313-14.207032 3.703125-7.234374 5.976562-15.109374 6.695312-23.203124 3.203125-4.101563 8.195313-10.398438 14.472657-18.207032 1.09375 5.042969 1.640624 10.1875 1.632812 15.34375zm103.199219-142.78125c52.097656 43.117188 109.136719 89.910156 124 101.183594 1.371093 1.027344 3.03125 1.585938 4.746093 1.597656 6.628907.335938 13.113282 2.085938 19.015626 5.128906 3.746093 1.863282 7.148437 4.347657 10.070312 7.34375 10.742188 9.964844 15.179688 25.003907 11.5625 39.203126-3.617188 14.199218-14.710938 25.28125-28.910156 28.890624-14.199219 3.609376-29.238282-.832031-39.195313-11.582031-3.042969-2.976562-5.554687-6.449219-7.433593-10.273437-3-5.835938-4.722657-12.242188-5.054688-18.796875-.011719-1.714844-.570312-3.382813-1.601562-4.753907-11.199219-14.765624-57.558594-71.269531-100-122.527343zm128.800781 214.78125c-21.785156.023438-42.402344-9.828125-56.074219-26.789062-13.667969-16.960938-18.917969-39.199219-14.269531-60.480469 6.273438 7.757813 11.304688 14.070313 14.472656 18.152344.703125 8.011719 2.9375 15.8125 6.582032 22.980469 2.632812 5.351562 6.148437 10.222656 10.402343 14.402343 13.96875 14.9375 34.972657 21.070313 54.785157 15.996094 19.8125-5.070313 35.285156-20.539063 40.359374-40.351563 5.078126-19.8125-1.050781-40.816406-15.984374-54.789062-4.125-4.210938-8.929688-7.703125-14.210938-10.320312-7.230469-3.699219-15.105469-5.972657-23.199219-6.695313-4.070312-3.160156-10.398437-8.191406-18.152343-14.464844 5.023437-1.097656 10.148437-1.648437 15.289062-1.640625 39.765625 0 72 32.238282 72 72 0 39.765625-32.234375 72-72 72zm0 0"/></svg>