<svg height="512" viewBox="0 0 48 60" width="512" xmlns="http://www.w3.org/2000/svg"><g id="Page-1" fill="none" fill-rule="evenodd"><g id="011---Scooter" fill="rgb(0,0,0)" fill-rule="nonzero" transform="translate(-1)"><path id="Shape" d="m5 0c-1.82506509-.00587433-3.42268149 1.22435053-3.88335344 2.99032858-.46067194 1.76597804.33243033 3.61984432 1.92780724 4.50622438 1.5953769.88638007 3.58842919.58048146 4.8445462-.74355296l4.49 2.494c.4802629.26839129.8304994.72081024.97 1.253l.379 1.527c-.6073663.0837735-1.1422632.4427077-1.45.973h-6.278c-1.65685425 0-3 1.3431458-3 3s1.34314575 3 3 3h6.278c.3544126.6167513 1.0106732.997855 1.722 1h.466c-3.6531518 4.1289703-5.60624331 9.4887165-5.466 15 0 10.864 1.91 13.324 2.293 13.707.0331961.0330458.068612.0637841.106.092.13.1 3.137 2.3 9.6 2.987v4.214c0 2.209139 1.790861 4 4 4s4-1.790861 4-4v-4.214c6.464-.69 9.471-2.889 9.6-2.987.037388-.0282159.0728039-.0589542.106-.092.385-.383 2.295-2.843 2.295-13.707.1402433-5.5112835-1.8128482-10.8710297-5.466-15h.466c.7113268-.002145 1.3675874-.3832487 1.722-1h6.278c1.6568542 0 3-1.3431458 3-3s-1.3431458-3-3-3h-6.278c-.3077368-.5302923-.8426337-.8892265-1.45-.973l.375-1.513c.1389537-.5390951.4922939-.99793155.978-1.27l4.486-2.491c1.323911 1.3797268 3.4405435 1.62623044 5.046089.58766903 1.6055456-1.03856142 2.248562-3.07016839 1.5329624-4.84338683-.7155996-1.77321845-2.5886051-2.78946027-4.4652781-2.42273841-1.876673.36672185-3.2293363 2.01329366-3.2247733 3.92545621.0046712.33807977.0527308.67416074.143 1l-4.483 2.493c-.9689195.53916916-1.6741758 1.45227901-1.951 2.526l-.491 1.981h-2.9c-1.1544581-2.44223992-3.6136467-3.99987019-6.315-3.99987019s-5.1605419 1.55763027-6.315 3.99987019h-2.9l-.5-1.994c-.2782192-1.06564508-.9802517-1.97109714-1.943-2.506l-4.488-2.5c.0902692-.32583926.13832878-.66192023.143-1 0-2.209139-1.790861-4-4-4zm40 2c1.1045695 0 2 .8954305 2 2s-.8954305 2-2 2-2-.8954305-2-2 .8954305-2 2-2zm-40 14c0-.5522847.44771525-1 1-1h6v2h-6c-.55228475 0-1-.4477153-1-1zm20 20c2.1512234-.0751115 4.2649827.5769832 6 1.851v7.276c-1.9372422.6239034-3.9652891.9189843-6 .873-2.0347086.0459465-4.0627492-.2491334-6-.873v-7.275c1.7346751-1.274797 3.8485967-1.9272942 6-1.852zm0 22c-1.1045695 0-2-.8954305-2-2v-8.083c.62.048 1.275.083 2 .083s1.38-.035 2-.083v8.083c0 1.1045695-.8954305 2-2 2zm14-23c0 9.334-1.476 11.932-1.683 12.256-.5.329-3.164 1.936-8.317 2.522v-2.1c1.1919902-.1700517 2.3553169-.5014215 3.458-.985.3341375-.1721482.5435199-.517127.542-.893v-8.4c.0007638-.2613495-.1008183-.5126127-.283-.7-1.8639761-1.6372329-4.2375333-2.5782457-6.717-2.663v-8.037c0-.5522847-.4477153-1-1-1s-1 .4477153-1 1v8.037c-2.4794667.0847543-4.8530239 1.0257671-6.717 2.663-.1821817.1873873-.2837638.4386505-.283.7v8.4c-.0000179.3744354.2091448.7175086.542.889 1.1027327.4832349 2.2660577.8142678 3.458.984v2.1c-5.113-.581-7.777-2.168-8.3-2.511-.273-.418-1.7-3.083-1.7-12.262 0-9.3 5.14-14.024 6.341-15h2.769c2.7146639 2.6666801 7.0653361 2.6666801 9.78 0h2.769c1.205.979 6.341 5.7 6.341 15zm6-19c0 .5522847-.4477153 1-1 1h-6v-2h6c.5522847 0 1 .4477153 1 1zm-9-2v4h-4.685c.4500155-.9361184.684106-1.9613322.685-3-.002805-.3348137-.0295398-.6689987-.08-1zm-11-4c2.7614237 0 5 2.2385763 5 5s-2.2385763 5-5 5-5-2.2385763-5-5c.0033061-2.7600532 2.2399468-4.9966939 5-5zm-6.315 8h-4.685v-4h4.08c-.0504602.3310013-.077195.6651863-.08 1 .000894 1.0386678.2349845 2.0638816.685 3zm-13.685-12c-1.1045695 0-2-.8954305-2-2s.8954305-2 2-2 2 .8954305 2 2c0 .53043298-.21071368 1.03914081-.58578644 1.41421356-.37507275.37507276-.88378058.58578644-1.41421356.58578644z"/><path id="Shape" d="m15.315 28.051c-.5238248-.1740052-1.0895718.1093159-1.264.633-.6476549 2.0449417-1.0015234 4.1715197-1.051 6.316 0 .5522847.4477153 1 1 1s1-.4477153 1-1c.0525736-1.9297038.371936-3.8428496.949-5.685.1739178-.5241145-.1099158-1.089991-.634-1.264z"/><path id="Shape" d="m35 35c0 .5522847.4477153 1 1 1s1-.4477153 1-1c-.0494766-2.1444803-.4033451-4.2710583-1.051-6.316-.1742458-.5246705-.7408295-.8087458-1.2655-.6345s-.8087458.7408295-.6345 1.2655c.5777424 1.8420545.8977782 3.7552024.951 5.685z"/><circle id="Oval" cx="25" cy="15" r="1"/></g></g></svg>