<?xml version="1.0" encoding="utf-8"?>
<!-- Generator: Adobe Illustrator 16.0.0, SVG Export Plug-In . SVG Version: 6.00 Build 0)  -->
<!DOCTYPE svg PUBLIC "-//W3C//DTD SVG 1.1//EN" "http://www.w3.org/Graphics/SVG/1.1/DTD/svg11.dtd">
<svg version="1.1" id="Capa_1" xmlns="http://www.w3.org/2000/svg" xmlns:xlink="http://www.w3.org/1999/xlink" x="0px" y="0px"
	 width="500px" height="450px" viewBox="0 25 500 450" enable-background="new 0 25 500 450" xml:space="preserve">
<g>
	<g>
		<g>
			<path d="M475,25H25C11.193,25,0,36.193,0,50v316.666c0,13.809,11.193,25,25,25h191.667V425H150c-13.807,0-25,11.192-25,25v16.667
				c0,4.602,3.731,8.333,8.333,8.333h233.333c4.602,0,8.333-3.731,8.333-8.333V450c0-13.808-11.192-25-25-25h-58.334v-33.334H475
				c13.808,0,25-11.191,25-25V50C500,36.193,488.808,25,475,25z M350,441.667c4.603,0,8.333,3.73,8.333,8.333v8.333H141.667V450
				c0-4.603,3.731-8.333,8.333-8.333H350z M233.333,425v-33.334H275V425H233.333z M483.333,366.666c0,4.603-3.731,8.334-8.333,8.334
				H25c-4.602,0-8.333-3.731-8.333-8.334v-25h466.667V366.666z M483.333,325H16.667V92.358h466.667V325z M483.333,75.691H16.667V50
				c0-4.602,3.731-8.333,8.333-8.333h450c4.602,0,8.333,3.731,8.333,8.333V75.691z"/>
			<path d="M41.667,125h18.492l23.333,110c0.792,3.883,4.211,6.672,8.175,6.667h100c3.96,0.001,7.375-2.786,8.167-6.667
				l16.667-83.333c0.921-4.509-1.989-8.911-6.498-9.831c-0.549-0.113-1.108-0.169-1.668-0.169H81.5l-6.75-27.017
				c-0.926-3.711-4.258-6.315-8.083-6.316h-25c-4.602,0-8.333,3.731-8.333,8.333S37.064,125,41.667,125z M198.167,158.333
				L184.842,225h-86.35l-13.333-66.667H198.167z"/>
			<path d="M108.333,250c-13.808,0-25,11.193-25,25s11.192,25,25,25c13.807,0,25-11.193,25-25S122.141,250,108.333,250z
				 M108.333,283.334c-4.602,0-8.333-3.732-8.333-8.334s3.731-8.334,8.333-8.334s8.333,3.732,8.333,8.334
				S112.936,283.334,108.333,283.334z"/>
			<path d="M183.333,250c-13.808,0-25,11.193-25,25s11.192,25,25,25c13.807,0,25-11.193,25-25S197.141,250,183.333,250z
				 M183.333,283.334c-4.602,0-8.333-3.732-8.333-8.334s3.731-8.334,8.333-8.334s8.333,3.732,8.333,8.334
				S187.936,283.334,183.333,283.334z"/>
			<path d="M258.334,150h149.999c4.603,0,8.334-3.731,8.334-8.333s-3.731-8.333-8.334-8.333H258.334
				c-4.603,0-8.334,3.731-8.334,8.333S253.731,150,258.334,150z"/>
			<path d="M441.667,150h16.666c4.603,0,8.334-3.731,8.334-8.333s-3.731-8.333-8.334-8.333h-16.666
				c-4.603,0-8.334,3.731-8.334,8.333S437.064,150,441.667,150z"/>
			<path d="M258.334,183.333h149.999c4.603,0,8.334-3.731,8.334-8.333s-3.731-8.333-8.334-8.333H258.334
				c-4.603,0-8.334,3.731-8.334,8.333S253.731,183.333,258.334,183.333z"/>
			<path d="M441.667,183.333h16.666c4.603,0,8.334-3.731,8.334-8.333s-3.731-8.333-8.334-8.333h-16.666
				c-4.603,0-8.334,3.731-8.334,8.333S437.064,183.333,441.667,183.333z"/>
			<path d="M258.334,216.667h149.999c4.603,0,8.334-3.731,8.334-8.333S412.936,200,408.333,200H258.334
				c-4.603,0-8.334,3.731-8.334,8.333S253.731,216.667,258.334,216.667z"/>
			<path d="M441.667,216.667h16.666c4.603,0,8.334-3.731,8.334-8.333S462.936,200,458.333,200h-16.666
				c-4.603,0-8.334,3.731-8.334,8.333S437.064,216.667,441.667,216.667z"/>
			<path d="M258.334,250h149.999c4.603,0,8.334-3.731,8.334-8.333s-3.731-8.333-8.334-8.333H258.334
				c-4.603,0-8.334,3.731-8.334,8.333S253.731,250,258.334,250z"/>
			<path d="M441.667,250h16.666c4.603,0,8.334-3.731,8.334-8.333s-3.731-8.333-8.334-8.333h-16.666
				c-4.603,0-8.334,3.731-8.334,8.333S437.064,250,441.667,250z"/>
		</g>
	</g>
</g>
</svg>
