<?xml version="1.0" encoding="utf-8"?>
<!-- Generator: Adobe Illustrator 16.0.0, SVG Export Plug-In . SVG Version: 6.00 Build 0)  -->
<!DOCTYPE svg PUBLIC "-//W3C//DTD SVG 1.1//EN" "http://www.w3.org/Graphics/SVG/1.1/DTD/svg11.dtd">
<svg version="1.1" id="Layer_1" xmlns="http://www.w3.org/2000/svg" xmlns:xlink="http://www.w3.org/1999/xlink" x="0px" y="0px"
	 width="500px" height="492.813px" viewBox="0 3.595 500 492.813" enable-background="new 0 3.595 500 492.813"
	 xml:space="preserve">
<path d="M230.744,496.405c-14.683,0-29.367,0-44.05,0c-12.493-5.72-5.97-17.676-8.744-27.359c-8.16,0-16.354,0.002-24.546,0
	c-13.663-0.004-15.512-1.837-15.526-15.449c-0.012-10.462-0.002-20.924-0.002-31.999c-10.615,0-20.217,0.144-29.812-0.045
	c-7.776-0.15-11.625-3.371-11.709-10.513c-0.239-20.179-0.234-40.36,0.019-60.539c0.083-6.655,3.753-9.728,10.604-10.044
	c3.56-0.164,7.132-0.028,11.56-0.028c-1.251-3.024-1.975-4.87-2.772-6.686c-5.235-11.939-8.067-24.997-3.057-36.776
	c5.505-12.945,0.614-19.619-8.537-27.197c-10.849-8.984-10.44-12.27-0.459-22.648c0.942-0.979,1.777-2.06,1.714-1.984
	c-16.517-16.829-32.824-33.442-49.147-50.072c-10.125,8.447-12.337,8.337-22.002-1.319c-5.354-5.35-10.714-10.692-16.052-16.056
	c-23.607-23.722-23.646-53.539-0.062-77.174c23.812-23.862,47.935-47.423,71.377-71.642c12.265-12.67,25.215-23.306,43.466-25.279
	c1.835,0,3.67,0,5.506,0c11.56,2.279,22.75,5.407,31.464,14.041c7.984,7.909,16.025,15.763,23.858,23.819
	c5.195,5.342,5.157,9.495,0.447,15.089c-1.12,1.329-2.208,2.684-2.515,3.055c16.751,16.75,33.079,33.078,49.627,49.624
	c5.724-6.492,12.172-5.03,17.647-0.025c16.674-16.731,32.965-33.079,49.461-49.634c-0.918-1.027-2.344-2.493-3.624-4.076
	c-3.333-4.123-3.826-8.737-0.034-12.45C321.5,26.729,335.299,6.195,361.515,3.596c1.835,0,3.67,0,5.507,0
	c18.311,1.858,31.46,12.342,43.429,25.296c9.33,10.098,19.382,19.525,29.108,29.257c14.913,14.921,30.036,29.64,44.677,44.825
	c18.848,19.548,20.471,48.309,3.585,68.08c-8.168,9.563-17.47,18.18-26.483,26.992c-4.473,4.373-9.426,4.045-14.128-0.045
	c-1.323-1.15-2.671-2.272-3.64-3.095c-16.733,16.65-33.117,32.952-50.734,50.481c1.735,1.232,4.053,2.447,5.823,4.212
	c6.804,6.777,6.729,11.404-0.149,17.961c-5.642,5.379-11.573,10.473-16.966,16.086c-1.545,1.608-2.557,4.696-2.287,6.922
	c1.618,13.326,0.403,26.1-6.216,37.998c-2.067,3.717-4.521,7.217-7.441,11.832c8.896,0,16.833-0.047,24.771,0.013
	c10.507,0.077,13.434,3.005,13.462,13.563c0.047,17.428,0.022,34.854,0.01,52.281c-0.009,12.751-2.58,15.325-15.307,15.354
	c-8.614,0.018-17.229,0.003-26.312,0.003c0,12.587,0.11,24.029-0.036,35.472c-0.112,8.949-3.189,11.887-12.13,11.948
	c-9.336,0.063-18.676,0.014-28.746,0.014c0,4.845-0.262,8.934,0.06,12.974c0.532,6.702-1.977,11.479-8.036,14.388
	c-14.683,0-29.367,0-44.05,0c-13.617-5.271-5.944-17.847-9.036-26.776c-7.023,0-13.923,0-21.158,0c0,4.684-0.32,8.816,0.072,12.881
	C239.83,489.394,237.099,493.924,230.744,496.405z M115.9,401.8c89.9,0,178.956,0,268.195,0c0-14.18,0-27.813,0-41.739
	c-2.239-0.149-4.04-0.375-5.84-0.377c-57.314-0.019-114.63-0.058-171.946,0.101c-3.239,0.01-6.693,1.22-9.673,2.649
	c-16.914,8.119-34.292,9.336-51.033,0.991c-9.883-4.926-19.431-3.126-29.703-3.694C115.9,374.102,115.9,387.727,115.9,401.8z
	 M173.792,48.327c-6.435-6.129-12.874-13.375-20.419-19.186c-11.431-8.804-28.133-7.947-38.641,2.341
	c-29.174,28.564-58.067,57.425-86.647,86.583c-10.539,10.751-11.248,27.577-2.145,39.191c5.743,7.326,12.778,13.641,18.9,20.059
	C87.975,134.167,130.583,91.549,173.792,48.327z M455.308,177.595c5.237-5.467,10.921-11.078,16.24-17.015
	c11.688-13.041,11.492-30.688-0.433-43.566c-4.517-4.877-9.354-9.458-14.058-14.161c-23.03-23.031-46.011-46.115-69.125-69.063
	c-12.251-12.165-29.201-14.274-41.723-4.219c-7.219,5.797-12.906,13.502-18.845,19.88
	C369.407,91.559,411.978,134.196,455.308,177.595z M320.299,170.896c1.531-1.996,2.757-3.991,4.36-5.616
	c8.697-8.815,17.443-17.583,26.259-26.281c5.453-5.38,10.745-5.931,15.084-1.806c4.33,4.117,3.702,10.084-1.681,15.633
	c-2.236,2.304-4.523,4.558-6.797,6.824c-8.061,8.037-16.124,16.07-23.243,23.164c5.86,6.422,11.059,12.119,16.451,18.027
	c1.844-1.747,3.521-3.268,5.121-4.864c8.928-8.91,17.596-18.104,26.914-26.583c2.469-2.245,7.138-3.55,10.391-2.979
	c2.546,0.446,6.086,4.347,6.262,6.913c0.229,3.314-1.644,7.596-4.029,10.123c-10.053,10.659-20.633,20.82-30.196,30.343
	c5.103,5.472,9.888,10.603,14.278,15.311c16.376-16.362,32.723-32.694,48.141-48.1C392.638,146.1,357.36,110.889,322.388,75.987
	c-15.69,15.606-32.083,31.91-47.509,47.252c4.479,5.056,9.127,10.302,14,15.802c10.368-10.374,20.38-20.443,30.452-30.452
	c5.613-5.579,11.364-6.333,15.623-2.2c4.506,4.373,3.936,9.774-1.724,15.578c-3.362,3.448-6.737,6.889-10.226,10.206
	c-7.057,6.712-14.195,13.338-21.146,19.854C308.519,158.842,313.952,164.402,320.299,170.896z M72.098,180.106
	c16.075,16.121,32.485,32.577,49.022,49.16c4.5-4.566,9.289-9.426,14.565-14.779c-10.64-10.542-21.432-21.08-32.032-31.809
	c-4.621-4.677-4.8-9.992-1.022-14.063c3.811-4.105,9.822-3.987,14.637,0.527c4.011,3.76,7.83,7.726,11.693,11.643
	c6.705,6.798,13.376,13.629,19.753,20.13c6.326-6.138,11.848-11.496,17.632-17.108c-1.646-1.756-3.142-3.436-4.726-5.027
	c-9.055-9.099-18.217-18.091-27.16-27.297c-4.325-4.449-4.373-10.369-0.601-14.136c3.953-3.946,9.285-3.799,14.119,0.508
	c1.88,1.674,3.583,3.547,5.363,5.332c8.983,9.009,17.964,18.019,26.786,26.865c6.178-6.024,11.74-11.449,17.733-17.294
	c-10.553-10.464-21.006-20.716-31.322-31.106c-4.98-5.016-5.347-10.38-1.373-14.582c4.1-4.336,9.734-3.937,15.066,1.094
	c1.333,1.258,2.609,2.578,3.902,3.877c8.994,9.042,17.984,18.085,27.065,27.217c5.511-5.521,10.335-10.354,14.332-14.357
	c-16.476-16.58-32.893-33.103-48.963-49.273C141.819,110.38,106.688,145.514,72.098,180.106z M129.222,267.068
	c2.395-2.291,4.23-4.006,6.021-5.767c27.961-27.507,55.836-55.1,83.901-82.498c18.611-18.169,42.897-18.387,61.338-0.38
	c27.241,26.603,54.198,53.493,81.249,80.291c2.875,2.848,5.56,5.889,8.497,9.016c3.181-3.599,6.008-6.797,8.088-9.149
	c-42.903-42.892-85.978-85.953-128.463-128.429c-42.52,42.534-85.582,85.611-129.026,129.073
	C123.155,261.398,125.945,264.008,129.222,267.068z M169.482,349.463c21.708,0.118,39.936-17.766,40.302-39.542
	c0.366-21.692-17.646-39.957-39.579-40.136c-21.598-0.176-40.012,18.066-40.088,39.716
	C130.037,331.895,147.224,349.34,169.482,349.463z M360.535,301.35c0.113-21.959-17.171-39.449-39.02-39.481
	c-21.812-0.034-39.481,17.539-39.457,39.237c0.025,21.564,17.959,39.369,39.556,39.27
	C343.066,340.273,360.423,322.87,360.535,301.35z M291.193,216.509c-6.536,19.288-18.733,31.251-38.955,32.173
	c-22.479,1.023-36.132-11.301-43.515-32.062c-11.332,11.961-22.245,23.479-32.68,34.495c30.122,5.207,48.277,23.691,52.876,56.224
	c2.024-1.721,3.755-3.069,5.348-4.565c11.353-10.668,22.848-21.189,33.967-32.096c13.785-13.52,27.58-26.813,48.231-27.895
	C307.977,233.957,299.933,225.594,291.193,216.509z M227.589,206.481c-0.083,12.063,9.12,21.454,21.109,21.538
	c11.842,0.085,21.546-9.393,21.678-21.172c0.13-11.7-9.526-21.475-21.306-21.563C237.083,185.194,227.671,194.481,227.589,206.481z
	 M198.561,422.008c0,18.614,0,36.318,0,54.188c7.3,0,14.044,0,20.9,0c0-18.253,0-36.023,0-54.188
	C212.372,422.008,205.632,422.008,198.561,422.008z M301.614,422.025c-7.152,0-13.89,0-20.916,0c0,18.213,0,36.124,0,54.135
	c7.217,0,13.952,0,20.916,0C301.614,457.908,301.614,440.172,301.614,422.025z M275.234,339.962
	c-4.741-11.772-9.508-23.606-14.375-35.69c-11.692,11.041-24.185,22.836-37.796,35.69
	C241.952,339.962,259.131,339.962,275.234,339.962z M260.503,449.426c0-9.313,0-18.272,0-27.428c-7.188,0-13.923,0-20.963,0
	c0,9.346,0,18.303,0,27.428C246.732,449.426,253.468,449.426,260.503,449.426z M157.329,449.321c7.462,0,14.155,0,20.841,0
	c0-9.417,0-18.37,0-27.095c-7.28,0-13.98,0-20.841,0C157.329,431.474,157.329,440.103,157.329,449.321z M321.62,449.222
	c7.507,0,14.207,0,20.829,0c0-9.336,0-18.11,0-27.132c-7.169,0-13.844,0-20.829,0C321.62,431.348,321.62,440.128,321.62,449.222z"/>
</svg>
