<?xml version="1.0" encoding="utf-8"?>
<!-- Generator: Adobe Illustrator 23.0.1, SVG Export Plug-In . SVG Version: 6.00 Build 0)  -->
<svg version="1.1" id="Layer_1" xmlns="http://www.w3.org/2000/svg" xmlns:xlink="http://www.w3.org/1999/xlink" x="0px" y="0px"
	 viewBox="0 0 480 480" style="enable-background:new 0 0 480 480;" xml:space="preserve">
<style type="text/css">
	.st0{fill:#FF7925;}
</style>
<path class="st0" d="M472,112h-32c-4.4,0-8,3.6-8,8v48.8c-10.4-9.2-27.5-16.8-56-16.8c-53,0-67,26.3-70.7,40H272v-16
	c0-8.8-7.2-16-16-16h-32c-8.8,0-16,7.2-16,16H40c-13.3,0-24,10.8-24,24v40H8c-4.4,0-8,3.6-8,8v112c0,4.4,3.6,8,8,8h24
	c3.9,0,7.3-2.8,7.9-6.7l6.9-41.3h386.4l6.9,41.3c0.6,3.9,4,6.7,7.9,6.7h24c4.4,0,8-3.6,8-8V120C480,115.6,476.4,112,472,112z"/>
</svg>
