<?xml version="1.0" encoding="utf-8"?>
<!-- Generator: Adobe Illustrator 24.2.0, SVG Export Plug-In . SVG Version: 6.00 Build 0)  -->
<svg version="1.1" id="Layer_1" xmlns="http://www.w3.org/2000/svg" xmlns:xlink="http://www.w3.org/1999/xlink" x="0px" y="0px"
	 viewBox="0 0 512 512" style="enable-background:new 0 0 512 512;" xml:space="preserve">
<style type="text/css">
	.st0{fill:#2F6AA1;}
</style>
<path class="st0" d="M5.2,302.2c12.1,33.4,43.6,55.7,79.1,56.2l-16,144.2c-0.3,2.4,0.5,4.8,2.1,6.6c1.6,1.8,3.9,2.8,6.4,2.8h102.4
	c2.4,0,4.7-1,6.4-2.8c1.6-1.8,2.4-4.2,2.1-6.6l-16-144.2c46.7-0.6,84.3-38.6,84.3-85.3v-8.5c0-4.7-3.8-8.5-8.5-8.5h-61.8
	c39.5-26.8,62.8-71.7,61.8-119.5C247.5,61.3,193.9,0,128,0S8.5,61.3,8.5,136.5c-1,47.7,22.2,92.7,61.8,119.5H8.5
	c-4.7,0-8.5,3.8-8.5,8.5v8.5c0,9.8,1.7,19.4,5,28.6C5.1,301.8,5.1,302,5.2,302.2z M86.3,494.9l15.2-136.5h53l15.2,136.5H86.3z
	 M25.6,136.5C25.6,70.7,71.5,17.1,128,17.1s102.4,53.6,102.4,119.5S184.5,256.1,128,256.1c-5.7,0-11.4-0.6-17.1-1.8v-40.9
	c0-4.7,3.8-8.5,8.5-8.5h8.5c4.7,0,8.5,3.8,8.5,8.5s3.8,8.5,8.5,8.5s8.5-3.8,8.5-8.5c0-14.1-11.5-25.6-25.6-25.6h-8.5
	c-14.1,0-25.6,11.5-25.6,25.6V249C54.2,232.6,25.6,188.4,25.6,136.5z M238.9,273.1c0,37.7-30.6,68.2-68.3,68.3H85.3
	c-24.4,0-46.9-13-59-34.1h33.4c4.7,0,8.5-3.8,8.5-8.5s-3.8-8.5-8.5-8.5H19.3c-1.5-5.6-2.2-11.3-2.2-17.1h221.8V273.1z"/>
<path class="st0" d="M93.9,307.2h8.5c4.7,0,8.5-3.8,8.5-8.5s-3.8-8.5-8.5-8.5h-8.5c-4.7,0-8.5,3.8-8.5,8.5
	C85.3,303.4,89.2,307.2,93.9,307.2z"/>
<path class="st0" d="M68.3,93.9c2.3,0,4.4-0.9,6-2.5l34.1-34.1c2.2-2.1,3.1-5.3,2.3-8.3c-0.8-3-3.1-5.3-6.1-6.1s-6.2,0.1-8.3,2.3
	L62.2,79.3c-2.4,2.4-3.2,6.1-1.9,9.3C61.7,91.8,64.8,93.9,68.3,93.9z"/>
<path class="st0" d="M159.6,57.2c2.2-2.1,3.1-5.3,2.3-8.3s-3.1-5.3-6.1-6.1s-6.2,0.1-8.3,2.3L53.7,139c-2.2,2.1-3.1,5.3-2.3,8.3
	s3.1,5.3,6.1,6.1s6.2-0.1,8.3-2.3L159.6,57.2z"/>
<path class="st0" d="M503.5,298.7H495v-8.5c0-4.7-3.8-8.5-8.5-8.5s-8.5,3.8-8.5,8.5v8.5h-17.1v-8.5c0-14.1-11.5-25.6-25.6-25.6H350
	c-14.1,0-25.6,11.5-25.6,25.6v8.5h-17.1v-8.5c0-4.7-3.8-8.5-8.5-8.5s-8.5,3.8-8.5,8.5v8.5h-8.5c-4.7,0-8.5,3.8-8.5,8.5
	s3.8,8.5,8.5,8.5h8.5v8.5c0,4.7,3.8,8.5,8.5,8.5s8.5-3.8,8.5-8.5v-8.5h17.1v119.5c0,9.4,7.6,17.1,17.1,17.1h68.3
	c9.4,0,17.1-7.6,17.1-17.1v-8.5H444c9.4,0,17.1-7.6,17.1-17.1v-93.9h17.1v8.5c0,4.7,3.8,8.5,8.5,8.5s8.5-3.8,8.5-8.5v-8.5h8.5
	c4.7,0,8.5-3.8,8.5-8.5C512,302.5,508.2,298.7,503.5,298.7z M426.7,290.1c0-4.7,3.8-8.5,8.5-8.5s8.5,3.8,8.5,8.5v8.5h-17.1v-8.5
	H426.7z M409.6,435.2h-68.3V290.1c0-4.7,3.8-8.5,8.5-8.5h61.3c-1,2.7-1.5,5.6-1.6,8.5v145.1H409.6z M443.7,409.6h-17.1v-93.9h17.1
	V409.6z"/>
<path class="st0" d="M494.9,0H307.2c-9.4,0-17.1,7.6-17.1,17.1v204.8c0,9.4,7.6,17.1,17.1,17.1h187.7c9.4,0,17.1-7.6,17.1-17.1V17.1
	C512,7.6,504.4,0,494.9,0z M494.9,170.7h-85.3V17.1h85.3L494.9,170.7z M392.5,17.1v153.6h-85.3V17.1H392.5z M307.2,221.9v-34.1
	h187.7v34.1H307.2z"/>
<path class="st0" d="M366.9,102.4h8.5c4.7,0,8.5-3.8,8.5-8.5s-3.8-8.5-8.5-8.5h-8.5c-4.7,0-8.5,3.8-8.5,8.5S362.2,102.4,366.9,102.4
	z"/>
<path class="st0" d="M426.7,102.4h8.5c4.7,0,8.5-3.8,8.5-8.5s-3.8-8.5-8.5-8.5h-8.5c-4.7,0-8.5,3.8-8.5,8.5
	C418.1,98.6,422,102.4,426.7,102.4z"/>
</svg>
