<?xml version="1.0" encoding="utf-8"?>
<!-- Generator: Adobe Illustrator 23.0.1, SVG Export Plug-In . SVG Version: 6.00 Build 0)  -->
<svg version="1.1" id="Layer_1" xmlns="http://www.w3.org/2000/svg" xmlns:xlink="http://www.w3.org/1999/xlink" x="0px" y="0px"
	 viewBox="0 0 512 512" style="enable-background:new 0 0 512 512;" xml:space="preserve">
<style type="text/css">
	.st0{fill:#FF7925;}
</style>
<path class="st0" d="M503.2,300.3h-8.8v-8.8c0-4.9-3.9-8.8-8.8-8.8c-4.9,0-8.8,3.9-8.8,8.8v8.8H459v-8.8c0-14.6-11.9-26.4-26.5-26.5
	h-88.3c-14.6,0-26.4,11.9-26.5,26.5v8.8h-17.7v-8.8c0-4.9-3.9-8.8-8.8-8.8c-4.9,0-8.8,3.9-8.8,8.8v8.8h-8.8c-4.9,0-8.8,4-8.8,8.8
	s4,8.8,8.8,8.8h8.8v8.8c0,4.9,3.9,8.8,8.8,8.8c4.9,0,8.8-4,8.8-8.8V318h17.7v123.6c0,9.7,7.9,17.6,17.7,17.7h70.6
	c9.7,0,17.6-7.9,17.7-17.7v-8.8h17.7c9.7,0,17.6-7.9,17.7-17.7V318h17.7v8.8c0,4.9,3.9,8.8,8.8,8.8c4.9,0,8.8-4,8.8-8.8V318h8.8
	c4.9,0,8.8-4,8.8-8.8S508,300.3,503.2,300.3z M406.1,291.5v150.1h-70.6V291.5c0-4.9,4-8.8,8.8-8.8h63.4
	C406.6,285.5,406.1,288.5,406.1,291.5z M441.4,300.3h-17.7v-8.8c0-4.9,4-8.8,8.8-8.8s8.8,3.9,8.8,8.8V300.3z"/>
<path class="st0" d="M132.4,220.9c-4.9,0-8.8-4-8.8-8.8c0-4.9-4-8.8-8.8-8.8h-8.8c-4.9,0-8.8,4-8.8,8.8v42.3
	c5.8,1.2,11.7,1.8,17.7,1.9c58.4,0,105.9-55.4,105.9-123.6S173.2,9,114.8,9S8.8,64.4,8.8,132.6c0,53.7,29.5,99.4,70.6,116.4V212
	c0-14.6,11.9-26.5,26.5-26.5h8.8c14.6,0,26.5,11.9,26.5,26.5C141.2,216.9,137.3,220.9,132.4,220.9z M46.7,73.4L82,38.1
	c2.2-2.3,5.5-3.2,8.6-2.4c3.1,0.8,5.5,3.2,6.3,6.3c0.8,3.1-0.1,6.4-2.4,8.6L59.2,85.9c-2.2,2.3-5.5,3.2-8.6,2.4s-5.5-3.2-6.3-6.3
	S44.4,75.6,46.7,73.4z M50.4,147.7c-3.5,3.3-9,3.3-12.4-0.1s-3.5-8.9-0.1-12.4L135,38.1c2.2-2.3,5.5-3.2,8.6-2.4
	c3.1,0.8,5.5,3.2,6.3,6.3c0.8,3.1-0.1,6.4-2.4,8.6L50.4,147.7z"/>
<path class="st0" d="M87.4,362.1L71.7,503.3h86.2l-15.7-141.2H87.4z"/>
<path class="st0" d="M2.3,291.5h41.8c4.9,0,8.8,3.9,8.8,8.8c0,4.9-4,8.8-8.8,8.8H9.6c12.6,21.8,35.9,35.3,61.1,35.3h88.3
	c39,0,70.6-31.6,70.6-70.6H0C0,279.8,0.8,285.7,2.3,291.5z M79.4,291.5h8.8c4.9,0,8.8,3.9,8.8,8.8c0,4.9-3.9,8.8-8.8,8.8h-8.8
	c-4.9,0-8.8-3.9-8.8-8.8C70.6,295.4,74.6,291.5,79.4,291.5z"/>
<path class="st0" d="M300.1,185.6h194.2v35.3H300.1V185.6z"/>
<path class="st0" d="M300.1,167.9h88.3V9h-88.3V167.9z M361.9,79.6h8.8c4.9,0,8.8,4,8.8,8.8s-4,8.8-8.8,8.8h-8.8
	c-4.9,0-8.8-4-8.8-8.8S357.1,79.6,361.9,79.6z"/>
<path class="st0" d="M406.1,9v158.9h88.3l0-158.9H406.1z M432.6,97.3h-8.8c-4.9,0-8.8-4-8.8-8.8s3.9-8.8,8.8-8.8h8.8
	c4.9,0,8.8,4,8.8,8.8S437.4,97.3,432.6,97.3z"/>
</svg>
