<?xml version="1.0" encoding="utf-8"?>
<!-- Generator: Adobe Illustrator 23.0.1, SVG Export Plug-In . SVG Version: 6.00 Build 0)  -->
<svg version="1.1" id="Capa_1" xmlns="http://www.w3.org/2000/svg" xmlns:xlink="http://www.w3.org/1999/xlink" x="0px" y="0px"
	 viewBox="0 0 512 512" style="enable-background:new 0 0 512 512;" xml:space="preserve">
<style type="text/css">
	.st0{fill:#FF7925;}
</style>
<path class="st0" d="M139.5,195.7L104,143.8c-3.3-4.8,0.2-11.3,6-11.3h47.7c1.4,0,2.8,0.4,4,1.2l78.5,52.9"/>
<path class="st0" d="M164.9,279.1h143.8L161.9,378c-1.3,0.9-2.9,1.4-4.5,1.4h-45.8c-6.5,0-10.3-7.3-6.7-12.6L164.9,279.1z"/>
<path class="st0" d="M421.5,190.9c-7.7-11.8-21.3-18.4-35.4-17.1L71.3,201.8l-15.1-39.4c-4-10.5-14.1-17.4-25.3-17.4H11
	c-6.3,0-11.3,5.3-11,11.6L1.3,180c0,0.4,0,0.8,0.1,1.2l3.5,63c1.6,29.6,26.1,52.9,55.8,52.9h231.5c64.2,0,128.2-8.1,190.4-24.2
	l17.8-4.6c6.8-1.8,11.6-7.9,11.6-14.9c0-3.4-1.1-6.6-3-9.2c-1.9-2.6-4.7-4.6-7.9-5.6l-60.3-18.4l0,0l-30.1,6.9
	c-14.3,3.3-28.9-4.3-34.5-17.9c-0.7-1.7,0.2-3.6,2-4 M144.2,251.5c-8.2,0-14.9-6.7-14.9-14.9s6.7-14.9,14.9-14.9s14.9,6.7,14.9,14.9
	S152.4,251.5,144.2,251.5z M208.9,249.4c-8.2,0-14.9-6.7-14.9-14.9s6.7-14.9,14.9-14.9s14.9,6.7,14.9,14.9S217.2,249.4,208.9,249.4z
	 M276.4,246.2c-8.2,0-14.9-6.7-14.9-14.9s6.7-14.9,14.9-14.9s14.9,6.7,14.9,14.9S284.7,246.2,276.4,246.2z"/>
</svg>
