<?xml version="1.0" encoding="utf-8"?>
<!-- Generator: Adobe Illustrator 23.0.1, SVG Export Plug-In . SVG Version: 6.00 Build 0)  -->
<svg version="1.1" id="Layer_1" xmlns="http://www.w3.org/2000/svg" xmlns:xlink="http://www.w3.org/1999/xlink" x="0px" y="0px"
	 viewBox="0 0 512 512" style="enable-background:new 0 0 512 512;" xml:space="preserve">
<style type="text/css">
	.st0{fill:#FF7925;}
</style>
<path id="Shape" class="st0" d="M503.7,433.1c-23.8-56.1-91-100.8-155.3-104.8c-0.9,4-2,7.9-3.4,11.7
	c64.7,12,124.5,57.2,148.3,113.1c3.1,6.8,5.7,13.9,7.6,21.2c0.4,0.1,0.9,0.2,1.3,0.3h0.1c4.3,0.4,8.2-2.6,9-6.8
	C513.9,456.8,508.2,443.6,503.7,433.1L503.7,433.1z M260.5,238c-39.7,0-71.9,32.2-71.9,71.9s32.2,71.9,71.9,71.9
	s71.9-32.2,71.9-71.9C332.3,270.2,300.2,238.1,260.5,238L260.5,238z M247,318.9c-17.4,0-31.4-14.1-31.4-31.4S229.7,256,247,256
	s31.4,14.1,31.4,31.4S264.4,318.9,247,318.9z M476.8,460.2c-21.7-51.2-79.9-93.8-139.9-103.3c-3.7,6.1-8.1,11.8-13.2,16.8
	c8.3,4.7,17.2,9.2,25.4,13.3c6.2,3.1,12,6,17,8.6c23.3,12.7,46.5,27.9,67.1,41.5c16.2,10.6,32.6,21.4,46,28.6
	C478.3,463.8,477.6,461.9,476.8,460.2L476.8,460.2z M357.4,411.4c-4.8-2.6-10.3-5.4-16.3-8.4c-7.5-3.8-15.6-7.9-23.4-12.2l31.3,54.3
	c10-6.5,19.3-14.1,27.6-22.7C370.2,418.5,363.8,414.8,357.4,411.4z M230.9,394.6c-11.6,22.2-27.6,41.8-47.1,57.6
	c20.8,11.3,43.9,17.8,67.6,19v-71.9C244.5,398.6,237.6,397,230.9,394.6L230.9,394.6z M205.9,381c-37.1,53.4-101.5,89.2-161.1,89.2
	c-1.3,0-2.8-0.1-4.1-0.1c-10.8,0.4-21.6-2.4-30.8-8.1c-1,2.7-1,5.6-0.2,8.4c2,6.8,10.1,9.3,22.4,11.3c43.8,7,92.8-7.9,131-35.8
	c0.1,0,0.2-0.1,0.3-0.2c21.4-15.4,39-35.5,51.4-58.7C211.6,385.2,208.7,383.2,205.9,381L205.9,381z M181.6,352.9
	c-10.2,6.2-21.5,13.7-33.3,21.4c-11,7.2-22.6,14.9-34.7,22.4l-0.1,0.1c-0.1,0.1-0.1,0.1-0.2,0.1c-10.5,6.6-21.4,13.1-32.2,19
	c-5.1,2.8-11.1,5.7-17.6,9c-14.5,6.8-28.5,14.7-41.8,23.6c6,2.8,12.7,4.1,19.3,3.8c55.7,1.6,117.1-32.6,151.4-83.6
	C188.4,363.7,184.8,358.5,181.6,352.9L181.6,352.9z M171.1,318.9h-72c1.1,19.7,5.8,39,13.8,56.9c8.8-5.6,17.4-11.1,25.5-16.5
	c12.9-8.4,25.2-16.4,36.2-23.1C172.9,330.6,171.7,324.8,171.1,318.9z M189,164.9c-25.9,12.8-47.9,32.4-63.7,56.6l62.4,36
	c4.8-6.8,10.6-12.9,17.2-18.1C194.6,216,189.2,190.6,189,164.9z M282.1,26.5c-1.5-1.5-3.3-2.7-5.3-3.4c-6.8-2.4-13.6,2.6-22.4,11.4
	c-46.9,46.9-61.4,132.5-34.3,195.3c3.8-2,7.8-3.7,11.9-5c-19.1-67.5-0.7-147.6,45.5-194C279,29.4,280.5,27.9,282.1,26.5z
	 M293.3,151.7c-1,14-1.6,27.8-2.2,40.7c-0.4,11.5-1,22.5-1.7,32.5c2.7,0.9,5.4,1.9,8,3.1l36-62.3
	C320.7,159.3,307.2,154.6,293.3,151.7z M349,174.6l-36.1,62.5c7.9,5.6,14.8,12.5,20.4,20.4l62.5-36.1
	C383.5,202.8,367.6,186.8,349,174.6L349,174.6z M297.3,391.7c-8.8,4-18.2,6.6-27.8,7.5v72c22.3-1.3,44-7.1,64-17.2L297.3,391.7z
	 M249.7,220.8c3.6-0.5,7.2-0.7,10.8-0.7c3.7,0,7.5,0.3,11.1,0.8c0.5-9.2,1-19,1.5-29.3c0.7-16.2,1.5-33.9,3-51.5v-0.4
	c0-0.1,0.1-0.1,0.1-0.2c0.7-8.9,1.5-17.8,2.7-26.5c0.7-5.6,1.8-12,3-19c3-15.6,4.8-31.5,5.5-47.4
	C247.5,89.4,232.2,160.7,249.7,220.8z M116.2,237c-10.1,19.9-15.9,41.7-17.2,64h72c1-9.6,3.5-19,7.5-27.8L116.2,237z M260.5,238
	c-39.7,0-71.9,32.2-71.9,71.9s32.2,71.9,71.9,71.9s71.9-32.2,71.9-71.9C332.3,270.2,300.2,238.1,260.5,238z M247,318.9
	c-17.4,0-31.4-14.1-31.4-31.4S229.7,256,247,256s31.4,14.1,31.4,31.4S264.4,318.9,247,318.9z M404.7,237l-62.4,36.1
	c5.3,11.6,8,24.1,8,36.8v0.4c24.5,1.8,48.4,8.1,70.6,18.5c0.8-6.3,1.2-12.6,1.3-19C422.2,284.6,416.2,259.6,404.7,237z"/>
<path class="st0" d="M170.9,103.9c2.9-1.3,5-4,5.3-7.2c0.4-3.2-1-6.3-3.6-8.2c-2.6-1.9-6-2.3-8.9-1C52,136.3-6.4,260.3,27.1,377.6
	c0.8,3.1,3.2,5.6,6.4,6.4c3.1,0.8,6.5-0.1,8.7-2.4c2.3-2.3,3.1-5.6,2.2-8.8C13.4,264.2,67.4,149.3,170.9,103.9L170.9,103.9z"/>
<path class="st0" d="M7.3,193.4c2.1,1.1,4.6,1.2,6.9,0.5c2.3-0.8,4.1-2.4,5.2-4.5c34.2-68.3,95.8-118.9,169.4-139.3
	c4.8-1.3,7.6-6.3,6.3-11.1s-6.3-7.6-11.1-6.3C105.5,54.5,39.8,108.5,3.3,181.3C1.1,185.8,2.9,191.2,7.3,193.4z"/>
</svg>
