<?xml version="1.0" encoding="utf-8"?>
<!-- Generator: Adobe Illustrator 23.0.1, SVG Export Plug-In . SVG Version: 6.00 Build 0)  -->
<svg version="1.1" id="Layer_1" xmlns="http://www.w3.org/2000/svg" xmlns:xlink="http://www.w3.org/1999/xlink" x="0px" y="0px"
	 viewBox="0 0 512 372" style="enable-background:new 0 0 512 372;" xml:space="preserve">
<style type="text/css">
	.st0{fill:#FF7925;}
</style>
<path class="st0" d="M212,362h88"/>
<path class="st0" d="M388.2,101L306.7,80l-28.3,28.3l68.2,35.6l27.8,27.8L410,240l28.3-28.3l-20.9-81.5L388.2,101z"/>
<path class="st0" d="M352.9,193.3l81.3-81.3c10.7-10.7,15.6-26,13.1-40.9c-15-2.5-30.2,2.4-40.9,13.1l-81.3,81.3l-23.5-5.4
	l-23.2,23.2l38.1,18.6l18.7,38.2l23.2-23.2L352.9,193.3z"/>
<path class="st0" d="M248.9,322.9c-1.9,1.9-2.9,4.4-2.9,7.1s1.1,5.2,2.9,7.1s4.4,2.9,7.1,2.9s5.2-1.1,7.1-2.9s2.9-4.4,2.9-7.1
	s-1.1-5.2-2.9-7.1s-4.4-2.9-7.1-2.9S250.8,321.1,248.9,322.9z"/>
<path class="st0" d="M64,166.1h168c5.5,0,10-4.5,10-10c0-5.5-4.5-10-10-10H64c-5.5,0-10,4.5-10,10C54,161.6,58.5,166.1,64,166.1z"/>
<path class="st0" d="M64,208.1h168c5.5,0,10-4.5,10-10c0-5.5-4.5-10-10-10H64c-5.5,0-10,4.5-10,10C54,203.6,58.5,208.1,64,208.1z"/>
<path class="st0" d="M232,250.1c5.5,0,10-4.5,10-10c0-5.5-4.5-10-10-10H64c-5.5,0-10,4.5-10,10c0,5.5,4.5,10,10,10H232z"/>
<path class="st0" d="M64,116h168c5.5,0,10-4.5,10-10V58c0-5.5-4.5-10-10-10H64c-5.5,0-10,4.5-10,10v48C54,111.5,58.5,116,64,116z
	 M74,96V68h148v28"/>
<path class="st0" d="M482,0H30C13.5,0,0,13.5,0,30v312c0,16.5,13.5,30,30,30h172h113.7h34.9H431h25.6H482c16.5,0,30-13.5,30-30V30
	C512,13.5,498.5,0,482,0z M20,30c0-5.5,4.5-10,10-10h452c5.5,0,10,4.5,10,10v258H120H90.6H20V30z"/>
</svg>
