<?xml version="1.0" encoding="utf-8"?>
<!-- Generator: Adobe Illustrator 24.2.0, SVG Export Plug-In . SVG Version: 6.00 Build 0)  -->
<svg version="1.1" id="Layer_1" xmlns="http://www.w3.org/2000/svg" xmlns:xlink="http://www.w3.org/1999/xlink" x="0px" y="0px"
	 viewBox="0 0 512 372.8" style="enable-background:new 0 0 512 372.8;" xml:space="preserve">
<style type="text/css">
	.st0{fill:#2F6AA1;}
</style>
<g>
	<path class="st0" d="M391,352c-2.6,0-5.2,1.1-7.1,2.9s-2.9,4.4-2.9,7.1s1.1,5.2,2.9,7.1s4.4,2.9,7.1,2.9s5.2-1.1,7.1-2.9
		s2.9-4.4,2.9-7.1s-1.1-5.2-2.9-7.1S393.6,352,391,352z"/>
	<path class="st0" d="M310,372h40.7c5.5,0,10-4.5,10-10s-4.5-10-10-10H30c-5.5,0-10-4.5-10-10V30c0-5.5,4.5-10,10-10h452
		c5.5,0,10,4.5,10,10v258H90.6c-5.5,0-10,4.5-10,10s4.5,10,10,10H492v34c0,5.5-4.5,10-10,10h-51c-5.5,0-10,4.5-10,10s4.5,10,10,10
		h51c16.5,0,30-13.5,30-30V30c0-16.5-13.5-30-30-30H30C13.5,0,0,13.5,0,30v312c0,16.5,13.5,30,30,30h172 M222,372h68"/>
	<path class="st0" d="M248.9,322.9c-1.9,1.9-2.9,4.4-2.9,7.1s1.1,5.2,2.9,7.1s4.4,2.9,7.1,2.9s5.2-1.1,7.1-2.9s2.9-4.4,2.9-7.1
		s-1.1-5.2-2.9-7.1s-4.4-2.9-7.1-2.9S250.8,321.1,248.9,322.9z"/>
	<path class="st0" d="M42.9,290.9c-1.9,1.9-2.9,4.4-2.9,7.1s1.1,5.2,2.9,7.1s4.4,2.9,7.1,2.9s5.2-1.1,7.1-2.9s2.9-4.4,2.9-7.1
		s-1.1-5.2-2.9-7.1S52.6,288,50,288S44.8,289.1,42.9,290.9z"/>
	<path class="st0" d="M303.8,150.3c-3.4-0.8-6.9,0.2-9.3,2.7l-23.2,23.2c-2.3,2.3-3.3,5.5-2.8,8.7s2.6,5.9,5.5,7.3l35,17.1
		l17.2,35.1c1.4,2.9,4.2,4.9,7.3,5.5c0.6,0.1,1.1,0.1,1.6,0.1c2.6,0,5.2-1,7.1-2.9l23.2-23.2c2.4-2.4,3.4-6,2.7-9.3l-4.2-18.1l8-8
		l29.3,56.2c1.5,2.8,4.2,4.8,7.3,5.3c0.5,0.1,1,0.1,1.5,0.1c2.6,0,5.2-1,7.1-2.9l28.3-28.3c2.5-2.5,3.5-6.1,2.6-9.6l-19.8-77.1
		l13.1-13.1c13-13,18.9-31.6,15.9-49.7c-0.7-4.2-4-7.5-8.2-8.2c-18.1-3-36.7,2.9-49.7,15.9l-13.1,13.1l-77.1-19.8
		c-3.4-0.9-7.1,0.1-9.6,2.6l-28.3,28.3c-2.3,2.3-3.3,5.4-2.8,8.6c0.5,3.1,2.4,5.9,5.3,7.4l56.2,29.3l-8,8L303.8,150.3z M427.2,208.7
		l-14.6,14.6l-25.9-49.6l25.1-25.1L427.2,208.7z M295.1,105.8l14.6-14.6l60.1,15.4l-25.1,25.1L295.1,105.8z M332.2,172.5l81.3-81.3
		c6.6-6.6,15.4-10.4,24.5-10.8c-0.4,9.1-4.2,17.9-10.8,24.5l-59.7,59.7c0,0,0,0.1-0.1,0.1l-21.5,21.5c-2.4,2.4-3.4,6-2.7,9.3
		l4.2,18.1L338,223l-12.5-25.6c-1-2-2.6-3.6-4.6-4.6l-25.5-12.4l9.4-9.4l18.1,4.2C326.2,175.9,329.7,174.9,332.2,172.5z"/>
	<path class="st0" d="M64,166.1h168c5.5,0,10-4.5,10-10s-4.5-10-10-10H64c-5.5,0-10,4.5-10,10S58.5,166.1,64,166.1z"/>
	<path class="st0" d="M64,208.1h168c5.5,0,10-4.5,10-10s-4.5-10-10-10H64c-5.5,0-10,4.5-10,10S58.5,208.1,64,208.1z"/>
	<path class="st0" d="M232,250.1c5.5,0,10-4.5,10-10s-4.5-10-10-10H64c-5.5,0-10,4.5-10,10s4.5,10,10,10H232z"/>
	<path class="st0" d="M64,116h168c5.5,0,10-4.5,10-10V58c0-5.5-4.5-10-10-10H64c-5.5,0-10,4.5-10,10v48C54,111.5,58.5,116,64,116z
		 M74,68h148v28H74V68z"/>
</g>
</svg>
