<?xml version="1.0" encoding="utf-8"?>
<!-- Generator: Adobe Illustrator 23.0.1, SVG Export Plug-In . SVG Version: 6.00 Build 0)  -->
<svg version="1.1" id="Layer_1" xmlns="http://www.w3.org/2000/svg" xmlns:xlink="http://www.w3.org/1999/xlink" x="0px" y="0px"
	 viewBox="0 0 512 512" style="enable-background:new 0 0 512 512;" xml:space="preserve">
<style type="text/css">
	.st0{fill:#FF7925;}
</style>
<g>
	<g>
		<path class="st0" d="M502,492c-5.5,0-10,4.5-10,10s4.5,10,10,10s10-4.5,10-10S507.5,492,502,492z"/>
		<path class="st0" d="M423,0c-28.1,0-51,22.9-51,51v45.7l-61.5,85H168c-16.5,0-30,13.5-30,30s13.5,30,30,30h99.1l-22,30.3H108
			c-38.6,0-70,31.4-70,70s31.4,70,70,70h128.2l14.6,40H128c-16.5,0-30,13.5-30,30c0,3.5,0.6,6.9,1.7,10H10c-5.5,0-10,4.5-10,10
			s4.5,10,10,10h452c5.5,0,10-4.5,10-10s-4.5-10-10-10H316.3c1.1-3.1,1.7-6.5,1.7-10v-20c0-1.2-0.2-2.4-0.6-3.5L300.2,412h7.8l0,0
			c0,0,0,0,0,0c3.7,0,7.1-2.1,8.9-5.4l156-301c0.7-1.4,1.1-3,1.1-4.6c0-0.2,0-0.4,0-0.6c0-0.1,0-0.3,0-0.4V51
			C474,22.9,451.1,0,423,0z"/>
	</g>
</g>
</svg>
