<?xml version="1.0" encoding="utf-8"?>
<!-- Generator: Adobe Illustrator 23.0.1, SVG Export Plug-In . SVG Version: 6.00 Build 0)  -->
<svg version="1.1" id="Layer_1" xmlns="http://www.w3.org/2000/svg" xmlns:xlink="http://www.w3.org/1999/xlink" x="0px" y="0px"
	 viewBox="0 0 1091 1091" style="enable-background:new 0 0 1091 1091;" xml:space="preserve">
<style type="text/css">
	.st0{fill:#FF7925;}
</style>
<g id="surface1">
	<path class="st0" d="M863.7,395.1c-72.9-29.1-150.7-44-229.2-43.9h-11v77.9h206.2L863.7,395.1z"/>
	<path class="st0" d="M233.8,468.1c-73.2,0-145.1,19.1-208.7,55.4C9.6,532.4,0,548.8,0,566.7v96.2h39C39,598.3,91.3,546,155.9,546
		c64.5,0,116.9,52.3,116.9,116.9h311.7V468.1H233.8z M448.1,487.5H526v39h-77.9V487.5z"/>
	<path class="st0" d="M155.9,585c-43,0-77.9,34.9-77.9,77.9c0,43,34.9,77.9,77.9,77.9c43,0,77.9-34.9,77.9-77.9
		C233.8,619.8,198.9,585,155.9,585z"/>
	<path class="st0" d="M310.2,429.1h274.3V352c-94.7,4.1-187.2,29.8-270.5,75.1L310.2,429.1z"/>
	<path class="st0" d="M1091,487.5v-22.1l-119.7-17.1c-2.7-0.4-5.3-1.3-7.5-2.8c-19.9-12.4-40.6-23.7-61.8-33.8l-50.5,50.5
		c-3.7,3.7-8.6,5.7-13.8,5.7H623.4v194.8h155.9c0.1-64.5,52.4-116.8,116.9-116.9c4,0,8,0.2,11.9,0.6c1.4,0.1,2.8,0.4,4.3,0.6
		c2.4,0.4,4.9,0.6,7.3,1.1c1.5,0.3,2.9,0.8,4.4,1.1c2.3,0.6,4.5,1,6.8,1.7c1.7,0.5,3.2,1.2,4.9,1.8c1.6,0.6,3.9,1.3,5.9,2.1
		c1.9,0.8,3.2,1.5,4.8,2.3c1.6,0.8,3.6,1.6,5.3,2.6c1.7,0.9,3.1,1.8,4.6,2.8c1.5,0.9,3.4,1.9,5,3c1.6,1.1,3,2.2,4.5,3.3
		c1.5,1.1,3,2.2,4.5,3.4c1.4,1.2,2.8,2.6,4.3,3.9c1.4,1.3,2.7,2.4,4,3.6c1.3,1.3,2.6,2.8,3.9,4.2c1.3,1.4,2.5,2.6,3.6,3.9
		c1.1,1.3,2.4,3.1,3.5,4.6c1.2,1.6,2.2,2.8,3.2,4.3c1,1.5,1.9,3.3,3.1,4.9c1.1,1.7,1.9,3.1,2.8,4.7c0.9,1.6,1.7,3.4,2.5,5.1
		c0.8,1.7,1.7,3.3,2.4,5c0.7,1.7,1.4,3.6,2,5.4c0.6,1.8,1.4,3.5,1.9,5.3c0.6,1.8,1,3.7,1.5,5.5c0.5,1.8,1,3.7,1.5,5.6
		c0.4,1.9,0.6,3.8,0.9,5.7c0.3,1.9,0.7,3.9,0.9,5.9c0.2,1.9,0.2,3.9,0.3,5.8c0.1,2,0.3,3.6,0.4,5.4l55.9-22.4
		c13.4-5.3,22.2-18.2,22.1-32.6v-79.9h-58.4v-39H1091z"/>
	<path class="st0" d="M896.2,585c-43,0-77.9,34.9-77.9,77.9c0,43,34.9,77.9,77.9,77.9c43,0,77.9-34.9,77.9-77.9
		C974.1,619.8,939.2,585,896.2,585z"/>
</g>
</svg>
