<?xml version="1.0" encoding="utf-8"?>
<!-- Generator: Adobe Illustrator 23.0.1, SVG Export Plug-In . SVG Version: 6.00 Build 0)  -->
<svg version="1.1" id="Layer_1" xmlns="http://www.w3.org/2000/svg" xmlns:xlink="http://www.w3.org/1999/xlink" x="0px" y="0px"
	 viewBox="0 0 512 512" style="enable-background:new 0 0 512 512;" xml:space="preserve">
<style type="text/css">
	.st0{fill:#FF7925;}
</style>
<path class="st0" d="M256,10C120.1,10,10,120.1,10,256s110.1,246,246,246s246-110.1,246-246S391.9,10,256,10z M256,70
	c74.9,0,139.6,44.5,169.1,108.5c-55.6-11-112.4-16.6-169.1-16.6c-56.7,0-113.5,5.6-169.1,16.6C116.4,114.5,181.1,70,256,70z
	 M122.4,281.7c-5.9-31-0.7-63.8,14.5-91.4c39.4-5.6,79.3-8.4,119.1-8.4c39.8,0,79.6,2.8,119.1,8.4c15.2,27.6,20.4,60.4,14.5,91.4
	c-45.6,18.4-81,57.1-95,104.8c-25,7.4-52,7.4-77.1,0C203.5,338.8,168.1,300.1,122.4,281.7z M204,432c0,0.9,0,1.7,0,2.6
	c-66.6-19.4-117.8-75.1-130.8-144.1C146.3,296.2,204,357.5,204,432z M308,434.6c0-0.9,0-1.7,0-2.6c0-74.5,57.7-135.8,130.8-141.6
	C425.8,359.5,374.6,415.2,308,434.6z"/>
<path class="st0" d="M206,256c0,27.6,22.4,50,50,50s50-22.4,50-50s-22.4-50-50-50S206,228.4,206,256z"/>
</svg>
