<?xml version="1.0" encoding="utf-8"?>
<!-- Generator: Adobe Illustrator 23.0.1, SVG Export Plug-In . SVG Version: 6.00 Build 0)  -->
<svg version="1.1" id="Layer_1" xmlns="http://www.w3.org/2000/svg" xmlns:xlink="http://www.w3.org/1999/xlink" x="0px" y="0px"
	 viewBox="0 0 512 512" style="enable-background:new 0 0 512 512;" xml:space="preserve">
<style type="text/css">
	.st0{fill:#FF7925;}
</style>
<g id="XMLID_1710_">
	<path class="st0" d="M174.3,160H69.8c-10.9,0-19.8,8.8-19.8,19.8v104.5c0,10.9,8.8,19.8,19.8,19.8h104.5c10.9,0,19.8-8.8,19.8-19.8
		V179.8C194,168.8,185.2,160,174.3,160z M65.6,299.9c0-29.7,22.9-53.9,52-56.2v-0.6c-11.6-2.1-20.4-12.2-20.4-24.4
		c0-13.7,11.1-24.8,24.8-24.8s24.8,11.1,24.8,24.8c0,12.2-8.8,22.3-20.4,24.4v0.6c29.1,2.2,52,26.5,52,56.2H65.6z"/>
	<path class="st0" d="M462,54h-41.7h-21.8h-80H256H50C22.4,54,0,76.4,0,104v304c0,27.6,22.4,50,50,50h412c27.6,0,50-22.4,50-50V104
		C512,76.4,489.6,54,462,54z M492,382H326.4h-26.7h-80H187H20V130h472V382z"/>
	<path class="st0" d="M307.4,251.2l-0.7-0.7c-3.9-3.9-10.2-3.9-14.1,0c-3.9,3.9-3.9,10.2,0,14.1l2.6,2.6
		c-6.2,5.1-10.2,12.9-10.2,21.5v40.4c0,5.5,4.5,10,10,10h18.6v0v4.9c0,5.5,4.5,10,10,10c5.5,0,10-4.5,10-10v-4.9h78.9v4.9
		c0,5.5,4.5,10,10,10c5.5,0,10-4.5,10-10v-4.9H451c5.5,0,10-4.5,10-10v-40.4c0-8.7-4-16.4-10.2-21.5l2.6-2.6
		c3.9-3.9,3.9-10.2,0-14.1c-3.9-3.9-10.2-3.9-14.1,0l-0.7,0.7l-5.6-22.7c-3.2-13.1-14.8-22.2-28.3-22.2h-63.4
		c-13.5,0-25.1,9.1-28.3,22.2L307.4,251.2z M426.7,292.9c1.9,1.9,2.9,4.4,2.9,7.1s-1.1,5.2-2.9,7.1c-1.9,1.9-4.4,2.9-7.1,2.9
		c-2.6,0-5.2-1.1-7.1-2.9c-1.9-1.9-2.9-4.4-2.9-7.1s1.1-5.2,2.9-7.1c1.9-1.9,4.4-2.9,7.1-2.9C422.3,290,424.8,291,426.7,292.9z
		 M332.4,233.3c1-4.1,4.7-7,8.9-7h63.4c4.2,0,7.9,2.9,8.9,7l6.8,27.5h-94.6L332.4,233.3z M319.3,292.9c1.9-1.9,4.4-2.9,7.1-2.9
		c2.6,0,5.2,1.1,7.1,2.9c1.9,1.9,2.9,4.4,2.9,7.1c0,2.6-1.1,5.2-2.9,7.1c-1.9,1.9-4.4,2.9-7.1,2.9c-2.6,0-5.2-1.1-7.1-2.9
		c-1.9-1.9-2.9-4.4-2.9-7.1S317.5,294.7,319.3,292.9z"/>
	<path class="st0" d="M234,178h72.3c5.5,0,10-4.5,10-10s-4.5-10-10-10H234c-5.5,0-10,4.5-10,10S228.5,178,234,178z"/>
	<path class="st0" d="M234,224h25c5.5,0,10-4.5,10-10s-4.5-10-10-10h-25c-5.5,0-10,4.5-10,10S228.5,224,234,224z"/>
	<path class="st0" d="M234,270h25c5.5,0,10-4.5,10-10s-4.5-10-10-10h-25c-5.5,0-10,4.5-10,10S228.5,270,234,270z"/>
	<path class="st0" d="M346.4,178h72.3c5.5,0,10-4.5,10-10s-4.5-10-10-10h-72.3c-5.5,0-10,4.5-10,10S340.9,178,346.4,178z"/>
	<path class="st0" d="M50,354.3h46.9c5.5,0,10-4.5,10-10s-4.5-10-10-10H50c-5.5,0-10,4.5-10,10S44.5,354.3,50,354.3z"/>
	<path class="st0" d="M147,354.3h47c5.5,0,10-4.5,10-10s-4.5-10-10-10h-47c-5.5,0-10,4.5-10,10S141.5,354.3,147,354.3z"/>
</g>
</svg>
