<?xml version="1.0" encoding="utf-8"?>
<!-- Generator: Adobe Illustrator 23.0.1, SVG Export Plug-In . SVG Version: 6.00 Build 0)  -->
<svg version="1.1" id="Capa_1" xmlns="http://www.w3.org/2000/svg" xmlns:xlink="http://www.w3.org/1999/xlink" x="0px" y="0px"
	 viewBox="0 0 512 512" style="enable-background:new 0 0 512 512;" xml:space="preserve">
<style type="text/css">
	.st0{fill:#FF7925;}
</style>
<rect x="136.5" y="460.8" class="st0" width="17.1" height="17.1"/>
<rect x="102.4" y="460.8" class="st0" width="17.1" height="17.1"/>
<rect x="68.3" y="460.8" class="st0" width="17.1" height="17.1"/>
<rect x="392.5" y="68.3" class="st0" width="17.1" height="17.1"/>
<rect x="358.4" y="85.3" class="st0" width="17.1" height="17.1"/>
<path class="st0" d="M503.5,0H298.7c-4.7,0-8.5,3.8-8.5,8.5v51.2H110.9c-4.1,0-7.7,3-8.4,7.1L69.6,256h-9.9v-59.7
	c0-4.7-3.8-8.5-8.5-8.5H8.5c-4.7,0-8.5,3.8-8.5,8.5v34.1c0,4.7,3.8,8.5,8.5,8.5h34.1V256C19.1,256,0,275.1,0,298.7v68.3
	c0,20.3,14.3,37.7,34.1,41.8v94.7c0,4.7,3.8,8.5,8.5,8.5h136.5c4.7,0,8.5-3.8,8.5-8.5v-93.9h179.2v68.3c0,18.8,15.3,34.1,34.1,34.1
	c18.9,0,34.1-15.3,34.1-34.1V238.9h34.1c23.6,0,42.6-19.1,42.7-42.7V8.5C512,3.8,508.2,0,503.5,0z M76.8,298.7
	c18.9,0,34.1,15.3,34.1,34.1s-15.3,34.1-34.1,34.1s-34.1-15.3-34.1-34.1S57.9,298.7,76.8,298.7z M170.7,494.9H51.2v-85.3h17.1v34.1
	h17.1v-34.1h17.1v34.1h17.1v-34.1h17.1v34.1h17.1v-34.1h17.1V494.9z M366.9,358.4H153.6v-17.1h213.3V358.4z M366.9,324.3H153.6
	v-17.1h213.3V324.3z M366.9,256H129.5l22.8-136.5h137.8v76.8c0,23.6,19.1,42.6,42.7,42.7h34.1V256z M494.9,136.5H307.2V17.1h17.1
	v93.9h17.1V17.1h17.1v51.2h17.1V17.1h17.1v34.1h17.1V17.1h17.1v93.9h17.1V17.1h17.1v76.8h17.1V17.1h17.1V136.5z"/>
</svg>
