<?xml version="1.0" encoding="utf-8"?>
<!-- Generator: Adobe Illustrator 23.0.1, SVG Export Plug-In . SVG Version: 6.00 Build 0)  -->
<svg version="1.1" id="Layer_1" xmlns="http://www.w3.org/2000/svg" xmlns:xlink="http://www.w3.org/1999/xlink" x="0px" y="0px"
	 viewBox="0 0 464 464" style="enable-background:new 0 0 464 464;" xml:space="preserve">
<style type="text/css">
	.st0{fill:#FF7925;}
</style>
<path class="st0" d="M416,296h16v16h-16V296z"/>
<path class="st0" d="M456,24H254.9c-47,0-92.1,22.2-120.6,59.5L31.4,217.8C11.1,244.2,0,277,0,310.3V360h464V32
	C464,27.6,460.4,24,456,24z M448,312c0,8.8-7.2,16-16,16h-64c-8.8,0-16-7.2-16-16v-16c0-8.8,7.2-16,16-16h64c8.8,0,16,7.2,16,16V312
	z M448,264H80c-13.2,0-24-10.8-24-24v-32c0-12.7,9.9-23,22.4-23.8L147,93.8C172.6,60.1,213.1,40,255.3,40H448V264z"/>
<path class="st0" d="M0,392h32v16H0v24c0,4.4,3.6,8,8,8h448c4.4,0,8-3.6,8-8v-24H48v-16h416v-16H0V392z"/>
<path class="st0" d="M368,296h32v16h-32V296z"/>
<path class="st0" d="M72,208v32c0,4.4,3.6,8,8,8h48c13.2,0,24-10.8,24-24v-24H80C75.6,200,72,203.6,72,208z"/>
<path class="st0" d="M159.8,103.5L98.6,184H168v40c0,9-3.1,17.3-8.2,24H432V56H255.3C218,56,182.3,73.7,159.8,103.5z"/>
</svg>
