<?xml version="1.0" encoding="utf-8"?>
<!-- Generator: Adobe Illustrator 23.0.1, SVG Export Plug-In . SVG Version: 6.00 Build 0)  -->
<svg version="1.1" id="Capa_1" xmlns="http://www.w3.org/2000/svg" xmlns:xlink="http://www.w3.org/1999/xlink" x="0px" y="0px"
	 viewBox="0 0 512 512" style="enable-background:new 0 0 512 512;" xml:space="preserve">
<style type="text/css">
	.st0{fill:#FF7925;}
</style>
<path class="st0" d="M509.5,455.5c-3.6-4.2-9.9-4.6-14.1-1c-10.7,9.3-20.5,18.9-34.5,22.8c-15.6,4.3-30.3,0.9-44.4-6.1l52.1-175.2
	c1.3-4.4-0.5-9-4.4-11.4L416,255.3V170c0-5.5-4.5-10-10-10h-20v-30c0-5.5-4.5-10-10-10h-31.5V90c0-5.5-4.5-10-10-10H286V10
	c0-5.5-4.5-10-10-10h-40c-5.5,0-10,4.5-10,10v70h-48.5c-5.5,0-10,4.5-10,10v30H136c-5.5,0-10,4.5-10,10v30h-20c-5.5,0-10,4.5-10,10
	v85.3l-48.2,29.2c-3.9,2.4-5.7,7-4.4,11.4c0,0,52,174.8,52,174.9c-0.9-3-16.9-4.9-19.7-5.3c-29.1-3.8-51.3,10.8-72.2,29.1
	c-4.2,3.6-4.6,9.9-1,14.1c3.5,4,9.9,4.6,14.1,1c21.6-18.8,46-33.1,74.6-18.8c25.9,12.9,52.6,18.5,79.6,4.3
	c21.7-11.4,42.7-21.3,66.9-9.8l24.9,11.9c21.3,10.2,45.7,9.9,66.8-0.6c13-6.5,26.2-15.2,41.1-16.2c14.6-1,28.7,4.4,41.5,10.8
	c16.9,8.5,36.7,10.1,54.9,5c16.7-4.8,28.9-15.4,41.7-26.6C512.7,465.9,513.2,459.6,509.5,455.5z"/>
</svg>
