<?xml version="1.0" encoding="utf-8"?>
<!-- Generator: Adobe Illustrator 23.0.1, SVG Export Plug-In . SVG Version: 6.00 Build 0)  -->
<svg version="1.1" id="Capa_1" xmlns="http://www.w3.org/2000/svg" xmlns:xlink="http://www.w3.org/1999/xlink" x="0px" y="0px"
	 viewBox="0 0 512 512" style="enable-background:new 0 0 512 512;" xml:space="preserve">
<style type="text/css">
	.st0{fill:#FF7925;}
</style>
<path class="st0" d="M501.6,235.9c-6.1-5.1-14.1-7.2-21.9-5.8l-36.7,6.6V249h-6.2c-1.8-44.4-19.7-84.8-47.9-115.5l4.5-4.5l8.6,8.6
	l30.6-21.2c6.5-4.5,10.7-11.7,11.4-19.6c0.7-7.9-2.1-15.7-7.7-21.3c-5.6-5.6-13.4-8.4-21.3-7.7c-7.9,0.7-15.1,4.9-19.6,11.4
	L374,109.8l8.6,8.6l-4.5,4.5c-30.7-28.3-71-46.1-115.5-47.9v-6.2h12.2l6.6-36.7c1.4-7.8-0.7-15.8-5.8-21.9s-12.6-9.6-20.6-9.6
	c-8,0-15.5,3.5-20.6,9.6c-5.1,6.1-7.2,14.1-5.8,21.9l6.6,36.7h12.2V75c-13.2,0.5-26.3,2.5-38.9,5.8l-0.3,0.1l-15,4.7
	c-4.9,1.8-9.8,3.8-14.5,6l-13.9,7.2c-4.5,2.6-9,5.4-13.2,8.4c-7,4.8-13.5,10.1-19.7,15.8l-4.5-4.5l8.6-8.6l-21.2-30.6
	c-4.5-6.5-11.7-10.7-19.6-11.4c-7.9-0.7-15.7,2.1-21.3,7.7c-5.6,5.6-8.4,13.4-7.7,21.3c0.7,7.9,4.9,15.1,11.4,19.6l30.6,21.2
	l8.6-8.6l4.5,4.5C92.7,164.9,75.5,205.8,73.7,249h-6.3v-12.2l-36.7-6.6c-7.8-1.4-15.8,0.7-21.9,5.8c-6.1,5.1-9.6,12.6-9.6,20.6
	c0,8,3.5,15.5,9.6,20.6c4.9,4.1,10.9,6.2,17.2,6.2c1.6,0,3.2-0.1,4.8-0.4l36.7-6.6V264h6.2c1.8,44.4,19.7,84.8,47.9,115.5l-4.5,4.5
	l-8.6-8.6l-30.6,21.2c-6.5,4.5-10.7,11.7-11.4,19.6c-0.7,7.9,2.1,15.7,7.7,21.3c5.1,5.1,11.8,7.8,18.9,7.8c0.8,0,1.6,0,2.4-0.1
	c7.9-0.7,15.1-4.9,19.6-11.4l21.2-30.6l-8.6-8.6l4.5-4.5c30.7,28.3,71,46.1,115.5,47.9v6.2h-12.2l-6.6,36.7
	c-1.4,7.8,0.7,15.8,5.8,21.9c5.1,6.1,12.6,9.6,20.6,9.6c8,0,15.5-3.5,20.6-9.6c5.1-6.1,7.2-14.1,5.8-21.9l-6.6-36.7h-12.2V438
	c44.4-1.8,84.8-19.7,115.5-47.9l4.5,4.5l-8.6,8.6l21.2,30.6c4.5,6.5,11.7,10.7,19.6,11.4c0.8,0.1,1.6,0.1,2.4,0.1
	c7.1,0,13.9-2.8,18.9-7.8c5.6-5.6,8.4-13.4,7.7-21.3c-0.7-7.9-4.9-15.1-11.4-19.6l-30.6-21.2l-8.6,8.6l-4.5-4.5
	c28.2-30.7,46.1-71,47.9-115.5h6.2v12.2l36.7,6.6c1.6,0.3,3.2,0.4,4.8,0.4c6.2,0,12.3-2.2,17.2-6.2c6.1-5.1,9.6-12.6,9.6-20.6
	C511.2,248.5,507.7,241,501.6,235.9z M375.7,249l-58.4,0c-1.4-11.7-6-22.3-12.9-31.1l41-41C362.9,196.3,374,221.4,375.7,249z
	 M262.7,136.8c27.5,1.7,52.5,12.5,72,29.5l-40.9,40.9c-8.8-6.9-19.5-11.5-31.1-12.9V136.8z M247.7,136.8v57.5
	c-11.7,1.4-22.3,6-31.1,12.9l-40.9-40.9C195.2,149.3,220.2,138.5,247.7,136.8z M165,176.9l41,41c-6.9,8.8-11.5,19.5-12.9,31.1
	l-58.4,0C136.4,221.4,147.6,196.3,165,176.9z M134.7,264l58.4,0c1.4,11.7,6,22.3,12.9,31.1l-41,41
	C147.6,316.7,136.4,291.6,134.7,264z M247.7,376.2c-27.5-1.7-52.5-12.5-72-29.5l40.9-40.9c8.8,6.9,19.5,11.5,31.1,12.9V376.2z
	 M255.2,285.8c-16.1,0-29.3-13.1-29.3-29.3c0-6.8,2.4-13.4,6.7-18.6l11.6,9.6c-2.1,2.6-3.3,5.7-3.3,9.1c0,7.9,6.4,14.3,14.3,14.3
	c7.9,0,14.3-6.4,14.3-14.3c0-7.9-6.4-14.3-14.3-14.3c-0.9,0-1.8,0.1-2.7,0.3l-2.9-14.7c1.8-0.4,3.7-0.5,5.6-0.5
	c16.1,0,29.3,13.1,29.3,29.3C284.5,272.6,271.4,285.8,255.2,285.8z M310.8,363c-4.1,2.1-8.4,4-12.7,5.7l-13.3,4.2
	c-2.3,0.6-4.6,1.1-6.9,1.5v0c-5,0.9-10,1.6-15.1,1.9v-57.5c11.7-1.4,22.3-6,31.1-12.9l40.9,40.9c-2,1.7-4.1,3.4-6.2,5.1l0,0
	c-1.9,1.4-3.8,2.8-5.7,4.1L310.8,363z M345.5,336.1l-41-41c6.9-8.8,11.5-19.5,12.9-31.1l58.4,0C374.1,291,363.4,316.2,345.5,336.1z"
	/>
</svg>
