<?xml version="1.0" encoding="utf-8"?>
<!-- Generator: Adobe Illustrator 23.0.1, SVG Export Plug-In . SVG Version: 6.00 Build 0)  -->
<svg version="1.1" id="Layer_1" xmlns="http://www.w3.org/2000/svg" xmlns:xlink="http://www.w3.org/1999/xlink" x="0px" y="0px"
	 viewBox="0 0 512 512" style="enable-background:new 0 0 512 512;" xml:space="preserve">
<style type="text/css">
	.st0{fill:#FF7925;}
</style>
<g id="Page-1">
	<g>
		<path id="Shape" class="st0" d="M348.7,397.2h75c19.5,0,35.3-15.8,35.3-35.3v-1.8c0-1.3-0.5-2.5-1.5-3.3c-0.9-0.8-2.2-1.2-3.5-1.1
			l-105.9,12.5c-2.2,0.3-3.9,2.2-3.9,4.4v20.2C344.3,395.3,346.3,397.2,348.7,397.2z"/>
		<path id="Rectangle-path" class="st0" d="M225.1,176.6h220.7c2.4,0,4.4,2,4.4,4.4v8.8c0,2.4-2,4.4-4.4,4.4H225.1
			c-2.4,0-4.4-2-4.4-4.4V181C220.7,178.5,222.7,176.6,225.1,176.6z"/>
		<path class="st0" d="M401.7,317.8h-10.9c-2.2,0-4,1.6-4.4,3.7l-3.2,19.3c-0.2,1.4,0.2,2.8,1.2,3.8c1,1,2.3,1.5,3.7,1.3l14.1-1.7
			c2.2-0.3,3.9-2.2,3.9-4.4v-17.6c0-1.2-0.5-2.3-1.3-3.1C404,318.3,402.8,317.8,401.7,317.8L401.7,317.8z"/>
		<path class="st0" d="M439.9,317.8h-11.7c-2.4,0-4.4,2-4.4,4.4v14.5c0,1.3,0.5,2.5,1.5,3.3c0.9,0.8,2.2,1.2,3.5,1.1l14.9-1.8
			c1.3-0.1,2.4-0.8,3.1-1.9c0.7-1,1-2.3,0.7-3.6l-3.2-12.7C443.7,319.2,441.9,317.8,439.9,317.8L439.9,317.8z"/>
		<path class="st0" d="M79.4,361.9c-4.9,0-8.8,4-8.8,8.8v8.8c0,6.3,3.4,12.1,8.8,15.3c5.5-3.2,8.8-9,8.8-15.3v-8.8
			C88.3,365.9,84.3,361.9,79.4,361.9z"/>
		<path class="st0" d="M61.8,291.3c0-14.7,7.3-28.4,19.5-36.6c-10.3-10-13.5-25.3-8.1-38.6c5.4-13.3,18.3-22,32.7-22
			s27.3,8.7,32.7,22s2.2,28.6-8.1,38.6c12.2,8.2,19.5,21.9,19.5,36.6v13.2c0,2.4,2,4.4,4.4,4.4h8.8c2.4,0,4.4-2,4.4-4.4V181
			c0-2.4-2-4.4-4.4-4.4H48.6c-2.4,0-4.4,2-4.4,4.4v123.6c0,2.4,2,4.4,4.4,4.4h8.8c2.4,0,4.4-2,4.4-4.4V291.3z"/>
		<path class="st0" d="M100.6,265.3c-12.6,2.8-21.4,14.1-21.2,27v12.2c0,2.4,2,4.4,4.4,4.4H128c2.4,0,4.4-2,4.4-4.4v-13.2
			c0-8-3.6-15.5-9.7-20.5C116.5,265.8,108.4,263.8,100.6,265.3L100.6,265.3z"/>
		<path class="st0" d="M0,423.7c0,9.8,7.9,17.7,17.7,17.7h476.7c9.8,0,17.7-7.9,17.7-17.7V141.2H0V423.7z M176.6,414.9H88.3
			c-3,0-5.9-0.4-8.8-1.1c-2.9,0.7-5.9,1.1-8.8,1.1H44.1c-4.9,0-8.8-4-8.8-8.8s4-8.8,8.8-8.8h13.6c-3.1-5.4-4.8-11.5-4.7-17.7v-8.8
			c0-14.6,11.9-26.5,26.5-26.5s26.5,11.9,26.5,26.5v8.8c0,6.2-1.6,12.3-4.7,17.7h75.4c4.9,0,8.8,4,8.8,8.8S181.4,414.9,176.6,414.9z
			 M485.5,343.2c0.6,4.8-2.9,9.2-7.7,9.8l-1,0.1v8.8c0,29.2-23.7,52.9-53,53h-79.4c-9.8,0-17.7-7.9-17.7-17.7v-26.5
			c-4.7,0-8.5-3.7-8.8-8.3c-0.3-4.7,3.1-8.7,7.8-9.3l38.4-4.5l5.3-31.2c-4.2-0.7-7.2-4.3-7.3-8.5c0-4.9,4-8.8,8.8-8.8H459
			c4.9,0,8.8,4,8.8,8.8c0,3.9-2.7,7.3-6.5,8.4l4.8,19.3l9.4-1.1C480.5,334.9,484.9,338.4,485.5,343.2z M203,176.6
			c0-9.8,7.9-17.7,17.7-17.7h229.5c9.8,0,17.7,7.9,17.7,17.7v17.7c0,9.8-7.9,17.7-17.7,17.7H220.7c-9.8,0-17.7-7.9-17.7-17.7V176.6z
			 M211.9,229.5h238.3c4.9,0,8.8,4,8.8,8.8s-4,8.8-8.8,8.8H211.9c-4.9,0-8.8-4-8.8-8.8S207,229.5,211.9,229.5z M211.9,264.8h238.3
			c4.9,0,8.8,4,8.8,8.8s-4,8.8-8.8,8.8H211.9c-4.9,0-8.8-4-8.8-8.8S207,264.8,211.9,264.8z M211.9,300.1H309c4.9,0,8.8,4,8.8,8.8
			s-4,8.8-8.8,8.8h-97.1c-4.9,0-8.8-4-8.8-8.8S207,300.1,211.9,300.1z M26.5,176.6c0-9.8,7.9-17.7,17.7-17.7h123.6
			c9.8,0,17.7,7.9,17.7,17.7V309c0,9.8-7.9,17.7-17.7,17.7H44.1c-9.8,0-17.7-7.9-17.7-17.7V176.6z"/>
		<path class="st0" d="M494.3,70.6H17.7C7.9,70.6,0,78.5,0,88.3v35.3h512V88.3C512,78.5,504.1,70.6,494.3,70.6z"/>
		<circle id="Oval" class="st0" cx="105.9" cy="229.5" r="17.7"/>
	</g>
</g>
</svg>
