<?xml version="1.0" encoding="utf-8"?>
<!-- Generator: Adobe Illustrator 23.0.1, SVG Export Plug-In . SVG Version: 6.00 Build 0)  -->
<svg version="1.1" id="Layer_1" xmlns="http://www.w3.org/2000/svg" xmlns:xlink="http://www.w3.org/1999/xlink" x="0px" y="0px"
	 viewBox="0 0 512 512" style="enable-background:new 0 0 512 512;" xml:space="preserve">
<style type="text/css">
	.st0{fill:#FF7925;}
</style>
<path class="st0" d="M511.5,385.7c-1.5-7.2-6.2-13.4-12.9-16.7l-18.7-9.4c0,0,0,0,0,0l-7.6-3.8c-4.5-2.3-7.7-6.5-8.7-11.4
	c0,0,0.1,0,0.1,0c-0.2-1-0.4-2-0.4-3c0,0,0,0,0-0.1l0-14.7c13.1-7.6,22.3-21.1,24.1-36.8c5.3-8.7,8.4-18.9,8.4-29.8
	c0-19.6-9.9-36.9-25-47.1c0.4-1.8,0.7-3.7,0.7-5.7c0-15.7-14.6-28.4-32.5-28.4s-32.5,12.7-32.5,28.4c0,1.9,0.2,3.8,0.7,5.7
	c-15.1,10.2-25,27.5-25,47.1c0,11,3.1,21.2,8.5,29.9c0,0.3,0,0.5,0,0.8c2,15.4,11.1,28.5,24,35.9v14.7c0,1.1-0.2,2.1-0.4,3.1
	c0,0,0.1,0,0.1,0c-1,4.9-4.1,9.1-8.7,11.4l-7.6,3.8c0,0,0,0,0,0l-15.3,7.6c-1.2-0.7-2.5-1.4-3.8-2L328.4,343c0,0,0,0,0,0l-5.7-2.5
	c25.2-6.9,44.9-16.1,54-20.7c3.2-1.6,4.9-5.1,4.4-8.6c-2.5-15.1-9.3-60.2-15.2-140.5C360.9,105.3,318.4,65,260.1,65
	c-58.3,0-100.8,40.3-105.7,105.7c-5.9,80.3-12.7,125.5-15.2,140.5c-0.6,3.5,1.2,7,4.4,8.6c9,4.6,28.7,13.7,54,20.7l-5.7,2.5
	c0,0,0,0,0,0L153,360.1c-2.4-1.8-5.1-3.3-8.1-4.1l-30.2-8.6l-4.9-7.5c-0.9-1.4-2.6-1.8-4-1.2v-12c14.6-8.4,24.4-24.2,24.4-42.2
	v-10.4c0-0.5,0-1.1-0.1-1.6l5.7-19.9c1.7-5.8,2.5-11.8,2.5-17.9v-15.3c0-9-7.3-16.3-16.3-16.3H65c-7.3,0-13.8,3.2-18.2,8.2
	c-12.5,1-22.4,11.5-22.4,24.3v5.7c0,7,1.1,13.9,3.3,20.6l4.8,14.4v8.1c0,18,9.8,33.8,24.4,42.2v12c-1.4-0.6-3.1-0.2-4,1.2l-4.9,7.5
	L17.7,356c-9.2,2.6-15.9,10.4-17.4,19.7c0,0.1,0,0.1,0,0.2c-0.1,0.6-0.2,1.1-0.2,1.7C0,378.1,0,378.8,0,379.4v59.4
	c0,4.5,3.6,8.1,8.1,8.1h24.4h121.9c0,0,0,0,0,0h24.4h162.5h32.5c0,0,0,0,0,0h130c4.5,0,8.1-3.6,8.1-8.1v-48
	C512,389.1,511.8,387.4,511.5,385.7z"/>
</svg>
