<?xml version="1.0" encoding="utf-8"?>
<!-- Generator: Adobe Illustrator 23.0.1, SVG Export Plug-In . SVG Version: 6.00 Build 0)  -->
<svg version="1.1" id="Capa_1" xmlns="http://www.w3.org/2000/svg" xmlns:xlink="http://www.w3.org/1999/xlink" x="0px" y="0px"
	 viewBox="0 0 512 512" style="enable-background:new 0 0 512 512;" xml:space="preserve">
<style type="text/css">
	.st0{fill:#FF7925;}
</style>
<g>
	<path class="st0" d="M430.6,228.1V94.5h-211l-34.8,128.3v0h-143c-18.9,0-34.2,15.3-34.2,34.3V400c0,0,0,0.1,0,0.1
		c0,43.5,35.3,78.8,78.8,78.8c43.5,0,78.8-35.3,78.8-78.8h19.6v0H241l0.2-0.2c17.4,46.2,62,79,114.3,79
		c67.5,0,122.2-54.7,122.2-122.2h26.8C504.4,301.9,474.7,254,430.6,228.1z M35.1,252.8c14.6,0,26.4,11.8,26.4,26.4
		c0,14.6-11.8,26.4-26.4,26.4V252.8z M86.4,438.2c-21.1,0-38.2-17.1-38.2-38.2c0-21.1,17.1-38.2,38.2-38.2
		c21.1,0,38.2,17.1,38.2,38.2C124.6,421.1,107.5,438.2,86.4,438.2z M146.7,303.5h-34.5c-4.2,0-7.6-3.4-7.6-7.6
		c0-4.2,3.4-7.6,7.6-7.6h34.5c4.2,0,7.6,3.4,7.6,7.6C154.3,300.1,150.9,303.5,146.7,303.5z M146.7,279.6h-34.5
		c-4.2,0-7.6-3.4-7.6-7.6c0-4.2,3.4-7.6,7.6-7.6h34.5c4.2,0,7.6,3.4,7.6,7.6C154.3,276.2,150.9,279.6,146.7,279.6z M146.7,255.6
		h-34.5c-4.2,0-7.6-3.4-7.6-7.6c0-4.2,3.4-7.6,7.6-7.6h34.5c4.2,0,7.6,3.4,7.6,7.6C154.3,252.2,150.9,255.6,146.7,255.6z
		 M213.6,226.6l28-103.4h160.2v91.8l0,0c-14.6-4.8-30.2-7.4-46.4-7.4c-26.9,0-52.1,7.1-73.8,19.5L213.6,226.6z M431.5,360.4
		c-0.1,1.2-0.2,2.5-0.3,3.7c-3.7,38.6-36.2,68.8-75.8,68.8c-31.2,0-57.9-18.7-69.7-45.5c-1-2.3-1.9-4.7-2.7-7.2c0,0,0,0,0,0
		c-0.4-1.2-0.7-2.4-1.1-3.6c0-0.1,0-0.1,0-0.2c-0.3-1.1-0.6-2.3-0.8-3.5c0-0.1-0.1-0.2-0.1-0.4c-0.2-1.1-0.4-2.2-0.6-3.3
		c0-0.2-0.1-0.4-0.1-0.6c-0.2-1-0.3-2.1-0.4-3.1c0-0.2,0-0.4-0.1-0.5c0-0.3-0.1-0.6-0.1-0.8c-0.1-0.8-0.1-1.7-0.2-2.5
		c0-0.3,0-0.5-0.1-0.7c0-0.1,0-0.3,0-0.4c-0.1-1.2-0.1-2.5-0.1-3.7c0-42.1,34.1-76.2,76.2-76.2c1.3,0,2.7,0,4,0.1c0.2,0,0.3,0,0.5,0
		c1.2,0.1,2.4,0.2,3.5,0.3c0,0,0.1,0,0.1,0c2.6,0.3,5.1,0.7,7.6,1.2c34.5,7.3,60.4,37.9,60.4,74.5
		C431.6,358,431.6,359.2,431.5,360.4z"/>
	
		<ellipse transform="matrix(0.7071 -0.7071 0.7071 0.7071 -148.1303 355.8138)" class="st0" cx="355.4" cy="356.7" rx="28.7" ry="28.7"/>
	<rect x="171.6" y="65.3" class="st0" width="259" height="29.2"/>
	<path class="st0" d="M119.8,129.9c0-7.9-6.4-14.3-14.2-14.3H86.1c-7.9,0-14.3,6.4-14.3,14.3v93h48V129.9z"/>
</g>
</svg>
