<?xml version="1.0" encoding="utf-8"?>
<!-- Generator: Adobe Illustrator 23.0.1, SVG Export Plug-In . SVG Version: 6.00 Build 0)  -->
<svg version="1.1" id="plougher" xmlns="http://www.w3.org/2000/svg" xmlns:xlink="http://www.w3.org/1999/xlink" x="0px" y="0px"
	 viewBox="0 0 512 512" style="enable-background:new 0 0 512 512;" xml:space="preserve">
<style type="text/css">
	.st0{fill:#FF7925;}
</style>
<g>
	<path class="st0" d="M249.2,143.4c13.2,0,23.9-10.7,23.9-23.9s-10.7-23.9-23.9-23.9s-23.9,10.7-23.9,23.9S236,143.4,249.2,143.4z
		 M249.2,109.2c5.6,0,10.2,4.6,10.2,10.2s-4.6,10.2-10.2,10.2s-10.2-4.6-10.2-10.2S243.5,109.2,249.2,109.2z"/>
	
		<ellipse transform="matrix(0.7071 -0.7071 0.7071 0.7071 -84.9621 166.6875)" class="st0" cx="158.7" cy="185.9" rx="7.3" ry="7.3"/>
	<path class="st0" d="M347.3,232.9c1.3,1.3,3.1,2,4.8,2c1.7,0,3.5-0.7,4.8-2l4.8-4.8l4.8,4.8c1.3,1.3,3.1,2,4.8,2
		c1.7,0,3.5-0.7,4.8-2c2.7-2.7,2.7-7,0-9.7l-4.8-4.8l4.8-4.8c2.7-2.7,2.7-7,0-9.7c-2.7-2.7-7-2.7-9.7,0l-4.8,4.8L357,204
		c-2.7-2.7-7-2.7-9.7,0c-2.7,2.7-2.7,7,0,9.7l4.8,4.8l-4.8,4.8C344.7,225.9,344.7,230.3,347.3,232.9z"/>
	<path class="st0" d="M464.2,409.6H324c6.5-7.3,10.5-16.8,10.5-27.3h13.7h102.4c3.8,0,6.8-3.1,6.8-6.8s-3.1-6.8-6.8-6.8h-20.5v-27.3
		h6.8c3.8,0,6.8-3.1,6.8-6.8s-3.1-6.8-6.8-6.8h-27.3c-3.8,0-6.8,3.1-6.8,6.8s3.1,6.8,6.8,6.8h6.8v27.3H355V314
		c0-18.8-15.3-34.1-34.1-34.1h-88.7v-13.7c0-3.8-3.1-6.8-6.8-6.8h-34.1c-3.8,0-6.8,3.1-6.8,6.8v13.7h-13.7v-13.7
		c0-3.8-3.1-6.8-6.8-6.8h-34.1c-3.8,0-6.8,3.1-6.8,6.8v13.7h-13.7v-13.7c0-3.8-3.1-6.8-6.8-6.8H68.3c-3.8,0-6.8,3.1-6.8,6.8v13.7
		H47.8c-3.8,0-6.8,3.1-6.8,6.8v41c0,3.8,3.1,6.8,6.8,6.8h13.7v27.3c0,22.6,18.4,41,41,41c3.8,0,6.8-3.1,6.8-6.8v-61.4h13.7v27.3
		c0,22.6,18.4,41,41,41c3.8,0,6.8-3.1,6.8-6.8v-61.4h13.7v27.3c0,22.6,18.4,41,41,41c3.8,0,6.8-3.1,6.8-6.8v-61.4h6.8v41
		c0,3.8,3.1,6.8,6.8,6.8h6.8c0,10.5,4,20.1,10.5,27.3H54.6c-3.8,0-6.8,3.1-6.8,6.8s3.1,6.8,6.8,6.8h409.6c3.8,0,6.8-3.1,6.8-6.8
		S468,409.6,464.2,409.6z M266.2,382.3c0-15.1,12.3-27.3,27.3-27.3s27.3,12.2,27.3,27.3s-12.3,27.3-27.3,27.3
		S266.2,397.4,266.2,382.3z"/>
	
		<ellipse transform="matrix(0.9871 -0.1602 0.1602 0.9871 -57.4461 51.9573)" class="st0" cx="293.5" cy="382.3" rx="13.7" ry="13.7"/>
</g>
</svg>
