<?xml version="1.0" encoding="utf-8"?>
<!-- Generator: Adobe Illustrator 23.0.1, SVG Export Plug-In . SVG Version: 6.00 Build 0)  -->
<svg version="1.1" id="Layer_1" xmlns="http://www.w3.org/2000/svg" xmlns:xlink="http://www.w3.org/1999/xlink" x="0px" y="0px"
	 viewBox="0 0 512 512" style="enable-background:new 0 0 512 512;" xml:space="preserve">
<style type="text/css">
	.st0{fill:#FF7925;}
</style>
<g id="tractor-smartphone-wifi-technology">
	<path class="st0" d="M96,120v-18.2c7.7-4.4,10.3-14.2,5.9-21.9c-4.4-7.7-14.2-10.3-21.9-5.9c-7.7,4.4-10.3,14.2-5.9,21.9
		c1.4,2.4,3.4,4.5,5.9,5.9V120H96z"/>
	<path class="st0" d="M116.3,59.7c-15.6-15.6-40.9-15.6-56.6,0L71,71c9.4-9.4,24.6-9.4,33.9,0c0,0,0,0,0,0L116.3,59.7z"/>
	<path class="st0" d="M127.6,48.4l11.3-11.3C110.8,9,65.2,9,37.1,37.1l11.3,11.3C70.3,26.6,105.7,26.6,127.6,48.4z"/>
	<path class="st0" d="M312,288h144V56H312V288z M434.9,93.1l-11.3,11.3c-21.9-21.8-57.3-21.8-79.2,0l-11.3-11.3
		C361.2,65,406.8,65,434.9,93.1z M408,192v16h-40v-16H408z M368,144c0-8.8,7.2-16,16-16s16,7.2,16,16s-7.2,16-16,16
		S368,152.8,368,144z M401,127c-9.4-9.4-24.6-9.4-33.9,0c0,0,0,0,0,0l-11.3-11.3c15.6-15.6,40.9-15.6,56.6,0L401,127z M328,192h24
		v16h-24V192z M328,224h112v16H328V224z M328,256h48v16h-48V256z"/>
	<circle class="st0" cx="136" cy="392" r="10"/>
	<path class="st0" d="M480,32H288v304h192V32z M392,328h-16v-16h16V328z M472,296c0,4.4-3.6,8-8,8H304c-4.4,0-8-3.6-8-8V48
		c0-4.4,3.6-8,8-8h160c4.4,0,8,3.6,8,8V296z"/>
	<polygon class="st0" points="146.6,152 88,152 88,232 180,232 	"/>
	<path class="st0" d="M64,240c0,2.1-0.8,4.2-2.3,5.7L48,259.3V408h9.6c-1.1-5.3-1.6-10.6-1.6-16c0-44.2,35.8-80,80-80s80,35.8,80,80
		c0,5.4-0.5,10.7-1.6,16H240V248h-16c-3.3,0-6.2-2-7.4-5l-46-115H64V240z M72,144c0-4.4,3.6-8,8-8h72c3.2,0,6.2,2,7.4,5l40,96
		c1.1,2.4,0.8,5.2-0.7,7.4c-1.5,2.2-4,3.6-6.6,3.6H80c-4.4,0-8-3.6-8-8V144z"/>
	<path class="st0" d="M336,360c27.8,0,51.4,20.5,55.4,48H408c13.2,0,24-10.8,24-24v-32H288c-8.8,0-16-7.2-16-16v-88h-16v160h24.6
		C284.6,380.5,308.2,360,336,360z"/>
	<circle class="st0" cx="336" cy="416" r="8"/>
	<path class="st0" d="M136,328c-35.3,0-64,28.7-64,64s28.7,64,64,64s64-28.7,64-64C200,356.7,171.3,328,136,328z M136,418
		c-14.4,0-26-11.6-26-26s11.6-26,26-26s26,11.6,26,26C162,406.4,150.4,418,136,418z"/>
	<path class="st0" d="M432,464c-1.3,0-2.5-0.3-3.6-0.9l-14.3-7.1h-39c-18.1,17.8-46,21.1-67.8,8H272c-2.1,0-4.2-0.8-5.7-2.3
		L252.7,448h-25.4l-13.6,13.7c-1.5,1.5-3.6,2.3-5.7,2.3h-37.4c-21.9,10.7-47.4,10.7-69.3,0H56c-2.1,0-4.2-0.8-5.7-2.3l-5.6-5.7H32
		c-2.1,0-4.2-0.8-5.7-2.3l-5.6-5.7H16v32h480v-16H432z"/>
	<path class="st0" d="M296,416c0,22.1,17.9,40,40,40s40-17.9,40-40s-17.9-40-40-40S296,393.9,296,416z M360,416
		c0,13.3-10.7,24-24,24s-24-10.7-24-24s10.7-24,24-24S360,402.7,360,416z"/>
</g>
</svg>
