<?xml version="1.0" encoding="utf-8"?>
<!-- Generator: Adobe Illustrator 23.0.1, SVG Export Plug-In . SVG Version: 6.00 Build 0)  -->
<svg version="1.1" id="Layer_1" xmlns="http://www.w3.org/2000/svg" xmlns:xlink="http://www.w3.org/1999/xlink" x="0px" y="0px"
	 viewBox="0 0 464 464" style="enable-background:new 0 0 464 464;" xml:space="preserve">
<style type="text/css">
	.st0{fill:#FF9525;}
</style>
<path class="st0" d="M440,241v-33c0-17.4-13.8-31.5-31-32L319.2,74.3c0.5-3.4,0.8-6.8,0.8-10.3c0-35.3-28.7-64-64-64s-64,28.7-64,64
	c0,2.3,0.1,4.6,0.4,6.9L95.2,168c-35,0.4-63.2,28.9-63.2,64c0,20.2,9.4,38.2,24,49.9V416H0v48h304v-48H136V281.9
	c14.6-11.7,24-29.7,24-49.9c0-4.8-0.6-9.5-1.6-14l90.4-90.4c2.4,0.3,4.8,0.4,7.2,0.4c4.9,0,9.7-0.6,14.3-1.6L376,209.7V241
	c-13.8,3.6-24,16.1-24,31v80l32-16v-64h48v64l32,16v-80C464,257.1,453.8,244.6,440,241z M256,32c10.9,0,20.6,5.5,26.4,13.9
	c0.4,0.6,0.8,1.3,1.2,1.9c0,0,0.1,0.1,0.1,0.1c0.8,1.3,1.4,2.6,2,4c0,0.1,0.1,0.2,0.1,0.3c0.3,0.7,0.5,1.4,0.7,2c0,0,0,0,0,0
	c0.2,0.7,0.4,1.4,0.6,2.1c0,0.1,0.1,0.3,0.1,0.4c0.2,0.7,0.3,1.4,0.4,2.1c0,0,0,0.1,0,0.1c0.1,0.7,0.2,1.4,0.3,2.2
	c0,0.2,0,0.3,0,0.5c0.1,0.7,0.1,1.5,0.1,2.2c0,15.3-10.8,28.1-25.1,31.3c-1.1,0.2-2.2,0.4-3.3,0.5c0,0-0.1,0-0.1,0
	c-0.5,0.1-1,0.1-1.5,0.1c-0.1,0-0.2,0-0.2,0c-0.6,0-1.1,0-1.7,0c-0.8,0-1.5,0-2.2-0.1c-0.2,0-0.3,0-0.5,0c-0.7-0.1-1.5-0.1-2.2-0.3
	c0,0-0.1,0-0.1,0c-0.7-0.1-1.4-0.3-2.1-0.4c-0.1,0-0.3-0.1-0.4-0.1c-0.7-0.2-1.4-0.4-2.1-0.6c0,0,0,0,0,0c-0.7-0.2-1.4-0.5-2.1-0.7
	c-0.1,0-0.2-0.1-0.3-0.1c-1.4-0.6-2.8-1.2-4-2c0,0-0.1-0.1-0.1-0.1c-0.7-0.4-1.3-0.8-1.9-1.2C229.5,84.6,224,74.9,224,64
	c0-0.6,0-1.2,0-1.7c0-0.1,0-0.2,0-0.2c0-0.5,0.1-1,0.1-1.5c0,0,0-0.1,0-0.1c0.1-1.1,0.3-2.2,0.5-3.3C227.9,42.8,240.7,32,256,32z
	 M96,200C96,200,96,200,96,200L96,200c17.7,0,32,14.3,32,31.9l0,0c0,0,0,0,0,0.1c0,17.7-14.3,32-32,32s-32-14.3-32-32
	S78.3,200,96,200z M96,336v48c0,4.4-3.6,8-8,8s-8-3.6-8-8v-48c0-4.4,3.6-8,8-8S96,331.6,96,336z M189.7,133.7l-32,32
	c-1.5,1.5-3.5,2.3-5.7,2.3c-3.2,0-6.2-1.9-7.4-4.9s-0.6-6.4,1.7-8.7l32-32c3.1-3,8.1-3,11.2,0.1S192.7,130.5,189.7,133.7z"/>
</svg>
