<?xml version="1.0" encoding="utf-8"?>
<!-- Generator: Adobe Illustrator 23.0.1, SVG Export Plug-In . SVG Version: 6.00 Build 0)  -->
<svg version="1.1" id="Layer_1" xmlns="http://www.w3.org/2000/svg" xmlns:xlink="http://www.w3.org/1999/xlink" x="0px" y="0px"
	 viewBox="0 0 496 496" style="enable-background:new 0 0 496 496;" xml:space="preserve">
<style type="text/css">
	.st0{fill:#FF7925;}
</style>
<path class="st0" d="M168,248c35.3,0,64-28.7,64-64s-28.7-64-64-64s-64,28.7-64,64C104,219.3,132.7,248,168,248z"/>
<path class="st0" d="M328,152h-44.4c-2.6-9.5-6.4-18.6-11.3-27.1l31.4-31.4c1.5-1.5,2.3-3.5,2.3-5.7s-0.8-4.2-2.3-5.7l-33.9-33.9
	c-3.1-3.1-8.2-3.1-11.3,0l-31.4,31.4c-8.5-4.9-17.6-8.6-27.1-11.3V24c0-4.4-3.6-8-8-8h-48c-4.4,0-8,3.6-8,8v44.4
	c-9.5,2.6-18.6,6.4-27.1,11.3L77.5,48.2c-3.2-3-8.1-3-11.3,0L32.2,82.2c-1.5,1.5-2.3,3.5-2.3,5.7s0.8,4.2,2.3,5.7l31.4,31.4
	c-4.9,8.5-8.6,17.6-11.3,27.1H8c-4.4,0-8,3.6-8,8v48c0,4.4,3.6,8,8,8h44.4c2.6,9.5,6.4,18.6,11.3,27.1l-31.4,31.4
	c-1.5,1.5-2.3,3.5-2.3,5.7s0.8,4.2,2.3,5.7l33.9,33.9c3.1,3.1,8.2,3.1,11.3,0l31.4-31.4c8.5,4.9,17.6,8.6,27.1,11.3V344
	c0,4.4,3.6,8,8,8h48c4.4,0,8-3.6,8-8v-44.4c9.5-2.6,18.6-6.4,27.1-11.3l31.4,31.4c3.2,3,8.1,3,11.3,0l33.9-33.9
	c1.5-1.5,2.3-3.5,2.3-5.7s-0.8-4.2-2.3-5.7l-31.4-31.4c4.9-8.5,8.6-17.6,11.3-27.1H328c4.4,0,8-3.6,8-8v-48
	C336,155.6,332.4,152,328,152z M168,272c-48.6-0.1-87.9-39.4-88-88c0-48.6,39.4-88,88-88s88,39.4,88,88S216.6,272,168,272z"/>
<path class="st0" d="M456,384v-64c0-4.4-3.6-8-8-8h-16v-64c0-4.4-3.6-8-8-8h-72c-4.4,0-8,3.6-8,8v64h-40c-4.4,0-8,3.6-8,8v64H40
	c-22.1,0-40,17.9-40,40v16c0,22.1,17.9,40,40,40h416c22.1,0,40-17.9,40-40v-16C496,401.9,478.1,384,456,384z M88,448
	c-8.8,0-16-7.2-16-16s7.2-16,16-16s16,7.2,16,16S96.8,448,88,448z M168,448c-8.8,0-16-7.2-16-16s7.2-16,16-16s16,7.2,16,16
	S176.8,448,168,448z M248,448c-8.8,0-16-7.2-16-16s7.2-16,16-16s16,7.2,16,16S256.8,448,248,448z M360,256h56v56h-56V256z M328,448
	c-8.8,0-16-7.2-16-16s7.2-16,16-16s16,7.2,16,16S336.8,448,328,448z M368,384h-56v-56h56V384z M408,448c-8.8,0-16-7.2-16-16
	s7.2-16,16-16s16,7.2,16,16S416.8,448,408,448z M440,384h-56v-56h56V384z"/>
</svg>
