<?xml version="1.0" encoding="utf-8"?>
<!-- Generator: Adobe Illustrator 23.0.1, SVG Export Plug-In . SVG Version: 6.00 Build 0)  -->
<svg version="1.1" id="Layer_1" xmlns="http://www.w3.org/2000/svg" xmlns:xlink="http://www.w3.org/1999/xlink" x="0px" y="0px"
	 viewBox="0 0 512 512" style="enable-background:new 0 0 512 512;" xml:space="preserve">
<style type="text/css">
	.st0{fill:#FF7925;}
</style>
<g>
	<path class="st0" d="M250.9,97.7c-29.6,0-53.6,24-53.6,53.6c0,29.6,24,53.6,53.6,53.6s53.6-24,53.6-53.6
		C304.5,121.7,280.5,97.7,250.9,97.7z"/>
	<path class="st0" d="M442.4,0H69.6C58.3,0,49,9.3,49,20.6v470.8c0,11.3,9.3,20.6,20.6,20.6h372.9c11.3,0,20.6-9.3,20.6-20.6V20.6
		C463,9.3,453.8,0,442.4,0z M146.1,137.4c0-0.9,0.1-1.8,0.3-2.6c1.1-4.5,5.3-7.9,10.2-7.9h11.6c1.7-6,4-11.7,6.8-17l-3.3-3.3
		l-4.7-4.7c-4.1-4.1-4.1-10.7,0-14.8l19.7-19.7c4.1-4.1,10.7-4.1,14.8,0l7.6,7.6c5.5-3.1,11.3-5.6,17.4-7.4V57
		c0-4.8,3.2-8.8,7.6-10.1c0.9-0.3,1.9-0.4,2.9-0.4h27.8c0.5,0,1,0,1.4,0.1c5.1,0.7,9.1,5.1,9.1,10.4v10.1c6.3,1.8,12.3,4.3,17.9,7.4
		l7.1-7.1c4.1-4.1,10.7-4.1,14.8,0l19.7,19.7c4.1,4.1,4.1,10.7,0,14.8l-7,7.1c3.1,5.6,5.5,11.7,7.3,18l10.1,0
		c5.8,0,10.5,4.7,10.5,10.5v27.9c0,5.8-4.7,10.5-10.5,10.5h-10.5c-1.8,6.1-4.3,12-7.4,17.4l7.6,7.6c4.1,4.1,4.1,10.7,0,14.8
		l-19.7,19.7c-4.1,4.1-10.7,4.1-14.8,0l-8-8c-5.4,2.9-11.1,5.2-17,6.8v11.6c0,5.8-4.7,10.5-10.5,10.5H237c-5.8,0-10.5-4.7-10.5-10.5
		v-12c-5.8-1.8-11.3-4.1-16.5-6.9l-8.5,8.6c-4.1,4.1-10.7,4.1-14.8,0l-10-10l-9.7-9.7c-4.1-4.1-4.1-10.7,0-14.8l7.3-7.3l1.3-1.3
		c-2.9-5.2-5.2-10.7-6.9-16.5h-12c-5.7,0-10.5-4.7-10.5-10.5V137.4z M103.5,301.1c0-2.8,2.3-5.1,5.1-5.1H141h250.2
		c2.8,0,5.1,2.3,5.1,5.1v27.2c0,2.8-2.3,5.1-5.1,5.1H141h-32.3c-2.8,0-5.1-2.3-5.1-5.1V301.1z M103.5,369.2c0-2.8,2.3-5.1,5.1-5.1
		H141h178c2.8,0,5.1,2.3,5.1,5.1v27.2c0,2.8-2.3,5.1-5.1,5.1H141h-32.3c-2.8,0-5.1-2.3-5.1-5.1V369.2z M409.4,463.4
		c0,2.8-2.3,5.1-5.1,5.1H141h-32.3c-2.8,0-5.1-2.3-5.1-5.1v-27.2c0-2.8,2.3-5.1,5.1-5.1H141h263.4c2.8,0,5.1,2.3,5.1,5.1V463.4z"/>
</g>
</svg>
