<?xml version="1.0" encoding="utf-8"?>
<!-- Generator: Adobe Illustrator 23.0.1, SVG Export Plug-In . SVG Version: 6.00 Build 0)  -->
<svg version="1.1" id="Capa_1" xmlns="http://www.w3.org/2000/svg" xmlns:xlink="http://www.w3.org/1999/xlink" x="0px" y="0px"
	 viewBox="0 0 512 512" style="enable-background:new 0 0 512 512;" xml:space="preserve">
<style type="text/css">
	.st0{fill:#FF7925;}
</style>
<path class="st0" d="M185.6,286.9v71.1c0,17.9,14.5,32.3,32.3,32.3h37.2v11.9h-50.4c-4.3,0-7.7,3.5-7.7,7.7c0,4.3,3.5,7.7,7.7,7.7
	h58.1c4.3,0,7.7-3.5,7.7-7.7v-19.6h58.7c5.3,0,8.8-5.6,6.4-10.4c-6.7-13.7-10.4-29.2-10.4-45.5h0c0-24,8.1-46,21.6-63.7l22.1,21
	c-7.4,11.8-11.6,25.8-11.6,40.8c0,42.7,34.6,77.3,77.3,77.3s77.3-34.6,77.3-77.3s-34.6-77.3-77.3-77.3c-16.4,0-31.5,5.1-44,13.8
	l-21.1-20c17-12,37.8-19.1,60.2-19.1c3.8,0,7.6,0.2,11.3,0.6c3.4,0.4,6.9-0.6,9.5-2.9l20.2-17.5c1.1-1,2.1-2,3-3.1
	c-16.2-0.3-29.2-13.6-29.2-29.8l0,0c0-16.3,13.1-29.5,29.3-29.8c-0.3-0.4-0.6-0.7-0.9-1.1c-34.1-39-84.2-55-136-51.3
	c-8.5,0.6-13.3,10-9,17.3l5.7,9.7h-25.1c-4.3,0-7.7,3.5-7.7,7.7c0,4.3,3.5,7.7,7.7,7.7h33.3c5.3,13.6,5.7,28.3,1.6,41.7
	c-14.2-18.5-36.6-30.4-61.7-30.4c-27.7,0-51.9,14.4-65.7,36.2h-59.7c-6.1,0-12.1-2.1-16.9-5.9l-49.9-40.1c-4.3-3.4-9.6-5.3-15.1-5.3
	H36.9c-8.6,0-15.5,7-15.5,15.5c0,5,2.4,9.7,6.5,12.6l138.6,99.5l-31.8,19.6c-14.1-15.6-34.6-25.5-57.3-25.5
	C34.6,255.3,0,289.9,0,332.5s34.6,77.3,77.3,77.3c42.7,0,77.3-34.6,77.3-77.3c0-8.7-1.4-17-4.1-24.8 M113.5,332.5
	c0,20-16.2,36.2-36.2,36.2s-36.2-16.2-36.2-36.2s16.2-36.2,36.2-36.2c7.8,0,15.1,2.5,21,6.7L74,318c-3.6,2.2-6,5.5-7,9.3
	c-1.1,4-0.6,8.4,1.7,12.3c4.5,7.4,14.1,9.8,21.5,5.3l23.2-14.3C113.5,331.2,113.5,331.9,113.5,332.5z M343.7,179.1
	c0,0.1-0.1,0.2-0.1,0.3C343.6,179.3,343.6,179.2,343.7,179.1z M185.6,286.2 M226.1,347.1c0-4.3,3.5-7.7,7.7-7.7H256
	c4.3,0,7.7,3.5,7.7,7.7c0,4.3-3.5,7.7-7.7,7.7h-22.2C229.5,354.8,226.1,351.4,226.1,347.1z M369.6,249 M434.7,368.8
	c-20,0-36.2-16.2-36.2-36.2c0-3.9,0.6-7.6,1.7-11.1l23.6,22.5c3,2.9,6.9,4.3,10.8,4.3c4.1,0,8.3-1.6,11.4-4.9
	c6-6.3,5.7-16.2-0.6-22.2l-23.6-22.5c4-1.5,8.3-2.4,12.8-2.4c20,0,36.2,16.2,36.2,36.2S454.7,368.8,434.7,368.8z"/>
</svg>
