<?xml version="1.0" encoding="utf-8"?>
<!-- Generator: Adobe Illustrator 23.0.1, SVG Export Plug-In . SVG Version: 6.00 Build 0)  -->
<svg version="1.1" id="Layer_1" xmlns="http://www.w3.org/2000/svg" xmlns:xlink="http://www.w3.org/1999/xlink" x="0px" y="0px"
	 viewBox="0 0 512 512" style="enable-background:new 0 0 512 512;" xml:space="preserve">
<style type="text/css">
	.st0{fill:#FF7925;}
</style>
<g id="Page-1">
	<g>
		<path id="Shape" class="st0" d="M136.8,132.4h-53c-4.9,0-8.8,4-8.8,8.8s4,8.8,8.8,8.8h53V132.4z"/>
		<path class="st0" d="M242.8,423v71.4c0,9.8,7.9,17.7,17.7,17.7c9.8,0,17.7-7.9,17.7-17.7V423c-5.5,0.4-11.3,0.7-17.7,0.7
			C254,423.7,248.2,423.4,242.8,423z"/>
		<path class="st0" d="M260.4,176.6c24.4,0,44.1-19.8,44.1-44.1s-19.8-44.1-44.1-44.1s-44.1,19.8-44.1,44.1
			C216.3,156.8,236,176.5,260.4,176.6z M260.4,123.6c4.9,0,8.8,4,8.8,8.8s-4,8.8-8.8,8.8s-8.8-4-8.8-8.8S255.5,123.6,260.4,123.6z"
			/>
		<path class="st0" d="M328,176.6h-24.4c-24,23.5-62.4,23.5-86.3,0h-24.4c-10.6,8.6-56,50.3-56,132.4c0,81,12.6,104.6,15,108.3
			c4.6,3,28.2,17,73.3,22.2v-18.5c-10.5-1.5-20.8-4.4-30.5-8.7c-2.9-1.5-4.8-4.6-4.8-7.9v-74.2c0-2.3,0.9-4.5,2.5-6.2
			c16.5-14.5,37.4-22.8,59.3-23.5v-70.9c0-4.9,4-8.8,8.8-8.8s8.8,4,8.8,8.8v70.9c21.9,0.7,42.8,9.1,59.3,23.5
			c1.6,1.7,2.5,3.9,2.5,6.2v74.2c0,3.3-1.8,6.3-4.8,7.8c-9.7,4.3-20,7.2-30.5,8.7v18.5c45.5-5.2,69-19.4,73.4-22.3
			C371,414.3,384,391.4,384,309C384,226.9,338.7,185.2,328,176.6L328,176.6z M180.5,258.8c-5.1,16.3-7.9,33.2-8.4,50.2
			c0,4.9-4,8.8-8.8,8.8c-4.9,0-8.8-4-8.8-8.8c0.4-18.9,3.6-37.7,9.3-55.8c1.5-4.6,6.5-7.1,11.2-5.6
			C179.6,249.1,182.1,254.1,180.5,258.8L180.5,258.8z M345.9,247.6c4.6-1.5,9.6,1,11.2,5.6c5.7,18.1,8.8,36.8,9.3,55.8
			c0,4.9-4,8.8-8.8,8.8s-8.8-4-8.8-8.8c-0.5-17-3.3-33.9-8.4-50.2C338.8,254.2,341.3,249.2,345.9,247.6L345.9,247.6z"/>
		<path class="st0" d="M437,132.4h-53v17.7h53c4.9,0,8.8-4,8.8-8.8S441.8,132.4,437,132.4z"/>
		<path class="st0" d="M313.4,398.4v-64.2c-15.3-11.2-34-17-53-16.3c-19-0.7-37.7,5.1-53,16.3v64.2c17.1,5.5,35,8.1,53,7.7
			C278.4,406.5,296.3,403.9,313.4,398.4z"/>
		<path class="st0" d="M101.3,55.1L149,81.6c4.2,2.4,7.3,6.4,8.6,11.1l7.7,30.9h-10.8v35.3h50.2c-4-8.3-6-17.3-6-26.5
			c0-3,0.3-5.9,0.7-8.8h-15.9l-8.7-35.3c-2.5-9.4-8.7-17.4-17.2-22.1l-47.6-26.5c0.3-1.5,0.4-2.9,0.4-4.4
			c0.1-12.6-8.6-23.6-20.9-26.4s-24.9,3.5-30.1,15S57.5,49,67.6,56.5S91.8,63.5,101.3,55.1z"/>
		<path class="st0" d="M437,8.8c-14.6,0-26.5,11.9-26.5,26.5c0,1.5,0.2,3,0.4,4.4l-47.6,26.4c-8.6,4.8-14.8,12.8-17.2,22.3
			l-8.7,35.1h-15.9c0.4,2.9,0.7,5.9,0.7,8.8c0,9.2-2.1,18.2-6,26.5h50.2v-35.3h-10.8l7.6-30.8c1.2-4.8,4.3-8.8,8.6-11.2l47.7-26.5
			c8.8,7.8,21.8,8.9,31.8,2.6s14.6-18.5,11.2-29.8S448.8,8.8,437,8.8L437,8.8z"/>
	</g>
</g>
</svg>
