<?xml version="1.0" encoding="utf-8"?>
<!-- Generator: Adobe Illustrator 23.0.1, SVG Export Plug-In . SVG Version: 6.00 Build 0)  -->
<svg version="1.1" id="Capa_1" xmlns="http://www.w3.org/2000/svg" xmlns:xlink="http://www.w3.org/1999/xlink" x="0px" y="0px"
	 viewBox="0 0 512 512" style="enable-background:new 0 0 512 512;" xml:space="preserve">
<style type="text/css">
	.st0{fill:#FF7925;}
</style>
<g>
	<circle class="st0" cx="120" cy="362" r="30"/>
	<circle class="st0" cx="392" cy="362" r="30"/>
	<path class="st0" d="M437,0H75C33.6,0,0,33.6,0,75v362c0,41.4,33.6,75,75,75h362c41.4,0,75-33.6,75-75V75C512,33.6,478.4,0,437,0z
		 M452,227c0,8.3-6.7,15-15,15h-30c-5.3,0-10.3-0.9-15.2-2.6c0,6.2,0,56.4,0,62.6c33.1,0,60,26.9,60,60c0,33.1-26.9,60-60,60
		c-33.1,0-60-26.9-60-60c0-22.1,12.1-41.5,30-51.9v-36.4c-22.9,5.2-42,22-49.7,45l-11,33.1c-2,6.2-7.7,10.3-14.2,10.3h-62
		c-6.4,0-12.2-4.2-14.2-10.3l-11-33.1c-2.2-6.6-5.3-12.6-9.2-18.1l-16.9,34.6c4.1,8,6.4,17.2,6.4,26.8c0,33.1-26.9,60-60,60
		c-33.1,0-60-26.9-60-60c0-33.1,26.9-60,60-60c11.7,0,22.6,3.4,31.9,9.2l15.2-31.2c-9.6-5.1-20.6-8-32.1-8c-41.4,0-75-33.6-75-75
		c0-8.3,6.7-15,15-15h287v-45c0-8.3-6.7-15-15-15h-30c-8.3,0-15-6.7-15-15s6.7-15,15-15h30c24.8,0,45,20.2,45,45v17.6
		c4.7-1.7,9.7-2.6,15-2.6h30c8.3,0,15,6.7,15,15V227z"/>
</g>
</svg>
