<?xml version="1.0" encoding="utf-8"?>
<!-- Generator: Adobe Illustrator 23.0.1, SVG Export Plug-In . SVG Version: 6.00 Build 0)  -->
<svg version="1.1" id="Layer_1" xmlns="http://www.w3.org/2000/svg" xmlns:xlink="http://www.w3.org/1999/xlink" x="0px" y="0px"
	 viewBox="0 0 480 480" style="enable-background:new 0 0 480 480;" xml:space="preserve">
<style type="text/css">
	.st0{fill:#FF7925;}
</style>
<path class="st0" d="M392,303.9c-10.3,0-20.6,1.9-30.3,5.5c-24.8-20.2-57.9-47.5-88.2-72.6l4-4.7l19.1,19.1c9.4,9.4,24.6,9.4,33.9,0
	l147.1-147.1c3.1-3.1,3.1-8.2,0-11.3L387.1,2.3c-3.1-3.1-8.2-3.1-11.3,0L240,138.1L104.2,2.3c-3.1-3.1-8.2-3.1-11.3,0L2.4,92.8
	c-3.1,3.1-3.1,8.2,0,11.3l147.1,147.1c9.4,9.4,24.6,9.4,33.9,0l19.1-19.1l4,4.8c-31.2,25.9-63.8,52.7-88.2,72.5
	c-9.7-3.7-20-5.5-30.3-5.6c-48.6,0-88,39.4-88,88c0,48.6,39.4,88,88,88c48.6,0,88-39.4,88-88c0-10.4-1.9-20.6-5.5-30.3
	c19-23.4,44.5-54.4,69.5-84.5c24.1,29.1,50.1,60.7,69.5,84.6c-3.6,9.7-5.5,19.9-5.5,30.2c0,48.6,39.4,88,88,88c48.6,0,88-39.4,88-88
	C480,343.2,440.6,303.9,392,303.9z M381.4,19.3l79.2,79.2l-17,17l-79.2-79.2L381.4,19.3z M353.2,47.6l79.2,79.2l-17,17l-79.2-79.2
	L353.2,47.6z M291.7,131.7c15.7-15.6,41-15.6,56.6,0c15.6,15.6,15.6,40.9,0,56.6c-15.7,15.6-41,15.6-56.6,0
	C276.1,172.6,276.1,147.3,291.7,131.7z M19.4,98.5l79.2-79.2l17,17l-79.2,79.2L19.4,98.5z M47.6,126.8l79.2-79.2l17,17l-79.2,79.2
	L47.6,126.8z M188.3,188.3c-15.7,15.6-41,15.6-56.6,0c-15.6-15.7-15.6-41,0-56.6c15.6-15.6,41-15.6,56.6,0
	C203.9,147.4,203.9,172.7,188.3,188.3z M110.7,414.6c-12.5,12.5-32.8,12.5-45.3,0s-12.5-32.8,0-45.3c12.6-12.1,32.6-12.1,45.3,0
	C123.2,381.8,123.2,402.1,110.7,414.6z M111.9,459.8c-28.8,10.2-60.9,1-80-22.7c-19.2-23.8-21.2-57.1-5.2-83
	c16.1-26,46.7-39,76.6-32.5c-7.8,6.3-14.1,11.3-18.2,14.5c-8,0.7-15.8,2.9-23,6.6c-5.4,2.6-10.2,6.1-14.4,10.4
	c-14.9,14-21.1,35-16,54.8c5.1,19.8,20.5,35.3,40.4,40.4c19.8,5.1,40.8-1.1,54.8-16c4.2-4.1,7.7-8.9,10.3-14.2
	c3.7-7.2,6-15.1,6.7-23.2c3.2-4.1,8.2-10.4,14.5-18.2c1.1,4.9,1.6,10.1,1.6,15.2C160,422.4,140.7,449.7,111.9,459.8z M240,209
	l-7.8-6.5l7.8-7.8l7.8,7.8L240,209z M369.4,369.2c12.7-12.1,32.6-12.1,45.3,0c9.1,9.2,11.8,22.9,6.9,34.9c-5,12-16.7,19.8-29.6,19.8
	c-12.9,0-24.6-7.8-29.5-19.8C357.5,392.1,360.3,378.4,369.4,369.2z M392,463.9c-21.8,0-42.4-9.8-56.1-26.8s-18.9-39.2-14.3-60.5
	c6.3,7.8,11.3,14.1,14.5,18.2c0.7,8,2.9,15.8,6.6,23c2.6,5.4,6.1,10.2,10.4,14.4c14,14.9,35,21.1,54.8,16
	c19.8-5.1,35.3-20.5,40.4-40.4c5.1-19.8-1.1-40.8-16-54.8c-4.1-4.2-8.9-7.7-14.2-10.3c-7.2-3.7-15.1-6-23.2-6.7
	c-4.1-3.2-10.4-8.2-18.2-14.5c5-1.1,10.1-1.6,15.3-1.6c39.8,0,72,32.2,72,72C464,431.7,431.8,463.9,392,463.9z"/>
</svg>
