<?xml version="1.0" encoding="utf-8"?>
<!-- Generator: Adobe Illustrator 23.0.1, SVG Export Plug-In . SVG Version: 6.00 Build 0)  -->
<svg version="1.1" id="Layer_1" xmlns="http://www.w3.org/2000/svg" xmlns:xlink="http://www.w3.org/1999/xlink" x="0px" y="0px"
	 viewBox="0 0 512 512" style="enable-background:new 0 0 512 512;" xml:space="preserve">
<style type="text/css">
	.st0{fill:#FF7925;}
</style>
<path class="st0" d="M90.6,154.3l61.1-61.1c11.7-11.7,30.6-11.7,42.3,0l17,17l0,0L107.5,213.5l0,0l-17-17
	C78.9,184.9,78.9,165.9,90.6,154.3C90.6,154.3,90.6,154.3,90.6,154.3z"/>
<path class="st0" d="M149.2,206.6c-0.1-0.1-0.1-0.1-0.2-0.2c-2.7-2.8-2.6-7.2,0.2-9.9c2.8-2.7,7.2-2.6,9.9,0.2l28.9,28.9l12.6-12.6
	l-28.9-28.9c-0.1-0.1-0.1-0.1-0.2-0.2c-2.7-2.8-2.6-7.2,0.2-9.9c2.8-2.7,7.2-2.6,9.9,0.2l28.9,28.9l12.6-12.6l-28.9-28.9
	c-2.6-2.7-2.6-6.9,0-9.6c2.7-2.8,7.1-2.9,9.9-0.3l28.9,28.9l16.1-16.1l-46.2-46.2l-87.2,87.2l46.2,46.2l16.2-16.2L149.2,206.6z"/>
<path class="st0" d="M404.5,213.6L301,110.2l0,0l17-17c11.7-11.7,30.6-11.7,42.3,0l61.1,61.1c11.7,11.7,11.7,30.6,0,42.3
	L404.5,213.6L404.5,213.6z"/>
<path class="st0" d="M309.1,118.3l-46.2,46.2l16.1,16.1c0,0,0,0,0,0l28.9-28.9c2.7-2.7,7.2-2.7,9.9,0v0c2.7,2.7,2.7,7.2,0,9.9
	l-28.9,28.9c0,0,0,0,0,0l12.6,12.6c0,0,0,0,0,0l28.9-28.9c2.7-2.7,7.2-2.7,9.9,0c0,0,0,0,0,0c2.7,2.7,2.7,7.2,0,9.9L311.4,213
	c0,0,0,0,0,0l12.6,12.6c0,0,0,0,0,0l28.9-28.9c0,0,0,0,0,0c2.7-2.7,7.2-2.7,9.9,0c0,0,0,0,0,0c2.7,2.7,2.7,7.2,0,9.9L334,235.5
	c0,0,0,0,0,0l16.2,16.2l46.2-46.2L309.1,118.3z"/>
<path class="st0" d="M181.5,373.6h29.8v34.7h-29.8V373.6z"/>
<path class="st0" d="M211.3,373.6h29.8v54h-29.8V373.6z"/>
<path class="st0" d="M241.1,373.6h29.8v34.7h-29.8L241.1,373.6z"/>
<path class="st0" d="M270.9,373.6h29.8v54h-29.8V373.6z"/>
<path class="st0" d="M300.7,373.6h29.8v34.7h-29.8V373.6z"/>
<circle class="st0" cx="197.6" cy="299.6" r="35.8"/>
<circle class="st0" cx="307.9" cy="293.1" r="35.6"/>
<ellipse transform="matrix(0.1602 -0.9871 0.9871 0.1602 -6.9473 441.5224)" class="st0" cx="256" cy="224.8" rx="23.4" ry="23.4"/>
<g>
	<path class="st0" d="M265.3,294l-34.6,32.7c-0.5,0.7-1.1,1.3-1.7,1.9h55.5C273.2,321.2,265.7,308.5,265.3,294z"/>
	<path class="st0" d="M169.9,266.9l64.9-63.8c0.1-0.1,0.3-0.3,0.4-0.4c5.4-5.1,12.7-8.2,20.8-8.2c8,0,15.3,3.1,20.7,8.1
		c0.2,0.2,0.4,0.3,0.6,0.5l59,58.3c4.3,3.9,7.9,8.6,10.3,14l14.1-13.1L256,157.6L151.3,262.2l12.2,11.4
		C165.4,271.2,167.5,268.9,169.9,266.9z"/>
	<path class="st0" d="M226.3,231.1l-26.1,25.7c22.1,1.3,39.6,19.3,40.3,41.5l37.3-35.2c7.2-7.2,16.9-11.9,27.7-12.5l-19.7-19.4
		c-2.9,13.8-15.1,24.1-29.7,24.1C241.4,255.3,229.1,244.9,226.3,231.1z"/>
</g>
<path class="st0" d="M331.2,328.6c-6.7,4.4-14.7,7-23.3,7c-8.6,0-16.7-2.6-23.4-7H229c-7.8,8.5-19,13.8-31.4,13.8
	c-12.4,0-23.6-5.3-31.5-13.8h-14.8v44.9h209.3v-44.9H331.2z"/>
</svg>
