<?xml version="1.0" encoding="utf-8"?>
<!-- Generator: Adobe Illustrator 23.0.1, SVG Export Plug-In . SVG Version: 6.00 Build 0)  -->
<svg version="1.1" id="Capa_1" xmlns="http://www.w3.org/2000/svg" xmlns:xlink="http://www.w3.org/1999/xlink" x="0px" y="0px"
	 viewBox="0 0 512 512" style="enable-background:new 0 0 512 512;" xml:space="preserve">
<style type="text/css">
	.st0{fill:#FF7925;}
</style>
<path class="st0" d="M20,345.7v41.3c0,47.7,35,87.3,80.7,94.5V512h30v-29.3h250.5V512h30v-30.5c45.7-7.2,80.7-46.9,80.7-94.5v-41.3
	H20z"/>
<path class="st0" d="M50,255.6V82.6c0-29,23.6-52.6,52.6-52.6c26.8,0,49,20.2,52.2,46.2c-31.2,7-54.7,35-54.7,68.3v20h140.1v-20
	c0-33.6-23.7-61.7-55.3-68.5C181.5,33.6,145.9,0,102.6,0C57.1,0,20,37,20,82.6v173.1H0v60h512v-60L50,255.6L50,255.6z"/>
</svg>
