<?xml version="1.0" encoding="utf-8"?>
<!-- Generator: Adobe Illustrator 23.0.1, SVG Export Plug-In . SVG Version: 6.00 Build 0)  -->
<svg version="1.1" id="Layer_1" xmlns="http://www.w3.org/2000/svg" xmlns:xlink="http://www.w3.org/1999/xlink" x="0px" y="0px"
	 viewBox="0 0 512 512" style="enable-background:new 0 0 512 512;" xml:space="preserve">
<style type="text/css">
	.st0{fill:#FF7925;}
</style>
<path class="st0" d="M53.3,202.7h53.3c-3.3,0-6.4-1.5-8.4-4.1c-2-2.6-2.7-6-1.9-9.2l6.6-26.5c3.6-14.3,16.3-24.2,31-24.2h68.7
	c17.6,0,32,14.4,32,32V192c0,5.9-4.8,10.7-10.7,10.7h64c-5.9,0-10.7-4.8-10.7-10.7v-21.3c0-17.6,14.4-32,32-32H378
	c14.7,0,27.5,10,31,24.2l6.6,26.5c0.8,3.2,0.1,6.6-1.9,9.2c-2,2.6-5.1,4.1-8.4,4.1h53.3c5.9,0,10.7-4.8,10.7-10.7v-64
	c0-29.4-23.9-53.3-53.3-53.3H96c-29.4,0-53.3,23.9-53.3,53.3v64C42.7,197.9,47.4,202.7,53.3,202.7z"/>
<path class="st0" d="M458.7,224H53.3C23.9,224,0,247.9,0,277.3v149.3c0,5.9,4.8,10.7,10.7,10.7s10.7-4.8,10.7-10.7v-32h469.3v32
	c0,5.9,4.8,10.7,10.7,10.7s10.7-4.8,10.7-10.7V277.3C512,247.9,488.1,224,458.7,224z M490.7,373.3H21.3V352h469.3L490.7,373.3
	L490.7,373.3z"/>
</svg>
