<?xml version="1.0" encoding="utf-8"?>
<!-- Generator: Adobe Illustrator 24.2.0, SVG Export Plug-In . SVG Version: 6.00 Build 0)  -->
<svg version="1.1" id="Layer_1" xmlns="http://www.w3.org/2000/svg" xmlns:xlink="http://www.w3.org/1999/xlink" x="0px" y="0px"
	 viewBox="0 0 37.9 35.3" style="enable-background:new 0 0 37.9 35.3;" xml:space="preserve">
<style type="text/css">
	.st0{fill:#000FFF;}
</style>
<g>
	<path class="st0" d="M0.5,1.9h2.9v32.9H0.5V1.9z"/>
	<path class="st0" d="M34.8,1.9h2.9v32.9h-2.9V1.9z"/>
	<path class="st0" d="M37.7,0.5v2.9H0.5V0.5H37.7z"/>
	<path class="st0" d="M9,31.9v2.9H0.5v-2.9H9z"/>
	<path class="st0" d="M37.7,31.9v2.9H14.8v-2.9H37.7z"/>
	<path class="st0" d="M14.8,21.9h20v1.4h-20C14.8,23.3,14.8,21.9,14.8,21.9z"/>
	<path class="st0" d="M16.2,3.3v11.4h-1.4V3.3H16.2z"/>
	<path class="st0" d="M16.2,19.1v7.2h-1.4v-7.2C14.8,19.1,16.2,19.1,16.2,19.1z"/>
	<path class="st0" d="M3.3,10.5h2.9v1.4H3.3V10.5z"/>
	<path class="st0" d="M11.9,10.5h2.9v1.4h-2.9V10.5z"/>
	<path class="st0" d="M16.2,30.5v2.9h-1.4v-2.9C14.8,30.5,16.2,30.5,16.2,30.5z"/>
</g>
</svg>
