<?xml version="1.0" encoding="utf-8"?>
<!-- Generator: Adobe Illustrator 16.0.0, SVG Export Plug-In . SVG Version: 6.00 Build 0)  -->
<!DOCTYPE svg PUBLIC "-//W3C//DTD SVG 1.1//EN" "http://www.w3.org/Graphics/SVG/1.1/DTD/svg11.dtd">
<svg version="1.1" id="Layer_1" xmlns="http://www.w3.org/2000/svg" xmlns:xlink="http://www.w3.org/1999/xlink" x="0px" y="0px" width="480px" height="256px" viewBox="0 0 480 256" enable-background="new 0 0 480 256" xml:space="preserve"><path d="M0,8v240c0,4.418,3.582,8,8,8h24c3.91,0,7.25-2.824,7.891-6.684L46.777,208h386.445l6.887,41.316 C440.75,253.176,444.09,256,448,256h24c4.418,0,8-3.582,8-8V136c0-4.418-3.582-8-8-8h-8V88c-0.016-13.25-10.75-23.984-24-24H272	c-0.012-8.832-7.168-15.988-16-16h-32c-8.832,0.012-15.988,7.168-16,16v16h-33.332C170.984,66.348,157.023,40,104,40 c-28.496,0-45.594,7.641-56,16.805V8c0-4.418-3.582-8-8-8H8C3.582,0,0,3.582,0,8z M157.969,80H50.023 C54.117,70.512,66.508,56,104,56C141.453,56,153.859,70.48,157.969,80z M208,96v32H48V96H208z M256,128h-32V64h32V128z M448,128H272	V80h168c4.418,0.004,7.996,3.582,8,8V128z M464,192H48v-48h416V192z M449.445,208H464v32h-9.227L449.445,208z M16,16h16v183.34 L25.227,240H16V16z"/>
</svg>
