<?xml version="1.0" encoding="utf-8"?>
<!-- Generator: Adobe Illustrator 16.0.0, SVG Export Plug-In . SVG Version: 6.00 Build 0)  -->
<!DOCTYPE svg PUBLIC "-//W3C//DTD SVG 1.1//EN" "http://www.w3.org/Graphics/SVG/1.1/DTD/svg11.dtd">
<svg version="1.1" id="Layer_1" xmlns="http://www.w3.org/2000/svg" xmlns:xlink="http://www.w3.org/1999/xlink" x="0px" y="0px" width="512px" height="372px" viewBox="0 0 512 372" enable-background="new 0 0 512 372" xml:space="preserve"><path d="M391,352c-2.629,0-5.211,1.07-7.07,2.93S381,359.371,381,362s1.07,5.211,2.93,7.07S388.371,372,391,372s5.211-1.07,7.07-2.93S401,364.629,401,362s-1.07-5.211-2.93-7.07S393.629,352,391,352z"/><path d="M248.93,322.93c-1.859,1.859-2.93,4.441-2.93,7.07s1.07,5.211,2.93,7.07S253.371,340,256,340s5.211-1.07,7.07-2.93S266,332.629,266,330s-1.07-5.211-2.93-7.07S258.629,320,256,320S250.789,321.07,248.93,322.93z"/><path d="M42.93,290.93C41.07,292.789,40,295.371,40,298s1.07,5.211,2.93,7.07S47.371,308,50,308s5.211-1.07,7.07-2.93S60,300.629,60,298s-1.07-5.211-2.93-7.07S52.629,288,50,288S44.789,289.07,42.93,290.93z"/><path d="M303.816,150.27c-3.359-0.773-6.875,0.238-9.313,2.676l-23.211,23.211c-2.285,2.285-3.324,5.535-2.789,8.723c0.531,3.188,2.574,5.918,5.477,7.336l35.004,17.07l17.172,35.105c1.418,2.902,4.152,4.941,7.336,5.473c0.551,0.09,1.102,0.137,1.648,0.137c2.629,0,5.18-1.039,7.07-2.93l23.211-23.211c2.438-2.441,3.449-5.965,2.672-9.328l-4.191-18.098l7.98-7.98l29.289,56.156c1.473,2.824,4.199,4.777,7.348,5.262c0.508,0.078,1.016,0.117,1.52,0.117c2.633,0,5.18-1.043,7.07-2.93l28.285-28.285c2.496-2.5,3.492-6.133,2.613-9.555l-19.781-77.109l13.082-13.082c12.988-12.988,18.938-31.555,15.914-49.668c-0.703-4.215-4.004-7.516-8.219-8.219c-18.109-3.023-36.68,2.926-49.664,15.914l-13.086,13.082l-77.105-19.781c-3.426-0.875-7.059,0.117-9.559,2.617l-28.281,28.285c-2.254,2.25-3.297,5.438-2.816,8.586c0.484,3.148,2.438,5.879,5.262,7.352l56.156,29.289l-7.957,7.953L303.816,150.27z M427.219,208.664l-14.617,14.617l-25.895-49.648l25.09-25.09L427.219,208.664z M295.086,105.766l14.617-14.617l60.117,15.422l-25.086,25.09L295.086,105.766z M332.184,172.496l81.297-81.297c6.574-6.578,15.355-10.371,24.48-10.789c-0.422,9.121-4.215,17.902-10.789,24.477l-59.742,59.738c-0.023,0.023-0.047,0.051-0.074,0.074l-21.516,21.516c-2.438,2.441-3.449,5.965-2.668,9.324l4.188,18.102l-9.387,9.387l-12.527-25.617c-0.98-2-2.598-3.617-4.602-4.594l-25.492-12.43l9.383-9.383l18.141,4.168C326.23,175.941,329.746,174.93,332.184,172.496z"/><path d="M64,166.129h168c5.523,0,10-4.48,10-10c0-5.523-4.477-10-10-10H64c-5.523,0-10,4.477-10,10C54,161.648,58.477,166.129,64,166.129z"/><path d="M64,208.129h168c5.523,0,10-4.48,10-10c0-5.523-4.477-10-10-10H64c-5.523,0-10,4.477-10,10C54,203.648,58.477,208.129,64,208.129z"/><path d="M232,250.129c5.523,0,10-4.48,10-10c0-5.523-4.477-10-10-10H64c-5.523,0-10,4.477-10,10c0,5.52,4.477,10,10,10H232z"/><path d="M64,116h168c5.523,0,10-4.477,10-10V58c0-5.523-4.477-10-10-10H64c-5.523,0-10,4.477-10,10v48C54,111.523,58.477,116,64,116z M74,68h148v28H74V68z"/><path d="M482,0H30C13.457,0,0,13.457,0,30v312c0,16.543,13.457,30,30,30h320.668c5.52,0,10-4.477,10-10s-4.48-10-10-10H30c-5.516,0-10-4.484-10-10V30c0-5.516,4.484-10,10-10h452c5.516,0,10,4.484,10,10v258H90.621c-5.52,0-10,4.477-10,10s4.48,10,10,10H492v34c0,5.516-4.484,10-10,10h-51c-5.523,0-10,4.477-10,10s4.477,10,10,10h51c16.543,0,30-13.457,30-30V30C512,13.457,498.543,0,482,0z"/>
</svg>
