<svg id="Layer_1" enable-background="new 0 0 512 512" height="512" viewBox="0 0 512 512" width="512" xmlns="http://www.w3.org/2000/svg"><path d="m509.07 2.93c-1.86-1.861-4.44-2.93-7.07-2.93h-492c-2.63 0-5.21 1.069-7.07 2.93-1.86 1.86-2.93 4.44-2.93 7.07v96c0 5.51 4.49 10 10 10s10-4.49 10-10v-86h472v472h-376v-282c0-77.196 62.804-140 140-140s140 62.804 140 140c0 5.522 4.477 10 10 10s10-4.478 10-10c0-88.225-71.776-160-160-160s-160 71.775-160 160v282h-76v-296c0-5.511-4.49-10-10-10s-10 4.489-10 10v306c0 2.63 1.07 5.21 2.93 7.069 1.86 1.861 4.44 2.931 7.07 2.931h492c2.63 0 5.21-1.07 7.07-2.931 1.86-1.859 2.93-4.439 2.93-7.069v-492c0-2.63-1.07-5.21-2.93-7.07z"/><path d="m10 161c5.51 0 10-4.49 10-10 0-5.511-4.49-10-10-10s-10 4.489-10 10c0 5.51 4.49 10 10 10z"/><path d="m406 446.67c-5.51 0-10 4.479-10 10 0 5.51 4.49 10 10 10s10-4.49 10-10c0-5.521-4.49-10-10-10z"/><path d="m416 298c0-5.511-4.49-10-10-10s-10 4.489-10 10v113.67c0 5.51 4.49 9.99 10 9.99s10-4.48 10-9.99z"/><path d="m406 243c-5.51 0-10 4.489-10 10 0 5.51 4.49 10 10 10s10-4.49 10-10c0-5.511-4.49-10-10-10z"/><path d="m316 186c0-33.084-26.916-60-60-60s-60 26.916-60 60 26.916 60 60 60 60-26.916 60-60zm-100 0c0-22.056 17.944-40 40-40s40 17.944 40 40-17.944 40-40 40-40-17.944-40-40z"/><path d="m250 306c0-5.522-4.477-10-10-10h-74c-16.542 0-30 13.458-30 30s13.458 30 30 30 30-13.458 30-30c0-3.506-.61-6.87-1.72-10h45.72c5.523 0 10-4.478 10-10zm-84 30c-5.514 0-10-4.486-10-10s4.486-10 10-10 10 4.486 10 10-4.486 10-10 10z"/>
</svg>