<?xml version="1.0" encoding="iso-8859-1"?>
<!-- Generator: Adobe Illustrator 19.0.0, SVG Export Plug-In . SVG Version: 6.00 Build 0)  -->
<svg version="1.1" id="Capa_1" xmlns="http://www.w3.org/2000/svg" xmlns:xlink="http://www.w3.org/1999/xlink" x="0px" y="0px" viewBox="0 0 480 480" style="enable-background:new 0 0 480 480;" xml:space="preserve"><path d="M72,272c-22.091,0-40,17.909-40,40c0,22.091,17.909,40,40,40s40-17.909,40-40C111.974,289.92,94.08,272.026,72,272z M72,336c-13.255,0-24-10.745-24-24s10.745-24,24-24s24,10.745,24,24S85.255,336,72,336z"/><rect x="128" y="432" width="16" height="16"/><rect x="96" y="432" width="16" height="16"/><rect x="64" y="432" width="16" height="16"/><rect x="368" y="64" width="16" height="16"/><rect x="336" y="80" width="16" height="16"/><path d="M472,0H280c-4.418,0-8,3.582-8,8v48H104c-3.89,0.001-7.215,2.8-7.88,6.632L65.272,240H56v-56c0-4.418-3.582-8-8-8H8c-4.418,0-8,3.582-8,8v32c0,4.418,3.582,8,8,8h32v16c-22.08,0.026-39.974,17.92-40,40v64c0.024,19.001,13.389,35.373,32,39.2V472c0,4.418,3.582,8,8,8h128c4.418,0,8-3.582,8-8v-88h168v64c0,17.673,14.327,32,32,32c17.673,0,32-14.327,32-32V224h32c22.08-0.026,39.974-17.92,40-40V8C480,3.582,476.418,0,472,0z M110.728,72H272v24H136c-3.908,0.001-7.243,2.826-7.888,6.68L105.224,240H81.512L110.728,72z M16,208v-16h24v16H16z M160,464H48v-80h16v32h16v-32h16v32h16v-32h16v32h16v-32h16V464z M344,336H144v-16h200V336z M344,304H144v-16h200V304z M344,272H136c-4.418,0-8,3.582-8,8v64c0,4.418,3.582,8,8,8h208v16H40c-13.255,0-24-10.745-24-24v-64c0-13.255,10.745-24,24-24h304V272z M344,240H121.44l21.336-128H272v72c0.026,22.08,17.92,39.974,40,40h32V240z M464,184c0,13.255-10.745,24-24,24h-40c-4.418,0-8,3.582-8,8v232c0,8.837-7.163,16-16,16s-16-7.163-16-16V216c0-4.418-3.582-8-8-8h-40c-13.255,0-24-10.745-24-24v-40h176V184z M464,128H288V16h16v88h16V16h16v48h16V16h16v32h16V16h16v88h16V16h16v72h16V16h16V128z"/>
</svg>
