<?xml version="1.0" encoding="utf-8"?>
<!-- Generator: Adobe Illustrator 16.0.0, SVG Export Plug-In . SVG Version: 6.00 Build 0)  -->
<!DOCTYPE svg PUBLIC "-//W3C//DTD SVG 1.1//EN" "http://www.w3.org/Graphics/SVG/1.1/DTD/svg11.dtd">
<svg version="1.1" id="Layer_1" xmlns="http://www.w3.org/2000/svg" xmlns:xlink="http://www.w3.org/1999/xlink" x="0px" y="0px" width="575px" height="230.722px" viewBox="0 0 575 230.722" enable-background="new 0 0 575 230.722" xml:space="preserve"><path d="M239.602,86.938h38.334v19.171h-38.334V86.938z"/><path d="M566.816,58.283l-65.102-9.297c-11.871-7.293-24.19-13.821-36.892-19.55c-41.945-19-87.472-28.803-133.523-28.752h-11.309C265.644,0.723,212.167,14.36,164.434,40.352l-32.855,17.923C93.12,58.708,55.401,68.937,21.988,87.983C8.41,95.771,0.025,110.22,0.001,125.869v56.909c0,5.296,4.29,9.585,9.586,9.585h32.181c10.467,29.86,43.158,45.584,73.019,35.117c16.438-5.76,29.357-18.684,35.117-35.117h256.057c10.467,29.86,43.158,45.584,73.019,35.117c16.434-5.76,29.356-18.684,35.117-35.117h3.439c1.221,0,2.43-0.23,3.564-0.682l31.042-12.456c13.867-5.491,22.949-18.914,22.898-33.822V67.771C575.041,63.006,571.535,58.961,566.816,58.283z M133.4,180.863c-4.239,20.743-24.49,34.123-45.233,29.884c-20.747-4.239-34.126-24.49-29.888-45.237c4.243-20.743,24.494-34.123,45.237-29.884c17.849,3.646,30.664,19.351,30.66,37.57C134.176,175.771,133.915,178.34,133.4,180.863z M306.688,173.197H153.343c0-31.76-25.742-57.506-57.501-57.506c-31.76,0-57.506,25.746-57.506,57.506H19.169v-47.328c0.012-8.778,4.715-16.886,12.335-21.246C62.78,86.767,98.166,77.368,134.176,77.356h172.512V173.197z M306.688,58.189H171.766l1.849-1.01c40.975-22.268,86.488-34.891,133.074-36.907V58.189z M325.855,19.851h5.425c38.623-0.043,76.896,7.289,112.769,21.604l-16.733,16.734h-101.46V19.851z M497.593,180.863c-4.239,20.743-24.49,34.123-45.237,29.884c-20.742-4.239-34.122-24.49-29.884-45.237c4.239-20.743,24.494-34.123,45.237-29.884c17.849,3.646,30.664,19.351,30.66,37.57C498.369,175.771,498.107,178.34,497.593,180.863z M555.874,86.938h-28.753v19.171h28.753v39.294c0.023,7.063-4.282,13.419-10.849,16.012l-27.489,11.04c0-0.881-0.113-1.755-0.172-2.636s-0.078-1.915-0.172-2.874c-0.098-0.959-0.288-1.918-0.44-2.874c-0.156-0.959-0.269-1.919-0.46-2.789c-0.191-0.874-0.472-1.84-0.722-2.753c-0.249-0.909-0.44-1.829-0.729-2.722c-0.284-0.889-0.632-1.743-0.955-2.617c-0.327-0.87-0.624-1.771-0.959-2.636c-0.336-0.862-0.788-1.646-1.189-2.461c-0.402-0.815-0.796-1.708-1.244-2.531c-0.452-0.823-0.96-1.525-1.393-2.289c-0.429-0.768-0.955-1.642-1.501-2.426c-0.55-0.788-1.057-1.408-1.584-2.118c-0.526-0.709-1.123-1.544-1.735-2.281c-0.612-0.737-1.186-1.314-1.782-1.918c-0.593-0.601-1.255-1.416-1.914-2.086c-0.663-0.671-1.314-1.201-1.974-1.794c-0.663-0.593-1.373-1.294-2.102-1.918c-0.726-0.62-1.467-1.1-2.192-1.646c-0.729-0.546-1.458-1.131-2.223-1.642c-0.768-0.507-1.63-0.956-2.453-1.494c-0.826-0.538-1.497-0.959-2.273-1.369c-0.775-0.414-1.743-0.846-2.624-1.268c-0.882-0.421-1.571-0.795-2.387-1.139c-0.815-0.347-1.919-0.71-2.874-1.053c-0.96-0.347-1.584-0.616-2.398-0.874c-1.092-0.335-2.211-0.577-3.326-0.854c-0.729-0.172-1.428-0.402-2.165-0.554c-1.178-0.242-2.387-0.375-3.584-0.55c-0.709-0.093-1.388-0.25-2.098-0.316c-1.919-0.191-3.833-0.296-5.846-0.296c-31.748,0.031-57.475,25.758-57.506,57.506h-76.7V77.353h105.422c2.543,0,4.98-1.01,6.774-2.808l24.853-24.853c10.432,4.964,20.575,10.514,30.383,16.621c1.131,0.706,2.395,1.17,3.717,1.361l58.866,8.404V86.938z"/>
</svg>
