<?xml version="1.0" encoding="utf-8"?>
<!-- Generator: Adobe Illustrator 16.0.0, SVG Export Plug-In . SVG Version: 6.00 Build 0)  -->
<!DOCTYPE svg PUBLIC "-//W3C//DTD SVG 1.1//EN" "http://www.w3.org/Graphics/SVG/1.1/DTD/svg11.dtd">
<svg version="1.1" id="Capa_1" xmlns="http://www.w3.org/2000/svg" xmlns:xlink="http://www.w3.org/1999/xlink" x="0px" y="0px" width="500px" height="458.335px" viewBox="0 0 500 458.335" enable-background="new 0 0 500 458.335" xml:space="preserve"><path d="M493.143,35.909C482.074,13.763,459.802,0,435.028,0H233.172c-38.651,0-75.543,16.561-101.223,45.451L34.135,155.478C12.067,180.288-0.081,212.241,0,246.786l17.418,134.44h0.01c2.492,19.267,11.436,37.444,25.181,51.188c16.716,16.713,38.937,25.92,62.581,25.92h353.136c22.984,0,41.674-18.688,41.674-41.668V64.962C500,54.932,497.63,44.882,493.143,35.909z M479.168,416.667L479.168,416.667c-0.001,11.484-9.35,20.834-20.834,20.834H105.255c-18.066,0-35.064-7.039-47.842-19.816c-10.508-10.508-17.344-24.404-19.246-39.145L20.833,245.442c0-28.098,10.284-55.125,28.94-76.131l97.8-110.025c21.729-24.435,52.948-38.452,85.643-38.452h201.823c16.825,0,31.952,9.349,39.47,24.394c3.052,6.094,4.659,12.919,4.659,19.734V416.667z"/><path d="M455.871,54.545c-3.957-7.944-11.942-12.878-20.833-12.878H233.216c-26.743,0-52.287,11.465-70.068,31.464l-97.81,110.025c-12.288,13.845-23.672,30.264-23.672,56.426c0,5.758,4.659,10.418,10.417,10.418h395.833c5.758,0,10.417-4.66,10.417-10.418V64.962C458.333,61.36,457.479,57.76,455.871,54.545z M437.501,229.167L437.501,229.167H63.334c1.912-11.026,7.253-20.538,17.578-32.175l97.799-110.016c13.835-15.554,33.701-24.476,54.505-24.476h201.823c0.967,0,1.771,0.488,2.462,2.462V229.167z"/><path d="M447.917,291.667h-62.5c-5.758,0-10.417,4.66-10.417,10.418s4.659,10.416,10.417,10.416h62.5c5.758,0,10.417-4.658,10.417-10.416C458.333,296.327,453.675,291.667,447.917,291.667z"/><path d="M226.115,86.386c-4.069-4.069-10.661-4.069-14.729,0l-20.833,20.833c-4.069,4.069-4.069,10.661,0,14.729c2.033,2.035,4.699,3.052,7.364,3.052s5.33-1.018,7.365-3.052l20.833-20.833C230.185,97.046,230.185,90.454,226.115,86.386z"/><path d="M267.782,86.386c-4.069-4.069-10.661-4.069-14.729,0l-62.5,62.5c-4.069,4.069-4.069,10.661,0,14.729c2.034,2.034,4.7,3.052,7.365,3.052s5.33-1.018,7.365-3.052l62.5-62.5C271.852,97.046,271.852,90.454,267.782,86.386z"/><path d="M447.917,354.167h-375c-5.758,0-10.417,4.66-10.417,10.418S67.159,375,72.917,375h375c5.758,0,10.417-4.658,10.417-10.416S453.675,354.167,447.917,354.167z"/>
</svg>
