<?xml version="1.0" encoding="iso-8859-1"?>
<!-- Generator: Adobe Illustrator 19.0.0, SVG Export Plug-In . SVG Version: 6.00 Build 0)  -->
<svg version="1.1" id="Capa_1" xmlns="http://www.w3.org/2000/svg" xmlns:xlink="http://www.w3.org/1999/xlink" x="0px" y="0px" viewBox="0 0 512 512" style="enable-background:new 0 0 512 512;" xml:space="preserve"><path d="M437,0H75C33.645,0,0,33.645,0,75v362c0,41.355,33.645,75,75,75h362c41.355,0,75-33.645,75-75V75    C512,33.645,478.355,0,437,0z M482,437c0,24.813-20.187,45-45,45H75c-24.813,0-45-20.187-45-45V75c0-24.813,20.187-45,45-45h362    c24.813,0,45,20.187,45,45V437z"/><path d="M406.999,241.999h30c8.284,0,15-6.716,15-15v-60C452,158.716,445.284,152,437,152h-30c-5.258,0-10.305,0.915-15,2.58V137    c0-24.813-20.187-45-45-45h-30c-8.284,0-15,6.716-15,15s6.716,15,15,15h30c8.271,0,15,6.729,15,15v45H75c-8.284,0-15,6.716-15,15    c0,41.355,33.645,75,75,75c11.489,0,22.453,2.871,32.112,8.019l-15.194,31.212C142.666,305.394,131.725,302,120,302    c-33.084,0-60,26.916-60,60s26.916,60,60,60s60-26.916,60-60c0-9.646-2.302-18.76-6.363-26.843l16.86-34.635    c3.898,5.452,7.045,11.537,9.247,18.142l11.026,33.079C212.812,357.869,218.543,362,225,362h62c6.457,0,12.188-4.131,14.23-10.257    l11.026-33.079c7.682-23.046,26.764-39.836,49.743-44.994v36.401c-17.916,10.391-30,29.769-30,51.928c0,33.084,26.916,60,60,60    s60-26.916,60-60s-26.916-60-60-60c0-6.216,0-56.357,0-62.58C396.694,241.084,401.741,241.999,406.999,241.999z M407,182h15v30    h-15c-8.271,0-15-6.729-15-15S398.729,182,407,182z M120,392c-16.542,0-30-13.458-30-30s13.458-30,30-30s30,13.458,30,30    S136.542,392,120,392z M135,242c-19.556,0-36.239-12.539-42.43-30H242v30H135z M283.796,309.177L276.188,332h-40.377    l-7.608-22.823c-4.755-14.264-12.553-27.054-22.515-37.378h100.607C296.337,282.122,288.55,294.917,283.796,309.177z M272,242v-30    h90v30H272z M392,332c16.542,0,30,13.458,30,30s-13.458,30-30,30s-30-13.458-30-30S375.458,332,392,332z"/>
</svg>
