<?xml version="1.0" encoding="utf-8"?>
<!-- Generator: Adobe Illustrator 16.0.0, SVG Export Plug-In . SVG Version: 6.00 Build 0)  -->
<!DOCTYPE svg PUBLIC "-//W3C//DTD SVG 1.1//EN" "http://www.w3.org/Graphics/SVG/1.1/DTD/svg11.dtd">
<svg version="1.1" id="Layer_1" xmlns="http://www.w3.org/2000/svg" xmlns:xlink="http://www.w3.org/1999/xlink" x="0px" y="0px" width="409.546px" height="512px" viewBox="59.62 0 409.546 512" enable-background="new 59.62 0 409.546 512" xml:space="preserve"><path id="Shape" d="M93.867,0C78.293-0.05,64.66,10.448,60.729,25.518c-3.931,15.069,2.837,30.889,16.451,38.453c13.614,7.563,30.622,4.953,41.34-6.345l38.314,21.282c4.098,2.291,7.087,6.151,8.277,10.692l3.234,13.03c-5.183,0.715-9.748,3.778-12.374,8.303H102.4c-14.138,0-25.6,11.461-25.6,25.6c0,14.139,11.462,25.6,25.6,25.6h53.572c3.024,5.263,8.625,8.515,14.694,8.533h3.977c-31.173,35.234-47.84,80.971-46.643,128c0,92.707,16.299,113.699,19.567,116.967c0.283,0.282,0.585,0.545,0.905,0.785c1.109,0.854,26.769,19.627,81.92,25.489v35.959c0,18.852,15.282,34.134,34.134,34.134c18.851,0,34.133-15.282,34.133-34.134v-35.959c55.159-5.888,80.819-24.653,81.92-25.489c0.319-0.24,0.621-0.503,0.904-0.785c3.285-3.268,19.584-24.26,19.584-116.967c1.197-47.029-15.47-92.766-46.643-128h3.977c6.069-0.018,11.67-3.27,14.694-8.533h53.572c14.138,0,25.6-11.461,25.6-25.6c0-14.138-11.462-25.6-25.6-25.6h-53.572c-2.626-4.525-7.19-7.588-12.374-8.303l3.2-12.911c1.186-4.601,4.201-8.516,8.346-10.837l38.28-21.257c11.298,11.774,29.359,13.877,43.061,5.015c13.7-8.863,19.188-26.199,13.081-41.331s-22.09-23.803-38.104-20.674c-16.015,3.129-27.558,17.18-27.519,33.497c0.04,2.885,0.45,5.753,1.221,8.533L364.032,63.94c-8.269,4.601-14.286,12.393-16.648,21.555l-4.19,16.904h-24.746c-9.852-20.84-30.837-34.132-53.889-34.132c-23.051,0-44.036,13.292-53.888,34.132h-24.747l-4.267-17.015c-2.374-9.094-8.365-16.82-16.581-21.385L126.78,42.667c0.77-2.78,1.18-5.648,1.22-8.533C128,15.282,112.718,0,93.867,0L93.867,0z M435.2,17.066c9.426,0,17.066,7.641,17.066,17.067S444.626,51.2,435.2,51.2s-17.066-7.641-17.066-17.067S425.774,17.066,435.2,17.066z M93.867,136.533c0-4.713,3.82-8.533,8.533-8.533h51.2v17.066h-51.2C97.687,145.066,93.867,141.246,93.867,136.533z M264.533,307.2c18.357-0.642,36.395,4.923,51.2,15.795v62.089c-16.531,5.324-33.837,7.842-51.2,7.449c-17.363,0.393-34.668-2.126-51.2-7.449v-62.08C228.136,312.125,246.175,306.558,264.533,307.2z M264.533,494.934c-9.426,0-17.066-7.642-17.066-17.067v-68.975c5.291,0.409,10.88,0.708,17.066,0.708c6.188,0,11.776-0.299,17.066-0.708v68.975C281.6,487.292,273.959,494.934,264.533,494.934z M384,298.666c0,79.65-12.596,101.82-14.361,104.585c-4.267,2.808-27,16.521-70.972,21.521v-17.92c10.171-1.451,20.099-4.279,29.508-8.405c2.852-1.469,4.638-4.413,4.625-7.621v-71.68c0.007-2.23-0.86-4.374-2.415-5.973c-15.905-13.972-36.16-22.002-57.318-22.725v-68.583c0-4.713-3.82-8.533-8.533-8.533s-8.533,3.82-8.533,8.533v68.583c-21.158,0.723-41.413,8.753-57.318,22.725c-1.555,1.599-2.421,3.742-2.415,5.973v71.68c0,3.195,1.785,6.123,4.625,7.587c9.41,4.124,19.337,6.948,29.508,8.396v17.92c-43.631-4.958-66.364-18.5-70.827-21.427c-2.33-3.567-14.507-26.309-14.507-104.637c0-79.359,43.861-119.671,54.11-128h23.628c23.166,22.756,60.291,22.756,83.457,0h23.629C340.173,179.021,384,219.307,384,298.666z M435.2,136.533c0,4.713-3.82,8.533-8.533,8.533h-51.2V128h51.2C431.38,128,435.2,131.82,435.2,136.533z M358.4,119.467V153.6h-39.979c3.841-7.988,5.838-16.737,5.846-25.6c-0.023-2.857-0.252-5.709-0.683-8.533H358.4z M264.533,85.333c23.564,0,42.667,19.103,42.667,42.667s-19.103,42.667-42.667,42.667c-23.564,0-42.667-19.103-42.667-42.667C221.895,104.448,240.981,85.361,264.533,85.333z M210.646,153.6h-39.979v-34.133h34.816c-0.43,2.824-0.659,5.676-0.683,8.533C204.808,136.863,206.805,145.612,210.646,153.6z M93.867,51.2c-9.426,0-17.067-7.641-17.067-17.067s7.641-17.067,17.067-17.067s17.066,7.641,17.066,17.067c0,4.526-1.798,8.867-4.999,12.068S98.393,51.2,93.867,51.2z"/><path id="Shape_1_" d="M181.888,239.369c-4.47-1.485-9.298,0.933-10.786,5.401c-5.527,17.451-8.546,35.597-8.969,53.896c0,4.713,3.82,8.534,8.533,8.534s8.534-3.821,8.534-8.534c0.448-16.467,3.174-32.791,8.098-48.511C188.782,245.682,186.36,240.854,181.888,239.369L181.888,239.369z"/><path id="Shape_2_" d="M349.866,298.666c0,4.713,3.821,8.534,8.534,8.534s8.533-3.821,8.533-8.534c-0.423-18.299-3.442-36.445-8.969-53.896c-1.487-4.477-6.322-6.901-10.799-5.414c-4.478,1.487-6.901,6.322-5.414,10.799C346.682,265.873,349.412,282.199,349.866,298.666L349.866,298.666z"/><circle id="Oval" cx="264.533" cy="128" r="8.533"/>
</svg>
