<?xml version="1.0" encoding="utf-8"?>
<!-- Generator: Adobe Illustrator 16.0.0, SVG Export Plug-In . SVG Version: 6.00 Build 0)  -->
<!DOCTYPE svg PUBLIC "-//W3C//DTD SVG 1.1//EN" "http://www.w3.org/Graphics/SVG/1.1/DTD/svg11.dtd">
<svg version="1.1" id="plougher" xmlns="http://www.w3.org/2000/svg" xmlns:xlink="http://www.w3.org/1999/xlink" x="0px" y="0px"   width="512px" height="193.173px" viewBox="0 159.414 512 193.173" enable-background="new 0 159.414 512 193.173"   xml:space="preserve"> <path d="M501.49,336.489H336.163c7.681-8.555,12.399-19.82,12.399-32.196h16.098h120.732c4.445,0,8.05-3.601,8.05-8.049  c0-4.449-3.604-8.049-8.05-8.049h-24.146V256h8.048c4.445,0,8.05-3.599,8.05-8.048s-3.604-8.049-8.05-8.049H437.1  c-4.444,0-8.049,3.6-8.049,8.049S432.655,256,437.1,256h8.05v32.195h-72.441v-64.391c0-22.189-18.055-40.244-40.243-40.244H227.829  v-16.099c0-4.449-3.604-8.048-8.049-8.048h-40.245c-4.445,0-8.049,3.599-8.049,8.048v16.099h-16.098v-16.099  c0-4.449-3.604-8.048-8.049-8.048h-40.245c-4.445,0-8.049,3.599-8.049,8.048v16.099H82.949v-16.099c0-4.449-3.604-8.048-8.049-8.048  H34.655c-4.445,0-8.049,3.599-8.049,8.048v16.099H10.509c-4.445,0-8.049,3.6-8.049,8.048v48.293c0,4.449,3.604,8.049,8.049,8.049  h16.098v32.196c0,26.63,21.664,48.292,48.293,48.292c4.445,0,8.049-3.6,8.049-8.049v-72.439h16.098v32.196  c0,26.63,21.664,48.292,48.293,48.292c4.445,0,8.049-3.6,8.049-8.049v-72.439h16.098v32.196c0,26.63,21.664,48.292,48.293,48.292  c4.445,0,8.049-3.6,8.049-8.049v-72.439h8.049v48.292c0,4.448,3.604,8.049,8.049,8.049h8.049c0,12.376,4.719,23.642,12.399,32.196  H18.558c-4.445,0-8.049,3.6-8.049,8.049s3.604,8.049,8.049,8.049H501.49c4.446,0,8.05-3.6,8.05-8.049  S505.937,336.489,501.49,336.489z M187.584,175.511h24.147v8.049h-24.147V175.511z M115.145,175.511h24.146v8.049h-24.146V175.511z   M42.705,175.511h24.146v8.049H42.705V175.511z M66.851,311.32c-13.871-3.576-24.146-16.2-24.146-31.173v-32.196h24.146V311.32z   M139.291,311.32c-13.87-3.576-24.146-16.2-24.146-31.173v-48.295h24.146V311.32z M211.731,311.32  c-13.87-3.576-24.147-16.2-24.147-31.173v-32.196h24.147V311.32z M251.976,288.195v-48.293c0-4.449-3.604-8.05-8.049-8.05h-88.538  v-8.048c0-4.449-3.604-8.048-8.049-8.048h-40.245c-4.445,0-8.049,3.599-8.049,8.048v8.048H18.558v-32.195h313.907  c13.314,0,24.146,10.833,24.146,24.147v64.391h-10.865C339.095,269.468,321.249,256,300.27,256  c-20.98,0-38.826,13.468-45.477,32.195H251.976z M268.073,304.293c0-17.756,14.443-32.195,32.196-32.195  c17.751,0,32.195,14.439,32.195,32.195s-14.444,32.196-32.195,32.196C282.517,336.489,268.073,322.049,268.073,304.293z"/> <circle cx="300.27" cy="305.378" r="16.098"/>
</svg>
