<svg height="512" viewBox="0 0 60 56" width="512" xmlns="http://www.w3.org/2000/svg"><g id="Page-1" fill="none" fill-rule="evenodd"><g id="016---Propeller" fill="rgb(0,0,0)" fill-rule="nonzero"><path id="Shape" d="m49.738 37.084c.7448577-4.5022642-.108027-9.123265-2.411-13.063-.00188-.007143-.0042182-.0141576-.007-.021 0-.006-.01-.01-.014-.016-1.7495472-3.0243249-4.262715-5.5361134-7.288-7.284-.007 0-.011-.012-.018-.016s-.018 0-.027-.009c-1.9128629-1.1005483-3.9973078-1.8713129-6.166-2.28.064-.686.137-1.369.224-2.038.08-.6.2-1.3.32-2.042.4909794-2.24045458.6823179-4.53617994.569-6.827-.0759988-1.4880106-1.0332045-2.7868505-2.432-3.3-2.093-.748-3.769.928-4.576 1.735-3.4874138 3.75326221-5.5477007 8.6109671-5.822 13.727-3.9416061 1.7004329-7.2331324 4.6214434-9.39 8.333 0 .007-.011.01-.015.017s0 .015-.008.022c-3.2533924 5.6298575-3.55206915 12.4938225-.8 18.385-.925.565-1.858 1.12-2.789 1.625-.545.3-1.2.622-1.891.969-2.08066551.9109242-4.03106692 2.0942798-5.8 3.519-1.15817995.9380534-1.64822789 2.4746111-1.247 3.91.621 2.126 2.966 2.5 4.094 2.678.89779673.1406392 1.80525579.2105209 2.714.209 4.576283-.0994329 9.0201612-1.5545081 12.769-4.181 3.0976538 1.876934 6.6510768 2.8675894 10.273 2.864 3.4971205-.0015952 6.932696-.9201392 9.964-2.664.012-.007.024-.009.036-.015s.011-.012.018-.016c1.7235595-1.0010166 3.2856001-2.2572573 4.633-3.726 1.2.758 2.376 1.527 3.475 2.251 3.008 1.978 5.505 3.609 7.4 4.224.0594776.0252537.1215018.0440286.185.056.3823143.1248115.7793884.1987796 1.181.22h.036c1.4201454.0497415 2.669629-.9307589 2.959-2.322.414-1.851-.384-3.713-.966-5.069-1.9272331-4.1832469-5.1460492-7.6376118-9.183-9.855zm-1.877-.971c-2.4720259-1.1622343-5.1366349-1.8601646-7.861-2.059 0-.018 0-.036 0-.054-.0015872-1.4145287-.3053673-2.8123944-.891-4.1l6.949-4.012c1.6187733 3.1498037 2.246284 6.7158076 1.8 10.229zm-25.861-2.113c0-4.418278 3.581722-8 8-8s8 3.581722 8 8-3.581722 8-8 8c-4.4162219-.0049599-7.9950401-3.5837781-8-8zm-9.967-1c.1383135-2.4784654.788649-4.9013909 1.91-7.116l6.948 4.016c-.446971.9806864-.7307086 2.0278134-.84 3.1zm20.959-28.3c-.0732215 1.77247789-.2784567 3.53703275-.614 5.279-.128.767-.247 1.486-.329 2.109-.127.969-.22 1.958-.3 2.948 0 .007-.006.012-.007.019s0 .026 0 .04c-.16 1.964-.255 3.927-.337 5.731-.051 1.145-.1 2.241-.165 3.256-.4112676-.0526645-.8253787-.0800493-1.24-.082-.4012474.0024387-.8019797.0291542-1.2.08-1.952-6.695-.246-14.627 4.192-19.38zm-1.992 39.249c1.072167-.1093974 2.1192771-.3931304 3.1-.84l4.012 6.948c-2.2137817 1.1197898-4.6350718 1.7700519-7.112 1.91zm14.057-19.8-6.957 4.017c-.6295344-.8714475-1.3945525-1.6364656-2.266-2.266l4.014-6.952c2.0771718 1.3562168 3.8507891 3.1281316 5.209 5.204zm-6.948-6.2-4.009 6.942c-.29-.1333333-.5866667-.2503333-.89-.351.075-1.125.132-2.342.189-3.622.065-1.435.137-2.973.244-4.525 1.5519115.3177812 3.0540398.8428198 4.466 1.561zm-8.782-14.612c.98-.981 1.735-1.537 2.488-1.265.2247753.07623951.4278494.20556203.592.377-.175.161-.343.323-.495.474-5.154 5.164-7.2 14.088-5.069 21.6-.4584301.1537404-.9049622.3409095-1.336.56-3.007-6.991-1.398-16.519 3.82-21.746zm-7.291 14.523c.023882 2.8577592.6259712 5.6811155 1.77 8.3-.7257114.5758672-1.3687409 1.2488441-1.911 2l-6.943-4.009c1.7592733-2.6901689 4.2047953-4.8619333 7.084-6.291zm-10.005 17.14h8.02c.0654059.6546321.1957131 1.3011429.389 1.93-1.231.737-2.594 1.629-4.032 2.574-.9.592-1.858 1.216-2.833 1.839-.8991288-2.0018141-1.4224977-4.1518977-1.544-6.343zm-3.946 11.79c.717-.358 1.39-.7 1.951-1 1.206-.654 2.41-1.375 3.586-2.109l.015-.006c.0055734-.0040292.0109152-.0083695.016-.013 1.339-.836 2.641-1.688 3.854-2.486 1.323-.87 2.584-1.7 3.718-2.386.3434514.621362.7517272 1.2046131 1.218 1.74-3.823 5.683-10.664 9.488-16.862 9.31-.74154019.0366177-1.48092535-.106799-2.155-.418 1.48176148-.9978524 3.03954327-1.8778871 4.659-2.632zm-3.527 6.342c-1.372-.217-2.267-.5-2.488-1.262-.09513695-.3045366-.08811359-.631825.02-.932 1.02752117.6373117 2.22295361.9508906 3.431.9.154.005.306.007.459.007 6.644 0 13.808-3.991 17.939-9.926.3109454.2394237.6358521.4601466.973.661-1.3784127 2.5934835-3.3381838 4.8328796-5.726 6.543l-.029.02c-4.247 3.104-9.698 4.764-14.579 3.989zm22.148-9.7c.7413663.2630148 1.511483.4365764 2.294.517v8.015c-2.6374452-.1398061-5.2106876-.8650144-7.533-2.123 2.1637619-1.7584681 3.9463816-3.9395317 5.239-6.41zm13.137 5.617-3.484-6.034c.87.476 1.772.933 2.611 1.352.668.334 1.3.648 1.823.933.707.383 1.416.794 2.122 1.216-.9255261.956837-1.9560424 1.8062079-3.072 2.532zm1.9-5.508c-.546-.3-1.192-.618-1.881-.962-.916-.459-1.912-.961-2.833-1.477.5631593-.5620998 1.0579231-1.1887783 1.474-1.867 6.674 1.054 13.154 5.8 15.576 11.492.084.2.173.4.262.619-1.5-.809-3.319-2-5.118-3.187-2.288-1.507-4.883-3.214-7.478-4.619zm16.19 8.031c-.0932463.4695962-.5226287.7954974-1 .759h-.014c-.043 0-.1-.02-.148-.025-.219554-.8106006-.5041437-1.602168-.851-2.367-2.646-6.219-9.315-11.248-16.51-12.586.1552259-.4263376.2815126-.8626616.378-1.306 7.166.449 14.639 5.436 17.293 11.678.502 1.175 1.126 2.626.854 3.846z"/><path id="Shape" d="m32 31.5c0-1.9329966-1.5670034-3.5-3.5-3.5s-3.5 1.5670034-3.5 3.5 1.5670034 3.5 3.5 3.5 3.5-1.5670034 3.5-3.5zm-3.5 1.5c-.8284271 0-1.5-.6715729-1.5-1.5s.6715729-1.5 1.5-1.5 1.5.6715729 1.5 1.5-.6715729 1.5-1.5 1.5z"/><path id="Shape" d="m20.029 11.067c.3276126-.1429062.5540995-.4497363.5941453-.8049102.0400459-.35517387-.1124333-.7047323-.4-.91699997s-.6665328-.25499607-.9941453-.11208983c-12.43828099 5.4436377-18.93659632 19.2443862-15.209 32.3.09034184.3484729.36101445.6214933.7086942.7148412.34767974.0933479.71870078-.0073852.97143352-.2637467.25273275-.2563615.34816683-.6287807.24987228-.9750945-3.46166935-12.0976298 2.5540011-24.8912376 14.079-29.942z"/><path id="Shape" d="m22.719 3.843c-.0701124-.25604173-.2391555-.47369791-.4698766-.60500257-.230721-.13130466-.5041836-.16548101-.7601234-.09499743-8.7438067 2.42051901-16.05323479 8.4313491-20.117 16.543-.16076952.3195741-.13883594.7006422.05753857.9996597.1963745.2990175.53735598.4705566.8945.45.35714402-.0205565.67619191-.2300856.83696143-.5496597 3.80801557-7.6070128 10.661254-13.2440376 18.86-15.513.2556726-.0705415.4728493-.23976257.6037507-.47043415.1309014-.23067159.1648041-.50389695.0942493-.75956585z"/></g></g>
</svg>