<?xml version="1.0" encoding="utf-8"?>
<!-- Generator: Adobe Illustrator 16.0.0, SVG Export Plug-In . SVG Version: 6.00 Build 0)  -->
<!DOCTYPE svg PUBLIC "-//W3C//DTD SVG 1.1//EN" "http://www.w3.org/Graphics/SVG/1.1/DTD/svg11.dtd">
<svg version="1.1" id="Layer_1" xmlns="http://www.w3.org/2000/svg" xmlns:xlink="http://www.w3.org/1999/xlink" x="0px" y="0px"   width="500px" height="500px" viewBox="0 0 500 500" enable-background="new 0 0 500 500" xml:space="preserve"> <path fill-rule="evenodd" clip-rule="evenodd" d="M46.387,217.773c2.281-3.511,5.162-6.125,9.656-4.64  c4.473,1.477,5.115,5.22,5.111,9.46c-0.061,82.347-0.052,164.693-0.055,247.04c0,12.656,3.951,16.62,16.558,16.62  c114.895,0.001,229.789,0.001,344.684,0c12.599,0,16.561-3.975,16.562-16.626c0.001-145.814,0.001-291.63-0.001-437.445  c0-12.559-3.977-16.482-16.69-16.482c-114.896,0-229.789,0-344.684,0c-12.37,0-16.427,4.009-16.428,16.247  c-0.003,50.775,0.006,101.549-0.012,152.325c-0.002,6.625-3.704,10.554-8.909,8.949c-2.208-0.681-3.877-3.11-5.792-4.745  c0-55.338,0-110.677,0-166.016C49.858,11.61,57.036,4.464,67.871,0.977c121.419,0,242.839,0,364.258,0  c10.852,3.47,18.001,10.645,21.484,21.484c0,152.344,0,304.688,0,457.031c-3.498,10.824-10.653,17.992-21.484,21.484  c-121.419,0-242.838,0-364.258,0c-10.832-3.49-17.983-10.663-21.484-21.484C46.387,392.253,46.387,305.013,46.387,217.773z"/> <path fill-rule="evenodd" clip-rule="evenodd" d="M351.965,152.135c0.001,3.906,0.047,7.813-0.008,11.718  c-0.153,10.939-6.992,18.275-17.854,18.374c-3.801,0.034-4.761,1.901-6.207,4.64c-1.563,2.959-0.124,4.329,1.634,6.183  c7.488,7.894,7.35,17.779-0.333,25.62c-5.694,5.813-11.446,11.571-17.262,17.263c-7.854,7.686-17.712,7.807-25.576,0.108  c-2.391-2.34-4.247-3.004-7.588-1.746c-3.542,1.334-2.927,3.723-2.998,6.221c-0.308,10.766-7.447,17.899-18.309,18.068  c-8.136,0.127-16.277,0.11-24.413,0.004c-11.134-0.146-18.244-7.216-18.407-18.41c-0.045-3.122-0.243-5.321-3.792-6.784  c-3.467-1.43-4.679,0.683-6.464,2.399c-8.312,7.992-18.081,7.944-26.356-0.21c-5.68-5.597-11.337-11.22-16.912-16.923  c-7.854-8.035-7.815-17.862,0.036-25.994c1.885-1.953,3.92-3.312,2.293-6.924c-1.533-3.403-3.717-3.354-6.541-3.398  c-11.211-0.18-18.32-7.192-18.497-18.33c-0.129-8.135-0.139-16.277,0.003-24.412c0.193-11.139,7.258-18.145,18.497-18.327  c2.808-0.045,4.736-0.249,5.896-3.482c1.049-2.923,0.656-4.618-1.459-6.788c-8.34-8.556-8.139-18.069,0.336-26.621  c5.613-5.664,11.216-11.341,16.929-16.905c7.615-7.418,17.482-7.434,25.272-0.155c1.6,1.496,2.759,3.567,5.672,1.932  c2.653-1.49,5.155-2.067,5.208-6.313c0.137-11.012,7.384-17.775,18.328-17.918c8.136-0.106,16.276-0.114,24.412,0.003  c10.56,0.152,17.882,7.122,18.149,17.648c0.083,3.254,1.38,4.489,4.096,5.529c2.59,0.992,4.42,1.477,6.87-0.854  c7.982-7.591,17.627-7.238,25.529,0.549c5.68,5.597,11.32,11.235,16.917,16.917c7.757,7.877,8.128,17.539,0.508,25.534  c-2.597,2.724-1.473,4.685-0.627,7.34c0.908,2.854,2.501,3.527,5.344,3.612c10.544,0.316,17.47,7.558,17.659,18.141  C352.028,143.671,351.965,147.903,351.965,152.135z M337.219,151.879c0-3.904-0.03-7.809,0.01-11.712  c0.03-2.807-1.325-4.689-4.084-4.159c-11.167,2.145-16.189-3.586-18.128-13.586c-0.03-0.158-0.067-0.333-0.158-0.46  c-5.802-8.248-4.759-15.285,3.549-21.236c2.338-1.675,2.093-3.751,0.054-5.762c-5.558-5.482-10.938-11.155-16.694-16.418  c-1.012-0.925-4.57-0.985-5.15-0.167c-6.49,9.159-14.098,8.969-22.629,3.33c-0.134-0.088-0.287-0.174-0.442-0.2  c-9.854-1.679-14.345-7.127-12.579-17.349c0.585-3.386-1.612-4.51-4.788-4.438c-5.041,0.113-10.085,0.028-15.128,0.027  c-11.31,0-11.432-0.002-11.631,11.234c-0.085,4.786-2.192,7.535-6.641,8.961c-3.083,0.989-6.12,2.188-9.053,3.562  c-9.866,4.62-9.845,4.666-17.53-2.992c-0.461-0.459-0.967-0.882-1.375-1.385c-2.457-3.03-4.645-2.645-7.216,0.09  c-4.566,4.857-9.393,9.469-14.103,14.191c-4.449,4.46-4.438,4.458-0.091,8.854c7.293,7.376,9.637,7.457,3.748,19.171  c-0.219,0.436-0.535,0.865-0.605,1.327c-1.658,10.979-8.083,15.061-18.816,13.274c-3.324-0.554-4.677,1.334-4.6,4.614  c0.111,4.715,0.025,9.434,0.025,14.152c0,12.521-0.001,12.625,12.567,12.792c4.754,0.063,7.693,1.963,8.921,6.579  c0.416,1.562,0.802,3.258,1.7,4.546c6.585,9.454,5.201,17.344-4.243,23.97c-2.57,1.803-2.274,3.913-0.037,6.086  c5.016,4.875,9.894,9.891,14.843,14.833c4.3,4.293,4.515,4.356,8.86-0.151c9.649-10.007,9.824-8.912,19.856-3.854  c0.145,0.073,0.297,0.15,0.454,0.177c11.107,1.894,15.187,8.53,13.339,19.408c-0.551,3.249,1.222,4.711,4.563,4.658  c6.83-0.111,13.665-0.018,20.497-0.033c6.321-0.015,6.502-0.24,6.56-6.634c0.092-10.123-1.877-12.228,11.012-15.909  c0.31-0.088,0.627-0.211,0.892-0.39c9.098-6.136,16.842-5.046,23.264,4.147c1.64,2.347,3.7,2.18,5.737,0.111  c5.365-5.448,10.747-10.879,16.231-16.205c2.429-2.358,2.537-4.575-0.159-6.49c-8.516-6.048-7.998-12.459-3.906-21.717  c4.072-9.216,7.883-15.184,18.841-13.17c3.005,0.552,4.372-1.411,4.295-4.453C337.152,159.364,337.224,155.621,337.219,151.879z"/> <path fill-rule="evenodd" clip-rule="evenodd" d="M113.078,424.379c0,7.302,0,13.745,0,20.47c91.627,0,183.004,0,274.716,0  c0-6.708,0-13.27,0-20.47c-2.215,0-4.274,0-6.335,0c-41.012,0-82.023,0.003-123.035-0.009c-1.948-0.001-3.923,0.038-5.841-0.244  c-3.9-0.575-6.136-2.95-6.251-6.909c-0.121-4.198,2.132-6.704,6.22-7.453c1.426-0.262,2.914-0.248,4.374-0.249  c43.453-0.012,86.905-0.022,130.358,0c11.271,0.005,15.538,4.364,15.549,15.71c0.006,6.836,0.031,13.671-0.008,20.506  c-0.054,9.288-4.82,14.087-14.177,14.094c-38.408,0.034-76.816,0.015-115.225,0.015c-53.218,0-106.435,0.003-159.652-0.002  c-11.323-0.001-15.637-4.298-15.649-15.555c-0.008-6.836-0.029-13.671,0.006-20.506c0.048-9.421,4.591-14.193,14.042-14.231  c23.923-0.096,47.846-0.019,71.77-0.001c9.276,0.007,18.552,0.037,27.828,0.063c7.441,0.02,10.872,2.421,10.773,7.526  c-0.095,4.914-3.446,7.237-10.58,7.24c-30.922,0.011-61.844,0.004-92.765,0.005C117.274,424.379,115.351,424.379,113.078,424.379z"  /> <path fill-rule="evenodd" clip-rule="evenodd" d="M244.13,281.428c43.427,0,86.854-0.004,130.28,0.003  c11.678,0.002,15.84,4.168,15.853,15.824c0.008,6.994,0.062,13.988-0.018,20.981c-0.096,8.52-4.723,13.196-13.239,13.54  c-0.649,0.026-1.301,0.011-1.952,0.011c-87.179,0-174.358,0.001-261.538-0.008c-1.461,0-2.939,0.013-4.379-0.192  c-6.601-0.943-10.833-5.526-10.962-12.227c-0.159-8.129-0.104-16.264-0.037-24.396c0.071-8.452,4.824-13.33,13.272-13.503  c6.991-0.143,13.987-0.033,20.981-0.034C169.638,281.428,206.884,281.428,244.13,281.428z M375.337,296.621  c-87.731,0-174.983,0-262.271,0c0,6.855,0,13.309,0,20.037c87.515,0,174.792,0,262.271,0  C375.337,309.893,375.337,303.426,375.337,296.621z"/> <path fill-rule="evenodd" clip-rule="evenodd" d="M209.962,396.307c-32.063,0-64.125,0.008-96.187-0.005  c-11.301-0.003-15.638-4.343-15.653-15.591c-0.008-6.348-0.007-12.694,0-19.042c0.013-11.354,4.291-15.707,15.519-15.717  c20.507-0.018,41.013-0.005,61.521-0.005c43.455,0,86.909-0.003,130.364,0.001c12.356,0.002,16.347,3.989,16.354,16.313  c0.003,6.348,0.016,12.694-0.003,19.042c-0.033,10.571-4.496,14.991-15.239,14.997C274.412,396.318,242.187,396.307,209.962,396.307  z M306.971,361.102c-64.933,0-129.408,0-193.912,0c0,6.887,0,13.348,0,20.086c64.729,0,129.228,0,193.912,0  C306.971,374.392,306.971,367.918,306.971,361.102z"/> <path fill-rule="evenodd" clip-rule="evenodd" d="M245.117,93.677c32.058-0.017,58.12,25.936,58.167,57.923  c0.047,32.245-26.093,58.419-58.281,58.358c-31.861-0.06-57.992-26.303-57.977-58.228C187.04,119.787,213.151,93.693,245.117,93.677  z M288.565,151.574c-0.094-23.917-19.71-43.288-43.717-43.172c-23.629,0.114-43.07,19.67-43.099,43.357  c-0.03,23.812,19.696,43.514,43.521,43.467C269.141,195.181,288.659,175.5,288.565,151.574z"/>
</svg>
