<?xml version="1.0" encoding="utf-8"?>
<!-- Generator: Adobe Illustrator 16.0.0, SVG Export Plug-In . SVG Version: 6.00 Build 0)  -->
<!DOCTYPE svg PUBLIC "-//W3C//DTD SVG 1.1//EN" "http://www.w3.org/Graphics/SVG/1.1/DTD/svg11.dtd">
<svg version="1.1" id="Layer_1" xmlns="http://www.w3.org/2000/svg" xmlns:xlink="http://www.w3.org/1999/xlink" x="0px" y="0px" width="619.678px" height="578.687px" viewBox="0 0 619.678 578.687" enable-background="new 0 0 619.678 578.687" xml:space="preserve"><path d="M9.985,248.853h55.449c3.279,11.826,8.004,23.203,14.079,33.866l-39.246,39.23c-1.874,1.874-2.928,4.416-2.928,7.07c0,2.655,1.054,5.197,2.928,7.07l42.4,42.412c3.904,3.896,10.229,3.896,14.133,0l39.25-39.253c10.663,6.071,22.028,10.799,33.854,14.075v55.448c0,5.521,4.474,9.995,9.995,9.995h59.97c5.521,0,9.995-4.475,9.995-9.995v-55.448c11.826-3.276,23.191-8.004,33.854-14.075l39.25,39.253c3.967,3.748,10.171,3.748,14.134,0l42.408-42.412c1.874-1.873,2.928-4.415,2.928-7.07c0-2.655-1.054-5.196-2.928-7.07l-39.254-39.23c6.075-10.663,10.799-22.04,14.079-33.866h55.448c5.521,0,9.995-4.474,9.995-9.995v-59.97c0-5.517-4.475-9.995-9.995-9.995h-55.448c-3.28-11.822-8.004-23.199-14.079-33.862l39.246-39.23c1.874-1.874,2.928-4.416,2.928-7.071c0-2.655-1.054-5.196-2.928-7.07l-42.4-42.412c-3.904-3.9-10.229-3.9-14.134,0l-39.25,39.253c-10.663-6.067-22.032-10.795-33.854-14.075V8.974c0-5.517-4.474-9.995-9.995-9.995h-59.97c-5.521,0-9.995,4.478-9.995,9.995v55.453c-11.822,3.279-23.191,8.007-33.854,14.075L96.8,39.248c-3.967-3.749-10.17-3.749-14.133,0L40.259,81.66c-1.874,1.874-2.928,4.416-2.928,7.07c0,2.655,1.054,5.197,2.928,7.071l39.253,39.23c-6.075,10.663-10.799,22.04-14.079,33.862H9.985c-5.521,0-9.995,4.478-9.995,9.995v59.97C-0.01,244.379,4.464,248.853,9.985,248.853z M19.98,188.883h53.274c4.697,0,8.761-3.268,9.765-7.855c3.279-14.969,9.21-29.235,17.511-42.12c2.534-3.951,1.971-9.14-1.351-12.462l-37.719-37.72l28.275-28.278l37.711,37.719c3.322,3.33,8.515,3.893,12.474,1.354c12.888-8.296,27.15-14.227,42.119-17.511c4.584-1.007,7.855-5.072,7.855-9.769V18.969h39.98v53.274c0,4.697,3.272,8.761,7.855,9.769c14.969,3.284,29.231,9.214,42.119,17.511c3.959,2.538,9.152,1.976,12.475-1.354l37.711-37.719l28.268,28.278l-37.712,37.708c-3.33,3.326-3.889,8.519-1.351,12.474c8.301,12.892,14.224,27.154,17.499,42.127c1.007,4.587,5.071,7.859,9.765,7.859h53.285v39.98h-53.285c-4.693,0-8.758,3.268-9.765,7.855c-3.275,14.969-9.202,29.231-17.499,42.107c-2.534,3.955-1.972,9.144,1.351,12.466l37.72,37.711l-28.275,28.287l-37.711-37.724c-3.323-3.327-8.516-3.889-12.475-1.351c-12.88,8.301-27.139,14.231-42.107,17.51c-4.591,1-7.867,5.068-7.867,9.766v53.273h-39.98v-53.273c0-4.697-3.275-8.766-7.867-9.766c-14.969-3.279-29.227-9.209-42.107-17.51c-3.959-2.538-9.152-1.976-12.474,1.351l-37.711,37.724l-28.267-28.279l37.711-37.711c3.33-3.322,3.889-8.515,1.351-12.474c-8.301-12.888-14.231-27.154-17.511-42.127c-1.007-4.588-5.068-7.848-9.765-7.848H19.98V188.883z"/><path d="M209.884,288.833c44.161,0,79.959-35.794,79.959-79.96c0-44.161-35.798-79.959-79.959-79.959c-44.162,0-79.96,35.798-79.96,79.959C129.971,253.011,165.746,288.786,209.884,288.833z M209.884,148.903c33.116,0,59.97,26.854,59.97,59.97c0,33.12-26.854,59.97-59.97,59.97c-33.116,0-59.97-26.85-59.97-59.97C149.949,175.765,176.776,148.938,209.884,148.903z"/><path d="M209.884,318.818c60.719,0,109.945-49.221,109.945-109.945c0-60.719-49.226-109.944-109.945-109.944c-60.72,0-109.945,49.225-109.945,109.944C100.014,269.565,149.192,318.748,209.884,318.818z M209.884,118.918c49.682,0,89.955,40.273,89.955,89.955c0,49.682-40.273,89.955-89.955,89.955c-49.682,0-89.955-40.272-89.955-89.955C119.984,159.219,160.226,118.973,209.884,118.918z"/><path d="M569.703,458.747v-79.96c0-5.516-4.475-9.994-9.995-9.994h-19.99v-79.96c0-5.517-4.475-9.995-9.995-9.995h-89.954c-5.521,0-9.995,4.478-9.995,9.995v79.96h-49.975c-5.521,0-9.995,4.479-9.995,9.994v79.96H49.965c-27.588,0.035-49.94,22.388-49.975,49.975v19.99c0.035,27.592,22.387,49.943,49.975,49.975h519.738c27.587-0.031,49.939-22.383,49.975-49.975v-19.99C619.643,481.135,597.29,458.782,569.703,458.747z M549.713,458.747h-69.965v-69.965h69.965V458.747z M449.763,298.828h69.965v69.965h-69.965V298.828z M389.793,388.782h69.965v69.965h-69.965V388.782z M599.688,528.712c0,16.562-13.427,29.984-29.984,29.984H49.965c-16.558,0-29.985-13.423-29.985-29.984v-19.99c0-16.558,13.427-29.984,29.985-29.984h519.738c16.558,0,29.984,13.427,29.984,29.984V528.712z"/><path d="M309.834,488.732c-16.559,0-29.985,13.427-29.985,29.984c0,16.563,13.427,29.985,29.985,29.985c16.558,0,29.984-13.423,29.984-29.985C339.818,502.159,326.392,488.732,309.834,488.732z M309.834,528.712c-5.521,0-9.995-4.475-9.995-9.995c0-5.517,4.475-9.995,9.995-9.995s9.995,4.479,9.995,9.995C319.829,524.237,315.354,528.712,309.834,528.712z"/><path d="M209.884,488.732c-16.558,0-29.985,13.427-29.985,29.984c0,16.563,13.427,29.985,29.985,29.985s29.985-13.423,29.985-29.985C239.869,502.159,226.442,488.732,209.884,488.732z M209.884,528.712c-5.521,0-9.995-4.475-9.995-9.995c0-5.517,4.474-9.995,9.995-9.995c5.521,0,9.995,4.479,9.995,9.995C219.879,524.237,215.405,528.712,209.884,528.712z"/><path d="M409.783,488.732c-16.558,0-29.984,13.427-29.984,29.984c0,16.563,13.427,29.985,29.984,29.985c16.559,0,29.985-13.423,29.985-29.985C439.769,502.159,426.342,488.732,409.783,488.732z M409.783,528.712c-5.521,0-9.995-4.475-9.995-9.995c0-5.517,4.475-9.995,9.995-9.995s9.995,4.479,9.995,9.995C419.778,524.237,415.304,528.712,409.783,528.712z"/><path d="M109.935,488.732c-16.558,0-29.985,13.427-29.985,29.984c0,16.563,13.427,29.985,29.985,29.985s29.985-13.423,29.985-29.985C139.919,502.159,126.493,488.732,109.935,488.732z M109.935,528.712c-5.521,0-9.995-4.475-9.995-9.995c0-5.517,4.475-9.995,9.995-9.995s9.995,4.479,9.995,9.995C119.929,524.237,115.455,528.712,109.935,528.712z"/><path d="M509.732,488.732c-16.558,0-29.984,13.427-29.984,29.984c0,16.563,13.427,29.985,29.984,29.985c16.559,0,29.985-13.423,29.985-29.985C539.718,502.159,526.291,488.732,509.732,488.732z M509.732,528.712c-5.521,0-9.994-4.475-9.994-9.995c0-5.517,4.474-9.995,9.994-9.995c5.521,0,9.995,4.479,9.995,9.995C519.728,524.237,515.254,528.712,509.732,528.712z"/>
</svg>
