<?xml version="1.0" encoding="utf-8"?>
<!-- Generator: Adobe Illustrator 16.0.0, SVG Export Plug-In . SVG Version: 6.00 Build 0)  -->
<!DOCTYPE svg PUBLIC "-//W3C//DTD SVG 1.1//EN" "http://www.w3.org/Graphics/SVG/1.1/DTD/svg11.dtd">
<svg version="1.1" id="Layer_1" xmlns="http://www.w3.org/2000/svg" xmlns:xlink="http://www.w3.org/1999/xlink" x="0px" y="0px"   width="500px" height="258.737px" viewBox="0 0 500 258.737" enable-background="new 0 0 500 258.737" xml:space="preserve"> <path fill-rule="evenodd" clip-rule="evenodd" d="M175.781,259.714c-5.263-2.888-6.988-7.269-6.941-13.274  c0.233-29.604,0.098-59.211,0.109-88.816c0.009-26.243,12.041-44.575,36.321-54.608c2.646-1.094,2.764-2.595,2.758-4.8  c-0.038-15.128-0.046-30.256-0.014-45.385c0.049-23.461,15.746-39.167,39.184-39.204c18.056-0.028,36.112-0.006,54.169-0.006  c16.693,0,20.735,1.387,33.875,11.805c9.689-10.605,22.381-12.231,35.993-11.906c17.396,0.416,34.81,0.055,52.215,0.114  c22.452,0.075,38.357,15.985,38.449,38.46c0.064,15.291,0.042,30.582-0.016,45.872c-0.01,2.411,0.179,4.032,2.995,5.142  c19.531,7.691,31.325,21.938,35.3,42.603c0.114,0.596,0.524,1.135,0.797,1.7c0,37.394,0,74.786,0,112.305  C392.578,259.714,284.18,259.714,175.781,259.714z M188.832,158.151c0,27.664,0,54.726,0,81.649c97.711,0,195.068,0,292.346,0  c0-9.106,0-17.828,0-26.962c-2.171,0-225.99,0.069-227.61-0.048c-5.645-0.408-9.499-4.424-9.472-9.782  c0.028-5.356,3.916-9.308,9.585-9.665c1.621-0.102,225.411-0.036,227.751-0.036c0-13.3,0.145-26.112-0.033-38.92  c-0.271-19.717-15.78-35.221-35.598-35.249c-74.03-0.106-148.061-0.099-222.091,0.013c-12.408,0.02-22.136,5.7-29.208,15.87  c-0.663,0.953-1.017,2.12-1.706,3.599c11.219,0,50.582-0.126,59.688,0.071c5.702,0.123,9.535,4.239,9.559,9.64  c0.023,5.389-3.806,9.38-9.464,9.778C250.958,158.224,208.683,158.151,188.832,158.151z M325.071,99.471  c0-17.267,0.362-34.141-0.152-50.989c-0.258-8.403-7.851-15.139-16.339-15.228c-21.46-0.226-42.926-0.232-64.385,0.002  c-8.889,0.098-16.335,7.314-16.503,16.158c-0.313,16.413-0.042,32.836,0.017,49.255c0.001,0.24,0.398,0.479,0.685,0.802  C260.344,99.471,292.366,99.471,325.071,99.471z M344.791,99.219c32.813,0,65.065,0,97.527,0c0-16.902,0.272-33.474-0.11-50.029  c-0.203-8.813-7.789-15.868-16.708-15.952c-21.298-0.202-42.6-0.202-63.897,0c-8.922,0.085-16.502,7.143-16.702,15.954  C344.522,65.747,344.791,82.317,344.791,99.219z"/> <path fill-rule="evenodd" clip-rule="evenodd" d="M0.977,118.112c2.861-5.313,7.264-7.064,13.274-6.942  c15.576,0.317,31.163,0.106,47.007,0.106c0-8,0-15.583,0-23.737c-1.667-0.082-3.377-0.234-5.087-0.239  c-9.275-0.028-18.553,0.112-27.824-0.066c-7.644-0.148-11.525-5.08-10.143-12.602c3.995-21.737,8.028-43.468,12.083-65.193  c1.198-6.422,4.576-9.367,11.052-9.388c20.015-0.066,40.03-0.069,60.044,0.003c6.229,0.023,9.717,2.98,10.854,9.051  c4.1,21.884,8.154,43.775,12.166,65.675c1.362,7.437-2.627,12.323-10.327,12.46c-9.109,0.162-18.224,0.046-27.336,0.049  c-1.751,0.001-3.502,0.001-5.468,0.001c0,8.151,0,15.74,0,23.987c1.789,0,3.51,0,5.23,0c14.482,0,28.965-0.027,43.447,0.012  c8.039,0.021,11.633,3.593,11.639,11.637c0.026,41.656-0.055,83.313,0.091,124.97c0.02,5.604-2.431,9.155-6.914,11.819  c-44.596,0-89.193,0-133.789,0C0.977,212.514,0.977,165.313,0.977,118.112z M20.888,195.443c0,15.172,0,29.863,0,44.496  c33.826,0,67.271,0,100.888,0c0-14.935,0-29.625,0-44.496C88.037,195.443,54.592,195.443,20.888,195.443z M121.856,131.156  c-33.976,0-67.537,0-100.949,0c0,15.046,0,29.738,0,44.31c33.846,0,67.291,0,100.949,0  C121.856,160.63,121.856,146.054,121.856,131.156z M103.209,67.474c-3.013-16.203-5.936-31.929-8.836-47.528  c-15.74,0-30.933,0-46.205,0c-2.947,15.957-5.827,31.551-8.778,47.528C60.787,67.474,81.544,67.474,103.209,67.474z"/> <path fill-rule="evenodd" clip-rule="evenodd" d="M224.575,203.171c-0.063,5.371-4.729,9.83-10.074,9.628  c-5.177-0.195-9.441-4.668-9.381-9.839c0.062-5.384,4.709-9.818,10.078-9.619C220.391,193.534,224.635,197.983,224.575,203.171z"/> <path fill-rule="evenodd" clip-rule="evenodd" d="M296.811,158.11c-5.291,0.077-9.651-4.154-9.771-9.483  c-0.122-5.358,3.978-9.765,9.277-9.972c5.378-0.21,10.142,4.356,10.141,9.721C306.457,153.55,302.014,158.034,296.811,158.11z"/> <path fill-rule="evenodd" clip-rule="evenodd" d="M71.396,227.73c-5.387,0.054-9.71-4.066-9.846-9.382  c-0.138-5.418,4.436-10.032,9.864-9.953c5.251,0.077,9.608,4.49,9.604,9.728C81.015,223.436,76.767,227.677,71.396,227.73z"/> <path fill-rule="evenodd" clip-rule="evenodd" d="M81.011,153.107c0.087,5.379-4.44,9.939-9.814,9.887  c-5.184-0.051-9.55-4.389-9.64-9.578c-0.092-5.374,4.433-9.93,9.814-9.878C76.57,143.587,80.927,147.912,81.011,153.107z"/>
</svg>
