<?xml version="1.0" encoding="utf-8"?>
<!-- Generator: Adobe Illustrator 16.0.0, SVG Export Plug-In . SVG Version: 6.00 Build 0)  -->
<!DOCTYPE svg PUBLIC "-//W3C//DTD SVG 1.1//EN" "http://www.w3.org/Graphics/SVG/1.1/DTD/svg11.dtd">
<svg version="1.1" id="Layer_1" xmlns="http://www.w3.org/2000/svg" xmlns:xlink="http://www.w3.org/1999/xlink" x="0px" y="0px"
	 width="480px" height="320px" viewBox="16 96 480 320" enable-background="new 16 96 480 320" xml:space="preserve">
<g id="Bed">
	<path d="M488,240h-32v-48h32c4.418-0.001,7.999-3.584,7.998-8.002c0-0.331-0.021-0.661-0.063-0.99l-8-64
		c-0.5-4.002-3.901-7.007-7.936-7.008h-64c-4.034,0.001-7.436,3.005-7.936,7.008l-8,64c-0.549,4.384,2.562,8.383,6.945,8.931
		c0.329,0.041,0.659,0.062,0.99,0.062h32v48h-32c-4.418,0-8,3.582-8,8v160c0,4.418,3.582,8,8,8h80c4.418,0,8-3.582,8-8V248
		C496,243.582,492.418,240,488,240z M423.064,128h49.871l6,48h-61.871L423.064,128z M480,256v64h-64v-64H480z M416,400v-64h64v64
		H416z"/>
	<path d="M424,280h16v16h-16V280z"/>
	<path d="M424,360h16v16h-16V360z"/>
	<path d="M352,240.8V136c-0.026-22.081-17.92-39.974-40-40H88c-22.081,0.026-39.974,17.919-40,40v104.8
		c-18.611,3.828-31.976,20.199-32,39.2v64c0,13.255,10.745,24,24,24h8v24c0,13.255,10.745,24,24,24h48c13.255,0,24-10.745,24-24v-24
		h112v24c0,13.255,10.745,24,24,24h48c13.255,0,24-10.745,24-24v-24h8c13.255,0,24-10.745,24-24v-64
		C383.976,260.999,370.611,244.627,352,240.8z M88,112h224c13.255,0,24,10.745,24,24v104h-17.472c0.947-2.562,1.445-5.269,1.472-8
		v-32c0-13.255-10.745-24-24-24h-64c-13.255,0-24,10.745-24,24v32c0.026,2.731,0.524,5.438,1.472,8h-18.944
		c0.948-2.562,1.446-5.269,1.472-8v-32c0-13.255-10.745-24-24-24h-64c-13.255,0-24,10.745-24,24v32c0.026,2.731,0.524,5.438,1.472,8
		H64V136C64,122.745,74.745,112,88,112z M224,232v-32c0-4.418,3.582-8,8-8h64c4.418,0,8,3.582,8,8v32c0,4.418-3.582,8-8,8h-64
		C227.582,240,224,236.418,224,232z M96,232v-32c0-4.418,3.582-8,8-8h64c4.418,0,8,3.582,8,8v32c0,4.418-3.582,8-8,8h-64
		C99.582,240,96,236.418,96,232z M56,256h288c13.255,0,24,10.745,24,24v40H32v-40C32,266.745,42.745,256,56,256z M128,392
		c0,4.418-3.582,8-8,8H72c-4.418,0-8-3.582-8-8v-24h64V392z M336,392c0,4.418-3.582,8-8,8h-48c-4.418,0-8-3.582-8-8v-24h64V392z
		 M360,352H40c-4.418,0-8-3.582-8-8v-8h336v8C368,348.418,364.418,352,360,352z"/>
</g>
</svg>
