<?xml version="1.0" encoding="utf-8"?>
<!-- Generator: Adobe Illustrator 16.0.0, SVG Export Plug-In . SVG Version: 6.00 Build 0)  -->
<!DOCTYPE svg PUBLIC "-//W3C//DTD SVG 1.1//EN" "http://www.w3.org/Graphics/SVG/1.1/DTD/svg11.dtd">
<svg version="1.1" id="Layer_1" xmlns="http://www.w3.org/2000/svg" xmlns:xlink="http://www.w3.org/1999/xlink" x="0px" y="0px"   width="500px" height="500px" viewBox="0 0 500 500" enable-background="new 0 0 500 500" xml:space="preserve"> <path fill-rule="evenodd" clip-rule="evenodd" d="M278.92-0.556c69.521,0,139.044,0,208.565,0  c5.791,2.552,10.048,6.638,12.515,12.514c0,108.454,0,216.908,0,325.362c-4.125,9.395-11.254,13.463-21.499,12.579  c-4.477-0.387-9.018-0.064-13.528-0.064c-4.95,0-9.902,0-15.029,0c0,11.036,0.032,21.266-0.006,31.494  c-0.092,25.694-17.882,43.49-43.543,43.585c-5.161,0.021-10.319,0.004-15.109,0.004c-1.729,5.911-3.26,11.134-4.885,16.684  c7.191,0,13.967,0.315,20.703-0.082c7.692-0.454,14.791,0.772,21.308,5.022c4.345,2.832,9.123,3.551,14.325,3.491  c19.086-0.222,38.175-0.089,57.264-0.089c0,5.563,0,11.125,0,16.686c-21.191,0-42.384,0.054-63.575-0.065  c-2.694-0.014-5.88-0.169-7.99-1.55c-9.653-6.323-20.173-7.552-31.321-6.797c-5.878,0.397-11.813,0.232-17.709,0.011  c-3.672-0.138-6.423,0.937-9.366,3.294c-17.038,13.636-36.34,17.563-56.645,9.589c-9.088-3.571-17.841-4.749-27.202-4.491  c-2.429,0.068-4.915-0.319-7.285,0.066c-11.603,1.894-20.68-2.012-27.438-11.521c-3.105-4.371-7.38-4.928-12.525-5.462  c-13.227-1.367-23.918,1.581-32.056,12.856c-1.73,2.396-6.224,3.743-9.52,3.89c-10.748,0.479-21.533,0.072-32.299,0.255  c-2.678,0.047-5.504,0.631-7.983,1.649c-18.165,7.445-37.012,9.646-55.429,2.987c-11.888-4.298-23.56-4.791-35.66-4.721  c-7.816,0.047-15.646,0.268-23.442-0.135c-2.705-0.14-6.249-1.172-7.802-3.095c-3.924-4.857-8.691-5.778-14.276-5.095  c-5.454,0.666-9.583-1.345-13.411-5.29c-1.743-1.795-5.034-2.087-7.623-3.063c0-5.561,0-11.123,0-16.685  c4.896,0.409,10.661-1.779,14.319,2.698c4.138,5.067,9.056,6.43,15.063,5.64c5.305-0.698,9.426,1.222,12.863,5.259  c1.141,1.34,2.953,2.84,4.539,2.936c5.809,0.35,11.649,0.139,17.258,0.139c-5.011-8.032-9.749-15.802-14.735-23.407  c-0.634-0.969-2.544-1.494-3.884-1.535c-5.557-0.167-11.121-0.066-16.683-0.072c-9.62-0.01-12.051-2.406-12.052-11.937  c-0.005-49.357-0.132-98.715,0.055-148.071c0.086-23.096-3.098-15.284,13.262-31.849c2.364-2.394,3.453-4.725,3.44-8.147  c-0.124-34.411-0.072-68.822-0.085-103.233c0-1.682-0.148-3.365-0.254-5.598c-5.603,0-10.882,0-16.173,0c0-5.723,0-10.869,0-16.576  c16.643,0,33.047,0,49.376,0c0.923-8.624,0.923-8.624-3.898-14.298c-5.833-6.866-5.202-16.946,1.442-23.033  c6.463-5.921,16.399-5.826,22.693,0.217c6.518,6.257,7.458,16.886,0.83,22.881c-4.823,4.362-3.866,8.883-3.745,14.282  c2.281,0,4.159,0,6.037,0c24.331,0,48.663-0.001,72.993,0c9.058,0.002,10.177,0.768,13.509,9.096  c14.889,37.204,29.762,74.413,44.738,111.582c0.676,1.678,2.272,4.228,3.485,4.253c14.021,0.301,28.052,0.192,42.57,0.192  c0-2.523,0-4.566,0-6.61c0-65.694,0.146-131.389-0.152-197.082C266.206,10.718,269.505,3.579,278.92-0.556z M232.79,241.38  c-4.611,0-8.605,0.003-12.6-0.001c-8.625-0.007-9.862-0.851-13.098-8.936c-14.888-37.205-29.819-74.396-44.592-111.647  c-1.324-3.34-2.852-4.677-6.652-4.658c-33.713,0.175-67.427,0.102-101.141,0.102c-1.654,0-3.309,0-5.208,0c0,2.659,0,4.555,0,6.452  c0,31.802,0.145,63.605-0.049,95.406c-0.139,22.741,2.96,15.178-13.068,31.421c-2.488,2.522-3.661,4.954-3.653,8.583  c0.125,48.138,0.084,96.275,0.084,144.414c0,1.842,0,3.685,0,5.45c3.627,0,6.529,0,9.475,0  c-10.042-53.687,31.479-98.751,79.77-99.797c23.562-0.509,44.106,7.268,60.836,23.851c21.126,20.943,28.307,46.633,23.803,75.84  c8.927,0,17.5,0,26.093,0C232.79,352.293,232.79,297.099,232.79,241.38z M283.456,16.366c0,105.769,0,211.131,0,316.367  c66.8,0,133.234,0,199.587,0c0-105.652,0-210.892,0-316.367C416.461,16.366,350.146,16.366,283.456,16.366z M57.853,391.374  c-0.103,36.723,29.673,66.714,66.424,66.907c36.596,0.191,66.945-29.837,67.038-66.329c0.094-36.869-29.643-67.032-66.193-67.143  C87.987,324.698,57.958,354.415,57.853,391.374z M250.078,241.635c0,55.685,0,110.99,0,166.315c8.635,0,16.911,0,25.123,0  c7.144-34.906,33.473-48.323,54.29-49.646c12.884-0.818,24.818,2.385,35.588,9.484c14.52,9.573,22.792,23.344,25.938,40.371  c6.669,0,12.926,0.309,19.143-0.068c11.59-0.703,21.809-9.76,22.677-21.454c0.895-12.04,0.198-24.199,0.198-36.802  c-2.311,0-4.353,0-6.396,0c-47.078,0-94.157,0.009-141.235-0.01c-12.364-0.003-18.98-6.62-18.989-18.966  c-0.021-27.797-0.007-55.591-0.007-83.387c0-1.863,0-3.727,0-5.837C260.763,241.635,255.617,241.635,250.078,241.635z   M333.152,458.278c23.069-0.055,41.704-18.766,41.693-41.864c-0.01-22.967-18.916-41.678-41.983-41.548  c-22.804,0.129-41.379,18.779-41.423,41.589C291.396,439.514,310.167,458.334,333.152,458.278z M185.818,449.683  c6.393,1.2,12.199,0.34,16.523-5.769c1.881-2.658,4.304-5.145,6.988-6.959c2.573-1.737,5.743-3.307,8.756-3.531  c6.913-0.515,13.955,0.443,20.823-0.306c10.264-1.121,18.533,1.681,24.328,10.259c5.473,8.103,13.219,6.837,20.679,6.34  c-3.199-8.303-6.281-16.298-9.556-24.795c-23.211,0-46.994-0.033-70.776,0.091c-1.205,0.007-2.844,1.065-3.532,2.121  C195.241,434.505,190.629,442.007,185.818,449.683z"/> <path fill-rule="evenodd" clip-rule="evenodd" d="M-0.558,483.315c166.852,0,333.704,0,500.558,0c0,5.557,0,11.112,0,16.674  c-166.854,0.004-333.706,0.004-500.558,0C-0.558,494.428-0.558,488.872-0.558,483.315z"/> <path fill-rule="evenodd" clip-rule="evenodd" d="M82.869-0.556c7.289,2.116,14.755,3.767,21.819,6.468  c8.624,3.298,16.117,8.595,22.603,15.419c-4.001,3.899-7.699,7.503-11.749,11.451c-11.376-10.565-25.046-16.606-41.009-16.587  c-15.824,0.02-29.421,5.846-41.147,16.832c-3.754-3.973-7.392-7.821-11.349-12.008C33.077,9.941,46.612,3.242,62.229,0.478  c1.337-0.237,2.638-0.684,3.955-1.034C71.745-0.556,77.307-0.556,82.869-0.556z"/> <path fill-rule="evenodd" clip-rule="evenodd" d="M103.513,45.071c-3.835,3.658-7.674,7.319-11.546,11.012  c-13.659-8.952-21.799-8.949-35.132,0.295c-3.512-3.908-7.058-7.856-10.661-11.865C59.078,28.923,89.148,28.848,103.513,45.071z"/> <path fill-rule="evenodd" clip-rule="evenodd" d="M124.45,241.378c-18.581,0-37.16,0.018-55.741-0.007  c-8.105-0.011-10.857-2.804-10.862-11.013c-0.017-31.604-0.017-63.208,0-94.812c0.004-8.19,2.751-10.949,10.909-10.956  c23.442-0.021,46.884,0.079,70.327-0.071c5.448-0.036,8.631,2.136,10.702,7.152c13.231,32.045,26.648,64.013,39.955,96.027  c3.501,8.424,0.039,13.644-9.029,13.666C161.958,241.412,143.205,241.378,124.45,241.378z M135.813,141.587  c-20.447,0-40.679,0-60.931,0c0,27.815,0,55.311,0,82.831c31.855,0,63.354,0,95.457,0  C158.698,196.49,147.244,169.01,135.813,141.587z"/> <path fill-rule="evenodd" clip-rule="evenodd" d="M291.434,162.123c0-41.886-0.002-83.771,0.002-125.657  c0.002-9.589,2.403-11.992,11.984-11.993c53.184-0.004,106.365-0.004,159.548,0c9.579,0,12.003,2.417,12.003,11.987  c0.002,83.771,0.002,167.542,0,251.313c0,9.568-2.435,12.002-11.997,12.003c-53.182,0.005-106.364,0.005-159.546,0  c-9.572-0.001-11.99-2.42-11.992-11.996C291.432,245.894,291.434,204.008,291.434,162.123z M308.493,41.384  c0,80.774,0,161.107,0,241.283c50.127,0,99.879,0,149.512,0c0-80.636,0-160.847,0-241.283  C408.096,41.384,358.468,41.384,308.493,41.384z"/> <path fill-rule="evenodd" clip-rule="evenodd" d="M375.195,308.226c5.479,0,10.488,0,15.924,0c0,5.29,0,10.551,0,16.2  c-5.069,0-10.325,0-15.924,0C375.195,319.21,375.195,313.957,375.195,308.226z"/> <path fill-rule="evenodd" clip-rule="evenodd" d="M124.797,418.618c-14.932,0.111-27.261-12.085-27.294-26.999  c-0.032-14.946,12.133-27.125,27.139-27.165c14.661-0.038,26.852,12.016,27.037,26.74  C151.866,406.111,139.717,418.505,124.797,418.618z M124.558,401.94c5.759-0.016,10.542-4.911,10.415-10.66  c-0.124-5.548-4.825-10.135-10.389-10.137c-5.762-0.005-10.543,4.889-10.403,10.646C114.318,397.357,119.016,401.954,124.558,401.94  z"/> <path fill-rule="evenodd" clip-rule="evenodd" d="M358.152,416.385c0.015,13.912-11.258,25.222-25.092,25.175  c-13.609-0.044-24.836-11.232-24.908-24.826c-0.075-13.843,11.197-25.144,25.1-25.169  C346.82,391.542,358.137,402.821,358.152,416.385z M341.448,416.298c-0.141-4.468-3.973-8.119-8.445-8.044  c-4.471,0.075-8.174,3.847-8.168,8.319c0.008,4.691,4.042,8.545,8.695,8.306C337.999,424.646,341.591,420.756,341.448,416.298z"/> <path fill-rule="evenodd" clip-rule="evenodd" d="M325.04,232.672c0-5.495,0-10.637,0-16.048c38.723,0,77.217,0,116.135,0  c0,5.135,0,10.406,0,16.048C402.705,232.672,364.09,232.672,325.04,232.672z"/> <path fill-rule="evenodd" clip-rule="evenodd" d="M435.903,79.938c-3.906,3.837-7.595,7.46-11.57,11.367  c-11.53-10.746-25.212-16.733-41.166-16.709c-15.801,0.023-29.383,5.845-41.107,16.836c-3.732-3.983-7.35-7.843-10.986-11.724  C355.152,52.414,406.212,48.902,435.903,79.938z"/> <path fill-rule="evenodd" clip-rule="evenodd" d="M412.439,103.473c-0.746,0.848-1.295,1.497-1.869,2.122  c-2.93,3.187-5.865,6.366-8.972,9.735c-12.269-9.686-24.146-10.003-36.055-0.462c-3.833-3.882-7.559-7.659-11.284-11.434  C368.7,87.327,396.188,87.168,412.439,103.473z"/> <path fill-rule="evenodd" clip-rule="evenodd" d="M399.866,132.961c-0.021,9.071-7.51,16.583-16.577,16.631  c-9.26,0.048-16.914-7.709-16.754-16.982c0.158-9.097,7.714-16.442,16.83-16.356C392.427,116.34,399.888,123.895,399.866,132.961z"  /> <path fill-rule="evenodd" clip-rule="evenodd" d="M325.059,266.063c0-5.56,0-10.7,0-16.086c16.5,0,32.747,0,49.397,0  c0,5.203,0,10.469,0,16.086C358.169,266.063,341.799,266.063,325.059,266.063z"/> <path fill-rule="evenodd" clip-rule="evenodd" d="M366.624,199.339c0-5.489,0-10.504,0-15.938c13.651,0,27.244,0,41.224,0  c0,5.08,0,10.343,0,15.938C394.284,199.339,380.691,199.339,366.624,199.339z"/> <path fill-rule="evenodd" clip-rule="evenodd" d="M325.111,183.239c8.1,0,16.01,0,24.322,0c0,5.202,0,10.463,0,16.079  c-7.943,0-15.976,0-24.322,0C325.111,194.011,325.111,188.756,325.111,183.239z"/>
</svg>
